<?xml version="1.0" encoding="UTF-8" standalone="no"?>
<!DOCTYPE svg PUBLIC "-//W3C//DTD SVG 1.1//EN"
 "http://www.w3.org/Graphics/SVG/1.1/DTD/svg11.dtd">
<!-- Generated by graphviz version 2.40.1 (20161225.0304)
 -->
<!-- Title: twoDegreesRelationshipsDiagram Pages: 1 -->
<svg width="563pt" height="267pt"
 viewBox="0.00 0.00 563.00 266.70" xmlns="http://www.w3.org/2000/svg" xmlns:xlink="http://www.w3.org/1999/xlink">
<g id="graph0" class="graph" transform="scale(1 1) rotate(0) translate(4 262.7)">
<title>twoDegreesRelationshipsDiagram</title>
<polygon fill="#ffffff" stroke="transparent" points="-4,4 -4,-262.7 559,-262.7 559,4 -4,4"/>
<text text-anchor="middle" x="72.4936" y="-7.3" font-family="Helvetica,sans-Serif" font-size="11.00" fill="#000000">Generated by SchemaSpy</text>
<!-- bestellung -->
<g id="node1" class="node">
<title>bestellung</title>
<g id="a_node1"><a xlink:href="../../tables/bestellung.html" xlink:title="bestellung" target="_top">
<polygon fill="#ffffff" stroke="transparent" points="137,-120.7 137,-254.7 332,-254.7 332,-120.7 137,-120.7"/>
<polygon fill="#f5f5f5" stroke="transparent" points="139.5,-229.7 139.5,-252.7 330.5,-252.7 330.5,-229.7 139.5,-229.7"/>
<polygon fill="none" stroke="#000000" points="139.5,-229.7 139.5,-252.7 330.5,-252.7 330.5,-229.7 139.5,-229.7"/>
<text text-anchor="start" x="144.5" y="-238.3" font-family="Helvetica,sans-Serif" font-weight="bold" font-size="11.00" fill="#000000">bestellung</text>
<text text-anchor="start" x="295.5437" y="-237.8" font-family="Helvetica,sans-Serif" font-size="11.00" fill="#000000">[table]</text>
<polygon fill="none" stroke="#000000" points="139.5,-207.7 139.5,-229.7 246.5,-229.7 246.5,-207.7 139.5,-207.7"/>
<image xlink:href="../../images/primaryKeys.png" width="11px" height="12px" preserveAspectRatio="xMinYMin meet" x="144.5" y="-224.7"/>
<text text-anchor="start" x="159.5" y="-214.8" font-family="Helvetica,sans-Serif" font-size="11.00" fill="#000000">id</text>
<polygon fill="none" stroke="#000000" points="246.5,-207.7 246.5,-229.7 330.5,-229.7 330.5,-207.7 246.5,-207.7"/>
<text text-anchor="start" x="249.5" y="-215.4" font-family="Helvetica,sans-Serif" font-size="11.00" fill="#000000">bigserial[19]</text>
<polygon fill="none" stroke="#000000" points="139.5,-185.7 139.5,-207.7 246.5,-207.7 246.5,-185.7 139.5,-185.7"/>
<text text-anchor="start" x="159.5" y="-192.8" font-family="Helvetica,sans-Serif" font-size="11.00" fill="#000000">bestelldatum</text>
<polygon fill="none" stroke="#000000" points="246.5,-185.7 246.5,-207.7 330.5,-207.7 330.5,-185.7 246.5,-185.7"/>
<text text-anchor="start" x="249.3807" y="-193.4" font-family="Helvetica,sans-Serif" font-size="11.00" fill="#000000">timestamp[29,6]</text>
<polygon fill="none" stroke="#000000" points="139.5,-163.7 139.5,-185.7 246.5,-185.7 246.5,-163.7 139.5,-163.7"/>
<text text-anchor="start" x="159.5" y="-170.8" font-family="Helvetica,sans-Serif" font-size="11.00" fill="#000000">status</text>
<polygon fill="none" stroke="#000000" points="246.5,-163.7 246.5,-185.7 330.5,-185.7 330.5,-163.7 246.5,-163.7"/>
<text text-anchor="start" x="249.5" y="-171.4" font-family="Helvetica,sans-Serif" font-size="11.00" fill="#000000">varchar[255]</text>
<polygon fill="none" stroke="#000000" points="139.5,-141.7 139.5,-163.7 246.5,-163.7 246.5,-141.7 139.5,-141.7"/>
<image xlink:href="../../images/foreignKeys.png" width="11px" height="12px" preserveAspectRatio="xMinYMin meet" x="144.5" y="-158.7"/>
<text text-anchor="start" x="159.5" y="-148.8" font-family="Helvetica,sans-Serif" font-size="11.00" fill="#000000">kunde_id</text>
<polygon fill="none" stroke="#000000" points="246.5,-141.7 246.5,-163.7 330.5,-163.7 330.5,-141.7 246.5,-141.7"/>
<text text-anchor="start" x="249.5" y="-149.4" font-family="Helvetica,sans-Serif" font-size="11.00" fill="#000000">int8[19]</text>
<polygon fill="#ffffff" stroke="transparent" points="139.5,-122.7 139.5,-141.7 330.5,-141.7 330.5,-122.7 139.5,-122.7"/>
<polygon fill="none" stroke="#000000" points="139.5,-122.7 139.5,-141.7 330.5,-141.7 330.5,-122.7 139.5,-122.7"/>
<polygon fill="#ffffff" stroke="transparent" points="140.5,-123.7 140.5,-140.7 206.5,-140.7 206.5,-123.7 140.5,-123.7"/>
<text text-anchor="start" x="142.5" y="-128.8" font-family="Helvetica,sans-Serif" font-size="11.00" fill="#000000">&lt; 1</text>
<polygon fill="#ffffff" stroke="transparent" points="206.5,-123.7 206.5,-140.7 263.5,-140.7 263.5,-123.7 206.5,-123.7"/>
<text text-anchor="start" x="231.9431" y="-128.8" font-family="Helvetica,sans-Serif" font-size="11.00" fill="#000000"> &#160;</text>
<polygon fill="#ffffff" stroke="transparent" points="263.5,-123.7 263.5,-140.7 329.5,-140.7 329.5,-123.7 263.5,-123.7"/>
<text text-anchor="start" x="311.9053" y="-128.8" font-family="Helvetica,sans-Serif" font-size="11.00" fill="#000000">1 &gt;</text>
<polygon fill="#000000" stroke="#000000" points="206.5,-123.7 206.5,-140.7 206.5,-140.7 206.5,-123.7 206.5,-123.7"/>
<polygon fill="#000000" stroke="#000000" points="263.5,-123.7 263.5,-140.7 263.5,-140.7 263.5,-123.7 263.5,-123.7"/>
<polygon fill="none" stroke="#000000" stroke-width="2" points="138,-121.7 138,-253.7 331,-253.7 331,-121.7 138,-121.7"/>
</a>
</g>
</g>
<!-- kunde -->
<g id="node2" class="node">
<title>kunde</title>
<g id="a_node2"><a xlink:href="../../tables/kunde.html" xlink:title="kunde" target="_top">
<polygon fill="#ffffff" stroke="transparent" points="8,-82.2 8,-187.2 88,-187.2 88,-82.2 8,-82.2"/>
<polygon fill="#f5f5f5" stroke="transparent" points="8,-163.7 8,-186.7 88,-186.7 88,-163.7 8,-163.7"/>
<polygon fill="none" stroke="#000000" points="8,-163.7 8,-186.7 88,-186.7 88,-163.7 8,-163.7"/>
<text text-anchor="start" x="13" y="-172.3" font-family="Helvetica,sans-Serif" font-weight="bold" font-size="11.00" fill="#000000">kunde</text>
<text text-anchor="start" x="53.5219" y="-171.8" font-family="Helvetica,sans-Serif" font-size="11.00" fill="#000000">[table]</text>
<polygon fill="none" stroke="#000000" points="8,-141.7 8,-163.7 88,-163.7 88,-141.7 8,-141.7"/>
<image xlink:href="../../images/primaryKeys.png" width="11px" height="12px" preserveAspectRatio="xMinYMin meet" x="13" y="-158.7"/>
<text text-anchor="start" x="33" y="-148.8" font-family="Helvetica,sans-Serif" font-size="11.00" fill="#000000">id</text>
<polygon fill="#ffffff" stroke="transparent" points="8,-119.7 8,-141.7 88,-141.7 88,-119.7 8,-119.7"/>
<polygon fill="none" stroke="#000000" points="8,-119.7 8,-141.7 88,-141.7 88,-119.7 8,-119.7"/>
<text text-anchor="start" x="33" y="-126.8" font-family="Helvetica,sans-Serif" font-size="11.00" fill="#000000">email</text>
<polygon fill="none" stroke="#000000" points="8,-100.7 8,-119.7 88,-119.7 88,-100.7 8,-100.7"/>
<text text-anchor="start" x="11" y="-106.8" font-family="Helvetica,sans-Serif" font-size="11.00" fill="#000000">...</text>
<polygon fill="#ffffff" stroke="transparent" points="8,-81.7 8,-100.7 88,-100.7 88,-81.7 8,-81.7"/>
<polygon fill="none" stroke="#000000" points="8,-81.7 8,-100.7 88,-100.7 88,-81.7 8,-81.7"/>
<polygon fill="#ffffff" stroke="transparent" points="9,-82.7 9,-99.7 32,-99.7 32,-82.7 9,-82.7"/>
<text text-anchor="start" x="11" y="-87.8" font-family="Helvetica,sans-Serif" font-size="11.00" fill="#000000"> &#160;</text>
<polygon fill="#ffffff" stroke="transparent" points="32,-82.7 32,-99.7 55,-99.7 55,-82.7 32,-82.7"/>
<text text-anchor="start" x="40.4431" y="-87.8" font-family="Helvetica,sans-Serif" font-size="11.00" fill="#000000"> &#160;</text>
<polygon fill="#ffffff" stroke="transparent" points="55,-82.7 55,-99.7 87,-99.7 87,-82.7 55,-82.7"/>
<text text-anchor="start" x="69.4053" y="-87.8" font-family="Helvetica,sans-Serif" font-size="11.00" fill="#000000">1 &gt;</text>
<polygon fill="#000000" stroke="#000000" points="32,-82.7 32,-99.7 32,-99.7 32,-82.7 32,-82.7"/>
<polygon fill="#000000" stroke="#000000" points="55,-82.7 55,-99.7 55,-99.7 55,-82.7 55,-82.7"/>
</a>
</g>
</g>
<!-- bestellung&#45;&gt;kunde -->
<g id="edge1" class="edge">
<title>bestellung:w&#45;&gt;kunde:e</title>
<path fill="none" stroke="#000000" d="M125.0156,-152.7C112.6771,-152.7 105.1667,-152.7 88,-152.7"/>
<polygon fill="#000000" stroke="#000000" points="131.5,-152.7001 139.5,-156.3 135.5,-152.7 139.5,-152.7 139.5,-152.7 139.5,-152.7 135.5,-152.7 139.5,-149.1 131.5,-152.7001 131.5,-152.7001"/>
<ellipse fill="none" stroke="#000000" cx="128.3" cy="-152.7001" rx="3.2" ry="3.2"/>
</g>
<!-- bestellung_position -->
<g id="node3" class="node">
<title>bestellung_position</title>
<g id="a_node3"><a xlink:href="../../tables/bestellung_position.html" xlink:title="bestellung_position" target="_top">
<polygon fill="#ffffff" stroke="transparent" points="381,-82.2 381,-209.2 547,-209.2 547,-82.2 381,-82.2"/>
<polygon fill="#f5f5f5" stroke="transparent" points="381,-185.7 381,-208.7 547,-208.7 547,-185.7 381,-185.7"/>
<polygon fill="none" stroke="#000000" points="381,-185.7 381,-208.7 547,-208.7 547,-185.7 381,-185.7"/>
<text text-anchor="start" x="386" y="-194.3" font-family="Helvetica,sans-Serif" font-weight="bold" font-size="11.00" fill="#000000">bestellung_position</text>
<text text-anchor="start" x="512.5219" y="-193.8" font-family="Helvetica,sans-Serif" font-size="11.00" fill="#000000">[table]</text>
<polygon fill="none" stroke="#000000" points="381,-163.7 381,-185.7 547,-185.7 547,-163.7 381,-163.7"/>
<image xlink:href="../../images/primaryKeys.png" width="11px" height="12px" preserveAspectRatio="xMinYMin meet" x="386" y="-180.7"/>
<text text-anchor="start" x="410" y="-170.8" font-family="Helvetica,sans-Serif" font-size="11.00" fill="#000000">id</text>
<polygon fill="none" stroke="#000000" points="381,-141.7 381,-163.7 547,-163.7 547,-141.7 381,-141.7"/>
<image xlink:href="../../images/foreignKeys.png" width="11px" height="12px" preserveAspectRatio="xMinYMin meet" x="386" y="-158.7"/>
<text text-anchor="start" x="410" y="-148.8" font-family="Helvetica,sans-Serif" font-size="11.00" fill="#000000">bestellung_id</text>
<polygon fill="none" stroke="#000000" points="381,-119.7 381,-141.7 547,-141.7 547,-119.7 381,-119.7"/>
<image xlink:href="../../images/foreignKeys.png" width="11px" height="12px" preserveAspectRatio="xMinYMin meet" x="386" y="-136.7"/>
<text text-anchor="start" x="410" y="-126.8" font-family="Helvetica,sans-Serif" font-size="11.00" fill="#000000">produkt_id</text>
<polygon fill="none" stroke="#000000" points="381,-100.7 381,-119.7 547,-119.7 547,-100.7 381,-100.7"/>
<text text-anchor="start" x="384" y="-106.8" font-family="Helvetica,sans-Serif" font-size="11.00" fill="#000000">...</text>
<polygon fill="#ffffff" stroke="transparent" points="381,-81.7 381,-100.7 547,-100.7 547,-81.7 381,-81.7"/>
<polygon fill="none" stroke="#000000" points="381,-81.7 381,-100.7 547,-100.7 547,-81.7 381,-81.7"/>
<polygon fill="#ffffff" stroke="transparent" points="382,-82.7 382,-99.7 443,-99.7 443,-82.7 382,-82.7"/>
<text text-anchor="start" x="384" y="-87.8" font-family="Helvetica,sans-Serif" font-size="11.00" fill="#000000">&lt; 2</text>
<polygon fill="#ffffff" stroke="transparent" points="443,-82.7 443,-99.7 495,-99.7 495,-82.7 443,-82.7"/>
<text text-anchor="start" x="465.9431" y="-87.8" font-family="Helvetica,sans-Serif" font-size="11.00" fill="#000000"> &#160;</text>
<polygon fill="#ffffff" stroke="transparent" points="495,-82.7 495,-99.7 546,-99.7 546,-82.7 495,-82.7"/>
<text text-anchor="start" x="537.8862" y="-87.8" font-family="Helvetica,sans-Serif" font-size="11.00" fill="#000000"> &#160;</text>
<polygon fill="#000000" stroke="#000000" points="443,-82.7 443,-99.7 443,-99.7 443,-82.7 443,-82.7"/>
<polygon fill="#000000" stroke="#000000" points="495,-82.7 495,-99.7 495,-99.7 495,-82.7 495,-82.7"/>
</a>
</g>
</g>
<!-- bestellung_position&#45;&gt;bestellung -->
<g id="edge2" class="edge">
<title>bestellung_position:w&#45;&gt;bestellung:e</title>
<path fill="none" stroke="#000000" d="M367.158,-157.4466C350.1101,-172.5798 361.3754,-218.7 330.5,-218.7"/>
<polygon fill="#000000" stroke="#000000" points="373.4326,-155.295 382.1677,-156.1054 377.2163,-153.9975 381,-152.7 381,-152.7 381,-152.7 377.2163,-153.9975 379.8323,-149.2946 373.4326,-155.295 373.4326,-155.295"/>
<ellipse fill="none" stroke="#000000" cx="370.4056" cy="-156.333" rx="3.2" ry="3.2"/>
</g>
<!-- produkt -->
<g id="node4" class="node">
<title>produkt</title>
<g id="a_node4"><a xlink:href="../../tables/produkt.html" xlink:title="produkt" target="_top">
<polygon fill="#ffffff" stroke="transparent" points="189,-38.2 189,-99.2 280,-99.2 280,-38.2 189,-38.2"/>
<polygon fill="#f5f5f5" stroke="transparent" points="189.5,-75.7 189.5,-98.7 280.5,-98.7 280.5,-75.7 189.5,-75.7"/>
<polygon fill="none" stroke="#000000" points="189.5,-75.7 189.5,-98.7 280.5,-98.7 280.5,-75.7 189.5,-75.7"/>
<text text-anchor="start" x="194.5" y="-84.3" font-family="Helvetica,sans-Serif" font-weight="bold" font-size="11.00" fill="#000000">produkt</text>
<text text-anchor="start" x="246.0219" y="-83.8" font-family="Helvetica,sans-Serif" font-size="11.00" fill="#000000">[table]</text>
<polygon fill="none" stroke="#000000" points="189.5,-56.7 189.5,-75.7 280.5,-75.7 280.5,-56.7 189.5,-56.7"/>
<text text-anchor="start" x="192.5" y="-62.8" font-family="Helvetica,sans-Serif" font-size="11.00" fill="#000000">...</text>
<polygon fill="#ffffff" stroke="transparent" points="189.5,-37.7 189.5,-56.7 280.5,-56.7 280.5,-37.7 189.5,-37.7"/>
<polygon fill="none" stroke="#000000" points="189.5,-37.7 189.5,-56.7 280.5,-56.7 280.5,-37.7 189.5,-37.7"/>
<polygon fill="#ffffff" stroke="transparent" points="190.5,-38.7 190.5,-55.7 217.5,-55.7 217.5,-38.7 190.5,-38.7"/>
<text text-anchor="start" x="192.5" y="-43.8" font-family="Helvetica,sans-Serif" font-size="11.00" fill="#000000"> &#160;</text>
<polygon fill="#ffffff" stroke="transparent" points="217.5,-38.7 217.5,-55.7 244.5,-55.7 244.5,-38.7 217.5,-38.7"/>
<text text-anchor="start" x="227.9431" y="-43.8" font-family="Helvetica,sans-Serif" font-size="11.00" fill="#000000"> &#160;</text>
<polygon fill="#ffffff" stroke="transparent" points="244.5,-38.7 244.5,-55.7 279.5,-55.7 279.5,-38.7 244.5,-38.7"/>
<text text-anchor="start" x="261.9053" y="-43.8" font-family="Helvetica,sans-Serif" font-size="11.00" fill="#000000">1 &gt;</text>
<polygon fill="#000000" stroke="#000000" points="217.5,-38.7 217.5,-55.7 217.5,-55.7 217.5,-38.7 217.5,-38.7"/>
<polygon fill="#000000" stroke="#000000" points="244.5,-38.7 244.5,-55.7 244.5,-55.7 244.5,-38.7 244.5,-38.7"/>
</a>
</g>
</g>
<!-- bestellung_position&#45;&gt;produkt -->
<g id="edge3" class="edge">
<title>bestellung_position:w&#45;&gt;produkt:e</title>
<path fill="none" stroke="#000000" d="M366.4968,-128.8248C328.3921,-118.1673 328.2921,-65.7 280.5,-65.7"/>
<polygon fill="#000000" stroke="#000000" points="373.066,-129.6741 380.5384,-134.2703 377.033,-130.1871 381,-130.7 381,-130.7 381,-130.7 377.033,-130.1871 381.4616,-127.1297 373.066,-129.6741 373.066,-129.6741"/>
<ellipse fill="none" stroke="#000000" cx="369.8925" cy="-129.2638" rx="3.2" ry="3.2"/>
</g>
</g>
</svg>
