<?xml version="1.0" encoding="UTF-8" standalone="no"?>
<!DOCTYPE svg PUBLIC "-//W3C//DTD SVG 1.1//EN"
 "http://www.w3.org/Graphics/SVG/1.1/DTD/svg11.dtd">
<!-- Generated by graphviz version 2.40.1 (20161225.0304)
 -->
<!-- Title: twoDegreesRelationshipsDiagram Pages: 1 -->
<svg width="563pt" height="327pt"
 viewBox="0.00 0.00 563.00 327.20" xmlns="http://www.w3.org/2000/svg" xmlns:xlink="http://www.w3.org/1999/xlink">
<g id="graph0" class="graph" transform="scale(1 1) rotate(0) translate(4 323.2)">
<title>twoDegreesRelationshipsDiagram</title>
<polygon fill="#ffffff" stroke="transparent" points="-4,4 -4,-323.2 559,-323.2 559,4 -4,4"/>
<text text-anchor="middle" x="72.4936" y="-7.3" font-family="Helvetica,sans-Serif" font-size="11.00" fill="#000000">Generated by SchemaSpy</text>
<!-- bestellung -->
<g id="node1" class="node">
<title>bestellung</title>
<g id="a_node1"><a xlink:href="../../tables/bestellung.html" xlink:title="bestellung" target="_top">
<polygon fill="#ffffff" stroke="transparent" points="137,-138.7 137,-272.7 332,-272.7 332,-138.7 137,-138.7"/>
<polygon fill="#f5f5f5" stroke="transparent" points="139.5,-247.7 139.5,-270.7 330.5,-270.7 330.5,-247.7 139.5,-247.7"/>
<polygon fill="none" stroke="#000000" points="139.5,-247.7 139.5,-270.7 330.5,-270.7 330.5,-247.7 139.5,-247.7"/>
<text text-anchor="start" x="144.5" y="-256.3" font-family="Helvetica,sans-Serif" font-weight="bold" font-size="11.00" fill="#000000">bestellung</text>
<text text-anchor="start" x="295.5437" y="-255.8" font-family="Helvetica,sans-Serif" font-size="11.00" fill="#000000">[table]</text>
<polygon fill="none" stroke="#000000" points="139.5,-225.7 139.5,-247.7 246.5,-247.7 246.5,-225.7 139.5,-225.7"/>
<image xlink:href="../../images/primaryKeys.png" width="11px" height="12px" preserveAspectRatio="xMinYMin meet" x="144.5" y="-242.7"/>
<text text-anchor="start" x="159.5" y="-232.8" font-family="Helvetica,sans-Serif" font-size="11.00" fill="#000000">id</text>
<polygon fill="none" stroke="#000000" points="246.5,-225.7 246.5,-247.7 330.5,-247.7 330.5,-225.7 246.5,-225.7"/>
<text text-anchor="start" x="249.5" y="-233.4" font-family="Helvetica,sans-Serif" font-size="11.00" fill="#000000">bigserial[19]</text>
<polygon fill="none" stroke="#000000" points="139.5,-203.7 139.5,-225.7 246.5,-225.7 246.5,-203.7 139.5,-203.7"/>
<text text-anchor="start" x="159.5" y="-210.8" font-family="Helvetica,sans-Serif" font-size="11.00" fill="#000000">bestelldatum</text>
<polygon fill="none" stroke="#000000" points="246.5,-203.7 246.5,-225.7 330.5,-225.7 330.5,-203.7 246.5,-203.7"/>
<text text-anchor="start" x="249.3807" y="-211.4" font-family="Helvetica,sans-Serif" font-size="11.00" fill="#000000">timestamp[29,6]</text>
<polygon fill="none" stroke="#000000" points="139.5,-181.7 139.5,-203.7 246.5,-203.7 246.5,-181.7 139.5,-181.7"/>
<text text-anchor="start" x="159.5" y="-188.8" font-family="Helvetica,sans-Serif" font-size="11.00" fill="#000000">status</text>
<polygon fill="none" stroke="#000000" points="246.5,-181.7 246.5,-203.7 330.5,-203.7 330.5,-181.7 246.5,-181.7"/>
<text text-anchor="start" x="249.5" y="-189.4" font-family="Helvetica,sans-Serif" font-size="11.00" fill="#000000">varchar[255]</text>
<polygon fill="none" stroke="#000000" points="139.5,-159.7 139.5,-181.7 246.5,-181.7 246.5,-159.7 139.5,-159.7"/>
<image xlink:href="../../images/foreignKeys.png" width="11px" height="12px" preserveAspectRatio="xMinYMin meet" x="144.5" y="-176.7"/>
<text text-anchor="start" x="159.5" y="-166.8" font-family="Helvetica,sans-Serif" font-size="11.00" fill="#000000">kunde_id</text>
<polygon fill="none" stroke="#000000" points="246.5,-159.7 246.5,-181.7 330.5,-181.7 330.5,-159.7 246.5,-159.7"/>
<text text-anchor="start" x="249.5" y="-167.4" font-family="Helvetica,sans-Serif" font-size="11.00" fill="#000000">int8[19]</text>
<polygon fill="#ffffff" stroke="transparent" points="139.5,-140.7 139.5,-159.7 330.5,-159.7 330.5,-140.7 139.5,-140.7"/>
<polygon fill="none" stroke="#000000" points="139.5,-140.7 139.5,-159.7 330.5,-159.7 330.5,-140.7 139.5,-140.7"/>
<polygon fill="#ffffff" stroke="transparent" points="140.5,-141.7 140.5,-158.7 206.5,-158.7 206.5,-141.7 140.5,-141.7"/>
<text text-anchor="start" x="142.5" y="-146.8" font-family="Helvetica,sans-Serif" font-size="11.00" fill="#000000">&lt; 1</text>
<polygon fill="#ffffff" stroke="transparent" points="206.5,-141.7 206.5,-158.7 263.5,-158.7 263.5,-141.7 206.5,-141.7"/>
<text text-anchor="start" x="231.9431" y="-146.8" font-family="Helvetica,sans-Serif" font-size="11.00" fill="#000000"> &#160;</text>
<polygon fill="#ffffff" stroke="transparent" points="263.5,-141.7 263.5,-158.7 329.5,-158.7 329.5,-141.7 263.5,-141.7"/>
<text text-anchor="start" x="311.9053" y="-146.8" font-family="Helvetica,sans-Serif" font-size="11.00" fill="#000000">2 &gt;</text>
<polygon fill="#000000" stroke="#000000" points="206.5,-141.7 206.5,-158.7 206.5,-158.7 206.5,-141.7 206.5,-141.7"/>
<polygon fill="#000000" stroke="#000000" points="263.5,-141.7 263.5,-158.7 263.5,-158.7 263.5,-141.7 263.5,-141.7"/>
<polygon fill="none" stroke="#000000" stroke-width="2" points="138,-139.7 138,-271.7 331,-271.7 331,-139.7 138,-139.7"/>
</a>
</g>
</g>
<!-- kunde -->
<g id="node2" class="node">
<title>kunde</title>
<g id="a_node2"><a xlink:href="../../tables/kunde.html" xlink:title="kunde" target="_top">
<polygon fill="#ffffff" stroke="transparent" points="8,-100.2 8,-205.2 88,-205.2 88,-100.2 8,-100.2"/>
<polygon fill="#f5f5f5" stroke="transparent" points="8,-181.7 8,-204.7 88,-204.7 88,-181.7 8,-181.7"/>
<polygon fill="none" stroke="#000000" points="8,-181.7 8,-204.7 88,-204.7 88,-181.7 8,-181.7"/>
<text text-anchor="start" x="13" y="-190.3" font-family="Helvetica,sans-Serif" font-weight="bold" font-size="11.00" fill="#000000">kunde</text>
<text text-anchor="start" x="53.5219" y="-189.8" font-family="Helvetica,sans-Serif" font-size="11.00" fill="#000000">[table]</text>
<polygon fill="none" stroke="#000000" points="8,-159.7 8,-181.7 88,-181.7 88,-159.7 8,-159.7"/>
<image xlink:href="../../images/primaryKeys.png" width="11px" height="12px" preserveAspectRatio="xMinYMin meet" x="13" y="-176.7"/>
<text text-anchor="start" x="33" y="-166.8" font-family="Helvetica,sans-Serif" font-size="11.00" fill="#000000">id</text>
<polygon fill="#ffffff" stroke="transparent" points="8,-137.7 8,-159.7 88,-159.7 88,-137.7 8,-137.7"/>
<polygon fill="none" stroke="#000000" points="8,-137.7 8,-159.7 88,-159.7 88,-137.7 8,-137.7"/>
<text text-anchor="start" x="33" y="-144.8" font-family="Helvetica,sans-Serif" font-size="11.00" fill="#000000">email</text>
<polygon fill="none" stroke="#000000" points="8,-118.7 8,-137.7 88,-137.7 88,-118.7 8,-118.7"/>
<text text-anchor="start" x="11" y="-124.8" font-family="Helvetica,sans-Serif" font-size="11.00" fill="#000000">...</text>
<polygon fill="#ffffff" stroke="transparent" points="8,-99.7 8,-118.7 88,-118.7 88,-99.7 8,-99.7"/>
<polygon fill="none" stroke="#000000" points="8,-99.7 8,-118.7 88,-118.7 88,-99.7 8,-99.7"/>
<polygon fill="#ffffff" stroke="transparent" points="9,-100.7 9,-117.7 32,-117.7 32,-100.7 9,-100.7"/>
<text text-anchor="start" x="11" y="-105.8" font-family="Helvetica,sans-Serif" font-size="11.00" fill="#000000"> &#160;</text>
<polygon fill="#ffffff" stroke="transparent" points="32,-100.7 32,-117.7 55,-117.7 55,-100.7 32,-100.7"/>
<text text-anchor="start" x="40.4431" y="-105.8" font-family="Helvetica,sans-Serif" font-size="11.00" fill="#000000"> &#160;</text>
<polygon fill="#ffffff" stroke="transparent" points="55,-100.7 55,-117.7 87,-117.7 87,-100.7 55,-100.7"/>
<text text-anchor="start" x="69.4053" y="-105.8" font-family="Helvetica,sans-Serif" font-size="11.00" fill="#000000">1 &gt;</text>
<polygon fill="#000000" stroke="#000000" points="32,-100.7 32,-117.7 32,-117.7 32,-100.7 32,-100.7"/>
<polygon fill="#000000" stroke="#000000" points="55,-100.7 55,-117.7 55,-117.7 55,-100.7 55,-100.7"/>
</a>
</g>
</g>
<!-- bestellung&#45;&gt;kunde -->
<g id="edge1" class="edge">
<title>bestellung:w&#45;&gt;kunde:e</title>
<path fill="none" stroke="#000000" d="M125.0156,-170.7C112.6771,-170.7 105.1667,-170.7 88,-170.7"/>
<polygon fill="#000000" stroke="#000000" points="131.5,-170.7001 139.5,-174.3 135.5,-170.7 139.5,-170.7 139.5,-170.7 139.5,-170.7 135.5,-170.7 139.5,-167.1 131.5,-170.7001 131.5,-170.7001"/>
<ellipse fill="none" stroke="#000000" cx="128.3" cy="-170.7001" rx="3.2" ry="3.2"/>
</g>
<!-- bestellung_position -->
<g id="node3" class="node">
<title>bestellung_position</title>
<g id="a_node3"><a xlink:href="../../tables/bestellung_position.html" xlink:title="bestellung_position" target="_top">
<polygon fill="#ffffff" stroke="transparent" points="381,-38.2 381,-165.2 547,-165.2 547,-38.2 381,-38.2"/>
<polygon fill="#f5f5f5" stroke="transparent" points="381,-141.7 381,-164.7 547,-164.7 547,-141.7 381,-141.7"/>
<polygon fill="none" stroke="#000000" points="381,-141.7 381,-164.7 547,-164.7 547,-141.7 381,-141.7"/>
<text text-anchor="start" x="386" y="-150.3" font-family="Helvetica,sans-Serif" font-weight="bold" font-size="11.00" fill="#000000">bestellung_position</text>
<text text-anchor="start" x="512.5219" y="-149.8" font-family="Helvetica,sans-Serif" font-size="11.00" fill="#000000">[table]</text>
<polygon fill="none" stroke="#000000" points="381,-119.7 381,-141.7 547,-141.7 547,-119.7 381,-119.7"/>
<image xlink:href="../../images/primaryKeys.png" width="11px" height="12px" preserveAspectRatio="xMinYMin meet" x="386" y="-136.7"/>
<text text-anchor="start" x="410" y="-126.8" font-family="Helvetica,sans-Serif" font-size="11.00" fill="#000000">id</text>
<polygon fill="none" stroke="#000000" points="381,-97.7 381,-119.7 547,-119.7 547,-97.7 381,-97.7"/>
<image xlink:href="../../images/foreignKeys.png" width="11px" height="12px" preserveAspectRatio="xMinYMin meet" x="386" y="-114.7"/>
<text text-anchor="start" x="410" y="-104.8" font-family="Helvetica,sans-Serif" font-size="11.00" fill="#000000">bestellung_id</text>
<polygon fill="none" stroke="#000000" points="381,-75.7 381,-97.7 547,-97.7 547,-75.7 381,-75.7"/>
<image xlink:href="../../images/foreignKeys.png" width="11px" height="12px" preserveAspectRatio="xMinYMin meet" x="386" y="-92.7"/>
<text text-anchor="start" x="410" y="-82.8" font-family="Helvetica,sans-Serif" font-size="11.00" fill="#000000">produkt_id</text>
<polygon fill="none" stroke="#000000" points="381,-56.7 381,-75.7 547,-75.7 547,-56.7 381,-56.7"/>
<text text-anchor="start" x="384" y="-62.8" font-family="Helvetica,sans-Serif" font-size="11.00" fill="#000000">...</text>
<polygon fill="#ffffff" stroke="transparent" points="381,-37.7 381,-56.7 547,-56.7 547,-37.7 381,-37.7"/>
<polygon fill="none" stroke="#000000" points="381,-37.7 381,-56.7 547,-56.7 547,-37.7 381,-37.7"/>
<polygon fill="#ffffff" stroke="transparent" points="382,-38.7 382,-55.7 443,-55.7 443,-38.7 382,-38.7"/>
<text text-anchor="start" x="384" y="-43.8" font-family="Helvetica,sans-Serif" font-size="11.00" fill="#000000">&lt; 2</text>
<polygon fill="#ffffff" stroke="transparent" points="443,-38.7 443,-55.7 495,-55.7 495,-38.7 443,-38.7"/>
<text text-anchor="start" x="465.9431" y="-43.8" font-family="Helvetica,sans-Serif" font-size="11.00" fill="#000000"> &#160;</text>
<polygon fill="#ffffff" stroke="transparent" points="495,-38.7 495,-55.7 546,-55.7 546,-38.7 495,-38.7"/>
<text text-anchor="start" x="537.8862" y="-43.8" font-family="Helvetica,sans-Serif" font-size="11.00" fill="#000000"> &#160;</text>
<polygon fill="#000000" stroke="#000000" points="443,-38.7 443,-55.7 443,-55.7 443,-38.7 443,-38.7"/>
<polygon fill="#000000" stroke="#000000" points="495,-38.7 495,-55.7 495,-55.7 495,-38.7 495,-38.7"/>
</a>
</g>
</g>
<!-- bestellung_position&#45;&gt;bestellung -->
<g id="edge2" class="edge">
<title>bestellung_position:w&#45;&gt;bestellung:e</title>
<path fill="none" stroke="#000000" d="M366.6397,-112.1237C332.6015,-132.4793 385.684,-236.7 330.5,-236.7"/>
<polygon fill="#000000" stroke="#000000" points="373.2181,-110.5554 381.8349,-112.2019 377.1091,-109.6277 381,-108.7 381,-108.7 381,-108.7 377.1091,-109.6277 380.1651,-105.1981 373.2181,-110.5554 373.2181,-110.5554"/>
<ellipse fill="none" stroke="#000000" cx="370.1054" cy="-111.2975" rx="3.2" ry="3.2"/>
</g>
<!-- produkt -->
<g id="node4" class="node">
<title>produkt</title>
<g id="a_node4"><a xlink:href="../../tables/produkt.html" xlink:title="produkt" target="_top">
<polygon fill="#ffffff" stroke="transparent" points="189,-56.2 189,-117.2 280,-117.2 280,-56.2 189,-56.2"/>
<polygon fill="#f5f5f5" stroke="transparent" points="189.5,-93.7 189.5,-116.7 280.5,-116.7 280.5,-93.7 189.5,-93.7"/>
<polygon fill="none" stroke="#000000" points="189.5,-93.7 189.5,-116.7 280.5,-116.7 280.5,-93.7 189.5,-93.7"/>
<text text-anchor="start" x="194.5" y="-102.3" font-family="Helvetica,sans-Serif" font-weight="bold" font-size="11.00" fill="#000000">produkt</text>
<text text-anchor="start" x="246.0219" y="-101.8" font-family="Helvetica,sans-Serif" font-size="11.00" fill="#000000">[table]</text>
<polygon fill="none" stroke="#000000" points="189.5,-74.7 189.5,-93.7 280.5,-93.7 280.5,-74.7 189.5,-74.7"/>
<text text-anchor="start" x="192.5" y="-80.8" font-family="Helvetica,sans-Serif" font-size="11.00" fill="#000000">...</text>
<polygon fill="#ffffff" stroke="transparent" points="189.5,-55.7 189.5,-74.7 280.5,-74.7 280.5,-55.7 189.5,-55.7"/>
<polygon fill="none" stroke="#000000" points="189.5,-55.7 189.5,-74.7 280.5,-74.7 280.5,-55.7 189.5,-55.7"/>
<polygon fill="#ffffff" stroke="transparent" points="190.5,-56.7 190.5,-73.7 217.5,-73.7 217.5,-56.7 190.5,-56.7"/>
<text text-anchor="start" x="192.5" y="-61.8" font-family="Helvetica,sans-Serif" font-size="11.00" fill="#000000"> &#160;</text>
<polygon fill="#ffffff" stroke="transparent" points="217.5,-56.7 217.5,-73.7 244.5,-73.7 244.5,-56.7 217.5,-56.7"/>
<text text-anchor="start" x="227.9431" y="-61.8" font-family="Helvetica,sans-Serif" font-size="11.00" fill="#000000"> &#160;</text>
<polygon fill="#ffffff" stroke="transparent" points="244.5,-56.7 244.5,-73.7 279.5,-73.7 279.5,-56.7 244.5,-56.7"/>
<text text-anchor="start" x="261.9053" y="-61.8" font-family="Helvetica,sans-Serif" font-size="11.00" fill="#000000">1 &gt;</text>
<polygon fill="#000000" stroke="#000000" points="217.5,-56.7 217.5,-73.7 217.5,-73.7 217.5,-56.7 217.5,-56.7"/>
<polygon fill="#000000" stroke="#000000" points="244.5,-56.7 244.5,-73.7 244.5,-73.7 244.5,-56.7 244.5,-56.7"/>
</a>
</g>
</g>
<!-- bestellung_position&#45;&gt;produkt -->
<g id="edge3" class="edge">
<title>bestellung_position:w&#45;&gt;produkt:e</title>
<path fill="none" stroke="#000000" d="M366.5645,-86.5861C333.2447,-86.0381 319.9499,-83.7 280.5,-83.7"/>
<polygon fill="#000000" stroke="#000000" points="373.0002,-86.6368 380.9716,-90.2999 377.0001,-86.6684 381,-86.7 381,-86.7 381,-86.7 377.0001,-86.6684 381.0284,-83.1001 373.0002,-86.6368 373.0002,-86.6368"/>
<ellipse fill="none" stroke="#000000" cx="369.8003" cy="-86.6115" rx="3.2" ry="3.2"/>
</g>
<!-- rechnung -->
<g id="node5" class="node">
<title>rechnung</title>
<g id="a_node5"><a xlink:href="../../tables/rechnung.html" xlink:title="rechnung" target="_top">
<polygon fill="#ffffff" stroke="transparent" points="391,-188.2 391,-315.2 537,-315.2 537,-188.2 391,-188.2"/>
<polygon fill="#f5f5f5" stroke="transparent" points="391,-291.7 391,-314.7 537,-314.7 537,-291.7 391,-291.7"/>
<polygon fill="none" stroke="#000000" points="391,-291.7 391,-314.7 537,-314.7 537,-291.7 391,-291.7"/>
<text text-anchor="start" x="396" y="-300.3" font-family="Helvetica,sans-Serif" font-weight="bold" font-size="11.00" fill="#000000">rechnung</text>
<text text-anchor="start" x="502.0437" y="-299.8" font-family="Helvetica,sans-Serif" font-size="11.00" fill="#000000">[table]</text>
<polygon fill="none" stroke="#000000" points="391,-269.7 391,-291.7 537,-291.7 537,-269.7 391,-269.7"/>
<image xlink:href="../../images/primaryKeys.png" width="11px" height="12px" preserveAspectRatio="xMinYMin meet" x="396" y="-286.7"/>
<text text-anchor="start" x="411" y="-276.8" font-family="Helvetica,sans-Serif" font-size="11.00" fill="#000000">id</text>
<polygon fill="#ffffff" stroke="transparent" points="391,-247.7 391,-269.7 537,-269.7 537,-247.7 391,-247.7"/>
<polygon fill="none" stroke="#000000" points="391,-247.7 391,-269.7 537,-269.7 537,-247.7 391,-247.7"/>
<text text-anchor="start" x="411" y="-254.8" font-family="Helvetica,sans-Serif" font-size="11.00" fill="#000000">rechnungsnummer</text>
<polygon fill="#ffffff" stroke="transparent" points="391,-225.7 391,-247.7 537,-247.7 537,-225.7 391,-225.7"/>
<polygon fill="none" stroke="#000000" points="391,-225.7 391,-247.7 537,-247.7 537,-225.7 391,-225.7"/>
<image xlink:href="../../images/foreignKeys.png" width="11px" height="12px" preserveAspectRatio="xMinYMin meet" x="396" y="-242.7"/>
<text text-anchor="start" x="411" y="-232.8" font-family="Helvetica,sans-Serif" font-size="11.00" fill="#000000">bestellung_id</text>
<polygon fill="none" stroke="#000000" points="391,-206.7 391,-225.7 537,-225.7 537,-206.7 391,-206.7"/>
<text text-anchor="start" x="394" y="-212.8" font-family="Helvetica,sans-Serif" font-size="11.00" fill="#000000">...</text>
<polygon fill="#ffffff" stroke="transparent" points="391,-187.7 391,-206.7 537,-206.7 537,-187.7 391,-187.7"/>
<polygon fill="none" stroke="#000000" points="391,-187.7 391,-206.7 537,-206.7 537,-187.7 391,-187.7"/>
<polygon fill="#ffffff" stroke="transparent" points="392,-188.7 392,-205.7 446,-205.7 446,-188.7 392,-188.7"/>
<text text-anchor="start" x="394" y="-193.8" font-family="Helvetica,sans-Serif" font-size="11.00" fill="#000000">&lt; 1</text>
<polygon fill="#ffffff" stroke="transparent" points="446,-188.7 446,-205.7 491,-205.7 491,-188.7 446,-188.7"/>
<text text-anchor="start" x="465.4431" y="-193.8" font-family="Helvetica,sans-Serif" font-size="11.00" fill="#000000"> &#160;</text>
<polygon fill="#ffffff" stroke="transparent" points="491,-188.7 491,-205.7 536,-205.7 536,-188.7 491,-188.7"/>
<text text-anchor="start" x="527.8862" y="-193.8" font-family="Helvetica,sans-Serif" font-size="11.00" fill="#000000"> &#160;</text>
<polygon fill="#000000" stroke="#000000" points="446,-188.7 446,-205.7 446,-205.7 446,-188.7 446,-188.7"/>
<polygon fill="#000000" stroke="#000000" points="491,-188.7 491,-205.7 491,-205.7 491,-188.7 491,-188.7"/>
</a>
</g>
</g>
<!-- rechnung&#45;&gt;bestellung -->
<g id="edge4" class="edge">
<title>rechnung:w&#45;&gt;bestellung:e</title>
<path fill="none" stroke="#000000" d="M380.4832,-236.7C361.7467,-236.7 353.5026,-236.7 330.5,-236.7"/>
<polygon fill="#000000" stroke="#000000" points="390.2,-232.7 390.2,-240.7 388.6,-240.7 388.6,-232.7 390.2,-232.7"/>
<polyline fill="none" stroke="#000000" points="391,-236.7 387,-236.7 "/>
<ellipse fill="none" stroke="#000000" cx="383.8" cy="-236.7001" rx="3.2" ry="3.2"/>
</g>
</g>
</svg>
