<?xml version="1.0" encoding="UTF-8" standalone="no"?>
<!DOCTYPE svg PUBLIC "-//W3C//DTD SVG 1.1//EN"
 "http://www.w3.org/Graphics/SVG/1.1/DTD/svg11.dtd">
<!-- Generated by graphviz version 2.40.1 (20161225.0304)
 -->
<!-- Title: oneDegreeRelationshipsDiagram Pages: 1 -->
<svg width="606pt" height="328pt"
 viewBox="0.00 0.00 606.00 328.20" xmlns="http://www.w3.org/2000/svg" xmlns:xlink="http://www.w3.org/1999/xlink">
<g id="graph0" class="graph" transform="scale(1 1) rotate(0) translate(4 324.2)">
<title>oneDegreeRelationshipsDiagram</title>
<polygon fill="#ffffff" stroke="transparent" points="-4,4 -4,-324.2 602,-324.2 602,4 -4,4"/>
<text text-anchor="middle" x="72.4936" y="-7.3" font-family="Helvetica,sans-Serif" font-size="11.00" fill="#000000">Generated by SchemaSpy</text>
<!-- bestellung -->
<g id="node1" class="node">
<title>bestellung</title>
<g id="a_node1"><a xlink:href="../../tables/bestellung.html" xlink:title="bestellung" target="_top">
<polygon fill="#ffffff" stroke="transparent" points="180,-76.7 180,-210.7 375,-210.7 375,-76.7 180,-76.7"/>
<polygon fill="#f5f5f5" stroke="transparent" points="182.5,-185.7 182.5,-208.7 373.5,-208.7 373.5,-185.7 182.5,-185.7"/>
<polygon fill="none" stroke="#000000" points="182.5,-185.7 182.5,-208.7 373.5,-208.7 373.5,-185.7 182.5,-185.7"/>
<text text-anchor="start" x="187.5" y="-194.3" font-family="Helvetica,sans-Serif" font-weight="bold" font-size="11.00" fill="#000000">bestellung</text>
<text text-anchor="start" x="338.5437" y="-193.8" font-family="Helvetica,sans-Serif" font-size="11.00" fill="#000000">[table]</text>
<polygon fill="none" stroke="#000000" points="182.5,-163.7 182.5,-185.7 289.5,-185.7 289.5,-163.7 182.5,-163.7"/>
<image xlink:href="../../images/primaryKeys.png" width="11px" height="12px" preserveAspectRatio="xMinYMin meet" x="187.5" y="-180.7"/>
<text text-anchor="start" x="202.5" y="-170.8" font-family="Helvetica,sans-Serif" font-size="11.00" fill="#000000">id</text>
<polygon fill="none" stroke="#000000" points="289.5,-163.7 289.5,-185.7 373.5,-185.7 373.5,-163.7 289.5,-163.7"/>
<text text-anchor="start" x="292.5" y="-171.4" font-family="Helvetica,sans-Serif" font-size="11.00" fill="#000000">bigserial[19]</text>
<polygon fill="none" stroke="#000000" points="182.5,-141.7 182.5,-163.7 289.5,-163.7 289.5,-141.7 182.5,-141.7"/>
<text text-anchor="start" x="202.5" y="-148.8" font-family="Helvetica,sans-Serif" font-size="11.00" fill="#000000">bestelldatum</text>
<polygon fill="none" stroke="#000000" points="289.5,-141.7 289.5,-163.7 373.5,-163.7 373.5,-141.7 289.5,-141.7"/>
<text text-anchor="start" x="292.3807" y="-149.4" font-family="Helvetica,sans-Serif" font-size="11.00" fill="#000000">timestamp[29,6]</text>
<polygon fill="none" stroke="#000000" points="182.5,-119.7 182.5,-141.7 289.5,-141.7 289.5,-119.7 182.5,-119.7"/>
<text text-anchor="start" x="202.5" y="-126.8" font-family="Helvetica,sans-Serif" font-size="11.00" fill="#000000">status</text>
<polygon fill="none" stroke="#000000" points="289.5,-119.7 289.5,-141.7 373.5,-141.7 373.5,-119.7 289.5,-119.7"/>
<text text-anchor="start" x="292.5" y="-127.4" font-family="Helvetica,sans-Serif" font-size="11.00" fill="#000000">varchar[255]</text>
<polygon fill="none" stroke="#000000" points="182.5,-97.7 182.5,-119.7 289.5,-119.7 289.5,-97.7 182.5,-97.7"/>
<image xlink:href="../../images/foreignKeys.png" width="11px" height="12px" preserveAspectRatio="xMinYMin meet" x="187.5" y="-114.7"/>
<text text-anchor="start" x="202.5" y="-104.8" font-family="Helvetica,sans-Serif" font-size="11.00" fill="#000000">kunde_id</text>
<polygon fill="none" stroke="#000000" points="289.5,-97.7 289.5,-119.7 373.5,-119.7 373.5,-97.7 289.5,-97.7"/>
<text text-anchor="start" x="292.5" y="-105.4" font-family="Helvetica,sans-Serif" font-size="11.00" fill="#000000">int8[19]</text>
<polygon fill="#ffffff" stroke="transparent" points="182.5,-78.7 182.5,-97.7 373.5,-97.7 373.5,-78.7 182.5,-78.7"/>
<polygon fill="none" stroke="#000000" points="182.5,-78.7 182.5,-97.7 373.5,-97.7 373.5,-78.7 182.5,-78.7"/>
<polygon fill="#ffffff" stroke="transparent" points="183.5,-79.7 183.5,-96.7 249.5,-96.7 249.5,-79.7 183.5,-79.7"/>
<text text-anchor="start" x="185.5" y="-84.8" font-family="Helvetica,sans-Serif" font-size="11.00" fill="#000000">&lt; 1</text>
<polygon fill="#ffffff" stroke="transparent" points="249.5,-79.7 249.5,-96.7 306.5,-96.7 306.5,-79.7 249.5,-79.7"/>
<text text-anchor="start" x="274.9431" y="-84.8" font-family="Helvetica,sans-Serif" font-size="11.00" fill="#000000"> &#160;</text>
<polygon fill="#ffffff" stroke="transparent" points="306.5,-79.7 306.5,-96.7 372.5,-96.7 372.5,-79.7 306.5,-79.7"/>
<text text-anchor="start" x="354.9053" y="-84.8" font-family="Helvetica,sans-Serif" font-size="11.00" fill="#000000">2 &gt;</text>
<polygon fill="#000000" stroke="#000000" points="249.5,-79.7 249.5,-96.7 249.5,-96.7 249.5,-79.7 249.5,-79.7"/>
<polygon fill="#000000" stroke="#000000" points="306.5,-79.7 306.5,-96.7 306.5,-96.7 306.5,-79.7 306.5,-79.7"/>
<polygon fill="none" stroke="#000000" stroke-width="2" points="181,-77.7 181,-209.7 374,-209.7 374,-77.7 181,-77.7"/>
</a>
</g>
</g>
<!-- kunde -->
<g id="node2" class="node">
<title>kunde</title>
<g id="a_node2"><a xlink:href="../../tables/kunde.html" xlink:title="kunde" target="_top">
<polygon fill="#ffffff" stroke="transparent" points="8,-38.2 8,-143.2 131,-143.2 131,-38.2 8,-38.2"/>
<polygon fill="#f5f5f5" stroke="transparent" points="8.5,-119.7 8.5,-142.7 131.5,-142.7 131.5,-119.7 8.5,-119.7"/>
<polygon fill="none" stroke="#000000" points="8.5,-119.7 8.5,-142.7 131.5,-142.7 131.5,-119.7 8.5,-119.7"/>
<text text-anchor="start" x="13.5" y="-128.3" font-family="Helvetica,sans-Serif" font-weight="bold" font-size="11.00" fill="#000000">kunde</text>
<text text-anchor="start" x="96.5437" y="-127.8" font-family="Helvetica,sans-Serif" font-size="11.00" fill="#000000">[table]</text>
<polygon fill="none" stroke="#000000" points="8.5,-97.7 8.5,-119.7 131.5,-119.7 131.5,-97.7 8.5,-97.7"/>
<image xlink:href="../../images/primaryKeys.png" width="11px" height="12px" preserveAspectRatio="xMinYMin meet" x="13.5" y="-114.7"/>
<text text-anchor="start" x="28.5" y="-104.8" font-family="Helvetica,sans-Serif" font-size="11.00" fill="#000000">id</text>
<polygon fill="#ffffff" stroke="transparent" points="8.5,-75.7 8.5,-97.7 131.5,-97.7 131.5,-75.7 8.5,-75.7"/>
<polygon fill="none" stroke="#000000" points="8.5,-75.7 8.5,-97.7 131.5,-97.7 131.5,-75.7 8.5,-75.7"/>
<text text-anchor="start" x="28.5" y="-82.8" font-family="Helvetica,sans-Serif" font-size="11.00" fill="#000000">email</text>
<polygon fill="none" stroke="#000000" points="8.5,-56.7 8.5,-75.7 131.5,-75.7 131.5,-56.7 8.5,-56.7"/>
<text text-anchor="start" x="11.5" y="-62.8" font-family="Helvetica,sans-Serif" font-size="11.00" fill="#000000">...</text>
<polygon fill="#ffffff" stroke="transparent" points="8.5,-37.7 8.5,-56.7 131.5,-56.7 131.5,-37.7 8.5,-37.7"/>
<polygon fill="none" stroke="#000000" points="8.5,-37.7 8.5,-56.7 131.5,-56.7 131.5,-37.7 8.5,-37.7"/>
<polygon fill="#ffffff" stroke="transparent" points="9.5,-38.7 9.5,-55.7 47.5,-55.7 47.5,-38.7 9.5,-38.7"/>
<text text-anchor="start" x="11.5" y="-43.8" font-family="Helvetica,sans-Serif" font-size="11.00" fill="#000000"> &#160;</text>
<polygon fill="#ffffff" stroke="transparent" points="47.5,-38.7 47.5,-55.7 84.5,-55.7 84.5,-38.7 47.5,-38.7"/>
<text text-anchor="start" x="62.9431" y="-43.8" font-family="Helvetica,sans-Serif" font-size="11.00" fill="#000000"> &#160;</text>
<polygon fill="#ffffff" stroke="transparent" points="84.5,-38.7 84.5,-55.7 130.5,-55.7 130.5,-38.7 84.5,-38.7"/>
<text text-anchor="start" x="112.9053" y="-43.8" font-family="Helvetica,sans-Serif" font-size="11.00" fill="#000000">1 &gt;</text>
<polygon fill="#000000" stroke="#000000" points="47.5,-38.7 47.5,-55.7 47.5,-55.7 47.5,-38.7 47.5,-38.7"/>
<polygon fill="#000000" stroke="#000000" points="84.5,-38.7 84.5,-55.7 84.5,-55.7 84.5,-38.7 84.5,-38.7"/>
</a>
</g>
</g>
<!-- bestellung&#45;&gt;kunde -->
<g id="edge1" class="edge">
<title>bestellung:w&#45;&gt;kunde:e</title>
<path fill="none" stroke="#000000" d="M167.776,-108.7C155.7815,-108.7 148.3229,-108.7 131.5,-108.7"/>
<polygon fill="#000000" stroke="#000000" points="174.5,-108.7001 182.5,-112.3 178.5,-108.7 182.5,-108.7 182.5,-108.7 182.5,-108.7 178.5,-108.7 182.5,-105.1 174.5,-108.7001 174.5,-108.7001"/>
<ellipse fill="none" stroke="#000000" cx="171.3" cy="-108.7001" rx="3.2" ry="3.2"/>
</g>
<!-- bestellung_position -->
<g id="node3" class="node">
<title>bestellung_position</title>
<g id="a_node3"><a xlink:href="../../tables/bestellung_position.html" xlink:title="bestellung_position" target="_top">
<polygon fill="#ffffff" stroke="transparent" points="424,-189.2 424,-316.2 590,-316.2 590,-189.2 424,-189.2"/>
<polygon fill="#f5f5f5" stroke="transparent" points="424,-292.7 424,-315.7 590,-315.7 590,-292.7 424,-292.7"/>
<polygon fill="none" stroke="#000000" points="424,-292.7 424,-315.7 590,-315.7 590,-292.7 424,-292.7"/>
<text text-anchor="start" x="429" y="-301.3" font-family="Helvetica,sans-Serif" font-weight="bold" font-size="11.00" fill="#000000">bestellung_position</text>
<text text-anchor="start" x="555.5219" y="-300.8" font-family="Helvetica,sans-Serif" font-size="11.00" fill="#000000">[table]</text>
<polygon fill="none" stroke="#000000" points="424,-270.7 424,-292.7 590,-292.7 590,-270.7 424,-270.7"/>
<image xlink:href="../../images/primaryKeys.png" width="11px" height="12px" preserveAspectRatio="xMinYMin meet" x="429" y="-287.7"/>
<text text-anchor="start" x="453" y="-277.8" font-family="Helvetica,sans-Serif" font-size="11.00" fill="#000000">id</text>
<polygon fill="none" stroke="#000000" points="424,-248.7 424,-270.7 590,-270.7 590,-248.7 424,-248.7"/>
<image xlink:href="../../images/foreignKeys.png" width="11px" height="12px" preserveAspectRatio="xMinYMin meet" x="429" y="-265.7"/>
<text text-anchor="start" x="453" y="-255.8" font-family="Helvetica,sans-Serif" font-size="11.00" fill="#000000">bestellung_id</text>
<polygon fill="none" stroke="#000000" points="424,-226.7 424,-248.7 590,-248.7 590,-226.7 424,-226.7"/>
<image xlink:href="../../images/foreignKeys.png" width="11px" height="12px" preserveAspectRatio="xMinYMin meet" x="429" y="-243.7"/>
<text text-anchor="start" x="453" y="-233.8" font-family="Helvetica,sans-Serif" font-size="11.00" fill="#000000">produkt_id</text>
<polygon fill="none" stroke="#000000" points="424,-207.7 424,-226.7 590,-226.7 590,-207.7 424,-207.7"/>
<text text-anchor="start" x="427" y="-213.8" font-family="Helvetica,sans-Serif" font-size="11.00" fill="#000000">...</text>
<polygon fill="#ffffff" stroke="transparent" points="424,-188.7 424,-207.7 590,-207.7 590,-188.7 424,-188.7"/>
<polygon fill="none" stroke="#000000" points="424,-188.7 424,-207.7 590,-207.7 590,-188.7 424,-188.7"/>
<polygon fill="#ffffff" stroke="transparent" points="425,-189.7 425,-206.7 486,-206.7 486,-189.7 425,-189.7"/>
<text text-anchor="start" x="427" y="-194.8" font-family="Helvetica,sans-Serif" font-size="11.00" fill="#000000">&lt; 2</text>
<polygon fill="#ffffff" stroke="transparent" points="486,-189.7 486,-206.7 538,-206.7 538,-189.7 486,-189.7"/>
<text text-anchor="start" x="508.9431" y="-194.8" font-family="Helvetica,sans-Serif" font-size="11.00" fill="#000000"> &#160;</text>
<polygon fill="#ffffff" stroke="transparent" points="538,-189.7 538,-206.7 589,-206.7 589,-189.7 538,-189.7"/>
<text text-anchor="start" x="580.8862" y="-194.8" font-family="Helvetica,sans-Serif" font-size="11.00" fill="#000000"> &#160;</text>
<polygon fill="#000000" stroke="#000000" points="486,-189.7 486,-206.7 486,-206.7 486,-189.7 486,-189.7"/>
<polygon fill="#000000" stroke="#000000" points="538,-189.7 538,-206.7 538,-206.7 538,-189.7 538,-189.7"/>
</a>
</g>
</g>
<!-- bestellung_position&#45;&gt;bestellung -->
<g id="edge2" class="edge">
<title>bestellung_position:w&#45;&gt;bestellung:e</title>
<path fill="none" stroke="#000000" d="M410.1216,-255.368C388.76,-238.0466 411.4344,-174.7 373.5,-174.7"/>
<polygon fill="#000000" stroke="#000000" points="416.3634,-257.3163 422.9273,-263.1365 420.1817,-258.5081 424,-259.7 424,-259.7 424,-259.7 420.1817,-258.5081 425.0727,-256.2635 416.3634,-257.3163 416.3634,-257.3163"/>
<ellipse fill="none" stroke="#000000" cx="413.3087" cy="-256.3628" rx="3.2" ry="3.2"/>
</g>
<!-- rechnung -->
<g id="node4" class="node">
<title>rechnung</title>
<g id="a_node4"><a xlink:href="../../tables/rechnung.html" xlink:title="rechnung" target="_top">
<polygon fill="#ffffff" stroke="transparent" points="434,-41.2 434,-168.2 580,-168.2 580,-41.2 434,-41.2"/>
<polygon fill="#f5f5f5" stroke="transparent" points="434,-144.7 434,-167.7 580,-167.7 580,-144.7 434,-144.7"/>
<polygon fill="none" stroke="#000000" points="434,-144.7 434,-167.7 580,-167.7 580,-144.7 434,-144.7"/>
<text text-anchor="start" x="439" y="-153.3" font-family="Helvetica,sans-Serif" font-weight="bold" font-size="11.00" fill="#000000">rechnung</text>
<text text-anchor="start" x="545.0437" y="-152.8" font-family="Helvetica,sans-Serif" font-size="11.00" fill="#000000">[table]</text>
<polygon fill="none" stroke="#000000" points="434,-122.7 434,-144.7 580,-144.7 580,-122.7 434,-122.7"/>
<image xlink:href="../../images/primaryKeys.png" width="11px" height="12px" preserveAspectRatio="xMinYMin meet" x="439" y="-139.7"/>
<text text-anchor="start" x="454" y="-129.8" font-family="Helvetica,sans-Serif" font-size="11.00" fill="#000000">id</text>
<polygon fill="#ffffff" stroke="transparent" points="434,-100.7 434,-122.7 580,-122.7 580,-100.7 434,-100.7"/>
<polygon fill="none" stroke="#000000" points="434,-100.7 434,-122.7 580,-122.7 580,-100.7 434,-100.7"/>
<text text-anchor="start" x="454" y="-107.8" font-family="Helvetica,sans-Serif" font-size="11.00" fill="#000000">rechnungsnummer</text>
<polygon fill="#ffffff" stroke="transparent" points="434,-78.7 434,-100.7 580,-100.7 580,-78.7 434,-78.7"/>
<polygon fill="none" stroke="#000000" points="434,-78.7 434,-100.7 580,-100.7 580,-78.7 434,-78.7"/>
<image xlink:href="../../images/foreignKeys.png" width="11px" height="12px" preserveAspectRatio="xMinYMin meet" x="439" y="-95.7"/>
<text text-anchor="start" x="454" y="-85.8" font-family="Helvetica,sans-Serif" font-size="11.00" fill="#000000">bestellung_id</text>
<polygon fill="none" stroke="#000000" points="434,-59.7 434,-78.7 580,-78.7 580,-59.7 434,-59.7"/>
<text text-anchor="start" x="437" y="-65.8" font-family="Helvetica,sans-Serif" font-size="11.00" fill="#000000">...</text>
<polygon fill="#ffffff" stroke="transparent" points="434,-40.7 434,-59.7 580,-59.7 580,-40.7 434,-40.7"/>
<polygon fill="none" stroke="#000000" points="434,-40.7 434,-59.7 580,-59.7 580,-40.7 434,-40.7"/>
<polygon fill="#ffffff" stroke="transparent" points="435,-41.7 435,-58.7 489,-58.7 489,-41.7 435,-41.7"/>
<text text-anchor="start" x="437" y="-46.8" font-family="Helvetica,sans-Serif" font-size="11.00" fill="#000000">&lt; 1</text>
<polygon fill="#ffffff" stroke="transparent" points="489,-41.7 489,-58.7 534,-58.7 534,-41.7 489,-41.7"/>
<text text-anchor="start" x="508.4431" y="-46.8" font-family="Helvetica,sans-Serif" font-size="11.00" fill="#000000"> &#160;</text>
<polygon fill="#ffffff" stroke="transparent" points="534,-41.7 534,-58.7 579,-58.7 579,-41.7 534,-41.7"/>
<text text-anchor="start" x="570.8862" y="-46.8" font-family="Helvetica,sans-Serif" font-size="11.00" fill="#000000"> &#160;</text>
<polygon fill="#000000" stroke="#000000" points="489,-41.7 489,-58.7 489,-58.7 489,-41.7 489,-41.7"/>
<polygon fill="#000000" stroke="#000000" points="534,-41.7 534,-58.7 534,-58.7 534,-41.7 534,-41.7"/>
</a>
</g>
</g>
<!-- rechnung&#45;&gt;bestellung -->
<g id="edge3" class="edge">
<title>rechnung:w&#45;&gt;bestellung:e</title>
<path fill="none" stroke="#000000" d="M423.6871,-91.4753C392.5907,-103.6816 415.885,-174.7 373.5,-174.7"/>
<polygon fill="#000000" stroke="#000000" points="432.533,-85.8937 433.8902,-93.7777 432.3134,-94.0492 430.9561,-86.1652 432.533,-85.8937"/>
<polyline fill="none" stroke="#000000" points="434,-89.7 430.058,-90.3786 "/>
<ellipse fill="none" stroke="#000000" cx="426.9044" cy="-90.9216" rx="3.2" ry="3.2"/>
</g>
</g>
</svg>
