<?xml version="1.0" encoding="UTF-8" standalone="no"?>
<!DOCTYPE svg PUBLIC "-//W3C//DTD SVG 1.1//EN"
 "http://www.w3.org/Graphics/SVG/1.1/DTD/svg11.dtd">
<!-- Generated by graphviz version 2.40.1 (20161225.0304)
 -->
<!-- Title: oneDegreeRelationshipsDiagram Pages: 1 -->
<svg width="563pt" height="243pt"
 viewBox="0.00 0.00 563.00 243.20" xmlns="http://www.w3.org/2000/svg" xmlns:xlink="http://www.w3.org/1999/xlink">
<g id="graph0" class="graph" transform="scale(1 1) rotate(0) translate(4 239.2)">
<title>oneDegreeRelationshipsDiagram</title>
<polygon fill="#ffffff" stroke="transparent" points="-4,4 -4,-239.2 559,-239.2 559,4 -4,4"/>
<text text-anchor="middle" x="72.4936" y="-7.3" font-family="Helvetica,sans-Serif" font-size="11.00" fill="#000000">Generated by SchemaSpy</text>
<!-- bestellung -->
<g id="node1" class="node">
<title>bestellung</title>
<g id="a_node1"><a xlink:href="../../tables/bestellung.html" xlink:title="bestellung" target="_top">
<polygon fill="#ffffff" stroke="transparent" points="137,-76.7 137,-210.7 332,-210.7 332,-76.7 137,-76.7"/>
<polygon fill="#f5f5f5" stroke="transparent" points="139.5,-185.7 139.5,-208.7 330.5,-208.7 330.5,-185.7 139.5,-185.7"/>
<polygon fill="none" stroke="#000000" points="139.5,-185.7 139.5,-208.7 330.5,-208.7 330.5,-185.7 139.5,-185.7"/>
<text text-anchor="start" x="144.5" y="-194.3" font-family="Helvetica,sans-Serif" font-weight="bold" font-size="11.00" fill="#000000">bestellung</text>
<text text-anchor="start" x="295.5437" y="-193.8" font-family="Helvetica,sans-Serif" font-size="11.00" fill="#000000">[table]</text>
<polygon fill="none" stroke="#000000" points="139.5,-163.7 139.5,-185.7 246.5,-185.7 246.5,-163.7 139.5,-163.7"/>
<image xlink:href="../../images/primaryKeys.png" width="11px" height="12px" preserveAspectRatio="xMinYMin meet" x="144.5" y="-180.7"/>
<text text-anchor="start" x="159.5" y="-170.8" font-family="Helvetica,sans-Serif" font-size="11.00" fill="#000000">id</text>
<polygon fill="none" stroke="#000000" points="246.5,-163.7 246.5,-185.7 330.5,-185.7 330.5,-163.7 246.5,-163.7"/>
<text text-anchor="start" x="249.5" y="-171.4" font-family="Helvetica,sans-Serif" font-size="11.00" fill="#000000">bigserial[19]</text>
<polygon fill="none" stroke="#000000" points="139.5,-141.7 139.5,-163.7 246.5,-163.7 246.5,-141.7 139.5,-141.7"/>
<text text-anchor="start" x="159.5" y="-148.8" font-family="Helvetica,sans-Serif" font-size="11.00" fill="#000000">bestelldatum</text>
<polygon fill="none" stroke="#000000" points="246.5,-141.7 246.5,-163.7 330.5,-163.7 330.5,-141.7 246.5,-141.7"/>
<text text-anchor="start" x="249.3807" y="-149.4" font-family="Helvetica,sans-Serif" font-size="11.00" fill="#000000">timestamp[29,6]</text>
<polygon fill="none" stroke="#000000" points="139.5,-119.7 139.5,-141.7 246.5,-141.7 246.5,-119.7 139.5,-119.7"/>
<text text-anchor="start" x="159.5" y="-126.8" font-family="Helvetica,sans-Serif" font-size="11.00" fill="#000000">status</text>
<polygon fill="none" stroke="#000000" points="246.5,-119.7 246.5,-141.7 330.5,-141.7 330.5,-119.7 246.5,-119.7"/>
<text text-anchor="start" x="249.5" y="-127.4" font-family="Helvetica,sans-Serif" font-size="11.00" fill="#000000">varchar[255]</text>
<polygon fill="none" stroke="#000000" points="139.5,-97.7 139.5,-119.7 246.5,-119.7 246.5,-97.7 139.5,-97.7"/>
<image xlink:href="../../images/foreignKeys.png" width="11px" height="12px" preserveAspectRatio="xMinYMin meet" x="144.5" y="-114.7"/>
<text text-anchor="start" x="159.5" y="-104.8" font-family="Helvetica,sans-Serif" font-size="11.00" fill="#000000">kunde_id</text>
<polygon fill="none" stroke="#000000" points="246.5,-97.7 246.5,-119.7 330.5,-119.7 330.5,-97.7 246.5,-97.7"/>
<text text-anchor="start" x="249.5" y="-105.4" font-family="Helvetica,sans-Serif" font-size="11.00" fill="#000000">int8[19]</text>
<polygon fill="#ffffff" stroke="transparent" points="139.5,-78.7 139.5,-97.7 330.5,-97.7 330.5,-78.7 139.5,-78.7"/>
<polygon fill="none" stroke="#000000" points="139.5,-78.7 139.5,-97.7 330.5,-97.7 330.5,-78.7 139.5,-78.7"/>
<polygon fill="#ffffff" stroke="transparent" points="140.5,-79.7 140.5,-96.7 206.5,-96.7 206.5,-79.7 140.5,-79.7"/>
<text text-anchor="start" x="142.5" y="-84.8" font-family="Helvetica,sans-Serif" font-size="11.00" fill="#000000">&lt; 1</text>
<polygon fill="#ffffff" stroke="transparent" points="206.5,-79.7 206.5,-96.7 263.5,-96.7 263.5,-79.7 206.5,-79.7"/>
<text text-anchor="start" x="231.9431" y="-84.8" font-family="Helvetica,sans-Serif" font-size="11.00" fill="#000000"> &#160;</text>
<polygon fill="#ffffff" stroke="transparent" points="263.5,-79.7 263.5,-96.7 329.5,-96.7 329.5,-79.7 263.5,-79.7"/>
<text text-anchor="start" x="311.9053" y="-84.8" font-family="Helvetica,sans-Serif" font-size="11.00" fill="#000000">1 &gt;</text>
<polygon fill="#000000" stroke="#000000" points="206.5,-79.7 206.5,-96.7 206.5,-96.7 206.5,-79.7 206.5,-79.7"/>
<polygon fill="#000000" stroke="#000000" points="263.5,-79.7 263.5,-96.7 263.5,-96.7 263.5,-79.7 263.5,-79.7"/>
<polygon fill="none" stroke="#000000" stroke-width="2" points="138,-77.7 138,-209.7 331,-209.7 331,-77.7 138,-77.7"/>
</a>
</g>
</g>
<!-- kunde -->
<g id="node2" class="node">
<title>kunde</title>
<g id="a_node2"><a xlink:href="../../tables/kunde.html" xlink:title="kunde" target="_top">
<polygon fill="#ffffff" stroke="transparent" points="8,-38.2 8,-143.2 88,-143.2 88,-38.2 8,-38.2"/>
<polygon fill="#f5f5f5" stroke="transparent" points="8,-119.7 8,-142.7 88,-142.7 88,-119.7 8,-119.7"/>
<polygon fill="none" stroke="#000000" points="8,-119.7 8,-142.7 88,-142.7 88,-119.7 8,-119.7"/>
<text text-anchor="start" x="13" y="-128.3" font-family="Helvetica,sans-Serif" font-weight="bold" font-size="11.00" fill="#000000">kunde</text>
<text text-anchor="start" x="53.5219" y="-127.8" font-family="Helvetica,sans-Serif" font-size="11.00" fill="#000000">[table]</text>
<polygon fill="none" stroke="#000000" points="8,-97.7 8,-119.7 88,-119.7 88,-97.7 8,-97.7"/>
<image xlink:href="../../images/primaryKeys.png" width="11px" height="12px" preserveAspectRatio="xMinYMin meet" x="13" y="-114.7"/>
<text text-anchor="start" x="33" y="-104.8" font-family="Helvetica,sans-Serif" font-size="11.00" fill="#000000">id</text>
<polygon fill="#ffffff" stroke="transparent" points="8,-75.7 8,-97.7 88,-97.7 88,-75.7 8,-75.7"/>
<polygon fill="none" stroke="#000000" points="8,-75.7 8,-97.7 88,-97.7 88,-75.7 8,-75.7"/>
<text text-anchor="start" x="33" y="-82.8" font-family="Helvetica,sans-Serif" font-size="11.00" fill="#000000">email</text>
<polygon fill="none" stroke="#000000" points="8,-56.7 8,-75.7 88,-75.7 88,-56.7 8,-56.7"/>
<text text-anchor="start" x="11" y="-62.8" font-family="Helvetica,sans-Serif" font-size="11.00" fill="#000000">...</text>
<polygon fill="#ffffff" stroke="transparent" points="8,-37.7 8,-56.7 88,-56.7 88,-37.7 8,-37.7"/>
<polygon fill="none" stroke="#000000" points="8,-37.7 8,-56.7 88,-56.7 88,-37.7 8,-37.7"/>
<polygon fill="#ffffff" stroke="transparent" points="9,-38.7 9,-55.7 32,-55.7 32,-38.7 9,-38.7"/>
<text text-anchor="start" x="11" y="-43.8" font-family="Helvetica,sans-Serif" font-size="11.00" fill="#000000"> &#160;</text>
<polygon fill="#ffffff" stroke="transparent" points="32,-38.7 32,-55.7 55,-55.7 55,-38.7 32,-38.7"/>
<text text-anchor="start" x="40.4431" y="-43.8" font-family="Helvetica,sans-Serif" font-size="11.00" fill="#000000"> &#160;</text>
<polygon fill="#ffffff" stroke="transparent" points="55,-38.7 55,-55.7 87,-55.7 87,-38.7 55,-38.7"/>
<text text-anchor="start" x="69.4053" y="-43.8" font-family="Helvetica,sans-Serif" font-size="11.00" fill="#000000">1 &gt;</text>
<polygon fill="#000000" stroke="#000000" points="32,-38.7 32,-55.7 32,-55.7 32,-38.7 32,-38.7"/>
<polygon fill="#000000" stroke="#000000" points="55,-38.7 55,-55.7 55,-55.7 55,-38.7 55,-38.7"/>
</a>
</g>
</g>
<!-- bestellung&#45;&gt;kunde -->
<g id="edge1" class="edge">
<title>bestellung:w&#45;&gt;kunde:e</title>
<path fill="none" stroke="#000000" d="M125.0156,-108.7C112.6771,-108.7 105.1667,-108.7 88,-108.7"/>
<polygon fill="#000000" stroke="#000000" points="131.5,-108.7001 139.5,-112.3 135.5,-108.7 139.5,-108.7 139.5,-108.7 139.5,-108.7 135.5,-108.7 139.5,-105.1 131.5,-108.7001 131.5,-108.7001"/>
<ellipse fill="none" stroke="#000000" cx="128.3" cy="-108.7001" rx="3.2" ry="3.2"/>
</g>
<!-- bestellung_position -->
<g id="node3" class="node">
<title>bestellung_position</title>
<g id="a_node3"><a xlink:href="../../tables/bestellung_position.html" xlink:title="bestellung_position" target="_top">
<polygon fill="#ffffff" stroke="transparent" points="381,-104.2 381,-231.2 547,-231.2 547,-104.2 381,-104.2"/>
<polygon fill="#f5f5f5" stroke="transparent" points="381,-207.7 381,-230.7 547,-230.7 547,-207.7 381,-207.7"/>
<polygon fill="none" stroke="#000000" points="381,-207.7 381,-230.7 547,-230.7 547,-207.7 381,-207.7"/>
<text text-anchor="start" x="386" y="-216.3" font-family="Helvetica,sans-Serif" font-weight="bold" font-size="11.00" fill="#000000">bestellung_position</text>
<text text-anchor="start" x="512.5219" y="-215.8" font-family="Helvetica,sans-Serif" font-size="11.00" fill="#000000">[table]</text>
<polygon fill="none" stroke="#000000" points="381,-185.7 381,-207.7 547,-207.7 547,-185.7 381,-185.7"/>
<image xlink:href="../../images/primaryKeys.png" width="11px" height="12px" preserveAspectRatio="xMinYMin meet" x="386" y="-202.7"/>
<text text-anchor="start" x="410" y="-192.8" font-family="Helvetica,sans-Serif" font-size="11.00" fill="#000000">id</text>
<polygon fill="none" stroke="#000000" points="381,-163.7 381,-185.7 547,-185.7 547,-163.7 381,-163.7"/>
<image xlink:href="../../images/foreignKeys.png" width="11px" height="12px" preserveAspectRatio="xMinYMin meet" x="386" y="-180.7"/>
<text text-anchor="start" x="410" y="-170.8" font-family="Helvetica,sans-Serif" font-size="11.00" fill="#000000">bestellung_id</text>
<polygon fill="none" stroke="#000000" points="381,-141.7 381,-163.7 547,-163.7 547,-141.7 381,-141.7"/>
<image xlink:href="../../images/foreignKeys.png" width="11px" height="12px" preserveAspectRatio="xMinYMin meet" x="386" y="-158.7"/>
<text text-anchor="start" x="410" y="-148.8" font-family="Helvetica,sans-Serif" font-size="11.00" fill="#000000">produkt_id</text>
<polygon fill="none" stroke="#000000" points="381,-122.7 381,-141.7 547,-141.7 547,-122.7 381,-122.7"/>
<text text-anchor="start" x="384" y="-128.8" font-family="Helvetica,sans-Serif" font-size="11.00" fill="#000000">...</text>
<polygon fill="#ffffff" stroke="transparent" points="381,-103.7 381,-122.7 547,-122.7 547,-103.7 381,-103.7"/>
<polygon fill="none" stroke="#000000" points="381,-103.7 381,-122.7 547,-122.7 547,-103.7 381,-103.7"/>
<polygon fill="#ffffff" stroke="transparent" points="382,-104.7 382,-121.7 443,-121.7 443,-104.7 382,-104.7"/>
<text text-anchor="start" x="384" y="-109.8" font-family="Helvetica,sans-Serif" font-size="11.00" fill="#000000">&lt; 2</text>
<polygon fill="#ffffff" stroke="transparent" points="443,-104.7 443,-121.7 495,-121.7 495,-104.7 443,-104.7"/>
<text text-anchor="start" x="465.9431" y="-109.8" font-family="Helvetica,sans-Serif" font-size="11.00" fill="#000000"> &#160;</text>
<polygon fill="#ffffff" stroke="transparent" points="495,-104.7 495,-121.7 546,-121.7 546,-104.7 495,-104.7"/>
<text text-anchor="start" x="537.8862" y="-109.8" font-family="Helvetica,sans-Serif" font-size="11.00" fill="#000000"> &#160;</text>
<polygon fill="#000000" stroke="#000000" points="443,-104.7 443,-121.7 443,-121.7 443,-104.7 443,-104.7"/>
<polygon fill="#000000" stroke="#000000" points="495,-104.7 495,-121.7 495,-121.7 495,-104.7 495,-104.7"/>
</a>
</g>
</g>
<!-- bestellung_position&#45;&gt;bestellung -->
<g id="edge2" class="edge">
<title>bestellung_position:w&#45;&gt;bestellung:e</title>
<path fill="none" stroke="#000000" d="M366.4203,-174.7C354.5435,-174.7 347.158,-174.7 330.5,-174.7"/>
<polygon fill="#000000" stroke="#000000" points="373,-174.7001 381,-178.3 377,-174.7 381,-174.7 381,-174.7 381,-174.7 377,-174.7 381,-171.1 373,-174.7001 373,-174.7001"/>
<ellipse fill="none" stroke="#000000" cx="369.8" cy="-174.7001" rx="3.2" ry="3.2"/>
</g>
</g>
</svg>
