<?xml version="1.0" encoding="UTF-8" standalone="no"?>
<!DOCTYPE svg PUBLIC "-//W3C//DTD SVG 1.1//EN"
 "http://www.w3.org/Graphics/SVG/1.1/DTD/svg11.dtd">
<!-- Generated by graphviz version 2.40.1 (20161225.0304)
 -->
<!-- Title: oneDegreeRelationshipsDiagram Pages: 1 -->
<svg width="406pt" height="275pt"
 viewBox="0.00 0.00 406.00 274.70" xmlns="http://www.w3.org/2000/svg" xmlns:xlink="http://www.w3.org/1999/xlink">
<g id="graph0" class="graph" transform="scale(1 1) rotate(0) translate(4 270.7)">
<title>oneDegreeRelationshipsDiagram</title>
<polygon fill="#ffffff" stroke="transparent" points="-4,4 -4,-270.7 402,-270.7 402,4 -4,4"/>
<text text-anchor="middle" x="72.4936" y="-7.3" font-family="Helvetica,sans-Serif" font-size="11.00" fill="#000000">Generated by SchemaSpy</text>
<!-- bestellung_position -->
<g id="node1" class="node">
<title>bestellung_position</title>
<g id="a_node1"><a xlink:href="../../tables/bestellung_position.html" xlink:title="bestellung_position" target="_top">
<polygon fill="#ffffff" stroke="transparent" points="166,-106.7 166,-262.7 390,-262.7 390,-106.7 166,-106.7"/>
<polygon fill="#f5f5f5" stroke="transparent" points="168,-237.7 168,-260.7 388,-260.7 388,-237.7 168,-237.7"/>
<polygon fill="none" stroke="#000000" points="168,-237.7 168,-260.7 388,-260.7 388,-237.7 168,-237.7"/>
<text text-anchor="start" x="173" y="-246.3" font-family="Helvetica,sans-Serif" font-weight="bold" font-size="11.00" fill="#000000">bestellung_position</text>
<text text-anchor="start" x="353.0437" y="-245.8" font-family="Helvetica,sans-Serif" font-size="11.00" fill="#000000">[table]</text>
<polygon fill="none" stroke="#000000" points="168,-215.7 168,-237.7 316,-237.7 316,-215.7 168,-215.7"/>
<image xlink:href="../../images/primaryKeys.png" width="11px" height="12px" preserveAspectRatio="xMinYMin meet" x="173" y="-232.7"/>
<text text-anchor="start" x="188" y="-222.8" font-family="Helvetica,sans-Serif" font-size="11.00" fill="#000000">id</text>
<polygon fill="none" stroke="#000000" points="316,-215.7 316,-237.7 388,-237.7 388,-215.7 316,-215.7"/>
<text text-anchor="start" x="319" y="-223.4" font-family="Helvetica,sans-Serif" font-size="11.00" fill="#000000">bigserial[19]</text>
<polygon fill="none" stroke="#000000" points="168,-193.7 168,-215.7 316,-215.7 316,-193.7 168,-193.7"/>
<text text-anchor="start" x="188" y="-200.8" font-family="Helvetica,sans-Serif" font-size="11.00" fill="#000000">einzelpreis</text>
<polygon fill="none" stroke="#000000" points="316,-193.7 316,-215.7 388,-215.7 388,-193.7 316,-193.7"/>
<text text-anchor="start" x="318.6876" y="-201.4" font-family="Helvetica,sans-Serif" font-size="11.00" fill="#000000">numeric[10,2]</text>
<polygon fill="none" stroke="#000000" points="168,-171.7 168,-193.7 316,-193.7 316,-171.7 168,-171.7"/>
<text text-anchor="start" x="188" y="-178.8" font-family="Helvetica,sans-Serif" font-size="11.00" fill="#000000">menge</text>
<polygon fill="none" stroke="#000000" points="316,-171.7 316,-193.7 388,-193.7 388,-171.7 316,-171.7"/>
<text text-anchor="start" x="319" y="-179.4" font-family="Helvetica,sans-Serif" font-size="11.00" fill="#000000">int4[10]</text>
<polygon fill="none" stroke="#000000" points="168,-149.7 168,-171.7 316,-171.7 316,-149.7 168,-149.7"/>
<image xlink:href="../../images/foreignKeys.png" width="11px" height="12px" preserveAspectRatio="xMinYMin meet" x="173" y="-166.7"/>
<text text-anchor="start" x="188" y="-156.8" font-family="Helvetica,sans-Serif" font-size="11.00" fill="#000000">bestellung_id</text>
<polygon fill="none" stroke="#000000" points="316,-149.7 316,-171.7 388,-171.7 388,-149.7 316,-149.7"/>
<text text-anchor="start" x="319" y="-157.4" font-family="Helvetica,sans-Serif" font-size="11.00" fill="#000000">int8[19]</text>
<polygon fill="none" stroke="#000000" points="168,-127.7 168,-149.7 316,-149.7 316,-127.7 168,-127.7"/>
<image xlink:href="../../images/foreignKeys.png" width="11px" height="12px" preserveAspectRatio="xMinYMin meet" x="173" y="-144.7"/>
<text text-anchor="start" x="188" y="-134.8" font-family="Helvetica,sans-Serif" font-size="11.00" fill="#000000">produkt_id</text>
<polygon fill="none" stroke="#000000" points="316,-127.7 316,-149.7 388,-149.7 388,-127.7 316,-127.7"/>
<text text-anchor="start" x="319" y="-135.4" font-family="Helvetica,sans-Serif" font-size="11.00" fill="#000000">int8[19]</text>
<polygon fill="#ffffff" stroke="transparent" points="168,-108.7 168,-127.7 388,-127.7 388,-108.7 168,-108.7"/>
<polygon fill="none" stroke="#000000" points="168,-108.7 168,-127.7 388,-127.7 388,-108.7 168,-108.7"/>
<polygon fill="#ffffff" stroke="transparent" points="169,-109.7 169,-126.7 245,-126.7 245,-109.7 169,-109.7"/>
<text text-anchor="start" x="171" y="-114.8" font-family="Helvetica,sans-Serif" font-size="11.00" fill="#000000">&lt; 2</text>
<polygon fill="#ffffff" stroke="transparent" points="245,-109.7 245,-126.7 312,-126.7 312,-109.7 245,-109.7"/>
<text text-anchor="start" x="275.4431" y="-114.8" font-family="Helvetica,sans-Serif" font-size="11.00" fill="#000000"> &#160;</text>
<polygon fill="#ffffff" stroke="transparent" points="312,-109.7 312,-126.7 387,-126.7 387,-109.7 312,-109.7"/>
<text text-anchor="start" x="369.4053" y="-114.8" font-family="Helvetica,sans-Serif" font-size="11.00" fill="#000000">0 &gt;</text>
<polygon fill="#000000" stroke="#000000" points="245,-109.7 245,-126.7 245,-126.7 245,-109.7 245,-109.7"/>
<polygon fill="#000000" stroke="#000000" points="312,-109.7 312,-126.7 312,-126.7 312,-109.7 312,-109.7"/>
<polygon fill="none" stroke="#000000" stroke-width="2" points="167,-107.7 167,-261.7 389,-261.7 389,-107.7 167,-107.7"/>
</a>
</g>
</g>
<!-- bestellung -->
<g id="node2" class="node">
<title>bestellung</title>
<g id="a_node2"><a xlink:href="../../tables/bestellung.html" xlink:title="bestellung" target="_top">
<polygon fill="#ffffff" stroke="transparent" points="9,-142.2 9,-247.2 116,-247.2 116,-142.2 9,-142.2"/>
<polygon fill="#f5f5f5" stroke="transparent" points="9.5,-223.7 9.5,-246.7 116.5,-246.7 116.5,-223.7 9.5,-223.7"/>
<polygon fill="none" stroke="#000000" points="9.5,-223.7 9.5,-246.7 116.5,-246.7 116.5,-223.7 9.5,-223.7"/>
<text text-anchor="start" x="14.5" y="-232.3" font-family="Helvetica,sans-Serif" font-weight="bold" font-size="11.00" fill="#000000">bestellung</text>
<text text-anchor="start" x="82.0219" y="-231.8" font-family="Helvetica,sans-Serif" font-size="11.00" fill="#000000">[table]</text>
<polygon fill="none" stroke="#000000" points="9.5,-201.7 9.5,-223.7 116.5,-223.7 116.5,-201.7 9.5,-201.7"/>
<image xlink:href="../../images/primaryKeys.png" width="11px" height="12px" preserveAspectRatio="xMinYMin meet" x="14.5" y="-218.7"/>
<text text-anchor="start" x="29.5" y="-208.8" font-family="Helvetica,sans-Serif" font-size="11.00" fill="#000000">id</text>
<polygon fill="none" stroke="#000000" points="9.5,-179.7 9.5,-201.7 116.5,-201.7 116.5,-179.7 9.5,-179.7"/>
<image xlink:href="../../images/foreignKeys.png" width="11px" height="12px" preserveAspectRatio="xMinYMin meet" x="14.5" y="-196.7"/>
<text text-anchor="start" x="29.5" y="-186.8" font-family="Helvetica,sans-Serif" font-size="11.00" fill="#000000">kunde_id</text>
<polygon fill="none" stroke="#000000" points="9.5,-160.7 9.5,-179.7 116.5,-179.7 116.5,-160.7 9.5,-160.7"/>
<text text-anchor="start" x="12.5" y="-166.8" font-family="Helvetica,sans-Serif" font-size="11.00" fill="#000000">...</text>
<polygon fill="#ffffff" stroke="transparent" points="9.5,-141.7 9.5,-160.7 116.5,-160.7 116.5,-141.7 9.5,-141.7"/>
<polygon fill="none" stroke="#000000" points="9.5,-141.7 9.5,-160.7 116.5,-160.7 116.5,-141.7 9.5,-141.7"/>
<polygon fill="#ffffff" stroke="transparent" points="10.5,-142.7 10.5,-159.7 48.5,-159.7 48.5,-142.7 10.5,-142.7"/>
<text text-anchor="start" x="12.5" y="-147.8" font-family="Helvetica,sans-Serif" font-size="11.00" fill="#000000">&lt; 1</text>
<polygon fill="#ffffff" stroke="transparent" points="48.5,-142.7 48.5,-159.7 77.5,-159.7 77.5,-142.7 48.5,-142.7"/>
<text text-anchor="start" x="59.9431" y="-147.8" font-family="Helvetica,sans-Serif" font-size="11.00" fill="#000000"> &#160;</text>
<polygon fill="#ffffff" stroke="transparent" points="77.5,-142.7 77.5,-159.7 115.5,-159.7 115.5,-142.7 77.5,-142.7"/>
<text text-anchor="start" x="97.9053" y="-147.8" font-family="Helvetica,sans-Serif" font-size="11.00" fill="#000000">2 &gt;</text>
<polygon fill="#000000" stroke="#000000" points="48.5,-142.7 48.5,-159.7 48.5,-159.7 48.5,-142.7 48.5,-142.7"/>
<polygon fill="#000000" stroke="#000000" points="77.5,-142.7 77.5,-159.7 77.5,-159.7 77.5,-142.7 77.5,-142.7"/>
</a>
</g>
</g>
<!-- bestellung_position&#45;&gt;bestellung -->
<g id="edge1" class="edge">
<title>bestellung_position:w&#45;&gt;bestellung:e</title>
<path fill="none" stroke="#000000" d="M153.9561,-165.4988C138.9356,-178.3719 142.9284,-212.7 116.5,-212.7"/>
<polygon fill="#000000" stroke="#000000" points="160.4297,-163.2868 169.1641,-164.1066 164.2149,-161.9934 168,-160.7 168,-160.7 168,-160.7 164.2149,-161.9934 166.8359,-157.2934 160.4297,-163.2868 160.4297,-163.2868"/>
<ellipse fill="none" stroke="#000000" cx="157.4016" cy="-164.3215" rx="3.2" ry="3.2"/>
</g>
<!-- produkt -->
<g id="node3" class="node">
<title>produkt</title>
<g id="a_node3"><a xlink:href="../../tables/produkt.html" xlink:title="produkt" target="_top">
<polygon fill="#ffffff" stroke="transparent" points="8,-38.2 8,-121.2 117,-121.2 117,-38.2 8,-38.2"/>
<polygon fill="#f5f5f5" stroke="transparent" points="8.5,-97.7 8.5,-120.7 117.5,-120.7 117.5,-97.7 8.5,-97.7"/>
<polygon fill="none" stroke="#000000" points="8.5,-97.7 8.5,-120.7 117.5,-120.7 117.5,-97.7 8.5,-97.7"/>
<text text-anchor="start" x="13.5" y="-106.3" font-family="Helvetica,sans-Serif" font-weight="bold" font-size="11.00" fill="#000000">produkt</text>
<text text-anchor="start" x="82.5437" y="-105.8" font-family="Helvetica,sans-Serif" font-size="11.00" fill="#000000">[table]</text>
<polygon fill="none" stroke="#000000" points="8.5,-75.7 8.5,-97.7 117.5,-97.7 117.5,-75.7 8.5,-75.7"/>
<image xlink:href="../../images/primaryKeys.png" width="11px" height="12px" preserveAspectRatio="xMinYMin meet" x="13.5" y="-92.7"/>
<text text-anchor="start" x="28.5" y="-82.8" font-family="Helvetica,sans-Serif" font-size="11.00" fill="#000000">id</text>
<polygon fill="none" stroke="#000000" points="8.5,-56.7 8.5,-75.7 117.5,-75.7 117.5,-56.7 8.5,-56.7"/>
<text text-anchor="start" x="11.5" y="-62.8" font-family="Helvetica,sans-Serif" font-size="11.00" fill="#000000">...</text>
<polygon fill="#ffffff" stroke="transparent" points="8.5,-37.7 8.5,-56.7 117.5,-56.7 117.5,-37.7 8.5,-37.7"/>
<polygon fill="none" stroke="#000000" points="8.5,-37.7 8.5,-56.7 117.5,-56.7 117.5,-37.7 8.5,-37.7"/>
<polygon fill="#ffffff" stroke="transparent" points="9.5,-38.7 9.5,-55.7 42.5,-55.7 42.5,-38.7 9.5,-38.7"/>
<text text-anchor="start" x="11.5" y="-43.8" font-family="Helvetica,sans-Serif" font-size="11.00" fill="#000000"> &#160;</text>
<polygon fill="#ffffff" stroke="transparent" points="42.5,-38.7 42.5,-55.7 75.5,-55.7 75.5,-38.7 42.5,-38.7"/>
<text text-anchor="start" x="55.9431" y="-43.8" font-family="Helvetica,sans-Serif" font-size="11.00" fill="#000000"> &#160;</text>
<polygon fill="#ffffff" stroke="transparent" points="75.5,-38.7 75.5,-55.7 116.5,-55.7 116.5,-38.7 75.5,-38.7"/>
<text text-anchor="start" x="98.9053" y="-43.8" font-family="Helvetica,sans-Serif" font-size="11.00" fill="#000000">1 &gt;</text>
<polygon fill="#000000" stroke="#000000" points="42.5,-38.7 42.5,-55.7 42.5,-55.7 42.5,-38.7 42.5,-38.7"/>
<polygon fill="#000000" stroke="#000000" points="75.5,-38.7 75.5,-55.7 75.5,-55.7 75.5,-38.7 75.5,-38.7"/>
</a>
</g>
</g>
<!-- bestellung_position&#45;&gt;produkt -->
<g id="edge2" class="edge">
<title>bestellung_position:w&#45;&gt;produkt:e</title>
<path fill="none" stroke="#000000" d="M154.1372,-133.9012C139.3861,-121.0281 143.6756,-86.7 117.5,-86.7"/>
<polygon fill="#000000" stroke="#000000" points="160.4401,-136.083 166.8223,-142.1019 164.2201,-137.3915 168,-138.7 168,-138.7 168,-138.7 164.2201,-137.3915 169.1777,-135.2981 160.4401,-136.083 160.4401,-136.083"/>
<ellipse fill="none" stroke="#000000" cx="157.4162" cy="-135.0362" rx="3.2" ry="3.2"/>
</g>
</g>
</svg>
