<?xml version="1.0" encoding="UTF-8" standalone="no"?>
<!DOCTYPE svg PUBLIC "-//W3C//DTD SVG 1.1//EN"
 "http://www.w3.org/Graphics/SVG/1.1/DTD/svg11.dtd">
<!-- Generated by graphviz version 2.40.1 (20161225.0304)
 -->
<!-- Title: twoDegreesRelationshipsDiagram Pages: 1 -->
<svg width="535pt" height="305pt"
 viewBox="0.00 0.00 535.00 305.20" xmlns="http://www.w3.org/2000/svg" xmlns:xlink="http://www.w3.org/1999/xlink">
<g id="graph0" class="graph" transform="scale(1 1) rotate(0) translate(4 301.2)">
<title>twoDegreesRelationshipsDiagram</title>
<polygon fill="#ffffff" stroke="transparent" points="-4,4 -4,-301.2 531,-301.2 531,4 -4,4"/>
<text text-anchor="middle" x="72.4936" y="-7.3" font-family="Helvetica,sans-Serif" font-size="11.00" fill="#000000">Generated by SchemaSpy</text>
<!-- bestellung -->
<g id="node1" class="node">
<title>bestellung</title>
<g id="a_node1"><a xlink:href="../../tables/bestellung.html" xlink:title="bestellung" target="_top">
<polygon fill="#ffffff" stroke="transparent" points="138,-165.2 138,-270.2 245,-270.2 245,-165.2 138,-165.2"/>
<polygon fill="#f5f5f5" stroke="transparent" points="138.5,-246.7 138.5,-269.7 245.5,-269.7 245.5,-246.7 138.5,-246.7"/>
<polygon fill="none" stroke="#000000" points="138.5,-246.7 138.5,-269.7 245.5,-269.7 245.5,-246.7 138.5,-246.7"/>
<text text-anchor="start" x="143.5" y="-255.3" font-family="Helvetica,sans-Serif" font-weight="bold" font-size="11.00" fill="#000000">bestellung</text>
<text text-anchor="start" x="211.0219" y="-254.8" font-family="Helvetica,sans-Serif" font-size="11.00" fill="#000000">[table]</text>
<polygon fill="none" stroke="#000000" points="138.5,-224.7 138.5,-246.7 245.5,-246.7 245.5,-224.7 138.5,-224.7"/>
<image xlink:href="../../images/primaryKeys.png" width="11px" height="12px" preserveAspectRatio="xMinYMin meet" x="143.5" y="-241.7"/>
<text text-anchor="start" x="158.5" y="-231.8" font-family="Helvetica,sans-Serif" font-size="11.00" fill="#000000">id</text>
<polygon fill="none" stroke="#000000" points="138.5,-202.7 138.5,-224.7 245.5,-224.7 245.5,-202.7 138.5,-202.7"/>
<image xlink:href="../../images/foreignKeys.png" width="11px" height="12px" preserveAspectRatio="xMinYMin meet" x="143.5" y="-219.7"/>
<text text-anchor="start" x="158.5" y="-209.8" font-family="Helvetica,sans-Serif" font-size="11.00" fill="#000000">kunde_id</text>
<polygon fill="none" stroke="#000000" points="138.5,-183.7 138.5,-202.7 245.5,-202.7 245.5,-183.7 138.5,-183.7"/>
<text text-anchor="start" x="141.5" y="-189.8" font-family="Helvetica,sans-Serif" font-size="11.00" fill="#000000">...</text>
<polygon fill="#ffffff" stroke="transparent" points="138.5,-164.7 138.5,-183.7 245.5,-183.7 245.5,-164.7 138.5,-164.7"/>
<polygon fill="none" stroke="#000000" points="138.5,-164.7 138.5,-183.7 245.5,-183.7 245.5,-164.7 138.5,-164.7"/>
<polygon fill="#ffffff" stroke="transparent" points="139.5,-165.7 139.5,-182.7 177.5,-182.7 177.5,-165.7 139.5,-165.7"/>
<text text-anchor="start" x="141.5" y="-170.8" font-family="Helvetica,sans-Serif" font-size="11.00" fill="#000000">&lt; 1</text>
<polygon fill="#ffffff" stroke="transparent" points="177.5,-165.7 177.5,-182.7 206.5,-182.7 206.5,-165.7 177.5,-165.7"/>
<text text-anchor="start" x="188.9431" y="-170.8" font-family="Helvetica,sans-Serif" font-size="11.00" fill="#000000"> &#160;</text>
<polygon fill="#ffffff" stroke="transparent" points="206.5,-165.7 206.5,-182.7 244.5,-182.7 244.5,-165.7 206.5,-165.7"/>
<text text-anchor="start" x="226.9053" y="-170.8" font-family="Helvetica,sans-Serif" font-size="11.00" fill="#000000">2 &gt;</text>
<polygon fill="#000000" stroke="#000000" points="177.5,-165.7 177.5,-182.7 177.5,-182.7 177.5,-165.7 177.5,-165.7"/>
<polygon fill="#000000" stroke="#000000" points="206.5,-165.7 206.5,-182.7 206.5,-182.7 206.5,-165.7 206.5,-165.7"/>
</a>
</g>
</g>
<!-- kunde -->
<g id="node2" class="node">
<title>kunde</title>
<g id="a_node2"><a xlink:href="../../tables/kunde.html" xlink:title="kunde" target="_top">
<polygon fill="#ffffff" stroke="transparent" points="8,-186.2 8,-247.2 88,-247.2 88,-186.2 8,-186.2"/>
<polygon fill="#f5f5f5" stroke="transparent" points="8,-223.7 8,-246.7 88,-246.7 88,-223.7 8,-223.7"/>
<polygon fill="none" stroke="#000000" points="8,-223.7 8,-246.7 88,-246.7 88,-223.7 8,-223.7"/>
<text text-anchor="start" x="13" y="-232.3" font-family="Helvetica,sans-Serif" font-weight="bold" font-size="11.00" fill="#000000">kunde</text>
<text text-anchor="start" x="53.5219" y="-231.8" font-family="Helvetica,sans-Serif" font-size="11.00" fill="#000000">[table]</text>
<polygon fill="none" stroke="#000000" points="8,-204.7 8,-223.7 88,-223.7 88,-204.7 8,-204.7"/>
<text text-anchor="start" x="11" y="-210.8" font-family="Helvetica,sans-Serif" font-size="11.00" fill="#000000">...</text>
<polygon fill="#ffffff" stroke="transparent" points="8,-185.7 8,-204.7 88,-204.7 88,-185.7 8,-185.7"/>
<polygon fill="none" stroke="#000000" points="8,-185.7 8,-204.7 88,-204.7 88,-185.7 8,-185.7"/>
<polygon fill="#ffffff" stroke="transparent" points="9,-186.7 9,-203.7 32,-203.7 32,-186.7 9,-186.7"/>
<text text-anchor="start" x="11" y="-191.8" font-family="Helvetica,sans-Serif" font-size="11.00" fill="#000000"> &#160;</text>
<polygon fill="#ffffff" stroke="transparent" points="32,-186.7 32,-203.7 55,-203.7 55,-186.7 32,-186.7"/>
<text text-anchor="start" x="40.4431" y="-191.8" font-family="Helvetica,sans-Serif" font-size="11.00" fill="#000000"> &#160;</text>
<polygon fill="#ffffff" stroke="transparent" points="55,-186.7 55,-203.7 87,-203.7 87,-186.7 55,-186.7"/>
<text text-anchor="start" x="69.4053" y="-191.8" font-family="Helvetica,sans-Serif" font-size="11.00" fill="#000000">1 &gt;</text>
<polygon fill="#000000" stroke="#000000" points="32,-186.7 32,-203.7 32,-203.7 32,-186.7 32,-186.7"/>
<polygon fill="#000000" stroke="#000000" points="55,-186.7 55,-203.7 55,-203.7 55,-186.7 55,-186.7"/>
</a>
</g>
</g>
<!-- bestellung&#45;&gt;kunde -->
<g id="edge1" class="edge">
<title>bestellung:w&#45;&gt;kunde:e</title>
<path fill="none" stroke="#000000" d="M123.9203,-213.7C112.0435,-213.7 104.658,-213.7 88,-213.7"/>
<polygon fill="#000000" stroke="#000000" points="130.5,-213.7001 138.5,-217.3 134.5,-213.7 138.5,-213.7 138.5,-213.7 138.5,-213.7 134.5,-213.7 138.5,-210.1 130.5,-213.7001 130.5,-213.7001"/>
<ellipse fill="none" stroke="#000000" cx="127.3" cy="-213.7001" rx="3.2" ry="3.2"/>
</g>
<!-- bestellung_position -->
<g id="node3" class="node">
<title>bestellung_position</title>
<g id="a_node3"><a xlink:href="../../tables/bestellung_position.html" xlink:title="bestellung_position" target="_top">
<polygon fill="#ffffff" stroke="transparent" points="295,-54.7 295,-210.7 519,-210.7 519,-54.7 295,-54.7"/>
<polygon fill="#f5f5f5" stroke="transparent" points="297,-185.7 297,-208.7 517,-208.7 517,-185.7 297,-185.7"/>
<polygon fill="none" stroke="#000000" points="297,-185.7 297,-208.7 517,-208.7 517,-185.7 297,-185.7"/>
<text text-anchor="start" x="302" y="-194.3" font-family="Helvetica,sans-Serif" font-weight="bold" font-size="11.00" fill="#000000">bestellung_position</text>
<text text-anchor="start" x="482.0437" y="-193.8" font-family="Helvetica,sans-Serif" font-size="11.00" fill="#000000">[table]</text>
<polygon fill="none" stroke="#000000" points="297,-163.7 297,-185.7 445,-185.7 445,-163.7 297,-163.7"/>
<image xlink:href="../../images/primaryKeys.png" width="11px" height="12px" preserveAspectRatio="xMinYMin meet" x="302" y="-180.7"/>
<text text-anchor="start" x="317" y="-170.8" font-family="Helvetica,sans-Serif" font-size="11.00" fill="#000000">id</text>
<polygon fill="none" stroke="#000000" points="445,-163.7 445,-185.7 517,-185.7 517,-163.7 445,-163.7"/>
<text text-anchor="start" x="448" y="-171.4" font-family="Helvetica,sans-Serif" font-size="11.00" fill="#000000">bigserial[19]</text>
<polygon fill="none" stroke="#000000" points="297,-141.7 297,-163.7 445,-163.7 445,-141.7 297,-141.7"/>
<text text-anchor="start" x="317" y="-148.8" font-family="Helvetica,sans-Serif" font-size="11.00" fill="#000000">einzelpreis</text>
<polygon fill="none" stroke="#000000" points="445,-141.7 445,-163.7 517,-163.7 517,-141.7 445,-141.7"/>
<text text-anchor="start" x="447.6876" y="-149.4" font-family="Helvetica,sans-Serif" font-size="11.00" fill="#000000">numeric[10,2]</text>
<polygon fill="none" stroke="#000000" points="297,-119.7 297,-141.7 445,-141.7 445,-119.7 297,-119.7"/>
<text text-anchor="start" x="317" y="-126.8" font-family="Helvetica,sans-Serif" font-size="11.00" fill="#000000">menge</text>
<polygon fill="none" stroke="#000000" points="445,-119.7 445,-141.7 517,-141.7 517,-119.7 445,-119.7"/>
<text text-anchor="start" x="448" y="-127.4" font-family="Helvetica,sans-Serif" font-size="11.00" fill="#000000">int4[10]</text>
<polygon fill="none" stroke="#000000" points="297,-97.7 297,-119.7 445,-119.7 445,-97.7 297,-97.7"/>
<image xlink:href="../../images/foreignKeys.png" width="11px" height="12px" preserveAspectRatio="xMinYMin meet" x="302" y="-114.7"/>
<text text-anchor="start" x="317" y="-104.8" font-family="Helvetica,sans-Serif" font-size="11.00" fill="#000000">bestellung_id</text>
<polygon fill="none" stroke="#000000" points="445,-97.7 445,-119.7 517,-119.7 517,-97.7 445,-97.7"/>
<text text-anchor="start" x="448" y="-105.4" font-family="Helvetica,sans-Serif" font-size="11.00" fill="#000000">int8[19]</text>
<polygon fill="none" stroke="#000000" points="297,-75.7 297,-97.7 445,-97.7 445,-75.7 297,-75.7"/>
<image xlink:href="../../images/foreignKeys.png" width="11px" height="12px" preserveAspectRatio="xMinYMin meet" x="302" y="-92.7"/>
<text text-anchor="start" x="317" y="-82.8" font-family="Helvetica,sans-Serif" font-size="11.00" fill="#000000">produkt_id</text>
<polygon fill="none" stroke="#000000" points="445,-75.7 445,-97.7 517,-97.7 517,-75.7 445,-75.7"/>
<text text-anchor="start" x="448" y="-83.4" font-family="Helvetica,sans-Serif" font-size="11.00" fill="#000000">int8[19]</text>
<polygon fill="#ffffff" stroke="transparent" points="297,-56.7 297,-75.7 517,-75.7 517,-56.7 297,-56.7"/>
<polygon fill="none" stroke="#000000" points="297,-56.7 297,-75.7 517,-75.7 517,-56.7 297,-56.7"/>
<polygon fill="#ffffff" stroke="transparent" points="298,-57.7 298,-74.7 374,-74.7 374,-57.7 298,-57.7"/>
<text text-anchor="start" x="300" y="-62.8" font-family="Helvetica,sans-Serif" font-size="11.00" fill="#000000">&lt; 2</text>
<polygon fill="#ffffff" stroke="transparent" points="374,-57.7 374,-74.7 441,-74.7 441,-57.7 374,-57.7"/>
<text text-anchor="start" x="404.4431" y="-62.8" font-family="Helvetica,sans-Serif" font-size="11.00" fill="#000000"> &#160;</text>
<polygon fill="#ffffff" stroke="transparent" points="441,-57.7 441,-74.7 516,-74.7 516,-57.7 441,-57.7"/>
<text text-anchor="start" x="498.4053" y="-62.8" font-family="Helvetica,sans-Serif" font-size="11.00" fill="#000000">0 &gt;</text>
<polygon fill="#000000" stroke="#000000" points="374,-57.7 374,-74.7 374,-74.7 374,-57.7 374,-57.7"/>
<polygon fill="#000000" stroke="#000000" points="441,-57.7 441,-74.7 441,-74.7 441,-57.7 441,-57.7"/>
<polygon fill="none" stroke="#000000" stroke-width="2" points="296,-55.7 296,-209.7 518,-209.7 518,-55.7 296,-55.7"/>
</a>
</g>
</g>
<!-- bestellung_position&#45;&gt;bestellung -->
<g id="edge2" class="edge">
<title>bestellung_position:w&#45;&gt;bestellung:e</title>
<path fill="none" stroke="#000000" d="M282.6656,-112.0969C248.5737,-132.2935 300.4606,-235.7 245.5,-235.7"/>
<polygon fill="#000000" stroke="#000000" points="289.2156,-110.5448 297.8302,-112.203 293.1078,-109.6224 297,-108.7 297,-108.7 297,-108.7 293.1078,-109.6224 296.1698,-105.197 289.2156,-110.5448 289.2156,-110.5448"/>
<ellipse fill="none" stroke="#000000" cx="286.1018" cy="-111.2827" rx="3.2" ry="3.2"/>
</g>
<!-- produkt -->
<g id="node4" class="node">
<title>produkt</title>
<g id="a_node4"><a xlink:href="../../tables/produkt.html" xlink:title="produkt" target="_top">
<polygon fill="#ffffff" stroke="transparent" points="137,-38.2 137,-121.2 246,-121.2 246,-38.2 137,-38.2"/>
<polygon fill="#f5f5f5" stroke="transparent" points="137.5,-97.7 137.5,-120.7 246.5,-120.7 246.5,-97.7 137.5,-97.7"/>
<polygon fill="none" stroke="#000000" points="137.5,-97.7 137.5,-120.7 246.5,-120.7 246.5,-97.7 137.5,-97.7"/>
<text text-anchor="start" x="142.5" y="-106.3" font-family="Helvetica,sans-Serif" font-weight="bold" font-size="11.00" fill="#000000">produkt</text>
<text text-anchor="start" x="211.5437" y="-105.8" font-family="Helvetica,sans-Serif" font-size="11.00" fill="#000000">[table]</text>
<polygon fill="none" stroke="#000000" points="137.5,-75.7 137.5,-97.7 246.5,-97.7 246.5,-75.7 137.5,-75.7"/>
<image xlink:href="../../images/primaryKeys.png" width="11px" height="12px" preserveAspectRatio="xMinYMin meet" x="142.5" y="-92.7"/>
<text text-anchor="start" x="157.5" y="-82.8" font-family="Helvetica,sans-Serif" font-size="11.00" fill="#000000">id</text>
<polygon fill="none" stroke="#000000" points="137.5,-56.7 137.5,-75.7 246.5,-75.7 246.5,-56.7 137.5,-56.7"/>
<text text-anchor="start" x="140.5" y="-62.8" font-family="Helvetica,sans-Serif" font-size="11.00" fill="#000000">...</text>
<polygon fill="#ffffff" stroke="transparent" points="137.5,-37.7 137.5,-56.7 246.5,-56.7 246.5,-37.7 137.5,-37.7"/>
<polygon fill="none" stroke="#000000" points="137.5,-37.7 137.5,-56.7 246.5,-56.7 246.5,-37.7 137.5,-37.7"/>
<polygon fill="#ffffff" stroke="transparent" points="138.5,-38.7 138.5,-55.7 171.5,-55.7 171.5,-38.7 138.5,-38.7"/>
<text text-anchor="start" x="140.5" y="-43.8" font-family="Helvetica,sans-Serif" font-size="11.00" fill="#000000"> &#160;</text>
<polygon fill="#ffffff" stroke="transparent" points="171.5,-38.7 171.5,-55.7 204.5,-55.7 204.5,-38.7 171.5,-38.7"/>
<text text-anchor="start" x="184.9431" y="-43.8" font-family="Helvetica,sans-Serif" font-size="11.00" fill="#000000"> &#160;</text>
<polygon fill="#ffffff" stroke="transparent" points="204.5,-38.7 204.5,-55.7 245.5,-55.7 245.5,-38.7 204.5,-38.7"/>
<text text-anchor="start" x="227.9053" y="-43.8" font-family="Helvetica,sans-Serif" font-size="11.00" fill="#000000">1 &gt;</text>
<polygon fill="#000000" stroke="#000000" points="171.5,-38.7 171.5,-55.7 171.5,-55.7 171.5,-38.7 171.5,-38.7"/>
<polygon fill="#000000" stroke="#000000" points="204.5,-38.7 204.5,-55.7 204.5,-55.7 204.5,-38.7 204.5,-38.7"/>
</a>
</g>
</g>
<!-- bestellung_position&#45;&gt;produkt -->
<g id="edge3" class="edge">
<title>bestellung_position:w&#45;&gt;produkt:e</title>
<path fill="none" stroke="#000000" d="M282.4203,-86.7C270.5435,-86.7 263.158,-86.7 246.5,-86.7"/>
<polygon fill="#000000" stroke="#000000" points="289,-86.7001 297,-90.3 293,-86.7 297,-86.7 297,-86.7 297,-86.7 293,-86.7 297,-83.1 289,-86.7001 289,-86.7001"/>
<ellipse fill="none" stroke="#000000" cx="285.8" cy="-86.7001" rx="3.2" ry="3.2"/>
</g>
<!-- rechnung -->
<g id="node5" class="node">
<title>rechnung</title>
<g id="a_node5"><a xlink:href="../../tables/rechnung.html" xlink:title="rechnung" target="_top">
<polygon fill="#ffffff" stroke="transparent" points="356.5,-232.2 356.5,-293.2 457.5,-293.2 457.5,-232.2 356.5,-232.2"/>
<polygon fill="#f5f5f5" stroke="transparent" points="357,-269.7 357,-292.7 458,-292.7 458,-269.7 357,-269.7"/>
<polygon fill="none" stroke="#000000" points="357,-269.7 357,-292.7 458,-292.7 458,-269.7 357,-269.7"/>
<text text-anchor="start" x="362" y="-278.3" font-family="Helvetica,sans-Serif" font-weight="bold" font-size="11.00" fill="#000000">rechnung</text>
<text text-anchor="start" x="423.5219" y="-277.8" font-family="Helvetica,sans-Serif" font-size="11.00" fill="#000000">[table]</text>
<polygon fill="none" stroke="#000000" points="357,-250.7 357,-269.7 458,-269.7 458,-250.7 357,-250.7"/>
<text text-anchor="start" x="360" y="-256.8" font-family="Helvetica,sans-Serif" font-size="11.00" fill="#000000">...</text>
<polygon fill="#ffffff" stroke="transparent" points="357,-231.7 357,-250.7 458,-250.7 458,-231.7 357,-231.7"/>
<polygon fill="none" stroke="#000000" points="357,-231.7 357,-250.7 458,-250.7 458,-231.7 357,-231.7"/>
<polygon fill="#ffffff" stroke="transparent" points="358,-232.7 358,-249.7 397,-249.7 397,-232.7 358,-232.7"/>
<text text-anchor="start" x="360" y="-237.8" font-family="Helvetica,sans-Serif" font-size="11.00" fill="#000000">&lt; 1</text>
<polygon fill="#ffffff" stroke="transparent" points="397,-232.7 397,-249.7 427,-249.7 427,-232.7 397,-232.7"/>
<text text-anchor="start" x="408.9431" y="-237.8" font-family="Helvetica,sans-Serif" font-size="11.00" fill="#000000"> &#160;</text>
<polygon fill="#ffffff" stroke="transparent" points="427,-232.7 427,-249.7 457,-249.7 457,-232.7 427,-232.7"/>
<text text-anchor="start" x="448.8862" y="-237.8" font-family="Helvetica,sans-Serif" font-size="11.00" fill="#000000"> &#160;</text>
<polygon fill="#000000" stroke="#000000" points="397,-232.7 397,-249.7 397,-249.7 397,-232.7 397,-232.7"/>
<polygon fill="#000000" stroke="#000000" points="427,-232.7 427,-249.7 427,-249.7 427,-232.7 427,-232.7"/>
</a>
</g>
</g>
<!-- rechnung&#45;&gt;bestellung -->
<g id="edge4" class="edge">
<title>rechnung:w&#45;&gt;bestellung:e</title>
<path fill="none" stroke="#000000" d="M346.3507,-259.323C304.5839,-256.2697 292.4284,-235.7 245.5,-235.7"/>
<polygon fill="#000000" stroke="#000000" points="356.342,-255.6742 356.059,-263.6692 354.46,-263.6126 354.743,-255.6176 356.342,-255.6742"/>
<polyline fill="none" stroke="#000000" points="357,-259.7 353.0025,-259.5585 "/>
<ellipse fill="none" stroke="#000000" cx="349.8045" cy="-259.4452" rx="3.2" ry="3.2"/>
</g>
</g>
</svg>
