<?xml version="1.0" encoding="UTF-8" standalone="no"?>
<!DOCTYPE svg PUBLIC "-//W3C//DTD SVG 1.1//EN"
 "http://www.w3.org/Graphics/SVG/1.1/DTD/svg11.dtd">
<!-- Generated by graphviz version 2.40.1 (20161225.0304)
 -->
<!-- Title: twoDegreesRelationshipsDiagram Pages: 1 -->
<svg width="606pt" height="327pt"
 viewBox="0.00 0.00 606.00 327.20" xmlns="http://www.w3.org/2000/svg" xmlns:xlink="http://www.w3.org/1999/xlink">
<g id="graph0" class="graph" transform="scale(1 1) rotate(0) translate(4 323.2)">
<title>twoDegreesRelationshipsDiagram</title>
<polygon fill="#ffffff" stroke="transparent" points="-4,4 -4,-323.2 602,-323.2 602,4 -4,4"/>
<text text-anchor="middle" x="72.4936" y="-7.3" font-family="Helvetica,sans-Serif" font-size="11.00" fill="#000000">Generated by SchemaSpy</text>
<!-- bestellung -->
<g id="node1" class="node">
<title>bestellung</title>
<g id="a_node1"><a xlink:href="../../tables/bestellung.html" xlink:title="bestellung" target="_top">
<polygon fill="#ffffff" stroke="transparent" points="180,-138.7 180,-272.7 375,-272.7 375,-138.7 180,-138.7"/>
<polygon fill="#f5f5f5" stroke="transparent" points="182.5,-247.7 182.5,-270.7 373.5,-270.7 373.5,-247.7 182.5,-247.7"/>
<polygon fill="none" stroke="#000000" points="182.5,-247.7 182.5,-270.7 373.5,-270.7 373.5,-247.7 182.5,-247.7"/>
<text text-anchor="start" x="187.5" y="-256.3" font-family="Helvetica,sans-Serif" font-weight="bold" font-size="11.00" fill="#000000">bestellung</text>
<text text-anchor="start" x="338.5437" y="-255.8" font-family="Helvetica,sans-Serif" font-size="11.00" fill="#000000">[table]</text>
<polygon fill="none" stroke="#000000" points="182.5,-225.7 182.5,-247.7 289.5,-247.7 289.5,-225.7 182.5,-225.7"/>
<image xlink:href="../../images/primaryKeys.png" width="11px" height="12px" preserveAspectRatio="xMinYMin meet" x="187.5" y="-242.7"/>
<text text-anchor="start" x="202.5" y="-232.8" font-family="Helvetica,sans-Serif" font-size="11.00" fill="#000000">id</text>
<polygon fill="none" stroke="#000000" points="289.5,-225.7 289.5,-247.7 373.5,-247.7 373.5,-225.7 289.5,-225.7"/>
<text text-anchor="start" x="292.5" y="-233.4" font-family="Helvetica,sans-Serif" font-size="11.00" fill="#000000">bigserial[19]</text>
<polygon fill="none" stroke="#000000" points="182.5,-203.7 182.5,-225.7 289.5,-225.7 289.5,-203.7 182.5,-203.7"/>
<text text-anchor="start" x="202.5" y="-210.8" font-family="Helvetica,sans-Serif" font-size="11.00" fill="#000000">bestelldatum</text>
<polygon fill="none" stroke="#000000" points="289.5,-203.7 289.5,-225.7 373.5,-225.7 373.5,-203.7 289.5,-203.7"/>
<text text-anchor="start" x="292.3807" y="-211.4" font-family="Helvetica,sans-Serif" font-size="11.00" fill="#000000">timestamp[29,6]</text>
<polygon fill="none" stroke="#000000" points="182.5,-181.7 182.5,-203.7 289.5,-203.7 289.5,-181.7 182.5,-181.7"/>
<text text-anchor="start" x="202.5" y="-188.8" font-family="Helvetica,sans-Serif" font-size="11.00" fill="#000000">status</text>
<polygon fill="none" stroke="#000000" points="289.5,-181.7 289.5,-203.7 373.5,-203.7 373.5,-181.7 289.5,-181.7"/>
<text text-anchor="start" x="292.5" y="-189.4" font-family="Helvetica,sans-Serif" font-size="11.00" fill="#000000">varchar[255]</text>
<polygon fill="none" stroke="#000000" points="182.5,-159.7 182.5,-181.7 289.5,-181.7 289.5,-159.7 182.5,-159.7"/>
<image xlink:href="../../images/foreignKeys.png" width="11px" height="12px" preserveAspectRatio="xMinYMin meet" x="187.5" y="-176.7"/>
<text text-anchor="start" x="202.5" y="-166.8" font-family="Helvetica,sans-Serif" font-size="11.00" fill="#000000">kunde_id</text>
<polygon fill="none" stroke="#000000" points="289.5,-159.7 289.5,-181.7 373.5,-181.7 373.5,-159.7 289.5,-159.7"/>
<text text-anchor="start" x="292.5" y="-167.4" font-family="Helvetica,sans-Serif" font-size="11.00" fill="#000000">int8[19]</text>
<polygon fill="#ffffff" stroke="transparent" points="182.5,-140.7 182.5,-159.7 373.5,-159.7 373.5,-140.7 182.5,-140.7"/>
<polygon fill="none" stroke="#000000" points="182.5,-140.7 182.5,-159.7 373.5,-159.7 373.5,-140.7 182.5,-140.7"/>
<polygon fill="#ffffff" stroke="transparent" points="183.5,-141.7 183.5,-158.7 249.5,-158.7 249.5,-141.7 183.5,-141.7"/>
<text text-anchor="start" x="185.5" y="-146.8" font-family="Helvetica,sans-Serif" font-size="11.00" fill="#000000">&lt; 1</text>
<polygon fill="#ffffff" stroke="transparent" points="249.5,-141.7 249.5,-158.7 306.5,-158.7 306.5,-141.7 249.5,-141.7"/>
<text text-anchor="start" x="274.9431" y="-146.8" font-family="Helvetica,sans-Serif" font-size="11.00" fill="#000000"> &#160;</text>
<polygon fill="#ffffff" stroke="transparent" points="306.5,-141.7 306.5,-158.7 372.5,-158.7 372.5,-141.7 306.5,-141.7"/>
<text text-anchor="start" x="354.9053" y="-146.8" font-family="Helvetica,sans-Serif" font-size="11.00" fill="#000000">2 &gt;</text>
<polygon fill="#000000" stroke="#000000" points="249.5,-141.7 249.5,-158.7 249.5,-158.7 249.5,-141.7 249.5,-141.7"/>
<polygon fill="#000000" stroke="#000000" points="306.5,-141.7 306.5,-158.7 306.5,-158.7 306.5,-141.7 306.5,-141.7"/>
<polygon fill="none" stroke="#000000" stroke-width="2" points="181,-139.7 181,-271.7 374,-271.7 374,-139.7 181,-139.7"/>
</a>
</g>
</g>
<!-- kunde -->
<g id="node2" class="node">
<title>kunde</title>
<g id="a_node2"><a xlink:href="../../tables/kunde.html" xlink:title="kunde" target="_top">
<polygon fill="#ffffff" stroke="transparent" points="8,-100.2 8,-205.2 131,-205.2 131,-100.2 8,-100.2"/>
<polygon fill="#f5f5f5" stroke="transparent" points="8.5,-181.7 8.5,-204.7 131.5,-204.7 131.5,-181.7 8.5,-181.7"/>
<polygon fill="none" stroke="#000000" points="8.5,-181.7 8.5,-204.7 131.5,-204.7 131.5,-181.7 8.5,-181.7"/>
<text text-anchor="start" x="13.5" y="-190.3" font-family="Helvetica,sans-Serif" font-weight="bold" font-size="11.00" fill="#000000">kunde</text>
<text text-anchor="start" x="96.5437" y="-189.8" font-family="Helvetica,sans-Serif" font-size="11.00" fill="#000000">[table]</text>
<polygon fill="none" stroke="#000000" points="8.5,-159.7 8.5,-181.7 131.5,-181.7 131.5,-159.7 8.5,-159.7"/>
<image xlink:href="../../images/primaryKeys.png" width="11px" height="12px" preserveAspectRatio="xMinYMin meet" x="13.5" y="-176.7"/>
<text text-anchor="start" x="28.5" y="-166.8" font-family="Helvetica,sans-Serif" font-size="11.00" fill="#000000">id</text>
<polygon fill="#ffffff" stroke="transparent" points="8.5,-137.7 8.5,-159.7 131.5,-159.7 131.5,-137.7 8.5,-137.7"/>
<polygon fill="none" stroke="#000000" points="8.5,-137.7 8.5,-159.7 131.5,-159.7 131.5,-137.7 8.5,-137.7"/>
<text text-anchor="start" x="28.5" y="-144.8" font-family="Helvetica,sans-Serif" font-size="11.00" fill="#000000">email</text>
<polygon fill="none" stroke="#000000" points="8.5,-118.7 8.5,-137.7 131.5,-137.7 131.5,-118.7 8.5,-118.7"/>
<text text-anchor="start" x="11.5" y="-124.8" font-family="Helvetica,sans-Serif" font-size="11.00" fill="#000000">...</text>
<polygon fill="#ffffff" stroke="transparent" points="8.5,-99.7 8.5,-118.7 131.5,-118.7 131.5,-99.7 8.5,-99.7"/>
<polygon fill="none" stroke="#000000" points="8.5,-99.7 8.5,-118.7 131.5,-118.7 131.5,-99.7 8.5,-99.7"/>
<polygon fill="#ffffff" stroke="transparent" points="9.5,-100.7 9.5,-117.7 47.5,-117.7 47.5,-100.7 9.5,-100.7"/>
<text text-anchor="start" x="11.5" y="-105.8" font-family="Helvetica,sans-Serif" font-size="11.00" fill="#000000"> &#160;</text>
<polygon fill="#ffffff" stroke="transparent" points="47.5,-100.7 47.5,-117.7 84.5,-117.7 84.5,-100.7 47.5,-100.7"/>
<text text-anchor="start" x="62.9431" y="-105.8" font-family="Helvetica,sans-Serif" font-size="11.00" fill="#000000"> &#160;</text>
<polygon fill="#ffffff" stroke="transparent" points="84.5,-100.7 84.5,-117.7 130.5,-117.7 130.5,-100.7 84.5,-100.7"/>
<text text-anchor="start" x="112.9053" y="-105.8" font-family="Helvetica,sans-Serif" font-size="11.00" fill="#000000">1 &gt;</text>
<polygon fill="#000000" stroke="#000000" points="47.5,-100.7 47.5,-117.7 47.5,-117.7 47.5,-100.7 47.5,-100.7"/>
<polygon fill="#000000" stroke="#000000" points="84.5,-100.7 84.5,-117.7 84.5,-117.7 84.5,-100.7 84.5,-100.7"/>
</a>
</g>
</g>
<!-- bestellung&#45;&gt;kunde -->
<g id="edge1" class="edge">
<title>bestellung:w&#45;&gt;kunde:e</title>
<path fill="none" stroke="#000000" d="M167.776,-170.7C155.7815,-170.7 148.3229,-170.7 131.5,-170.7"/>
<polygon fill="#000000" stroke="#000000" points="174.5,-170.7001 182.5,-174.3 178.5,-170.7 182.5,-170.7 182.5,-170.7 182.5,-170.7 178.5,-170.7 182.5,-167.1 174.5,-170.7001 174.5,-170.7001"/>
<ellipse fill="none" stroke="#000000" cx="171.3" cy="-170.7001" rx="3.2" ry="3.2"/>
</g>
<!-- bestellung_position -->
<g id="node3" class="node">
<title>bestellung_position</title>
<g id="a_node3"><a xlink:href="../../tables/bestellung_position.html" xlink:title="bestellung_position" target="_top">
<polygon fill="#ffffff" stroke="transparent" points="424,-38.2 424,-165.2 590,-165.2 590,-38.2 424,-38.2"/>
<polygon fill="#f5f5f5" stroke="transparent" points="424,-141.7 424,-164.7 590,-164.7 590,-141.7 424,-141.7"/>
<polygon fill="none" stroke="#000000" points="424,-141.7 424,-164.7 590,-164.7 590,-141.7 424,-141.7"/>
<text text-anchor="start" x="429" y="-150.3" font-family="Helvetica,sans-Serif" font-weight="bold" font-size="11.00" fill="#000000">bestellung_position</text>
<text text-anchor="start" x="555.5219" y="-149.8" font-family="Helvetica,sans-Serif" font-size="11.00" fill="#000000">[table]</text>
<polygon fill="none" stroke="#000000" points="424,-119.7 424,-141.7 590,-141.7 590,-119.7 424,-119.7"/>
<image xlink:href="../../images/primaryKeys.png" width="11px" height="12px" preserveAspectRatio="xMinYMin meet" x="429" y="-136.7"/>
<text text-anchor="start" x="453" y="-126.8" font-family="Helvetica,sans-Serif" font-size="11.00" fill="#000000">id</text>
<polygon fill="none" stroke="#000000" points="424,-97.7 424,-119.7 590,-119.7 590,-97.7 424,-97.7"/>
<image xlink:href="../../images/foreignKeys.png" width="11px" height="12px" preserveAspectRatio="xMinYMin meet" x="429" y="-114.7"/>
<text text-anchor="start" x="453" y="-104.8" font-family="Helvetica,sans-Serif" font-size="11.00" fill="#000000">bestellung_id</text>
<polygon fill="none" stroke="#000000" points="424,-75.7 424,-97.7 590,-97.7 590,-75.7 424,-75.7"/>
<image xlink:href="../../images/foreignKeys.png" width="11px" height="12px" preserveAspectRatio="xMinYMin meet" x="429" y="-92.7"/>
<text text-anchor="start" x="453" y="-82.8" font-family="Helvetica,sans-Serif" font-size="11.00" fill="#000000">produkt_id</text>
<polygon fill="none" stroke="#000000" points="424,-56.7 424,-75.7 590,-75.7 590,-56.7 424,-56.7"/>
<text text-anchor="start" x="427" y="-62.8" font-family="Helvetica,sans-Serif" font-size="11.00" fill="#000000">...</text>
<polygon fill="#ffffff" stroke="transparent" points="424,-37.7 424,-56.7 590,-56.7 590,-37.7 424,-37.7"/>
<polygon fill="none" stroke="#000000" points="424,-37.7 424,-56.7 590,-56.7 590,-37.7 424,-37.7"/>
<polygon fill="#ffffff" stroke="transparent" points="425,-38.7 425,-55.7 486,-55.7 486,-38.7 425,-38.7"/>
<text text-anchor="start" x="427" y="-43.8" font-family="Helvetica,sans-Serif" font-size="11.00" fill="#000000">&lt; 2</text>
<polygon fill="#ffffff" stroke="transparent" points="486,-38.7 486,-55.7 538,-55.7 538,-38.7 486,-38.7"/>
<text text-anchor="start" x="508.9431" y="-43.8" font-family="Helvetica,sans-Serif" font-size="11.00" fill="#000000"> &#160;</text>
<polygon fill="#ffffff" stroke="transparent" points="538,-38.7 538,-55.7 589,-55.7 589,-38.7 538,-38.7"/>
<text text-anchor="start" x="580.8862" y="-43.8" font-family="Helvetica,sans-Serif" font-size="11.00" fill="#000000"> &#160;</text>
<polygon fill="#000000" stroke="#000000" points="486,-38.7 486,-55.7 486,-55.7 486,-38.7 486,-38.7"/>
<polygon fill="#000000" stroke="#000000" points="538,-38.7 538,-55.7 538,-55.7 538,-38.7 538,-38.7"/>
</a>
</g>
</g>
<!-- bestellung_position&#45;&gt;bestellung -->
<g id="edge2" class="edge">
<title>bestellung_position:w&#45;&gt;bestellung:e</title>
<path fill="none" stroke="#000000" d="M409.6397,-112.1237C375.6015,-132.4793 428.684,-236.7 373.5,-236.7"/>
<polygon fill="#000000" stroke="#000000" points="416.2181,-110.5554 424.8349,-112.2019 420.1091,-109.6277 424,-108.7 424,-108.7 424,-108.7 420.1091,-109.6277 423.1651,-105.1981 416.2181,-110.5554 416.2181,-110.5554"/>
<ellipse fill="none" stroke="#000000" cx="413.1054" cy="-111.2975" rx="3.2" ry="3.2"/>
</g>
<!-- produkt -->
<g id="node4" class="node">
<title>produkt</title>
<g id="a_node4"><a xlink:href="../../tables/produkt.html" xlink:title="produkt" target="_top">
<polygon fill="#ffffff" stroke="transparent" points="232,-56.2 232,-117.2 323,-117.2 323,-56.2 232,-56.2"/>
<polygon fill="#f5f5f5" stroke="transparent" points="232.5,-93.7 232.5,-116.7 323.5,-116.7 323.5,-93.7 232.5,-93.7"/>
<polygon fill="none" stroke="#000000" points="232.5,-93.7 232.5,-116.7 323.5,-116.7 323.5,-93.7 232.5,-93.7"/>
<text text-anchor="start" x="237.5" y="-102.3" font-family="Helvetica,sans-Serif" font-weight="bold" font-size="11.00" fill="#000000">produkt</text>
<text text-anchor="start" x="289.0219" y="-101.8" font-family="Helvetica,sans-Serif" font-size="11.00" fill="#000000">[table]</text>
<polygon fill="none" stroke="#000000" points="232.5,-74.7 232.5,-93.7 323.5,-93.7 323.5,-74.7 232.5,-74.7"/>
<text text-anchor="start" x="235.5" y="-80.8" font-family="Helvetica,sans-Serif" font-size="11.00" fill="#000000">...</text>
<polygon fill="#ffffff" stroke="transparent" points="232.5,-55.7 232.5,-74.7 323.5,-74.7 323.5,-55.7 232.5,-55.7"/>
<polygon fill="none" stroke="#000000" points="232.5,-55.7 232.5,-74.7 323.5,-74.7 323.5,-55.7 232.5,-55.7"/>
<polygon fill="#ffffff" stroke="transparent" points="233.5,-56.7 233.5,-73.7 260.5,-73.7 260.5,-56.7 233.5,-56.7"/>
<text text-anchor="start" x="235.5" y="-61.8" font-family="Helvetica,sans-Serif" font-size="11.00" fill="#000000"> &#160;</text>
<polygon fill="#ffffff" stroke="transparent" points="260.5,-56.7 260.5,-73.7 287.5,-73.7 287.5,-56.7 260.5,-56.7"/>
<text text-anchor="start" x="270.9431" y="-61.8" font-family="Helvetica,sans-Serif" font-size="11.00" fill="#000000"> &#160;</text>
<polygon fill="#ffffff" stroke="transparent" points="287.5,-56.7 287.5,-73.7 322.5,-73.7 322.5,-56.7 287.5,-56.7"/>
<text text-anchor="start" x="304.9053" y="-61.8" font-family="Helvetica,sans-Serif" font-size="11.00" fill="#000000">1 &gt;</text>
<polygon fill="#000000" stroke="#000000" points="260.5,-56.7 260.5,-73.7 260.5,-73.7 260.5,-56.7 260.5,-56.7"/>
<polygon fill="#000000" stroke="#000000" points="287.5,-56.7 287.5,-73.7 287.5,-73.7 287.5,-56.7 287.5,-56.7"/>
</a>
</g>
</g>
<!-- bestellung_position&#45;&gt;produkt -->
<g id="edge3" class="edge">
<title>bestellung_position:w&#45;&gt;produkt:e</title>
<path fill="none" stroke="#000000" d="M409.5645,-86.5861C376.2447,-86.0381 362.9499,-83.7 323.5,-83.7"/>
<polygon fill="#000000" stroke="#000000" points="416.0002,-86.6368 423.9716,-90.2999 420.0001,-86.6684 424,-86.7 424,-86.7 424,-86.7 420.0001,-86.6684 424.0284,-83.1001 416.0002,-86.6368 416.0002,-86.6368"/>
<ellipse fill="none" stroke="#000000" cx="412.8003" cy="-86.6115" rx="3.2" ry="3.2"/>
</g>
<!-- rechnung -->
<g id="node5" class="node">
<title>rechnung</title>
<g id="a_node5"><a xlink:href="../../tables/rechnung.html" xlink:title="rechnung" target="_top">
<polygon fill="#ffffff" stroke="transparent" points="434,-188.2 434,-315.2 580,-315.2 580,-188.2 434,-188.2"/>
<polygon fill="#f5f5f5" stroke="transparent" points="434,-291.7 434,-314.7 580,-314.7 580,-291.7 434,-291.7"/>
<polygon fill="none" stroke="#000000" points="434,-291.7 434,-314.7 580,-314.7 580,-291.7 434,-291.7"/>
<text text-anchor="start" x="439" y="-300.3" font-family="Helvetica,sans-Serif" font-weight="bold" font-size="11.00" fill="#000000">rechnung</text>
<text text-anchor="start" x="545.0437" y="-299.8" font-family="Helvetica,sans-Serif" font-size="11.00" fill="#000000">[table]</text>
<polygon fill="none" stroke="#000000" points="434,-269.7 434,-291.7 580,-291.7 580,-269.7 434,-269.7"/>
<image xlink:href="../../images/primaryKeys.png" width="11px" height="12px" preserveAspectRatio="xMinYMin meet" x="439" y="-286.7"/>
<text text-anchor="start" x="454" y="-276.8" font-family="Helvetica,sans-Serif" font-size="11.00" fill="#000000">id</text>
<polygon fill="#ffffff" stroke="transparent" points="434,-247.7 434,-269.7 580,-269.7 580,-247.7 434,-247.7"/>
<polygon fill="none" stroke="#000000" points="434,-247.7 434,-269.7 580,-269.7 580,-247.7 434,-247.7"/>
<text text-anchor="start" x="454" y="-254.8" font-family="Helvetica,sans-Serif" font-size="11.00" fill="#000000">rechnungsnummer</text>
<polygon fill="#ffffff" stroke="transparent" points="434,-225.7 434,-247.7 580,-247.7 580,-225.7 434,-225.7"/>
<polygon fill="none" stroke="#000000" points="434,-225.7 434,-247.7 580,-247.7 580,-225.7 434,-225.7"/>
<image xlink:href="../../images/foreignKeys.png" width="11px" height="12px" preserveAspectRatio="xMinYMin meet" x="439" y="-242.7"/>
<text text-anchor="start" x="454" y="-232.8" font-family="Helvetica,sans-Serif" font-size="11.00" fill="#000000">bestellung_id</text>
<polygon fill="none" stroke="#000000" points="434,-206.7 434,-225.7 580,-225.7 580,-206.7 434,-206.7"/>
<text text-anchor="start" x="437" y="-212.8" font-family="Helvetica,sans-Serif" font-size="11.00" fill="#000000">...</text>
<polygon fill="#ffffff" stroke="transparent" points="434,-187.7 434,-206.7 580,-206.7 580,-187.7 434,-187.7"/>
<polygon fill="none" stroke="#000000" points="434,-187.7 434,-206.7 580,-206.7 580,-187.7 434,-187.7"/>
<polygon fill="#ffffff" stroke="transparent" points="435,-188.7 435,-205.7 489,-205.7 489,-188.7 435,-188.7"/>
<text text-anchor="start" x="437" y="-193.8" font-family="Helvetica,sans-Serif" font-size="11.00" fill="#000000">&lt; 1</text>
<polygon fill="#ffffff" stroke="transparent" points="489,-188.7 489,-205.7 534,-205.7 534,-188.7 489,-188.7"/>
<text text-anchor="start" x="508.4431" y="-193.8" font-family="Helvetica,sans-Serif" font-size="11.00" fill="#000000"> &#160;</text>
<polygon fill="#ffffff" stroke="transparent" points="534,-188.7 534,-205.7 579,-205.7 579,-188.7 534,-188.7"/>
<text text-anchor="start" x="570.8862" y="-193.8" font-family="Helvetica,sans-Serif" font-size="11.00" fill="#000000"> &#160;</text>
<polygon fill="#000000" stroke="#000000" points="489,-188.7 489,-205.7 489,-205.7 489,-188.7 489,-188.7"/>
<polygon fill="#000000" stroke="#000000" points="534,-188.7 534,-205.7 534,-205.7 534,-188.7 534,-188.7"/>
</a>
</g>
</g>
<!-- rechnung&#45;&gt;bestellung -->
<g id="edge4" class="edge">
<title>rechnung:w&#45;&gt;bestellung:e</title>
<path fill="none" stroke="#000000" d="M423.4832,-236.7C404.7467,-236.7 396.5026,-236.7 373.5,-236.7"/>
<polygon fill="#000000" stroke="#000000" points="433.2,-232.7 433.2,-240.7 431.6,-240.7 431.6,-232.7 433.2,-232.7"/>
<polyline fill="none" stroke="#000000" points="434,-236.7 430,-236.7 "/>
<ellipse fill="none" stroke="#000000" cx="426.8" cy="-236.7001" rx="3.2" ry="3.2"/>
</g>
</g>
</svg>
