<?xml version="1.0" encoding="UTF-8" standalone="no"?>
<!DOCTYPE svg PUBLIC "-//W3C//DTD SVG 1.1//EN"
 "http://www.w3.org/Graphics/SVG/1.1/DTD/svg11.dtd">
<!-- Generated by graphviz version 2.40.1 (20161225.0304)
 -->
<!-- Title: twoDegreesRelationshipsDiagram Pages: 1 -->
<svg width="535pt" height="275pt"
 viewBox="0.00 0.00 535.00 274.70" xmlns="http://www.w3.org/2000/svg" xmlns:xlink="http://www.w3.org/1999/xlink">
<g id="graph0" class="graph" transform="scale(1 1) rotate(0) translate(4 270.7)">
<title>twoDegreesRelationshipsDiagram</title>
<polygon fill="#ffffff" stroke="transparent" points="-4,4 -4,-270.7 531,-270.7 531,4 -4,4"/>
<text text-anchor="middle" x="72.4936" y="-7.3" font-family="Helvetica,sans-Serif" font-size="11.00" fill="#000000">Generated by SchemaSpy</text>
<!-- bestellung -->
<g id="node1" class="node">
<title>bestellung</title>
<g id="a_node1"><a xlink:href="../../tables/bestellung.html" xlink:title="bestellung" target="_top">
<polygon fill="#ffffff" stroke="transparent" points="138,-142.2 138,-247.2 245,-247.2 245,-142.2 138,-142.2"/>
<polygon fill="#f5f5f5" stroke="transparent" points="138.5,-223.7 138.5,-246.7 245.5,-246.7 245.5,-223.7 138.5,-223.7"/>
<polygon fill="none" stroke="#000000" points="138.5,-223.7 138.5,-246.7 245.5,-246.7 245.5,-223.7 138.5,-223.7"/>
<text text-anchor="start" x="143.5" y="-232.3" font-family="Helvetica,sans-Serif" font-weight="bold" font-size="11.00" fill="#000000">bestellung</text>
<text text-anchor="start" x="211.0219" y="-231.8" font-family="Helvetica,sans-Serif" font-size="11.00" fill="#000000">[table]</text>
<polygon fill="none" stroke="#000000" points="138.5,-201.7 138.5,-223.7 245.5,-223.7 245.5,-201.7 138.5,-201.7"/>
<image xlink:href="../../images/primaryKeys.png" width="11px" height="12px" preserveAspectRatio="xMinYMin meet" x="143.5" y="-218.7"/>
<text text-anchor="start" x="158.5" y="-208.8" font-family="Helvetica,sans-Serif" font-size="11.00" fill="#000000">id</text>
<polygon fill="none" stroke="#000000" points="138.5,-179.7 138.5,-201.7 245.5,-201.7 245.5,-179.7 138.5,-179.7"/>
<image xlink:href="../../images/foreignKeys.png" width="11px" height="12px" preserveAspectRatio="xMinYMin meet" x="143.5" y="-196.7"/>
<text text-anchor="start" x="158.5" y="-186.8" font-family="Helvetica,sans-Serif" font-size="11.00" fill="#000000">kunde_id</text>
<polygon fill="none" stroke="#000000" points="138.5,-160.7 138.5,-179.7 245.5,-179.7 245.5,-160.7 138.5,-160.7"/>
<text text-anchor="start" x="141.5" y="-166.8" font-family="Helvetica,sans-Serif" font-size="11.00" fill="#000000">...</text>
<polygon fill="#ffffff" stroke="transparent" points="138.5,-141.7 138.5,-160.7 245.5,-160.7 245.5,-141.7 138.5,-141.7"/>
<polygon fill="none" stroke="#000000" points="138.5,-141.7 138.5,-160.7 245.5,-160.7 245.5,-141.7 138.5,-141.7"/>
<polygon fill="#ffffff" stroke="transparent" points="139.5,-142.7 139.5,-159.7 177.5,-159.7 177.5,-142.7 139.5,-142.7"/>
<text text-anchor="start" x="141.5" y="-147.8" font-family="Helvetica,sans-Serif" font-size="11.00" fill="#000000">&lt; 1</text>
<polygon fill="#ffffff" stroke="transparent" points="177.5,-142.7 177.5,-159.7 206.5,-159.7 206.5,-142.7 177.5,-142.7"/>
<text text-anchor="start" x="188.9431" y="-147.8" font-family="Helvetica,sans-Serif" font-size="11.00" fill="#000000"> &#160;</text>
<polygon fill="#ffffff" stroke="transparent" points="206.5,-142.7 206.5,-159.7 244.5,-159.7 244.5,-142.7 206.5,-142.7"/>
<text text-anchor="start" x="226.9053" y="-147.8" font-family="Helvetica,sans-Serif" font-size="11.00" fill="#000000">1 &gt;</text>
<polygon fill="#000000" stroke="#000000" points="177.5,-142.7 177.5,-159.7 177.5,-159.7 177.5,-142.7 177.5,-142.7"/>
<polygon fill="#000000" stroke="#000000" points="206.5,-142.7 206.5,-159.7 206.5,-159.7 206.5,-142.7 206.5,-142.7"/>
</a>
</g>
</g>
<!-- kunde -->
<g id="node2" class="node">
<title>kunde</title>
<g id="a_node2"><a xlink:href="../../tables/kunde.html" xlink:title="kunde" target="_top">
<polygon fill="#ffffff" stroke="transparent" points="8,-163.2 8,-224.2 88,-224.2 88,-163.2 8,-163.2"/>
<polygon fill="#f5f5f5" stroke="transparent" points="8,-200.7 8,-223.7 88,-223.7 88,-200.7 8,-200.7"/>
<polygon fill="none" stroke="#000000" points="8,-200.7 8,-223.7 88,-223.7 88,-200.7 8,-200.7"/>
<text text-anchor="start" x="13" y="-209.3" font-family="Helvetica,sans-Serif" font-weight="bold" font-size="11.00" fill="#000000">kunde</text>
<text text-anchor="start" x="53.5219" y="-208.8" font-family="Helvetica,sans-Serif" font-size="11.00" fill="#000000">[table]</text>
<polygon fill="none" stroke="#000000" points="8,-181.7 8,-200.7 88,-200.7 88,-181.7 8,-181.7"/>
<text text-anchor="start" x="11" y="-187.8" font-family="Helvetica,sans-Serif" font-size="11.00" fill="#000000">...</text>
<polygon fill="#ffffff" stroke="transparent" points="8,-162.7 8,-181.7 88,-181.7 88,-162.7 8,-162.7"/>
<polygon fill="none" stroke="#000000" points="8,-162.7 8,-181.7 88,-181.7 88,-162.7 8,-162.7"/>
<polygon fill="#ffffff" stroke="transparent" points="9,-163.7 9,-180.7 32,-180.7 32,-163.7 9,-163.7"/>
<text text-anchor="start" x="11" y="-168.8" font-family="Helvetica,sans-Serif" font-size="11.00" fill="#000000"> &#160;</text>
<polygon fill="#ffffff" stroke="transparent" points="32,-163.7 32,-180.7 55,-180.7 55,-163.7 32,-163.7"/>
<text text-anchor="start" x="40.4431" y="-168.8" font-family="Helvetica,sans-Serif" font-size="11.00" fill="#000000"> &#160;</text>
<polygon fill="#ffffff" stroke="transparent" points="55,-163.7 55,-180.7 87,-180.7 87,-163.7 55,-163.7"/>
<text text-anchor="start" x="69.4053" y="-168.8" font-family="Helvetica,sans-Serif" font-size="11.00" fill="#000000">1 &gt;</text>
<polygon fill="#000000" stroke="#000000" points="32,-163.7 32,-180.7 32,-180.7 32,-163.7 32,-163.7"/>
<polygon fill="#000000" stroke="#000000" points="55,-163.7 55,-180.7 55,-180.7 55,-163.7 55,-163.7"/>
</a>
</g>
</g>
<!-- bestellung&#45;&gt;kunde -->
<g id="edge1" class="edge">
<title>bestellung:w&#45;&gt;kunde:e</title>
<path fill="none" stroke="#000000" d="M123.9203,-190.7C112.0435,-190.7 104.658,-190.7 88,-190.7"/>
<polygon fill="#000000" stroke="#000000" points="130.5,-190.7001 138.5,-194.3 134.5,-190.7 138.5,-190.7 138.5,-190.7 138.5,-190.7 134.5,-190.7 138.5,-187.1 130.5,-190.7001 130.5,-190.7001"/>
<ellipse fill="none" stroke="#000000" cx="127.3" cy="-190.7001" rx="3.2" ry="3.2"/>
</g>
<!-- bestellung_position -->
<g id="node3" class="node">
<title>bestellung_position</title>
<g id="a_node3"><a xlink:href="../../tables/bestellung_position.html" xlink:title="bestellung_position" target="_top">
<polygon fill="#ffffff" stroke="transparent" points="295,-106.7 295,-262.7 519,-262.7 519,-106.7 295,-106.7"/>
<polygon fill="#f5f5f5" stroke="transparent" points="297,-237.7 297,-260.7 517,-260.7 517,-237.7 297,-237.7"/>
<polygon fill="none" stroke="#000000" points="297,-237.7 297,-260.7 517,-260.7 517,-237.7 297,-237.7"/>
<text text-anchor="start" x="302" y="-246.3" font-family="Helvetica,sans-Serif" font-weight="bold" font-size="11.00" fill="#000000">bestellung_position</text>
<text text-anchor="start" x="482.0437" y="-245.8" font-family="Helvetica,sans-Serif" font-size="11.00" fill="#000000">[table]</text>
<polygon fill="none" stroke="#000000" points="297,-215.7 297,-237.7 445,-237.7 445,-215.7 297,-215.7"/>
<image xlink:href="../../images/primaryKeys.png" width="11px" height="12px" preserveAspectRatio="xMinYMin meet" x="302" y="-232.7"/>
<text text-anchor="start" x="317" y="-222.8" font-family="Helvetica,sans-Serif" font-size="11.00" fill="#000000">id</text>
<polygon fill="none" stroke="#000000" points="445,-215.7 445,-237.7 517,-237.7 517,-215.7 445,-215.7"/>
<text text-anchor="start" x="448" y="-223.4" font-family="Helvetica,sans-Serif" font-size="11.00" fill="#000000">bigserial[19]</text>
<polygon fill="none" stroke="#000000" points="297,-193.7 297,-215.7 445,-215.7 445,-193.7 297,-193.7"/>
<text text-anchor="start" x="317" y="-200.8" font-family="Helvetica,sans-Serif" font-size="11.00" fill="#000000">einzelpreis</text>
<polygon fill="none" stroke="#000000" points="445,-193.7 445,-215.7 517,-215.7 517,-193.7 445,-193.7"/>
<text text-anchor="start" x="447.6876" y="-201.4" font-family="Helvetica,sans-Serif" font-size="11.00" fill="#000000">numeric[10,2]</text>
<polygon fill="none" stroke="#000000" points="297,-171.7 297,-193.7 445,-193.7 445,-171.7 297,-171.7"/>
<text text-anchor="start" x="317" y="-178.8" font-family="Helvetica,sans-Serif" font-size="11.00" fill="#000000">menge</text>
<polygon fill="none" stroke="#000000" points="445,-171.7 445,-193.7 517,-193.7 517,-171.7 445,-171.7"/>
<text text-anchor="start" x="448" y="-179.4" font-family="Helvetica,sans-Serif" font-size="11.00" fill="#000000">int4[10]</text>
<polygon fill="none" stroke="#000000" points="297,-149.7 297,-171.7 445,-171.7 445,-149.7 297,-149.7"/>
<image xlink:href="../../images/foreignKeys.png" width="11px" height="12px" preserveAspectRatio="xMinYMin meet" x="302" y="-166.7"/>
<text text-anchor="start" x="317" y="-156.8" font-family="Helvetica,sans-Serif" font-size="11.00" fill="#000000">bestellung_id</text>
<polygon fill="none" stroke="#000000" points="445,-149.7 445,-171.7 517,-171.7 517,-149.7 445,-149.7"/>
<text text-anchor="start" x="448" y="-157.4" font-family="Helvetica,sans-Serif" font-size="11.00" fill="#000000">int8[19]</text>
<polygon fill="none" stroke="#000000" points="297,-127.7 297,-149.7 445,-149.7 445,-127.7 297,-127.7"/>
<image xlink:href="../../images/foreignKeys.png" width="11px" height="12px" preserveAspectRatio="xMinYMin meet" x="302" y="-144.7"/>
<text text-anchor="start" x="317" y="-134.8" font-family="Helvetica,sans-Serif" font-size="11.00" fill="#000000">produkt_id</text>
<polygon fill="none" stroke="#000000" points="445,-127.7 445,-149.7 517,-149.7 517,-127.7 445,-127.7"/>
<text text-anchor="start" x="448" y="-135.4" font-family="Helvetica,sans-Serif" font-size="11.00" fill="#000000">int8[19]</text>
<polygon fill="#ffffff" stroke="transparent" points="297,-108.7 297,-127.7 517,-127.7 517,-108.7 297,-108.7"/>
<polygon fill="none" stroke="#000000" points="297,-108.7 297,-127.7 517,-127.7 517,-108.7 297,-108.7"/>
<polygon fill="#ffffff" stroke="transparent" points="298,-109.7 298,-126.7 374,-126.7 374,-109.7 298,-109.7"/>
<text text-anchor="start" x="300" y="-114.8" font-family="Helvetica,sans-Serif" font-size="11.00" fill="#000000">&lt; 2</text>
<polygon fill="#ffffff" stroke="transparent" points="374,-109.7 374,-126.7 441,-126.7 441,-109.7 374,-109.7"/>
<text text-anchor="start" x="404.4431" y="-114.8" font-family="Helvetica,sans-Serif" font-size="11.00" fill="#000000"> &#160;</text>
<polygon fill="#ffffff" stroke="transparent" points="441,-109.7 441,-126.7 516,-126.7 516,-109.7 441,-109.7"/>
<text text-anchor="start" x="498.4053" y="-114.8" font-family="Helvetica,sans-Serif" font-size="11.00" fill="#000000">0 &gt;</text>
<polygon fill="#000000" stroke="#000000" points="374,-109.7 374,-126.7 374,-126.7 374,-109.7 374,-109.7"/>
<polygon fill="#000000" stroke="#000000" points="441,-109.7 441,-126.7 441,-126.7 441,-109.7 441,-109.7"/>
<polygon fill="none" stroke="#000000" stroke-width="2" points="296,-107.7 296,-261.7 518,-261.7 518,-107.7 296,-107.7"/>
</a>
</g>
</g>
<!-- bestellung_position&#45;&gt;bestellung -->
<g id="edge2" class="edge">
<title>bestellung_position:w&#45;&gt;bestellung:e</title>
<path fill="none" stroke="#000000" d="M282.9561,-165.4988C267.9356,-178.3719 271.9284,-212.7 245.5,-212.7"/>
<polygon fill="#000000" stroke="#000000" points="289.4297,-163.2868 298.1641,-164.1066 293.2149,-161.9934 297,-160.7 297,-160.7 297,-160.7 293.2149,-161.9934 295.8359,-157.2934 289.4297,-163.2868 289.4297,-163.2868"/>
<ellipse fill="none" stroke="#000000" cx="286.4016" cy="-164.3215" rx="3.2" ry="3.2"/>
</g>
<!-- produkt -->
<g id="node4" class="node">
<title>produkt</title>
<g id="a_node4"><a xlink:href="../../tables/produkt.html" xlink:title="produkt" target="_top">
<polygon fill="#ffffff" stroke="transparent" points="137,-38.2 137,-121.2 246,-121.2 246,-38.2 137,-38.2"/>
<polygon fill="#f5f5f5" stroke="transparent" points="137.5,-97.7 137.5,-120.7 246.5,-120.7 246.5,-97.7 137.5,-97.7"/>
<polygon fill="none" stroke="#000000" points="137.5,-97.7 137.5,-120.7 246.5,-120.7 246.5,-97.7 137.5,-97.7"/>
<text text-anchor="start" x="142.5" y="-106.3" font-family="Helvetica,sans-Serif" font-weight="bold" font-size="11.00" fill="#000000">produkt</text>
<text text-anchor="start" x="211.5437" y="-105.8" font-family="Helvetica,sans-Serif" font-size="11.00" fill="#000000">[table]</text>
<polygon fill="none" stroke="#000000" points="137.5,-75.7 137.5,-97.7 246.5,-97.7 246.5,-75.7 137.5,-75.7"/>
<image xlink:href="../../images/primaryKeys.png" width="11px" height="12px" preserveAspectRatio="xMinYMin meet" x="142.5" y="-92.7"/>
<text text-anchor="start" x="157.5" y="-82.8" font-family="Helvetica,sans-Serif" font-size="11.00" fill="#000000">id</text>
<polygon fill="none" stroke="#000000" points="137.5,-56.7 137.5,-75.7 246.5,-75.7 246.5,-56.7 137.5,-56.7"/>
<text text-anchor="start" x="140.5" y="-62.8" font-family="Helvetica,sans-Serif" font-size="11.00" fill="#000000">...</text>
<polygon fill="#ffffff" stroke="transparent" points="137.5,-37.7 137.5,-56.7 246.5,-56.7 246.5,-37.7 137.5,-37.7"/>
<polygon fill="none" stroke="#000000" points="137.5,-37.7 137.5,-56.7 246.5,-56.7 246.5,-37.7 137.5,-37.7"/>
<polygon fill="#ffffff" stroke="transparent" points="138.5,-38.7 138.5,-55.7 171.5,-55.7 171.5,-38.7 138.5,-38.7"/>
<text text-anchor="start" x="140.5" y="-43.8" font-family="Helvetica,sans-Serif" font-size="11.00" fill="#000000"> &#160;</text>
<polygon fill="#ffffff" stroke="transparent" points="171.5,-38.7 171.5,-55.7 204.5,-55.7 204.5,-38.7 171.5,-38.7"/>
<text text-anchor="start" x="184.9431" y="-43.8" font-family="Helvetica,sans-Serif" font-size="11.00" fill="#000000"> &#160;</text>
<polygon fill="#ffffff" stroke="transparent" points="204.5,-38.7 204.5,-55.7 245.5,-55.7 245.5,-38.7 204.5,-38.7"/>
<text text-anchor="start" x="227.9053" y="-43.8" font-family="Helvetica,sans-Serif" font-size="11.00" fill="#000000">1 &gt;</text>
<polygon fill="#000000" stroke="#000000" points="171.5,-38.7 171.5,-55.7 171.5,-55.7 171.5,-38.7 171.5,-38.7"/>
<polygon fill="#000000" stroke="#000000" points="204.5,-38.7 204.5,-55.7 204.5,-55.7 204.5,-38.7 204.5,-38.7"/>
</a>
</g>
</g>
<!-- bestellung_position&#45;&gt;produkt -->
<g id="edge3" class="edge">
<title>bestellung_position:w&#45;&gt;produkt:e</title>
<path fill="none" stroke="#000000" d="M283.1372,-133.9012C268.3861,-121.0281 272.6756,-86.7 246.5,-86.7"/>
<polygon fill="#000000" stroke="#000000" points="289.4401,-136.083 295.8223,-142.1019 293.2201,-137.3915 297,-138.7 297,-138.7 297,-138.7 293.2201,-137.3915 298.1777,-135.2981 289.4401,-136.083 289.4401,-136.083"/>
<ellipse fill="none" stroke="#000000" cx="286.4162" cy="-135.0362" rx="3.2" ry="3.2"/>
</g>
</g>
</svg>
