<?xml version="1.0" encoding="UTF-8" standalone="no"?>
<!DOCTYPE svg PUBLIC "-//W3C//DTD SVG 1.1//EN"
 "http://www.w3.org/Graphics/SVG/1.1/DTD/svg11.dtd">
<!-- Generated by graphviz version 2.40.1 (20161225.0304)
 -->
<!-- Title: oneDegreeRelationshipsDiagram Pages: 1 -->
<svg width="322pt" height="205pt"
 viewBox="0.00 0.00 322.00 204.70" xmlns="http://www.w3.org/2000/svg" xmlns:xlink="http://www.w3.org/1999/xlink">
<g id="graph0" class="graph" transform="scale(1 1) rotate(0) translate(4 200.7)">
<title>oneDegreeRelationshipsDiagram</title>
<polygon fill="#ffffff" stroke="transparent" points="-4,4 -4,-200.7 318,-200.7 318,4 -4,4"/>
<text text-anchor="middle" x="72.4936" y="-7.3" font-family="Helvetica,sans-Serif" font-size="11.00" fill="#000000">Generated by SchemaSpy</text>
<!-- bestellung -->
<g id="node1" class="node">
<title>bestellung</title>
<g id="a_node1"><a xlink:href="../../tables/bestellung.html" xlink:title="bestellung" target="_top">
<polygon fill="#ffffff" stroke="transparent" points="199,-87.7 199,-192.7 306,-192.7 306,-87.7 199,-87.7"/>
<polygon fill="#f5f5f5" stroke="transparent" points="199.5,-169.2 199.5,-192.2 306.5,-192.2 306.5,-169.2 199.5,-169.2"/>
<polygon fill="none" stroke="#000000" points="199.5,-169.2 199.5,-192.2 306.5,-192.2 306.5,-169.2 199.5,-169.2"/>
<text text-anchor="start" x="204.5" y="-177.8" font-family="Helvetica,sans-Serif" font-weight="bold" font-size="11.00" fill="#000000">bestellung</text>
<text text-anchor="start" x="272.0219" y="-177.3" font-family="Helvetica,sans-Serif" font-size="11.00" fill="#000000">[table]</text>
<polygon fill="none" stroke="#000000" points="199.5,-147.2 199.5,-169.2 306.5,-169.2 306.5,-147.2 199.5,-147.2"/>
<image xlink:href="../../images/primaryKeys.png" width="11px" height="12px" preserveAspectRatio="xMinYMin meet" x="204.5" y="-164.2"/>
<text text-anchor="start" x="219.5" y="-154.3" font-family="Helvetica,sans-Serif" font-size="11.00" fill="#000000">id</text>
<polygon fill="none" stroke="#000000" points="199.5,-125.2 199.5,-147.2 306.5,-147.2 306.5,-125.2 199.5,-125.2"/>
<image xlink:href="../../images/foreignKeys.png" width="11px" height="12px" preserveAspectRatio="xMinYMin meet" x="204.5" y="-142.2"/>
<text text-anchor="start" x="219.5" y="-132.3" font-family="Helvetica,sans-Serif" font-size="11.00" fill="#000000">kunde_id</text>
<polygon fill="none" stroke="#000000" points="199.5,-106.2 199.5,-125.2 306.5,-125.2 306.5,-106.2 199.5,-106.2"/>
<text text-anchor="start" x="202.5" y="-112.3" font-family="Helvetica,sans-Serif" font-size="11.00" fill="#000000">...</text>
<polygon fill="#ffffff" stroke="transparent" points="199.5,-87.2 199.5,-106.2 306.5,-106.2 306.5,-87.2 199.5,-87.2"/>
<polygon fill="none" stroke="#000000" points="199.5,-87.2 199.5,-106.2 306.5,-106.2 306.5,-87.2 199.5,-87.2"/>
<polygon fill="#ffffff" stroke="transparent" points="200.5,-88.2 200.5,-105.2 238.5,-105.2 238.5,-88.2 200.5,-88.2"/>
<text text-anchor="start" x="202.5" y="-93.3" font-family="Helvetica,sans-Serif" font-size="11.00" fill="#000000">&lt; 1</text>
<polygon fill="#ffffff" stroke="transparent" points="238.5,-88.2 238.5,-105.2 267.5,-105.2 267.5,-88.2 238.5,-88.2"/>
<text text-anchor="start" x="249.9431" y="-93.3" font-family="Helvetica,sans-Serif" font-size="11.00" fill="#000000"> &#160;</text>
<polygon fill="#ffffff" stroke="transparent" points="267.5,-88.2 267.5,-105.2 305.5,-105.2 305.5,-88.2 267.5,-88.2"/>
<text text-anchor="start" x="287.9053" y="-93.3" font-family="Helvetica,sans-Serif" font-size="11.00" fill="#000000">1 &gt;</text>
<polygon fill="#000000" stroke="#000000" points="238.5,-88.2 238.5,-105.2 238.5,-105.2 238.5,-88.2 238.5,-88.2"/>
<polygon fill="#000000" stroke="#000000" points="267.5,-88.2 267.5,-105.2 267.5,-105.2 267.5,-88.2 267.5,-88.2"/>
</a>
</g>
</g>
<!-- kunde -->
<g id="node2" class="node">
<title>kunde</title>
<g id="a_node2"><a xlink:href="../../tables/kunde.html" xlink:title="kunde" target="_top">
<polygon fill="#ffffff" stroke="transparent" points="8,-38.2 8,-172.2 150,-172.2 150,-38.2 8,-38.2"/>
<polygon fill="#f5f5f5" stroke="transparent" points="10,-147.2 10,-170.2 148,-170.2 148,-147.2 10,-147.2"/>
<polygon fill="none" stroke="#000000" points="10,-147.2 10,-170.2 148,-170.2 148,-147.2 10,-147.2"/>
<text text-anchor="start" x="15" y="-155.8" font-family="Helvetica,sans-Serif" font-weight="bold" font-size="11.00" fill="#000000">kunde</text>
<text text-anchor="start" x="113.0437" y="-155.3" font-family="Helvetica,sans-Serif" font-size="11.00" fill="#000000">[table]</text>
<polygon fill="none" stroke="#000000" points="10,-125.2 10,-147.2 81,-147.2 81,-125.2 10,-125.2"/>
<image xlink:href="../../images/primaryKeys.png" width="11px" height="12px" preserveAspectRatio="xMinYMin meet" x="15" y="-142.2"/>
<text text-anchor="start" x="30" y="-132.3" font-family="Helvetica,sans-Serif" font-size="11.00" fill="#000000">id</text>
<polygon fill="none" stroke="#000000" points="81,-125.2 81,-147.2 148,-147.2 148,-125.2 81,-125.2"/>
<text text-anchor="start" x="84" y="-132.9" font-family="Helvetica,sans-Serif" font-size="11.00" fill="#000000">bigserial[19]</text>
<polygon fill="none" stroke="#000000" points="10,-103.2 10,-125.2 81,-125.2 81,-103.2 10,-103.2"/>
<text text-anchor="start" x="30" y="-110.3" font-family="Helvetica,sans-Serif" font-size="11.00" fill="#000000">adresse</text>
<polygon fill="none" stroke="#000000" points="81,-103.2 81,-125.2 148,-125.2 148,-103.2 81,-103.2"/>
<text text-anchor="start" x="83.9365" y="-110.9" font-family="Helvetica,sans-Serif" font-size="11.00" fill="#000000">varchar[200]</text>
<polygon fill="#ffffff" stroke="transparent" points="10,-81.2 10,-103.2 81,-103.2 81,-81.2 10,-81.2"/>
<polygon fill="none" stroke="#000000" points="10,-81.2 10,-103.2 81,-103.2 81,-81.2 10,-81.2"/>
<text text-anchor="start" x="30" y="-88.3" font-family="Helvetica,sans-Serif" font-size="11.00" fill="#000000">email</text>
<polygon fill="none" stroke="#000000" points="81,-81.2 81,-103.2 148,-103.2 148,-81.2 81,-81.2"/>
<text text-anchor="start" x="83.9365" y="-88.9" font-family="Helvetica,sans-Serif" font-size="11.00" fill="#000000">varchar[100]</text>
<polygon fill="none" stroke="#000000" points="10,-59.2 10,-81.2 81,-81.2 81,-59.2 10,-59.2"/>
<text text-anchor="start" x="30" y="-66.3" font-family="Helvetica,sans-Serif" font-size="11.00" fill="#000000">name</text>
<polygon fill="none" stroke="#000000" points="81,-59.2 81,-81.2 148,-81.2 148,-59.2 81,-59.2"/>
<text text-anchor="start" x="83.9365" y="-66.9" font-family="Helvetica,sans-Serif" font-size="11.00" fill="#000000">varchar[100]</text>
<polygon fill="#ffffff" stroke="transparent" points="10,-40.2 10,-59.2 148,-59.2 148,-40.2 10,-40.2"/>
<polygon fill="none" stroke="#000000" points="10,-40.2 10,-59.2 148,-59.2 148,-40.2 10,-40.2"/>
<polygon fill="#ffffff" stroke="transparent" points="11,-41.2 11,-58.2 60,-58.2 60,-41.2 11,-41.2"/>
<text text-anchor="start" x="13" y="-46.3" font-family="Helvetica,sans-Serif" font-size="11.00" fill="#000000">&lt; 0</text>
<polygon fill="#ffffff" stroke="transparent" points="60,-41.2 60,-58.2 99,-58.2 99,-41.2 60,-41.2"/>
<text text-anchor="start" x="76.4431" y="-46.3" font-family="Helvetica,sans-Serif" font-size="11.00" fill="#000000"> &#160;</text>
<polygon fill="#ffffff" stroke="transparent" points="99,-41.2 99,-58.2 147,-58.2 147,-41.2 99,-41.2"/>
<text text-anchor="start" x="129.4053" y="-46.3" font-family="Helvetica,sans-Serif" font-size="11.00" fill="#000000">1 &gt;</text>
<polygon fill="#000000" stroke="#000000" points="60,-41.2 60,-58.2 60,-58.2 60,-41.2 60,-41.2"/>
<polygon fill="#000000" stroke="#000000" points="99,-41.2 99,-58.2 99,-58.2 99,-41.2 99,-41.2"/>
<polygon fill="none" stroke="#000000" stroke-width="2" points="9,-39.2 9,-171.2 149,-171.2 149,-39.2 9,-39.2"/>
</a>
</g>
</g>
<!-- bestellung&#45;&gt;kunde -->
<g id="edge1" class="edge">
<title>bestellung:w&#45;&gt;kunde:e</title>
<path fill="none" stroke="#000000" d="M185.0156,-136.2C172.6771,-136.2 165.1667,-136.2 148,-136.2"/>
<polygon fill="#000000" stroke="#000000" points="191.5,-136.2001 199.5,-139.8 195.5,-136.2 199.5,-136.2 199.5,-136.2 199.5,-136.2 195.5,-136.2 199.5,-132.6 191.5,-136.2001 191.5,-136.2001"/>
<ellipse fill="none" stroke="#000000" cx="188.3" cy="-136.2001" rx="3.2" ry="3.2"/>
</g>
</g>
</svg>
