<?xml version="1.0" encoding="UTF-8" standalone="no"?>
<!DOCTYPE svg PUBLIC "-//W3C//DTD SVG 1.1//EN"
 "http://www.w3.org/Graphics/SVG/1.1/DTD/svg11.dtd">
<!-- Generated by graphviz version 2.40.1 (20161225.0304)
 -->
<!-- Title: oneDegreeRelationshipsDiagram Pages: 1 -->
<svg width="374pt" height="403pt"
 viewBox="0.00 0.00 374.00 402.70" xmlns="http://www.w3.org/2000/svg" xmlns:xlink="http://www.w3.org/1999/xlink">
<g id="graph0" class="graph" transform="scale(1 1) rotate(0) translate(4 398.7)">
<title>oneDegreeRelationshipsDiagram</title>
<polygon fill="#ffffff" stroke="transparent" points="-4,4 -4,-398.7 370,-398.7 370,4 -4,4"/>
<text text-anchor="middle" x="72.4936" y="-7.3" font-family="Helvetica,sans-Serif" font-size="11.00" fill="#000000">Generated by SchemaSpy</text>
<!-- bestellung -->
<g id="node1" class="node">
<title>bestellung</title>
<g id="a_node1"><a xlink:href="../../tables/bestellung.html" xlink:title="bestellung" target="_top">
<polygon fill="#ffffff" stroke="transparent" points="251,-285.7 251,-390.7 358,-390.7 358,-285.7 251,-285.7"/>
<polygon fill="#f5f5f5" stroke="transparent" points="251.5,-367.2 251.5,-390.2 358.5,-390.2 358.5,-367.2 251.5,-367.2"/>
<polygon fill="none" stroke="#000000" points="251.5,-367.2 251.5,-390.2 358.5,-390.2 358.5,-367.2 251.5,-367.2"/>
<text text-anchor="start" x="256.5" y="-375.8" font-family="Helvetica,sans-Serif" font-weight="bold" font-size="11.00" fill="#000000">bestellung</text>
<text text-anchor="start" x="324.0219" y="-375.3" font-family="Helvetica,sans-Serif" font-size="11.00" fill="#000000">[table]</text>
<polygon fill="none" stroke="#000000" points="251.5,-345.2 251.5,-367.2 358.5,-367.2 358.5,-345.2 251.5,-345.2"/>
<image xlink:href="../../images/primaryKeys.png" width="11px" height="12px" preserveAspectRatio="xMinYMin meet" x="256.5" y="-362.2"/>
<text text-anchor="start" x="271.5" y="-352.3" font-family="Helvetica,sans-Serif" font-size="11.00" fill="#000000">id</text>
<polygon fill="none" stroke="#000000" points="251.5,-323.2 251.5,-345.2 358.5,-345.2 358.5,-323.2 251.5,-323.2"/>
<image xlink:href="../../images/foreignKeys.png" width="11px" height="12px" preserveAspectRatio="xMinYMin meet" x="256.5" y="-340.2"/>
<text text-anchor="start" x="271.5" y="-330.3" font-family="Helvetica,sans-Serif" font-size="11.00" fill="#000000">kunde_id</text>
<polygon fill="none" stroke="#000000" points="251.5,-304.2 251.5,-323.2 358.5,-323.2 358.5,-304.2 251.5,-304.2"/>
<text text-anchor="start" x="254.5" y="-310.3" font-family="Helvetica,sans-Serif" font-size="11.00" fill="#000000">...</text>
<polygon fill="#ffffff" stroke="transparent" points="251.5,-285.2 251.5,-304.2 358.5,-304.2 358.5,-285.2 251.5,-285.2"/>
<polygon fill="none" stroke="#000000" points="251.5,-285.2 251.5,-304.2 358.5,-304.2 358.5,-285.2 251.5,-285.2"/>
<polygon fill="#ffffff" stroke="transparent" points="252.5,-286.2 252.5,-303.2 290.5,-303.2 290.5,-286.2 252.5,-286.2"/>
<text text-anchor="start" x="254.5" y="-291.3" font-family="Helvetica,sans-Serif" font-size="11.00" fill="#000000">&lt; 1</text>
<polygon fill="#ffffff" stroke="transparent" points="290.5,-286.2 290.5,-303.2 319.5,-303.2 319.5,-286.2 290.5,-286.2"/>
<text text-anchor="start" x="301.9431" y="-291.3" font-family="Helvetica,sans-Serif" font-size="11.00" fill="#000000"> &#160;</text>
<polygon fill="#ffffff" stroke="transparent" points="319.5,-286.2 319.5,-303.2 357.5,-303.2 357.5,-286.2 319.5,-286.2"/>
<text text-anchor="start" x="339.9053" y="-291.3" font-family="Helvetica,sans-Serif" font-size="11.00" fill="#000000">2 &gt;</text>
<polygon fill="#000000" stroke="#000000" points="290.5,-286.2 290.5,-303.2 290.5,-303.2 290.5,-286.2 290.5,-286.2"/>
<polygon fill="#000000" stroke="#000000" points="319.5,-286.2 319.5,-303.2 319.5,-303.2 319.5,-286.2 319.5,-286.2"/>
</a>
</g>
</g>
<!-- kunde -->
<g id="node2" class="node">
<title>kunde</title>
<g id="a_node2"><a xlink:href="../../tables/kunde.html" xlink:title="kunde" target="_top">
<polygon fill="#ffffff" stroke="transparent" points="8,-38.2 8,-370.2 202,-370.2 202,-38.2 8,-38.2"/>
<polygon fill="#f5f5f5" stroke="transparent" points="10,-345.2 10,-368.2 200,-368.2 200,-345.2 10,-345.2"/>
<polygon fill="none" stroke="#000000" points="10,-345.2 10,-368.2 200,-368.2 200,-345.2 10,-345.2"/>
<text text-anchor="start" x="15" y="-353.8" font-family="Helvetica,sans-Serif" font-weight="bold" font-size="11.00" fill="#000000">kunde</text>
<text text-anchor="start" x="165.0437" y="-353.3" font-family="Helvetica,sans-Serif" font-size="11.00" fill="#000000">[table]</text>
<polygon fill="none" stroke="#000000" points="10,-323.2 10,-345.2 133,-345.2 133,-323.2 10,-323.2"/>
<image xlink:href="../../images/primaryKeys.png" width="11px" height="12px" preserveAspectRatio="xMinYMin meet" x="15" y="-340.2"/>
<text text-anchor="start" x="30" y="-330.3" font-family="Helvetica,sans-Serif" font-size="11.00" fill="#000000">id</text>
<polygon fill="none" stroke="#000000" points="133,-323.2 133,-345.2 200,-345.2 200,-323.2 133,-323.2"/>
<text text-anchor="start" x="136" y="-330.9" font-family="Helvetica,sans-Serif" font-size="11.00" fill="#000000">bigserial[19]</text>
<polygon fill="#ffffff" stroke="transparent" points="10,-301.2 10,-323.2 133,-323.2 133,-301.2 10,-301.2"/>
<polygon fill="none" stroke="#000000" points="10,-301.2 10,-323.2 133,-323.2 133,-301.2 10,-301.2"/>
<text text-anchor="start" x="30" y="-308.3" font-family="Helvetica,sans-Serif" font-size="11.00" fill="#000000">email</text>
<polygon fill="none" stroke="#000000" points="133,-301.2 133,-323.2 200,-323.2 200,-301.2 133,-301.2"/>
<text text-anchor="start" x="135.9365" y="-308.9" font-family="Helvetica,sans-Serif" font-size="11.00" fill="#000000">varchar[100]</text>
<polygon fill="none" stroke="#000000" points="10,-279.2 10,-301.2 133,-301.2 133,-279.2 10,-279.2"/>
<text text-anchor="start" x="30" y="-286.3" font-family="Helvetica,sans-Serif" font-size="11.00" fill="#000000">geburtstag</text>
<polygon fill="none" stroke="#000000" points="133,-279.2 133,-301.2 200,-301.2 200,-279.2 133,-279.2"/>
<text text-anchor="start" x="136" y="-286.9" font-family="Helvetica,sans-Serif" font-size="11.00" fill="#000000">date[13]</text>
<polygon fill="none" stroke="#000000" points="10,-257.2 10,-279.2 133,-279.2 133,-257.2 10,-257.2"/>
<text text-anchor="start" x="30" y="-264.3" font-family="Helvetica,sans-Serif" font-size="11.00" fill="#000000">geschlecht</text>
<polygon fill="none" stroke="#000000" points="133,-257.2 133,-279.2 200,-279.2 200,-257.2 133,-257.2"/>
<text text-anchor="start" x="136" y="-264.9" font-family="Helvetica,sans-Serif" font-size="11.00" fill="#000000">varchar[20]</text>
<polygon fill="none" stroke="#000000" points="10,-235.2 10,-257.2 133,-257.2 133,-235.2 10,-235.2"/>
<text text-anchor="start" x="30" y="-242.3" font-family="Helvetica,sans-Serif" font-size="11.00" fill="#000000">hausnummer</text>
<polygon fill="none" stroke="#000000" points="133,-235.2 133,-257.2 200,-257.2 200,-235.2 133,-235.2"/>
<text text-anchor="start" x="136" y="-242.9" font-family="Helvetica,sans-Serif" font-size="11.00" fill="#000000">varchar[20]</text>
<polygon fill="none" stroke="#000000" points="10,-213.2 10,-235.2 133,-235.2 133,-213.2 10,-213.2"/>
<text text-anchor="start" x="30" y="-220.3" font-family="Helvetica,sans-Serif" font-size="11.00" fill="#000000">land</text>
<polygon fill="none" stroke="#000000" points="133,-213.2 133,-235.2 200,-235.2 200,-213.2 133,-213.2"/>
<text text-anchor="start" x="135.9365" y="-220.9" font-family="Helvetica,sans-Serif" font-size="11.00" fill="#000000">varchar[100]</text>
<polygon fill="none" stroke="#000000" points="10,-191.2 10,-213.2 133,-213.2 133,-191.2 10,-191.2"/>
<text text-anchor="start" x="30" y="-198.3" font-family="Helvetica,sans-Serif" font-size="11.00" fill="#000000">mobilnummer</text>
<polygon fill="none" stroke="#000000" points="133,-191.2 133,-213.2 200,-213.2 200,-191.2 133,-191.2"/>
<text text-anchor="start" x="136" y="-198.9" font-family="Helvetica,sans-Serif" font-size="11.00" fill="#000000">varchar[20]</text>
<polygon fill="none" stroke="#000000" points="10,-169.2 10,-191.2 133,-191.2 133,-169.2 10,-169.2"/>
<text text-anchor="start" x="30" y="-176.3" font-family="Helvetica,sans-Serif" font-size="11.00" fill="#000000">name</text>
<polygon fill="none" stroke="#000000" points="133,-169.2 133,-191.2 200,-191.2 200,-169.2 133,-169.2"/>
<text text-anchor="start" x="135.9365" y="-176.9" font-family="Helvetica,sans-Serif" font-size="11.00" fill="#000000">varchar[100]</text>
<polygon fill="none" stroke="#000000" points="10,-147.2 10,-169.2 133,-169.2 133,-147.2 10,-147.2"/>
<text text-anchor="start" x="30" y="-154.3" font-family="Helvetica,sans-Serif" font-size="11.00" fill="#000000">ort</text>
<polygon fill="none" stroke="#000000" points="133,-147.2 133,-169.2 200,-169.2 200,-147.2 133,-147.2"/>
<text text-anchor="start" x="135.9365" y="-154.9" font-family="Helvetica,sans-Serif" font-size="11.00" fill="#000000">varchar[100]</text>
<polygon fill="none" stroke="#000000" points="10,-125.2 10,-147.2 133,-147.2 133,-125.2 10,-125.2"/>
<text text-anchor="start" x="30" y="-132.3" font-family="Helvetica,sans-Serif" font-size="11.00" fill="#000000">postleitzahl</text>
<polygon fill="none" stroke="#000000" points="133,-125.2 133,-147.2 200,-147.2 200,-125.2 133,-125.2"/>
<text text-anchor="start" x="136" y="-132.9" font-family="Helvetica,sans-Serif" font-size="11.00" fill="#000000">varchar[10]</text>
<polygon fill="none" stroke="#000000" points="10,-103.2 10,-125.2 133,-125.2 133,-103.2 10,-103.2"/>
<text text-anchor="start" x="30" y="-110.3" font-family="Helvetica,sans-Serif" font-size="11.00" fill="#000000">strasse</text>
<polygon fill="none" stroke="#000000" points="133,-103.2 133,-125.2 200,-125.2 200,-103.2 133,-103.2"/>
<text text-anchor="start" x="135.9365" y="-110.9" font-family="Helvetica,sans-Serif" font-size="11.00" fill="#000000">varchar[100]</text>
<polygon fill="none" stroke="#000000" points="10,-81.2 10,-103.2 133,-103.2 133,-81.2 10,-81.2"/>
<text text-anchor="start" x="30" y="-88.3" font-family="Helvetica,sans-Serif" font-size="11.00" fill="#000000">telefonnummer</text>
<polygon fill="none" stroke="#000000" points="133,-81.2 133,-103.2 200,-103.2 200,-81.2 133,-81.2"/>
<text text-anchor="start" x="136" y="-88.9" font-family="Helvetica,sans-Serif" font-size="11.00" fill="#000000">varchar[20]</text>
<polygon fill="none" stroke="#000000" points="10,-59.2 10,-81.2 133,-81.2 133,-59.2 10,-59.2"/>
<text text-anchor="start" x="30" y="-66.3" font-family="Helvetica,sans-Serif" font-size="11.00" fill="#000000">vorname</text>
<polygon fill="none" stroke="#000000" points="133,-59.2 133,-81.2 200,-81.2 200,-59.2 133,-59.2"/>
<text text-anchor="start" x="135.9365" y="-66.9" font-family="Helvetica,sans-Serif" font-size="11.00" fill="#000000">varchar[100]</text>
<polygon fill="#ffffff" stroke="transparent" points="10,-40.2 10,-59.2 200,-59.2 200,-40.2 10,-40.2"/>
<polygon fill="none" stroke="#000000" points="10,-40.2 10,-59.2 200,-59.2 200,-40.2 10,-40.2"/>
<polygon fill="#ffffff" stroke="transparent" points="11,-41.2 11,-58.2 77,-58.2 77,-41.2 11,-41.2"/>
<text text-anchor="start" x="13" y="-46.3" font-family="Helvetica,sans-Serif" font-size="11.00" fill="#000000">&lt; 0</text>
<polygon fill="#ffffff" stroke="transparent" points="77,-41.2 77,-58.2 134,-58.2 134,-41.2 77,-41.2"/>
<text text-anchor="start" x="102.4431" y="-46.3" font-family="Helvetica,sans-Serif" font-size="11.00" fill="#000000"> &#160;</text>
<polygon fill="#ffffff" stroke="transparent" points="134,-41.2 134,-58.2 199,-58.2 199,-41.2 134,-41.2"/>
<text text-anchor="start" x="181.4053" y="-46.3" font-family="Helvetica,sans-Serif" font-size="11.00" fill="#000000">1 &gt;</text>
<polygon fill="#000000" stroke="#000000" points="77,-41.2 77,-58.2 77,-58.2 77,-41.2 77,-41.2"/>
<polygon fill="#000000" stroke="#000000" points="134,-41.2 134,-58.2 134,-58.2 134,-41.2 134,-41.2"/>
<polygon fill="none" stroke="#000000" stroke-width="2" points="9,-39.2 9,-369.2 201,-369.2 201,-39.2 9,-39.2"/>
</a>
</g>
</g>
<!-- bestellung&#45;&gt;kunde -->
<g id="edge1" class="edge">
<title>bestellung:w&#45;&gt;kunde:e</title>
<path fill="none" stroke="#000000" d="M237.0156,-334.2C224.6771,-334.2 217.1667,-334.2 200,-334.2"/>
<polygon fill="#000000" stroke="#000000" points="243.5,-334.2001 251.5,-337.8 247.5,-334.2 251.5,-334.2 251.5,-334.2 251.5,-334.2 247.5,-334.2 251.5,-330.6 243.5,-334.2001 243.5,-334.2001"/>
<ellipse fill="none" stroke="#000000" cx="240.3" cy="-334.2001" rx="3.2" ry="3.2"/>
</g>
</g>
</svg>
