<?xml version="1.0" encoding="UTF-8" standalone="no"?>
<!DOCTYPE svg PUBLIC "-//W3C//DTD SVG 1.1//EN"
 "http://www.w3.org/Graphics/SVG/1.1/DTD/svg11.dtd">
<!-- Generated by graphviz version 2.40.1 (20161225.0304)
 -->
<!-- Title: twoDegreesRelationshipsDiagram Pages: 1 -->
<svg width="537pt" height="245pt"
 viewBox="0.00 0.00 537.00 244.70" xmlns="http://www.w3.org/2000/svg" xmlns:xlink="http://www.w3.org/1999/xlink">
<g id="graph0" class="graph" transform="scale(1 1) rotate(0) translate(4 240.7)">
<title>twoDegreesRelationshipsDiagram</title>
<polygon fill="#ffffff" stroke="transparent" points="-4,4 -4,-240.7 533,-240.7 533,4 -4,4"/>
<text text-anchor="middle" x="72.4936" y="-7.3" font-family="Helvetica,sans-Serif" font-size="11.00" fill="#000000">Generated by SchemaSpy</text>
<!-- bestellung -->
<g id="node1" class="node">
<title>bestellung</title>
<g id="a_node1"><a xlink:href="../../tables/bestellung.html" xlink:title="bestellung" target="_top">
<polygon fill="#ffffff" stroke="transparent" points="199,-87.7 199,-192.7 306,-192.7 306,-87.7 199,-87.7"/>
<polygon fill="#f5f5f5" stroke="transparent" points="199.5,-169.2 199.5,-192.2 306.5,-192.2 306.5,-169.2 199.5,-169.2"/>
<polygon fill="none" stroke="#000000" points="199.5,-169.2 199.5,-192.2 306.5,-192.2 306.5,-169.2 199.5,-169.2"/>
<text text-anchor="start" x="204.5" y="-177.8" font-family="Helvetica,sans-Serif" font-weight="bold" font-size="11.00" fill="#000000">bestellung</text>
<text text-anchor="start" x="272.0219" y="-177.3" font-family="Helvetica,sans-Serif" font-size="11.00" fill="#000000">[table]</text>
<polygon fill="none" stroke="#000000" points="199.5,-147.2 199.5,-169.2 306.5,-169.2 306.5,-147.2 199.5,-147.2"/>
<image xlink:href="../../images/primaryKeys.png" width="11px" height="12px" preserveAspectRatio="xMinYMin meet" x="204.5" y="-164.2"/>
<text text-anchor="start" x="219.5" y="-154.3" font-family="Helvetica,sans-Serif" font-size="11.00" fill="#000000">id</text>
<polygon fill="none" stroke="#000000" points="199.5,-125.2 199.5,-147.2 306.5,-147.2 306.5,-125.2 199.5,-125.2"/>
<image xlink:href="../../images/foreignKeys.png" width="11px" height="12px" preserveAspectRatio="xMinYMin meet" x="204.5" y="-142.2"/>
<text text-anchor="start" x="219.5" y="-132.3" font-family="Helvetica,sans-Serif" font-size="11.00" fill="#000000">kunde_id</text>
<polygon fill="none" stroke="#000000" points="199.5,-106.2 199.5,-125.2 306.5,-125.2 306.5,-106.2 199.5,-106.2"/>
<text text-anchor="start" x="202.5" y="-112.3" font-family="Helvetica,sans-Serif" font-size="11.00" fill="#000000">...</text>
<polygon fill="#ffffff" stroke="transparent" points="199.5,-87.2 199.5,-106.2 306.5,-106.2 306.5,-87.2 199.5,-87.2"/>
<polygon fill="none" stroke="#000000" points="199.5,-87.2 199.5,-106.2 306.5,-106.2 306.5,-87.2 199.5,-87.2"/>
<polygon fill="#ffffff" stroke="transparent" points="200.5,-88.2 200.5,-105.2 238.5,-105.2 238.5,-88.2 200.5,-88.2"/>
<text text-anchor="start" x="202.5" y="-93.3" font-family="Helvetica,sans-Serif" font-size="11.00" fill="#000000">&lt; 1</text>
<polygon fill="#ffffff" stroke="transparent" points="238.5,-88.2 238.5,-105.2 267.5,-105.2 267.5,-88.2 238.5,-88.2"/>
<text text-anchor="start" x="249.9431" y="-93.3" font-family="Helvetica,sans-Serif" font-size="11.00" fill="#000000"> &#160;</text>
<polygon fill="#ffffff" stroke="transparent" points="267.5,-88.2 267.5,-105.2 305.5,-105.2 305.5,-88.2 267.5,-88.2"/>
<text text-anchor="start" x="287.9053" y="-93.3" font-family="Helvetica,sans-Serif" font-size="11.00" fill="#000000">2 &gt;</text>
<polygon fill="#000000" stroke="#000000" points="238.5,-88.2 238.5,-105.2 238.5,-105.2 238.5,-88.2 238.5,-88.2"/>
<polygon fill="#000000" stroke="#000000" points="267.5,-88.2 267.5,-105.2 267.5,-105.2 267.5,-88.2 267.5,-88.2"/>
</a>
</g>
</g>
<!-- kunde -->
<g id="node2" class="node">
<title>kunde</title>
<g id="a_node2"><a xlink:href="../../tables/kunde.html" xlink:title="kunde" target="_top">
<polygon fill="#ffffff" stroke="transparent" points="8,-38.2 8,-172.2 150,-172.2 150,-38.2 8,-38.2"/>
<polygon fill="#f5f5f5" stroke="transparent" points="10,-147.2 10,-170.2 148,-170.2 148,-147.2 10,-147.2"/>
<polygon fill="none" stroke="#000000" points="10,-147.2 10,-170.2 148,-170.2 148,-147.2 10,-147.2"/>
<text text-anchor="start" x="15" y="-155.8" font-family="Helvetica,sans-Serif" font-weight="bold" font-size="11.00" fill="#000000">kunde</text>
<text text-anchor="start" x="113.0437" y="-155.3" font-family="Helvetica,sans-Serif" font-size="11.00" fill="#000000">[table]</text>
<polygon fill="none" stroke="#000000" points="10,-125.2 10,-147.2 81,-147.2 81,-125.2 10,-125.2"/>
<image xlink:href="../../images/primaryKeys.png" width="11px" height="12px" preserveAspectRatio="xMinYMin meet" x="15" y="-142.2"/>
<text text-anchor="start" x="30" y="-132.3" font-family="Helvetica,sans-Serif" font-size="11.00" fill="#000000">id</text>
<polygon fill="none" stroke="#000000" points="81,-125.2 81,-147.2 148,-147.2 148,-125.2 81,-125.2"/>
<text text-anchor="start" x="84" y="-132.9" font-family="Helvetica,sans-Serif" font-size="11.00" fill="#000000">bigserial[19]</text>
<polygon fill="none" stroke="#000000" points="10,-103.2 10,-125.2 81,-125.2 81,-103.2 10,-103.2"/>
<text text-anchor="start" x="30" y="-110.3" font-family="Helvetica,sans-Serif" font-size="11.00" fill="#000000">adresse</text>
<polygon fill="none" stroke="#000000" points="81,-103.2 81,-125.2 148,-125.2 148,-103.2 81,-103.2"/>
<text text-anchor="start" x="83.9365" y="-110.9" font-family="Helvetica,sans-Serif" font-size="11.00" fill="#000000">varchar[200]</text>
<polygon fill="#ffffff" stroke="transparent" points="10,-81.2 10,-103.2 81,-103.2 81,-81.2 10,-81.2"/>
<polygon fill="none" stroke="#000000" points="10,-81.2 10,-103.2 81,-103.2 81,-81.2 10,-81.2"/>
<text text-anchor="start" x="30" y="-88.3" font-family="Helvetica,sans-Serif" font-size="11.00" fill="#000000">email</text>
<polygon fill="none" stroke="#000000" points="81,-81.2 81,-103.2 148,-103.2 148,-81.2 81,-81.2"/>
<text text-anchor="start" x="83.9365" y="-88.9" font-family="Helvetica,sans-Serif" font-size="11.00" fill="#000000">varchar[100]</text>
<polygon fill="none" stroke="#000000" points="10,-59.2 10,-81.2 81,-81.2 81,-59.2 10,-59.2"/>
<text text-anchor="start" x="30" y="-66.3" font-family="Helvetica,sans-Serif" font-size="11.00" fill="#000000">name</text>
<polygon fill="none" stroke="#000000" points="81,-59.2 81,-81.2 148,-81.2 148,-59.2 81,-59.2"/>
<text text-anchor="start" x="83.9365" y="-66.9" font-family="Helvetica,sans-Serif" font-size="11.00" fill="#000000">varchar[100]</text>
<polygon fill="#ffffff" stroke="transparent" points="10,-40.2 10,-59.2 148,-59.2 148,-40.2 10,-40.2"/>
<polygon fill="none" stroke="#000000" points="10,-40.2 10,-59.2 148,-59.2 148,-40.2 10,-40.2"/>
<polygon fill="#ffffff" stroke="transparent" points="11,-41.2 11,-58.2 60,-58.2 60,-41.2 11,-41.2"/>
<text text-anchor="start" x="13" y="-46.3" font-family="Helvetica,sans-Serif" font-size="11.00" fill="#000000">&lt; 0</text>
<polygon fill="#ffffff" stroke="transparent" points="60,-41.2 60,-58.2 99,-58.2 99,-41.2 60,-41.2"/>
<text text-anchor="start" x="76.4431" y="-46.3" font-family="Helvetica,sans-Serif" font-size="11.00" fill="#000000"> &#160;</text>
<polygon fill="#ffffff" stroke="transparent" points="99,-41.2 99,-58.2 147,-58.2 147,-41.2 99,-41.2"/>
<text text-anchor="start" x="129.4053" y="-46.3" font-family="Helvetica,sans-Serif" font-size="11.00" fill="#000000">1 &gt;</text>
<polygon fill="#000000" stroke="#000000" points="60,-41.2 60,-58.2 60,-58.2 60,-41.2 60,-41.2"/>
<polygon fill="#000000" stroke="#000000" points="99,-41.2 99,-58.2 99,-58.2 99,-41.2 99,-41.2"/>
<polygon fill="none" stroke="#000000" stroke-width="2" points="9,-39.2 9,-171.2 149,-171.2 149,-39.2 9,-39.2"/>
</a>
</g>
</g>
<!-- bestellung&#45;&gt;kunde -->
<g id="edge1" class="edge">
<title>bestellung:w&#45;&gt;kunde:e</title>
<path fill="none" stroke="#000000" d="M185.0156,-136.2C172.6771,-136.2 165.1667,-136.2 148,-136.2"/>
<polygon fill="#000000" stroke="#000000" points="191.5,-136.2001 199.5,-139.8 195.5,-136.2 199.5,-136.2 199.5,-136.2 199.5,-136.2 195.5,-136.2 199.5,-132.6 191.5,-136.2001 191.5,-136.2001"/>
<ellipse fill="none" stroke="#000000" cx="188.3" cy="-136.2001" rx="3.2" ry="3.2"/>
</g>
<!-- bestellung_position -->
<g id="node3" class="node">
<title>bestellung_position</title>
<g id="a_node3"><a xlink:href="../../tables/bestellung_position.html" xlink:title="bestellung_position" target="_top">
<polygon fill="#ffffff" stroke="transparent" points="355,-171.7 355,-232.7 521,-232.7 521,-171.7 355,-171.7"/>
<polygon fill="#f5f5f5" stroke="transparent" points="355,-209.2 355,-232.2 521,-232.2 521,-209.2 355,-209.2"/>
<polygon fill="none" stroke="#000000" points="355,-209.2 355,-232.2 521,-232.2 521,-209.2 355,-209.2"/>
<text text-anchor="start" x="360" y="-217.8" font-family="Helvetica,sans-Serif" font-weight="bold" font-size="11.00" fill="#000000">bestellung_position</text>
<text text-anchor="start" x="486.5219" y="-217.3" font-family="Helvetica,sans-Serif" font-size="11.00" fill="#000000">[table]</text>
<polygon fill="none" stroke="#000000" points="355,-190.2 355,-209.2 521,-209.2 521,-190.2 355,-190.2"/>
<text text-anchor="start" x="358" y="-196.3" font-family="Helvetica,sans-Serif" font-size="11.00" fill="#000000">...</text>
<polygon fill="#ffffff" stroke="transparent" points="355,-171.2 355,-190.2 521,-190.2 521,-171.2 355,-171.2"/>
<polygon fill="none" stroke="#000000" points="355,-171.2 355,-190.2 521,-190.2 521,-171.2 355,-171.2"/>
<polygon fill="#ffffff" stroke="transparent" points="356,-172.2 356,-189.2 417,-189.2 417,-172.2 356,-172.2"/>
<text text-anchor="start" x="358" y="-177.3" font-family="Helvetica,sans-Serif" font-size="11.00" fill="#000000">&lt; 2</text>
<polygon fill="#ffffff" stroke="transparent" points="417,-172.2 417,-189.2 469,-189.2 469,-172.2 417,-172.2"/>
<text text-anchor="start" x="439.9431" y="-177.3" font-family="Helvetica,sans-Serif" font-size="11.00" fill="#000000"> &#160;</text>
<polygon fill="#ffffff" stroke="transparent" points="469,-172.2 469,-189.2 520,-189.2 520,-172.2 469,-172.2"/>
<text text-anchor="start" x="511.8862" y="-177.3" font-family="Helvetica,sans-Serif" font-size="11.00" fill="#000000"> &#160;</text>
<polygon fill="#000000" stroke="#000000" points="417,-172.2 417,-189.2 417,-189.2 417,-172.2 417,-172.2"/>
<polygon fill="#000000" stroke="#000000" points="469,-172.2 469,-189.2 469,-189.2 469,-172.2 469,-172.2"/>
</a>
</g>
</g>
<!-- bestellung_position&#45;&gt;bestellung -->
<g id="edge2" class="edge">
<title>bestellung_position:w&#45;&gt;bestellung:e</title>
<path fill="none" stroke="#000000" d="M341.2884,-194.4968C328.5191,-183.7274 328.7719,-158.2 306.5,-158.2"/>
<polygon fill="#000000" stroke="#000000" points="347.4328,-196.6043 353.8319,-202.6052 351.2164,-197.9022 355,-199.2 355,-199.2 355,-199.2 351.2164,-197.9022 356.1681,-195.7948 347.4328,-196.6043 347.4328,-196.6043"/>
<ellipse fill="none" stroke="#000000" cx="344.4059" cy="-195.5661" rx="3.2" ry="3.2"/>
</g>
<!-- rechnung -->
<g id="node4" class="node">
<title>rechnung</title>
<g id="a_node4"><a xlink:href="../../tables/rechnung.html" xlink:title="rechnung" target="_top">
<polygon fill="#ffffff" stroke="transparent" points="387.5,-89.7 387.5,-150.7 488.5,-150.7 488.5,-89.7 387.5,-89.7"/>
<polygon fill="#f5f5f5" stroke="transparent" points="388,-127.2 388,-150.2 489,-150.2 489,-127.2 388,-127.2"/>
<polygon fill="none" stroke="#000000" points="388,-127.2 388,-150.2 489,-150.2 489,-127.2 388,-127.2"/>
<text text-anchor="start" x="393" y="-135.8" font-family="Helvetica,sans-Serif" font-weight="bold" font-size="11.00" fill="#000000">rechnung</text>
<text text-anchor="start" x="454.5219" y="-135.3" font-family="Helvetica,sans-Serif" font-size="11.00" fill="#000000">[table]</text>
<polygon fill="none" stroke="#000000" points="388,-108.2 388,-127.2 489,-127.2 489,-108.2 388,-108.2"/>
<text text-anchor="start" x="391" y="-114.3" font-family="Helvetica,sans-Serif" font-size="11.00" fill="#000000">...</text>
<polygon fill="#ffffff" stroke="transparent" points="388,-89.2 388,-108.2 489,-108.2 489,-89.2 388,-89.2"/>
<polygon fill="none" stroke="#000000" points="388,-89.2 388,-108.2 489,-108.2 489,-89.2 388,-89.2"/>
<polygon fill="#ffffff" stroke="transparent" points="389,-90.2 389,-107.2 428,-107.2 428,-90.2 389,-90.2"/>
<text text-anchor="start" x="391" y="-95.3" font-family="Helvetica,sans-Serif" font-size="11.00" fill="#000000">&lt; 1</text>
<polygon fill="#ffffff" stroke="transparent" points="428,-90.2 428,-107.2 458,-107.2 458,-90.2 428,-90.2"/>
<text text-anchor="start" x="439.9431" y="-95.3" font-family="Helvetica,sans-Serif" font-size="11.00" fill="#000000"> &#160;</text>
<polygon fill="#ffffff" stroke="transparent" points="458,-90.2 458,-107.2 488,-107.2 488,-90.2 458,-90.2"/>
<text text-anchor="start" x="479.8862" y="-95.3" font-family="Helvetica,sans-Serif" font-size="11.00" fill="#000000"> &#160;</text>
<polygon fill="#000000" stroke="#000000" points="428,-90.2 428,-107.2 428,-107.2 428,-90.2 428,-90.2"/>
<polygon fill="#000000" stroke="#000000" points="458,-90.2 458,-107.2 458,-107.2 458,-90.2 458,-90.2"/>
</a>
</g>
</g>
<!-- rechnung&#45;&gt;bestellung -->
<g id="edge3" class="edge">
<title>rechnung:w&#45;&gt;bestellung:e</title>
<path fill="none" stroke="#000000" d="M377.5883,-118.2135C347.0238,-124.5271 343.2462,-158.2 306.5,-158.2"/>
<polygon fill="#000000" stroke="#000000" points="386.8162,-113.2963 387.5913,-121.2587 385.9989,-121.4137 385.2237,-113.4514 386.8162,-113.2963"/>
<polyline fill="none" stroke="#000000" points="388,-117.2 384.0188,-117.5876 "/>
<ellipse fill="none" stroke="#000000" cx="380.8339" cy="-117.8976" rx="3.2" ry="3.2"/>
</g>
</g>
</svg>
