<?xml version="1.0" encoding="UTF-8" standalone="no"?>
<!DOCTYPE svg PUBLIC "-//W3C//DTD SVG 1.1//EN"
 "http://www.w3.org/Graphics/SVG/1.1/DTD/svg11.dtd">
<!-- Generated by graphviz version 2.40.1 (20161225.0304)
 -->
<!-- Title: twoDegreesRelationshipsDiagram Pages: 1 -->
<svg width="424pt" height="289pt"
 viewBox="0.00 0.00 424.00 288.70" xmlns="http://www.w3.org/2000/svg" xmlns:xlink="http://www.w3.org/1999/xlink">
<g id="graph0" class="graph" transform="scale(1 1) rotate(0) translate(4 284.7)">
<title>twoDegreesRelationshipsDiagram</title>
<polygon fill="#ffffff" stroke="transparent" points="-4,4 -4,-284.7 420,-284.7 420,4 -4,4"/>
<text text-anchor="middle" x="72.4936" y="-7.3" font-family="Helvetica,sans-Serif" font-size="11.00" fill="#000000">Generated by SchemaSpy</text>
<!-- bestellung_position -->
<g id="node1" class="node">
<title>bestellung_position</title>
<g id="a_node1"><a xlink:href="../../tables/bestellung_position.html" xlink:title="bestellung_position" target="_top">
<polygon fill="#ffffff" stroke="transparent" points="242,-140.7 242,-267.7 408,-267.7 408,-140.7 242,-140.7"/>
<polygon fill="#f5f5f5" stroke="transparent" points="242,-244.2 242,-267.2 408,-267.2 408,-244.2 242,-244.2"/>
<polygon fill="none" stroke="#000000" points="242,-244.2 242,-267.2 408,-267.2 408,-244.2 242,-244.2"/>
<text text-anchor="start" x="247" y="-252.8" font-family="Helvetica,sans-Serif" font-weight="bold" font-size="11.00" fill="#000000">bestellung_position</text>
<text text-anchor="start" x="373.5219" y="-252.3" font-family="Helvetica,sans-Serif" font-size="11.00" fill="#000000">[table]</text>
<polygon fill="none" stroke="#000000" points="242,-222.2 242,-244.2 408,-244.2 408,-222.2 242,-222.2"/>
<image xlink:href="../../images/primaryKeys.png" width="11px" height="12px" preserveAspectRatio="xMinYMin meet" x="247" y="-239.2"/>
<text text-anchor="start" x="271" y="-229.3" font-family="Helvetica,sans-Serif" font-size="11.00" fill="#000000">id</text>
<polygon fill="none" stroke="#000000" points="242,-200.2 242,-222.2 408,-222.2 408,-200.2 242,-200.2"/>
<image xlink:href="../../images/foreignKeys.png" width="11px" height="12px" preserveAspectRatio="xMinYMin meet" x="247" y="-217.2"/>
<text text-anchor="start" x="271" y="-207.3" font-family="Helvetica,sans-Serif" font-size="11.00" fill="#000000">bestellung_id</text>
<polygon fill="none" stroke="#000000" points="242,-178.2 242,-200.2 408,-200.2 408,-178.2 242,-178.2"/>
<image xlink:href="../../images/foreignKeys.png" width="11px" height="12px" preserveAspectRatio="xMinYMin meet" x="247" y="-195.2"/>
<text text-anchor="start" x="271" y="-185.3" font-family="Helvetica,sans-Serif" font-size="11.00" fill="#000000">produkt_id</text>
<polygon fill="none" stroke="#000000" points="242,-159.2 242,-178.2 408,-178.2 408,-159.2 242,-159.2"/>
<text text-anchor="start" x="245" y="-165.3" font-family="Helvetica,sans-Serif" font-size="11.00" fill="#000000">...</text>
<polygon fill="#ffffff" stroke="transparent" points="242,-140.2 242,-159.2 408,-159.2 408,-140.2 242,-140.2"/>
<polygon fill="none" stroke="#000000" points="242,-140.2 242,-159.2 408,-159.2 408,-140.2 242,-140.2"/>
<polygon fill="#ffffff" stroke="transparent" points="243,-141.2 243,-158.2 304,-158.2 304,-141.2 243,-141.2"/>
<text text-anchor="start" x="245" y="-146.3" font-family="Helvetica,sans-Serif" font-size="11.00" fill="#000000">&lt; 2</text>
<polygon fill="#ffffff" stroke="transparent" points="304,-141.2 304,-158.2 356,-158.2 356,-141.2 304,-141.2"/>
<text text-anchor="start" x="326.9431" y="-146.3" font-family="Helvetica,sans-Serif" font-size="11.00" fill="#000000"> &#160;</text>
<polygon fill="#ffffff" stroke="transparent" points="356,-141.2 356,-158.2 407,-158.2 407,-141.2 356,-141.2"/>
<text text-anchor="start" x="398.8862" y="-146.3" font-family="Helvetica,sans-Serif" font-size="11.00" fill="#000000"> &#160;</text>
<polygon fill="#000000" stroke="#000000" points="304,-141.2 304,-158.2 304,-158.2 304,-141.2 304,-141.2"/>
<polygon fill="#000000" stroke="#000000" points="356,-141.2 356,-158.2 356,-158.2 356,-141.2 356,-141.2"/>
</a>
</g>
</g>
<!-- bestellung -->
<g id="node2" class="node">
<title>bestellung</title>
<g id="a_node2"><a xlink:href="../../tables/bestellung.html" xlink:title="bestellung" target="_top">
<polygon fill="#ffffff" stroke="transparent" points="47,-215.7 47,-276.7 154,-276.7 154,-215.7 47,-215.7"/>
<polygon fill="#f5f5f5" stroke="transparent" points="47.5,-253.2 47.5,-276.2 154.5,-276.2 154.5,-253.2 47.5,-253.2"/>
<polygon fill="none" stroke="#000000" points="47.5,-253.2 47.5,-276.2 154.5,-276.2 154.5,-253.2 47.5,-253.2"/>
<text text-anchor="start" x="52.5" y="-261.8" font-family="Helvetica,sans-Serif" font-weight="bold" font-size="11.00" fill="#000000">bestellung</text>
<text text-anchor="start" x="120.0219" y="-261.3" font-family="Helvetica,sans-Serif" font-size="11.00" fill="#000000">[table]</text>
<polygon fill="none" stroke="#000000" points="47.5,-234.2 47.5,-253.2 154.5,-253.2 154.5,-234.2 47.5,-234.2"/>
<text text-anchor="start" x="50.5" y="-240.3" font-family="Helvetica,sans-Serif" font-size="11.00" fill="#000000">...</text>
<polygon fill="#ffffff" stroke="transparent" points="47.5,-215.2 47.5,-234.2 154.5,-234.2 154.5,-215.2 47.5,-215.2"/>
<polygon fill="none" stroke="#000000" points="47.5,-215.2 47.5,-234.2 154.5,-234.2 154.5,-215.2 47.5,-215.2"/>
<polygon fill="#ffffff" stroke="transparent" points="48.5,-216.2 48.5,-233.2 86.5,-233.2 86.5,-216.2 48.5,-216.2"/>
<text text-anchor="start" x="50.5" y="-221.3" font-family="Helvetica,sans-Serif" font-size="11.00" fill="#000000">&lt; 1</text>
<polygon fill="#ffffff" stroke="transparent" points="86.5,-216.2 86.5,-233.2 115.5,-233.2 115.5,-216.2 86.5,-216.2"/>
<text text-anchor="start" x="97.9431" y="-221.3" font-family="Helvetica,sans-Serif" font-size="11.00" fill="#000000"> &#160;</text>
<polygon fill="#ffffff" stroke="transparent" points="115.5,-216.2 115.5,-233.2 153.5,-233.2 153.5,-216.2 115.5,-216.2"/>
<text text-anchor="start" x="135.9053" y="-221.3" font-family="Helvetica,sans-Serif" font-size="11.00" fill="#000000">2 &gt;</text>
<polygon fill="#000000" stroke="#000000" points="86.5,-216.2 86.5,-233.2 86.5,-233.2 86.5,-216.2 86.5,-216.2"/>
<polygon fill="#000000" stroke="#000000" points="115.5,-216.2 115.5,-233.2 115.5,-233.2 115.5,-216.2 115.5,-216.2"/>
</a>
</g>
</g>
<!-- bestellung_position&#45;&gt;bestellung -->
<g id="edge1" class="edge">
<title>bestellung_position:w&#45;&gt;bestellung:e</title>
<path fill="none" stroke="#000000" d="M227.6601,-212.6581C198.7742,-218.9183 190.5702,-243.2 154.5,-243.2"/>
<polygon fill="#000000" stroke="#000000" points="234.041,-212.0093 242.3642,-214.7815 238.0205,-211.6047 242,-211.2 242,-211.2 242,-211.2 238.0205,-211.6047 241.6358,-207.6185 234.041,-212.0093 234.041,-212.0093"/>
<ellipse fill="none" stroke="#000000" cx="230.8575" cy="-212.3331" rx="3.2" ry="3.2"/>
</g>
<!-- produkt -->
<g id="node3" class="node">
<title>produkt</title>
<g id="a_node3"><a xlink:href="../../tables/produkt.html" xlink:title="produkt" target="_top">
<polygon fill="#ffffff" stroke="transparent" points="8,-38.2 8,-194.2 193,-194.2 193,-38.2 8,-38.2"/>
<polygon fill="#f5f5f5" stroke="transparent" points="10.5,-169.2 10.5,-192.2 191.5,-192.2 191.5,-169.2 10.5,-169.2"/>
<polygon fill="none" stroke="#000000" points="10.5,-169.2 10.5,-192.2 191.5,-192.2 191.5,-169.2 10.5,-169.2"/>
<text text-anchor="start" x="15.5" y="-177.8" font-family="Helvetica,sans-Serif" font-weight="bold" font-size="11.00" fill="#000000">produkt</text>
<text text-anchor="start" x="156.5437" y="-177.3" font-family="Helvetica,sans-Serif" font-size="11.00" fill="#000000">[table]</text>
<polygon fill="none" stroke="#000000" points="10.5,-147.2 10.5,-169.2 119.5,-169.2 119.5,-147.2 10.5,-147.2"/>
<image xlink:href="../../images/primaryKeys.png" width="11px" height="12px" preserveAspectRatio="xMinYMin meet" x="15.5" y="-164.2"/>
<text text-anchor="start" x="30.5" y="-154.3" font-family="Helvetica,sans-Serif" font-size="11.00" fill="#000000">id</text>
<polygon fill="none" stroke="#000000" points="119.5,-147.2 119.5,-169.2 191.5,-169.2 191.5,-147.2 119.5,-147.2"/>
<text text-anchor="start" x="122.5" y="-154.9" font-family="Helvetica,sans-Serif" font-size="11.00" fill="#000000">bigserial[19]</text>
<polygon fill="none" stroke="#000000" points="10.5,-125.2 10.5,-147.2 119.5,-147.2 119.5,-125.2 10.5,-125.2"/>
<text text-anchor="start" x="30.5" y="-132.3" font-family="Helvetica,sans-Serif" font-size="11.00" fill="#000000">beschreibung</text>
<polygon fill="none" stroke="#000000" points="119.5,-125.2 119.5,-147.2 191.5,-147.2 191.5,-125.2 119.5,-125.2"/>
<text text-anchor="start" x="122.5" y="-132.9" font-family="Helvetica,sans-Serif" font-size="11.00" fill="#000000">varchar[500]</text>
<polygon fill="none" stroke="#000000" points="10.5,-103.2 10.5,-125.2 119.5,-125.2 119.5,-103.2 10.5,-103.2"/>
<text text-anchor="start" x="30.5" y="-110.3" font-family="Helvetica,sans-Serif" font-size="11.00" fill="#000000">lagerbestand</text>
<polygon fill="none" stroke="#000000" points="119.5,-103.2 119.5,-125.2 191.5,-125.2 191.5,-103.2 119.5,-103.2"/>
<text text-anchor="start" x="122.5" y="-110.9" font-family="Helvetica,sans-Serif" font-size="11.00" fill="#000000">int4[10]</text>
<polygon fill="none" stroke="#000000" points="10.5,-81.2 10.5,-103.2 119.5,-103.2 119.5,-81.2 10.5,-81.2"/>
<text text-anchor="start" x="30.5" y="-88.3" font-family="Helvetica,sans-Serif" font-size="11.00" fill="#000000">name</text>
<polygon fill="none" stroke="#000000" points="119.5,-81.2 119.5,-103.2 191.5,-103.2 191.5,-81.2 119.5,-81.2"/>
<text text-anchor="start" x="122.5" y="-88.9" font-family="Helvetica,sans-Serif" font-size="11.00" fill="#000000">varchar[100]</text>
<polygon fill="none" stroke="#000000" points="10.5,-59.2 10.5,-81.2 119.5,-81.2 119.5,-59.2 10.5,-59.2"/>
<text text-anchor="start" x="30.5" y="-66.3" font-family="Helvetica,sans-Serif" font-size="11.00" fill="#000000">preis</text>
<polygon fill="none" stroke="#000000" points="119.5,-59.2 119.5,-81.2 191.5,-81.2 191.5,-59.2 119.5,-59.2"/>
<text text-anchor="start" x="122.1876" y="-66.9" font-family="Helvetica,sans-Serif" font-size="11.00" fill="#000000">numeric[10,2]</text>
<polygon fill="#ffffff" stroke="transparent" points="10.5,-40.2 10.5,-59.2 191.5,-59.2 191.5,-40.2 10.5,-40.2"/>
<polygon fill="none" stroke="#000000" points="10.5,-40.2 10.5,-59.2 191.5,-59.2 191.5,-40.2 10.5,-40.2"/>
<polygon fill="#ffffff" stroke="transparent" points="11.5,-41.2 11.5,-58.2 74.5,-58.2 74.5,-41.2 11.5,-41.2"/>
<text text-anchor="start" x="13.5" y="-46.3" font-family="Helvetica,sans-Serif" font-size="11.00" fill="#000000">&lt; 0</text>
<polygon fill="#ffffff" stroke="transparent" points="74.5,-41.2 74.5,-58.2 128.5,-58.2 128.5,-41.2 74.5,-41.2"/>
<text text-anchor="start" x="98.4431" y="-46.3" font-family="Helvetica,sans-Serif" font-size="11.00" fill="#000000"> &#160;</text>
<polygon fill="#ffffff" stroke="transparent" points="128.5,-41.2 128.5,-58.2 190.5,-58.2 190.5,-41.2 128.5,-41.2"/>
<text text-anchor="start" x="172.9053" y="-46.3" font-family="Helvetica,sans-Serif" font-size="11.00" fill="#000000">1 &gt;</text>
<polygon fill="#000000" stroke="#000000" points="74.5,-41.2 74.5,-58.2 74.5,-58.2 74.5,-41.2 74.5,-41.2"/>
<polygon fill="#000000" stroke="#000000" points="128.5,-41.2 128.5,-58.2 128.5,-58.2 128.5,-41.2 128.5,-41.2"/>
<polygon fill="none" stroke="#000000" stroke-width="2" points="9,-39.2 9,-193.2 192,-193.2 192,-39.2 9,-39.2"/>
</a>
</g>
</g>
<!-- bestellung_position&#45;&gt;produkt -->
<g id="edge2" class="edge">
<title>bestellung_position:w&#45;&gt;produkt:e</title>
<path fill="none" stroke="#000000" d="M227.8267,-185.1473C215.1849,-176.7444 211.8692,-158.2 191.5,-158.2"/>
<polygon fill="#000000" stroke="#000000" points="234.3083,-187.0006 241.0103,-192.6613 238.1541,-188.1003 242,-189.2 242,-189.2 242,-189.2 238.1541,-188.1003 242.9897,-185.7387 234.3083,-187.0006 234.3083,-187.0006"/>
<ellipse fill="none" stroke="#000000" cx="231.2316" cy="-186.1208" rx="3.2" ry="3.2"/>
</g>
</g>
</svg>
