<?xml version="1.0" encoding="UTF-8" standalone="no"?>
<!DOCTYPE svg PUBLIC "-//W3C//DTD SVG 1.1//EN"
 "http://www.w3.org/Graphics/SVG/1.1/DTD/svg11.dtd">
<!-- Generated by graphviz version 2.40.1 (20161225.0304)
 -->
<!-- Title: oneDegreeRelationshipsDiagram Pages: 1 -->
<svg width="424pt" height="249pt"
 viewBox="0.00 0.00 424.00 248.70" xmlns="http://www.w3.org/2000/svg" xmlns:xlink="http://www.w3.org/1999/xlink">
<g id="graph0" class="graph" transform="scale(1 1) rotate(0) translate(4 244.7)">
<title>oneDegreeRelationshipsDiagram</title>
<polygon fill="#ffffff" stroke="transparent" points="-4,4 -4,-244.7 420,-244.7 420,4 -4,4"/>
<text text-anchor="middle" x="72.4936" y="-7.3" font-family="Helvetica,sans-Serif" font-size="11.00" fill="#000000">Generated by SchemaSpy</text>
<!-- bestellung_position -->
<g id="node1" class="node">
<title>bestellung_position</title>
<g id="a_node1"><a xlink:href="../../tables/bestellung_position.html" xlink:title="bestellung_position" target="_top">
<polygon fill="#ffffff" stroke="transparent" points="242,-109.7 242,-236.7 408,-236.7 408,-109.7 242,-109.7"/>
<polygon fill="#f5f5f5" stroke="transparent" points="242,-213.2 242,-236.2 408,-236.2 408,-213.2 242,-213.2"/>
<polygon fill="none" stroke="#000000" points="242,-213.2 242,-236.2 408,-236.2 408,-213.2 242,-213.2"/>
<text text-anchor="start" x="247" y="-221.8" font-family="Helvetica,sans-Serif" font-weight="bold" font-size="11.00" fill="#000000">bestellung_position</text>
<text text-anchor="start" x="373.5219" y="-221.3" font-family="Helvetica,sans-Serif" font-size="11.00" fill="#000000">[table]</text>
<polygon fill="none" stroke="#000000" points="242,-191.2 242,-213.2 408,-213.2 408,-191.2 242,-191.2"/>
<image xlink:href="../../images/primaryKeys.png" width="11px" height="12px" preserveAspectRatio="xMinYMin meet" x="247" y="-208.2"/>
<text text-anchor="start" x="271" y="-198.3" font-family="Helvetica,sans-Serif" font-size="11.00" fill="#000000">id</text>
<polygon fill="none" stroke="#000000" points="242,-169.2 242,-191.2 408,-191.2 408,-169.2 242,-169.2"/>
<image xlink:href="../../images/foreignKeys.png" width="11px" height="12px" preserveAspectRatio="xMinYMin meet" x="247" y="-186.2"/>
<text text-anchor="start" x="271" y="-176.3" font-family="Helvetica,sans-Serif" font-size="11.00" fill="#000000">bestellung_id</text>
<polygon fill="none" stroke="#000000" points="242,-147.2 242,-169.2 408,-169.2 408,-147.2 242,-147.2"/>
<image xlink:href="../../images/foreignKeys.png" width="11px" height="12px" preserveAspectRatio="xMinYMin meet" x="247" y="-164.2"/>
<text text-anchor="start" x="271" y="-154.3" font-family="Helvetica,sans-Serif" font-size="11.00" fill="#000000">produkt_id</text>
<polygon fill="none" stroke="#000000" points="242,-128.2 242,-147.2 408,-147.2 408,-128.2 242,-128.2"/>
<text text-anchor="start" x="245" y="-134.3" font-family="Helvetica,sans-Serif" font-size="11.00" fill="#000000">...</text>
<polygon fill="#ffffff" stroke="transparent" points="242,-109.2 242,-128.2 408,-128.2 408,-109.2 242,-109.2"/>
<polygon fill="none" stroke="#000000" points="242,-109.2 242,-128.2 408,-128.2 408,-109.2 242,-109.2"/>
<polygon fill="#ffffff" stroke="transparent" points="243,-110.2 243,-127.2 304,-127.2 304,-110.2 243,-110.2"/>
<text text-anchor="start" x="245" y="-115.3" font-family="Helvetica,sans-Serif" font-size="11.00" fill="#000000">&lt; 2</text>
<polygon fill="#ffffff" stroke="transparent" points="304,-110.2 304,-127.2 356,-127.2 356,-110.2 304,-110.2"/>
<text text-anchor="start" x="326.9431" y="-115.3" font-family="Helvetica,sans-Serif" font-size="11.00" fill="#000000"> &#160;</text>
<polygon fill="#ffffff" stroke="transparent" points="356,-110.2 356,-127.2 407,-127.2 407,-110.2 356,-110.2"/>
<text text-anchor="start" x="398.8862" y="-115.3" font-family="Helvetica,sans-Serif" font-size="11.00" fill="#000000"> &#160;</text>
<polygon fill="#000000" stroke="#000000" points="304,-110.2 304,-127.2 304,-127.2 304,-110.2 304,-110.2"/>
<polygon fill="#000000" stroke="#000000" points="356,-110.2 356,-127.2 356,-127.2 356,-110.2 356,-110.2"/>
</a>
</g>
</g>
<!-- produkt -->
<g id="node2" class="node">
<title>produkt</title>
<g id="a_node2"><a xlink:href="../../tables/produkt.html" xlink:title="produkt" target="_top">
<polygon fill="#ffffff" stroke="transparent" points="8,-38.2 8,-194.2 193,-194.2 193,-38.2 8,-38.2"/>
<polygon fill="#f5f5f5" stroke="transparent" points="10.5,-169.2 10.5,-192.2 191.5,-192.2 191.5,-169.2 10.5,-169.2"/>
<polygon fill="none" stroke="#000000" points="10.5,-169.2 10.5,-192.2 191.5,-192.2 191.5,-169.2 10.5,-169.2"/>
<text text-anchor="start" x="15.5" y="-177.8" font-family="Helvetica,sans-Serif" font-weight="bold" font-size="11.00" fill="#000000">produkt</text>
<text text-anchor="start" x="156.5437" y="-177.3" font-family="Helvetica,sans-Serif" font-size="11.00" fill="#000000">[table]</text>
<polygon fill="none" stroke="#000000" points="10.5,-147.2 10.5,-169.2 119.5,-169.2 119.5,-147.2 10.5,-147.2"/>
<image xlink:href="../../images/primaryKeys.png" width="11px" height="12px" preserveAspectRatio="xMinYMin meet" x="15.5" y="-164.2"/>
<text text-anchor="start" x="30.5" y="-154.3" font-family="Helvetica,sans-Serif" font-size="11.00" fill="#000000">id</text>
<polygon fill="none" stroke="#000000" points="119.5,-147.2 119.5,-169.2 191.5,-169.2 191.5,-147.2 119.5,-147.2"/>
<text text-anchor="start" x="122.5" y="-154.9" font-family="Helvetica,sans-Serif" font-size="11.00" fill="#000000">bigserial[19]</text>
<polygon fill="none" stroke="#000000" points="10.5,-125.2 10.5,-147.2 119.5,-147.2 119.5,-125.2 10.5,-125.2"/>
<text text-anchor="start" x="30.5" y="-132.3" font-family="Helvetica,sans-Serif" font-size="11.00" fill="#000000">beschreibung</text>
<polygon fill="none" stroke="#000000" points="119.5,-125.2 119.5,-147.2 191.5,-147.2 191.5,-125.2 119.5,-125.2"/>
<text text-anchor="start" x="122.5" y="-132.9" font-family="Helvetica,sans-Serif" font-size="11.00" fill="#000000">varchar[500]</text>
<polygon fill="none" stroke="#000000" points="10.5,-103.2 10.5,-125.2 119.5,-125.2 119.5,-103.2 10.5,-103.2"/>
<text text-anchor="start" x="30.5" y="-110.3" font-family="Helvetica,sans-Serif" font-size="11.00" fill="#000000">lagerbestand</text>
<polygon fill="none" stroke="#000000" points="119.5,-103.2 119.5,-125.2 191.5,-125.2 191.5,-103.2 119.5,-103.2"/>
<text text-anchor="start" x="122.5" y="-110.9" font-family="Helvetica,sans-Serif" font-size="11.00" fill="#000000">int4[10]</text>
<polygon fill="none" stroke="#000000" points="10.5,-81.2 10.5,-103.2 119.5,-103.2 119.5,-81.2 10.5,-81.2"/>
<text text-anchor="start" x="30.5" y="-88.3" font-family="Helvetica,sans-Serif" font-size="11.00" fill="#000000">name</text>
<polygon fill="none" stroke="#000000" points="119.5,-81.2 119.5,-103.2 191.5,-103.2 191.5,-81.2 119.5,-81.2"/>
<text text-anchor="start" x="122.5" y="-88.9" font-family="Helvetica,sans-Serif" font-size="11.00" fill="#000000">varchar[100]</text>
<polygon fill="none" stroke="#000000" points="10.5,-59.2 10.5,-81.2 119.5,-81.2 119.5,-59.2 10.5,-59.2"/>
<text text-anchor="start" x="30.5" y="-66.3" font-family="Helvetica,sans-Serif" font-size="11.00" fill="#000000">preis</text>
<polygon fill="none" stroke="#000000" points="119.5,-59.2 119.5,-81.2 191.5,-81.2 191.5,-59.2 119.5,-59.2"/>
<text text-anchor="start" x="122.1876" y="-66.9" font-family="Helvetica,sans-Serif" font-size="11.00" fill="#000000">numeric[10,2]</text>
<polygon fill="#ffffff" stroke="transparent" points="10.5,-40.2 10.5,-59.2 191.5,-59.2 191.5,-40.2 10.5,-40.2"/>
<polygon fill="none" stroke="#000000" points="10.5,-40.2 10.5,-59.2 191.5,-59.2 191.5,-40.2 10.5,-40.2"/>
<polygon fill="#ffffff" stroke="transparent" points="11.5,-41.2 11.5,-58.2 74.5,-58.2 74.5,-41.2 11.5,-41.2"/>
<text text-anchor="start" x="13.5" y="-46.3" font-family="Helvetica,sans-Serif" font-size="11.00" fill="#000000">&lt; 0</text>
<polygon fill="#ffffff" stroke="transparent" points="74.5,-41.2 74.5,-58.2 128.5,-58.2 128.5,-41.2 74.5,-41.2"/>
<text text-anchor="start" x="98.4431" y="-46.3" font-family="Helvetica,sans-Serif" font-size="11.00" fill="#000000"> &#160;</text>
<polygon fill="#ffffff" stroke="transparent" points="128.5,-41.2 128.5,-58.2 190.5,-58.2 190.5,-41.2 128.5,-41.2"/>
<text text-anchor="start" x="172.9053" y="-46.3" font-family="Helvetica,sans-Serif" font-size="11.00" fill="#000000">1 &gt;</text>
<polygon fill="#000000" stroke="#000000" points="74.5,-41.2 74.5,-58.2 74.5,-58.2 74.5,-41.2 74.5,-41.2"/>
<polygon fill="#000000" stroke="#000000" points="128.5,-41.2 128.5,-58.2 128.5,-58.2 128.5,-41.2 128.5,-41.2"/>
<polygon fill="none" stroke="#000000" stroke-width="2" points="9,-39.2 9,-193.2 192,-193.2 192,-39.2 9,-39.2"/>
</a>
</g>
</g>
<!-- bestellung_position&#45;&gt;produkt -->
<g id="edge1" class="edge">
<title>bestellung_position:w&#45;&gt;produkt:e</title>
<path fill="none" stroke="#000000" d="M227.4203,-158.2C215.5435,-158.2 208.158,-158.2 191.5,-158.2"/>
<polygon fill="#000000" stroke="#000000" points="234,-158.2001 242,-161.8 238,-158.2 242,-158.2 242,-158.2 242,-158.2 238,-158.2 242,-154.6 234,-158.2001 234,-158.2001"/>
<ellipse fill="none" stroke="#000000" cx="230.8" cy="-158.2001" rx="3.2" ry="3.2"/>
</g>
</g>
</svg>
