<?xml version="1.0" encoding="UTF-8" standalone="no"?>
<!DOCTYPE svg PUBLIC "-//W3C//DTD SVG 1.1//EN"
 "http://www.w3.org/Graphics/SVG/1.1/DTD/svg11.dtd">
<!-- Generated by graphviz version 2.40.1 (20161225.0304)
 -->
<!-- Title: twoDegreesRelationshipsDiagram Pages: 1 -->
<svg width="543pt" height="355pt"
 viewBox="0.00 0.00 543.00 354.70" xmlns="http://www.w3.org/2000/svg" xmlns:xlink="http://www.w3.org/1999/xlink">
<g id="graph0" class="graph" transform="scale(1 1) rotate(0) translate(4 350.7)">
<title>twoDegreesRelationshipsDiagram</title>
<polygon fill="#ffffff" stroke="transparent" points="-4,4 -4,-350.7 539,-350.7 539,4 -4,4"/>
<text text-anchor="middle" x="72.4936" y="-7.3" font-family="Helvetica,sans-Serif" font-size="11.00" fill="#000000">Generated by SchemaSpy</text>
<!-- bestellung -->
<g id="node1" class="node">
<title>bestellung</title>
<g id="a_node1"><a xlink:href="../../tables/bestellung.html" xlink:title="bestellung" target="_top">
<polygon fill="#ffffff" stroke="transparent" points="137,-118.7 137,-223.7 244,-223.7 244,-118.7 137,-118.7"/>
<polygon fill="#f5f5f5" stroke="transparent" points="137.5,-200.2 137.5,-223.2 244.5,-223.2 244.5,-200.2 137.5,-200.2"/>
<polygon fill="none" stroke="#000000" points="137.5,-200.2 137.5,-223.2 244.5,-223.2 244.5,-200.2 137.5,-200.2"/>
<text text-anchor="start" x="142.5" y="-208.8" font-family="Helvetica,sans-Serif" font-weight="bold" font-size="11.00" fill="#000000">bestellung</text>
<text text-anchor="start" x="210.0219" y="-208.3" font-family="Helvetica,sans-Serif" font-size="11.00" fill="#000000">[table]</text>
<polygon fill="none" stroke="#000000" points="137.5,-178.2 137.5,-200.2 244.5,-200.2 244.5,-178.2 137.5,-178.2"/>
<image xlink:href="../../images/primaryKeys.png" width="11px" height="12px" preserveAspectRatio="xMinYMin meet" x="142.5" y="-195.2"/>
<text text-anchor="start" x="157.5" y="-185.3" font-family="Helvetica,sans-Serif" font-size="11.00" fill="#000000">id</text>
<polygon fill="none" stroke="#000000" points="137.5,-156.2 137.5,-178.2 244.5,-178.2 244.5,-156.2 137.5,-156.2"/>
<image xlink:href="../../images/foreignKeys.png" width="11px" height="12px" preserveAspectRatio="xMinYMin meet" x="142.5" y="-173.2"/>
<text text-anchor="start" x="157.5" y="-163.3" font-family="Helvetica,sans-Serif" font-size="11.00" fill="#000000">kunde_id</text>
<polygon fill="none" stroke="#000000" points="137.5,-137.2 137.5,-156.2 244.5,-156.2 244.5,-137.2 137.5,-137.2"/>
<text text-anchor="start" x="140.5" y="-143.3" font-family="Helvetica,sans-Serif" font-size="11.00" fill="#000000">...</text>
<polygon fill="#ffffff" stroke="transparent" points="137.5,-118.2 137.5,-137.2 244.5,-137.2 244.5,-118.2 137.5,-118.2"/>
<polygon fill="none" stroke="#000000" points="137.5,-118.2 137.5,-137.2 244.5,-137.2 244.5,-118.2 137.5,-118.2"/>
<polygon fill="#ffffff" stroke="transparent" points="138.5,-119.2 138.5,-136.2 176.5,-136.2 176.5,-119.2 138.5,-119.2"/>
<text text-anchor="start" x="140.5" y="-124.3" font-family="Helvetica,sans-Serif" font-size="11.00" fill="#000000">&lt; 1</text>
<polygon fill="#ffffff" stroke="transparent" points="176.5,-119.2 176.5,-136.2 205.5,-136.2 205.5,-119.2 176.5,-119.2"/>
<text text-anchor="start" x="187.9431" y="-124.3" font-family="Helvetica,sans-Serif" font-size="11.00" fill="#000000"> &#160;</text>
<polygon fill="#ffffff" stroke="transparent" points="205.5,-119.2 205.5,-136.2 243.5,-136.2 243.5,-119.2 205.5,-119.2"/>
<text text-anchor="start" x="225.9053" y="-124.3" font-family="Helvetica,sans-Serif" font-size="11.00" fill="#000000">2 &gt;</text>
<polygon fill="#000000" stroke="#000000" points="176.5,-119.2 176.5,-136.2 176.5,-136.2 176.5,-119.2 176.5,-119.2"/>
<polygon fill="#000000" stroke="#000000" points="205.5,-119.2 205.5,-136.2 205.5,-136.2 205.5,-119.2 205.5,-119.2"/>
</a>
</g>
</g>
<!-- kunde -->
<g id="node2" class="node">
<title>kunde</title>
<g id="a_node2"><a xlink:href="../../tables/kunde.html" xlink:title="kunde" target="_top">
<polygon fill="#ffffff" stroke="transparent" points="8,-139.7 8,-200.7 88,-200.7 88,-139.7 8,-139.7"/>
<polygon fill="#f5f5f5" stroke="transparent" points="8,-177.2 8,-200.2 88,-200.2 88,-177.2 8,-177.2"/>
<polygon fill="none" stroke="#000000" points="8,-177.2 8,-200.2 88,-200.2 88,-177.2 8,-177.2"/>
<text text-anchor="start" x="13" y="-185.8" font-family="Helvetica,sans-Serif" font-weight="bold" font-size="11.00" fill="#000000">kunde</text>
<text text-anchor="start" x="53.5219" y="-185.3" font-family="Helvetica,sans-Serif" font-size="11.00" fill="#000000">[table]</text>
<polygon fill="none" stroke="#000000" points="8,-158.2 8,-177.2 88,-177.2 88,-158.2 8,-158.2"/>
<text text-anchor="start" x="11" y="-164.3" font-family="Helvetica,sans-Serif" font-size="11.00" fill="#000000">...</text>
<polygon fill="#ffffff" stroke="transparent" points="8,-139.2 8,-158.2 88,-158.2 88,-139.2 8,-139.2"/>
<polygon fill="none" stroke="#000000" points="8,-139.2 8,-158.2 88,-158.2 88,-139.2 8,-139.2"/>
<polygon fill="#ffffff" stroke="transparent" points="9,-140.2 9,-157.2 32,-157.2 32,-140.2 9,-140.2"/>
<text text-anchor="start" x="11" y="-145.3" font-family="Helvetica,sans-Serif" font-size="11.00" fill="#000000"> &#160;</text>
<polygon fill="#ffffff" stroke="transparent" points="32,-140.2 32,-157.2 55,-157.2 55,-140.2 32,-140.2"/>
<text text-anchor="start" x="40.4431" y="-145.3" font-family="Helvetica,sans-Serif" font-size="11.00" fill="#000000"> &#160;</text>
<polygon fill="#ffffff" stroke="transparent" points="55,-140.2 55,-157.2 87,-157.2 87,-140.2 55,-140.2"/>
<text text-anchor="start" x="69.4053" y="-145.3" font-family="Helvetica,sans-Serif" font-size="11.00" fill="#000000">1 &gt;</text>
<polygon fill="#000000" stroke="#000000" points="32,-140.2 32,-157.2 32,-157.2 32,-140.2 32,-140.2"/>
<polygon fill="#000000" stroke="#000000" points="55,-140.2 55,-157.2 55,-157.2 55,-140.2 55,-140.2"/>
</a>
</g>
</g>
<!-- bestellung&#45;&gt;kunde -->
<g id="edge1" class="edge">
<title>bestellung:w&#45;&gt;kunde:e</title>
<path fill="none" stroke="#000000" d="M122.8428,-167.2C111.4139,-167.2 104.1563,-167.2 88,-167.2"/>
<polygon fill="#000000" stroke="#000000" points="129.5,-167.2001 137.5,-170.8 133.5,-167.2 137.5,-167.2 137.5,-167.2 137.5,-167.2 133.5,-167.2 137.5,-163.6 129.5,-167.2001 129.5,-167.2001"/>
<ellipse fill="none" stroke="#000000" cx="126.3" cy="-167.2001" rx="3.2" ry="3.2"/>
</g>
<!-- bestellung_position -->
<g id="node3" class="node">
<title>bestellung_position</title>
<g id="a_node3"><a xlink:href="../../tables/bestellung_position.html" xlink:title="bestellung_position" target="_top">
<polygon fill="#ffffff" stroke="transparent" points="327,-281.7 327,-342.7 493,-342.7 493,-281.7 327,-281.7"/>
<polygon fill="#f5f5f5" stroke="transparent" points="327,-319.2 327,-342.2 493,-342.2 493,-319.2 327,-319.2"/>
<polygon fill="none" stroke="#000000" points="327,-319.2 327,-342.2 493,-342.2 493,-319.2 327,-319.2"/>
<text text-anchor="start" x="332" y="-327.8" font-family="Helvetica,sans-Serif" font-weight="bold" font-size="11.00" fill="#000000">bestellung_position</text>
<text text-anchor="start" x="458.5219" y="-327.3" font-family="Helvetica,sans-Serif" font-size="11.00" fill="#000000">[table]</text>
<polygon fill="none" stroke="#000000" points="327,-300.2 327,-319.2 493,-319.2 493,-300.2 327,-300.2"/>
<text text-anchor="start" x="330" y="-306.3" font-family="Helvetica,sans-Serif" font-size="11.00" fill="#000000">...</text>
<polygon fill="#ffffff" stroke="transparent" points="327,-281.2 327,-300.2 493,-300.2 493,-281.2 327,-281.2"/>
<polygon fill="none" stroke="#000000" points="327,-281.2 327,-300.2 493,-300.2 493,-281.2 327,-281.2"/>
<polygon fill="#ffffff" stroke="transparent" points="328,-282.2 328,-299.2 389,-299.2 389,-282.2 328,-282.2"/>
<text text-anchor="start" x="330" y="-287.3" font-family="Helvetica,sans-Serif" font-size="11.00" fill="#000000">&lt; 2</text>
<polygon fill="#ffffff" stroke="transparent" points="389,-282.2 389,-299.2 441,-299.2 441,-282.2 389,-282.2"/>
<text text-anchor="start" x="411.9431" y="-287.3" font-family="Helvetica,sans-Serif" font-size="11.00" fill="#000000"> &#160;</text>
<polygon fill="#ffffff" stroke="transparent" points="441,-282.2 441,-299.2 492,-299.2 492,-282.2 441,-282.2"/>
<text text-anchor="start" x="483.8862" y="-287.3" font-family="Helvetica,sans-Serif" font-size="11.00" fill="#000000"> &#160;</text>
<polygon fill="#000000" stroke="#000000" points="389,-282.2 389,-299.2 389,-299.2 389,-282.2 389,-282.2"/>
<polygon fill="#000000" stroke="#000000" points="441,-282.2 441,-299.2 441,-299.2 441,-282.2 441,-282.2"/>
</a>
</g>
</g>
<!-- bestellung_position&#45;&gt;bestellung -->
<g id="edge2" class="edge">
<title>bestellung_position:w&#45;&gt;bestellung:e</title>
<path fill="none" stroke="#000000" d="M312.6995,-306.4504C300.3099,-300.683 296.6186,-286.5772 285,-271.2 260.4962,-238.7691 285.1472,-189.2 244.5,-189.2"/>
<polygon fill="#000000" stroke="#000000" points="319.1439,-307.6894 326.3202,-312.7352 323.072,-308.4447 327,-309.2 327,-309.2 327,-309.2 323.072,-308.4447 327.6798,-305.6648 319.1439,-307.6894 319.1439,-307.6894"/>
<ellipse fill="none" stroke="#000000" cx="316.0015" cy="-307.0852" rx="3.2" ry="3.2"/>
</g>
<!-- rechnung -->
<g id="node4" class="node">
<title>rechnung</title>
<g id="a_node4"><a xlink:href="../../tables/rechnung.html" xlink:title="rechnung" target="_top">
<polygon fill="#ffffff" stroke="transparent" points="293,-38.2 293,-260.2 527,-260.2 527,-38.2 293,-38.2"/>
<polygon fill="#f5f5f5" stroke="transparent" points="295,-235.2 295,-258.2 525,-258.2 525,-235.2 295,-235.2"/>
<polygon fill="none" stroke="#000000" points="295,-235.2 295,-258.2 525,-258.2 525,-235.2 295,-235.2"/>
<text text-anchor="start" x="300" y="-243.8" font-family="Helvetica,sans-Serif" font-weight="bold" font-size="11.00" fill="#000000">rechnung</text>
<text text-anchor="start" x="490.0437" y="-243.3" font-family="Helvetica,sans-Serif" font-size="11.00" fill="#000000">[table]</text>
<polygon fill="none" stroke="#000000" points="295,-213.2 295,-235.2 441,-235.2 441,-213.2 295,-213.2"/>
<image xlink:href="../../images/primaryKeys.png" width="11px" height="12px" preserveAspectRatio="xMinYMin meet" x="300" y="-230.2"/>
<text text-anchor="start" x="315" y="-220.3" font-family="Helvetica,sans-Serif" font-size="11.00" fill="#000000">id</text>
<polygon fill="none" stroke="#000000" points="441,-213.2 441,-235.2 525,-235.2 525,-213.2 441,-213.2"/>
<text text-anchor="start" x="444" y="-220.9" font-family="Helvetica,sans-Serif" font-size="11.00" fill="#000000">bigserial[19]</text>
<polygon fill="none" stroke="#000000" points="295,-191.2 295,-213.2 441,-213.2 441,-191.2 295,-191.2"/>
<text text-anchor="start" x="315" y="-198.3" font-family="Helvetica,sans-Serif" font-size="11.00" fill="#000000">bezahltam</text>
<polygon fill="none" stroke="#000000" points="441,-191.2 441,-213.2 525,-213.2 525,-191.2 441,-191.2"/>
<text text-anchor="start" x="443.8807" y="-198.9" font-family="Helvetica,sans-Serif" font-size="11.00" fill="#000000">timestamp[29,6]</text>
<polygon fill="none" stroke="#000000" points="295,-169.2 295,-191.2 441,-191.2 441,-169.2 295,-169.2"/>
<text text-anchor="start" x="315" y="-176.3" font-family="Helvetica,sans-Serif" font-size="11.00" fill="#000000">bezahltvon</text>
<polygon fill="none" stroke="#000000" points="441,-169.2 441,-191.2 525,-191.2 525,-169.2 441,-169.2"/>
<text text-anchor="start" x="444" y="-176.9" font-family="Helvetica,sans-Serif" font-size="11.00" fill="#000000">varchar[255]</text>
<polygon fill="none" stroke="#000000" points="295,-147.2 295,-169.2 441,-169.2 441,-147.2 295,-147.2"/>
<text text-anchor="start" x="315" y="-154.3" font-family="Helvetica,sans-Serif" font-size="11.00" fill="#000000">erstellungsdatum</text>
<polygon fill="none" stroke="#000000" points="441,-147.2 441,-169.2 525,-169.2 525,-147.2 441,-147.2"/>
<text text-anchor="start" x="443.8807" y="-154.9" font-family="Helvetica,sans-Serif" font-size="11.00" fill="#000000">timestamp[29,6]</text>
<polygon fill="none" stroke="#000000" points="295,-125.2 295,-147.2 441,-147.2 441,-125.2 295,-125.2"/>
<text text-anchor="start" x="315" y="-132.3" font-family="Helvetica,sans-Serif" font-size="11.00" fill="#000000">gesamtbetrag</text>
<polygon fill="none" stroke="#000000" points="441,-125.2 441,-147.2 525,-147.2 525,-125.2 441,-125.2"/>
<text text-anchor="start" x="444" y="-132.9" font-family="Helvetica,sans-Serif" font-size="11.00" fill="#000000">numeric[38,2]</text>
<polygon fill="#ffffff" stroke="transparent" points="295,-103.2 295,-125.2 441,-125.2 441,-103.2 295,-103.2"/>
<polygon fill="none" stroke="#000000" points="295,-103.2 295,-125.2 441,-125.2 441,-103.2 295,-103.2"/>
<text text-anchor="start" x="315" y="-110.3" font-family="Helvetica,sans-Serif" font-size="11.00" fill="#000000">rechnungsnummer</text>
<polygon fill="none" stroke="#000000" points="441,-103.2 441,-125.2 525,-125.2 525,-103.2 441,-103.2"/>
<text text-anchor="start" x="444" y="-110.9" font-family="Helvetica,sans-Serif" font-size="11.00" fill="#000000">varchar[255]</text>
<polygon fill="none" stroke="#000000" points="295,-81.2 295,-103.2 441,-103.2 441,-81.2 295,-81.2"/>
<text text-anchor="start" x="315" y="-88.3" font-family="Helvetica,sans-Serif" font-size="11.00" fill="#000000">status</text>
<polygon fill="none" stroke="#000000" points="441,-81.2 441,-103.2 525,-103.2 525,-81.2 441,-81.2"/>
<text text-anchor="start" x="444" y="-88.9" font-family="Helvetica,sans-Serif" font-size="11.00" fill="#000000">varchar[255]</text>
<polygon fill="#ffffff" stroke="transparent" points="295,-59.2 295,-81.2 441,-81.2 441,-59.2 295,-59.2"/>
<polygon fill="none" stroke="#000000" points="295,-59.2 295,-81.2 441,-81.2 441,-59.2 295,-59.2"/>
<image xlink:href="../../images/foreignKeys.png" width="11px" height="12px" preserveAspectRatio="xMinYMin meet" x="300" y="-76.2"/>
<text text-anchor="start" x="315" y="-66.3" font-family="Helvetica,sans-Serif" font-size="11.00" fill="#000000">bestellung_id</text>
<polygon fill="none" stroke="#000000" points="441,-59.2 441,-81.2 525,-81.2 525,-59.2 441,-59.2"/>
<text text-anchor="start" x="444" y="-66.9" font-family="Helvetica,sans-Serif" font-size="11.00" fill="#000000">int8[19]</text>
<polygon fill="#ffffff" stroke="transparent" points="295,-40.2 295,-59.2 525,-59.2 525,-40.2 295,-40.2"/>
<polygon fill="none" stroke="#000000" points="295,-40.2 295,-59.2 525,-59.2 525,-40.2 295,-40.2"/>
<polygon fill="#ffffff" stroke="transparent" points="296,-41.2 296,-58.2 375,-58.2 375,-41.2 296,-41.2"/>
<text text-anchor="start" x="298" y="-46.3" font-family="Helvetica,sans-Serif" font-size="11.00" fill="#000000">&lt; 1</text>
<polygon fill="#ffffff" stroke="transparent" points="375,-41.2 375,-58.2 445,-58.2 445,-41.2 375,-41.2"/>
<text text-anchor="start" x="406.9431" y="-46.3" font-family="Helvetica,sans-Serif" font-size="11.00" fill="#000000"> &#160;</text>
<polygon fill="#ffffff" stroke="transparent" points="445,-41.2 445,-58.2 524,-58.2 524,-41.2 445,-41.2"/>
<text text-anchor="start" x="506.4053" y="-46.3" font-family="Helvetica,sans-Serif" font-size="11.00" fill="#000000">0 &gt;</text>
<polygon fill="#000000" stroke="#000000" points="375,-41.2 375,-58.2 375,-58.2 375,-41.2 375,-41.2"/>
<polygon fill="#000000" stroke="#000000" points="445,-41.2 445,-58.2 445,-58.2 445,-41.2 445,-41.2"/>
<polygon fill="none" stroke="#000000" stroke-width="2" points="294,-39.2 294,-259.2 526,-259.2 526,-39.2 294,-39.2"/>
</a>
</g>
</g>
<!-- rechnung&#45;&gt;bestellung -->
<g id="edge3" class="edge">
<title>rechnung:w&#45;&gt;bestellung:e</title>
<path fill="none" stroke="#000000" d="M284.6034,-71.8822C246.0007,-86.3461 297.9145,-189.2 244.5,-189.2"/>
<polygon fill="#000000" stroke="#000000" points="293.5713,-66.3791 294.8492,-74.2764 293.2698,-74.532 291.9919,-66.6347 293.5713,-66.3791"/>
<polyline fill="none" stroke="#000000" points="295,-70.2 291.0514,-70.8389 "/>
<ellipse fill="none" stroke="#000000" cx="287.8924" cy="-71.3501" rx="3.2" ry="3.2"/>
</g>
</g>
</svg>
