<?xml version="1.0" encoding="UTF-8" standalone="no"?>
<!DOCTYPE svg PUBLIC "-//W3C//DTD SVG 1.1//EN"
 "http://www.w3.org/Graphics/SVG/1.1/DTD/svg11.dtd">
<!-- Generated by graphviz version 2.40.1 (20161225.0304)
 -->
<!-- Title: oneDegreeRelationshipsDiagram Pages: 1 -->
<svg width="414pt" height="311pt"
 viewBox="0.00 0.00 414.00 310.70" xmlns="http://www.w3.org/2000/svg" xmlns:xlink="http://www.w3.org/1999/xlink">
<g id="graph0" class="graph" transform="scale(1 1) rotate(0) translate(4 306.7)">
<title>oneDegreeRelationshipsDiagram</title>
<polygon fill="#ffffff" stroke="transparent" points="-4,4 -4,-306.7 410,-306.7 410,4 -4,4"/>
<text text-anchor="middle" x="72.4936" y="-7.3" font-family="Helvetica,sans-Serif" font-size="11.00" fill="#000000">Generated by SchemaSpy</text>
<!-- rechnung -->
<g id="node1" class="node">
<title>rechnung</title>
<g id="a_node1"><a xlink:href="../../tables/rechnung.html" xlink:title="rechnung" target="_top">
<polygon fill="#ffffff" stroke="transparent" points="164,-76.7 164,-298.7 398,-298.7 398,-76.7 164,-76.7"/>
<polygon fill="#f5f5f5" stroke="transparent" points="166,-273.7 166,-296.7 396,-296.7 396,-273.7 166,-273.7"/>
<polygon fill="none" stroke="#000000" points="166,-273.7 166,-296.7 396,-296.7 396,-273.7 166,-273.7"/>
<text text-anchor="start" x="171" y="-282.3" font-family="Helvetica,sans-Serif" font-weight="bold" font-size="11.00" fill="#000000">rechnung</text>
<text text-anchor="start" x="361.0437" y="-281.8" font-family="Helvetica,sans-Serif" font-size="11.00" fill="#000000">[table]</text>
<polygon fill="none" stroke="#000000" points="166,-251.7 166,-273.7 312,-273.7 312,-251.7 166,-251.7"/>
<image xlink:href="../../images/primaryKeys.png" width="11px" height="12px" preserveAspectRatio="xMinYMin meet" x="171" y="-268.7"/>
<text text-anchor="start" x="186" y="-258.8" font-family="Helvetica,sans-Serif" font-size="11.00" fill="#000000">id</text>
<polygon fill="none" stroke="#000000" points="312,-251.7 312,-273.7 396,-273.7 396,-251.7 312,-251.7"/>
<text text-anchor="start" x="315" y="-259.4" font-family="Helvetica,sans-Serif" font-size="11.00" fill="#000000">bigserial[19]</text>
<polygon fill="none" stroke="#000000" points="166,-229.7 166,-251.7 312,-251.7 312,-229.7 166,-229.7"/>
<text text-anchor="start" x="186" y="-236.8" font-family="Helvetica,sans-Serif" font-size="11.00" fill="#000000">bezahltam</text>
<polygon fill="none" stroke="#000000" points="312,-229.7 312,-251.7 396,-251.7 396,-229.7 312,-229.7"/>
<text text-anchor="start" x="314.8807" y="-237.4" font-family="Helvetica,sans-Serif" font-size="11.00" fill="#000000">timestamp[29,6]</text>
<polygon fill="none" stroke="#000000" points="166,-207.7 166,-229.7 312,-229.7 312,-207.7 166,-207.7"/>
<text text-anchor="start" x="186" y="-214.8" font-family="Helvetica,sans-Serif" font-size="11.00" fill="#000000">bezahltvon</text>
<polygon fill="none" stroke="#000000" points="312,-207.7 312,-229.7 396,-229.7 396,-207.7 312,-207.7"/>
<text text-anchor="start" x="315" y="-215.4" font-family="Helvetica,sans-Serif" font-size="11.00" fill="#000000">varchar[255]</text>
<polygon fill="none" stroke="#000000" points="166,-185.7 166,-207.7 312,-207.7 312,-185.7 166,-185.7"/>
<text text-anchor="start" x="186" y="-192.8" font-family="Helvetica,sans-Serif" font-size="11.00" fill="#000000">erstellungsdatum</text>
<polygon fill="none" stroke="#000000" points="312,-185.7 312,-207.7 396,-207.7 396,-185.7 312,-185.7"/>
<text text-anchor="start" x="314.8807" y="-193.4" font-family="Helvetica,sans-Serif" font-size="11.00" fill="#000000">timestamp[29,6]</text>
<polygon fill="none" stroke="#000000" points="166,-163.7 166,-185.7 312,-185.7 312,-163.7 166,-163.7"/>
<text text-anchor="start" x="186" y="-170.8" font-family="Helvetica,sans-Serif" font-size="11.00" fill="#000000">gesamtbetrag</text>
<polygon fill="none" stroke="#000000" points="312,-163.7 312,-185.7 396,-185.7 396,-163.7 312,-163.7"/>
<text text-anchor="start" x="315" y="-171.4" font-family="Helvetica,sans-Serif" font-size="11.00" fill="#000000">numeric[38,2]</text>
<polygon fill="#ffffff" stroke="transparent" points="166,-141.7 166,-163.7 312,-163.7 312,-141.7 166,-141.7"/>
<polygon fill="none" stroke="#000000" points="166,-141.7 166,-163.7 312,-163.7 312,-141.7 166,-141.7"/>
<text text-anchor="start" x="186" y="-148.8" font-family="Helvetica,sans-Serif" font-size="11.00" fill="#000000">rechnungsnummer</text>
<polygon fill="none" stroke="#000000" points="312,-141.7 312,-163.7 396,-163.7 396,-141.7 312,-141.7"/>
<text text-anchor="start" x="315" y="-149.4" font-family="Helvetica,sans-Serif" font-size="11.00" fill="#000000">varchar[255]</text>
<polygon fill="none" stroke="#000000" points="166,-119.7 166,-141.7 312,-141.7 312,-119.7 166,-119.7"/>
<text text-anchor="start" x="186" y="-126.8" font-family="Helvetica,sans-Serif" font-size="11.00" fill="#000000">status</text>
<polygon fill="none" stroke="#000000" points="312,-119.7 312,-141.7 396,-141.7 396,-119.7 312,-119.7"/>
<text text-anchor="start" x="315" y="-127.4" font-family="Helvetica,sans-Serif" font-size="11.00" fill="#000000">varchar[255]</text>
<polygon fill="#ffffff" stroke="transparent" points="166,-97.7 166,-119.7 312,-119.7 312,-97.7 166,-97.7"/>
<polygon fill="none" stroke="#000000" points="166,-97.7 166,-119.7 312,-119.7 312,-97.7 166,-97.7"/>
<image xlink:href="../../images/foreignKeys.png" width="11px" height="12px" preserveAspectRatio="xMinYMin meet" x="171" y="-114.7"/>
<text text-anchor="start" x="186" y="-104.8" font-family="Helvetica,sans-Serif" font-size="11.00" fill="#000000">bestellung_id</text>
<polygon fill="none" stroke="#000000" points="312,-97.7 312,-119.7 396,-119.7 396,-97.7 312,-97.7"/>
<text text-anchor="start" x="315" y="-105.4" font-family="Helvetica,sans-Serif" font-size="11.00" fill="#000000">int8[19]</text>
<polygon fill="#ffffff" stroke="transparent" points="166,-78.7 166,-97.7 396,-97.7 396,-78.7 166,-78.7"/>
<polygon fill="none" stroke="#000000" points="166,-78.7 166,-97.7 396,-97.7 396,-78.7 166,-78.7"/>
<polygon fill="#ffffff" stroke="transparent" points="167,-79.7 167,-96.7 246,-96.7 246,-79.7 167,-79.7"/>
<text text-anchor="start" x="169" y="-84.8" font-family="Helvetica,sans-Serif" font-size="11.00" fill="#000000">&lt; 1</text>
<polygon fill="#ffffff" stroke="transparent" points="246,-79.7 246,-96.7 316,-96.7 316,-79.7 246,-79.7"/>
<text text-anchor="start" x="277.9431" y="-84.8" font-family="Helvetica,sans-Serif" font-size="11.00" fill="#000000"> &#160;</text>
<polygon fill="#ffffff" stroke="transparent" points="316,-79.7 316,-96.7 395,-96.7 395,-79.7 316,-79.7"/>
<text text-anchor="start" x="377.4053" y="-84.8" font-family="Helvetica,sans-Serif" font-size="11.00" fill="#000000">0 &gt;</text>
<polygon fill="#000000" stroke="#000000" points="246,-79.7 246,-96.7 246,-96.7 246,-79.7 246,-79.7"/>
<polygon fill="#000000" stroke="#000000" points="316,-79.7 316,-96.7 316,-96.7 316,-79.7 316,-79.7"/>
<polygon fill="none" stroke="#000000" stroke-width="2" points="165,-77.7 165,-297.7 397,-297.7 397,-77.7 165,-77.7"/>
</a>
</g>
</g>
<!-- bestellung -->
<g id="node2" class="node">
<title>bestellung</title>
<g id="a_node2"><a xlink:href="../../tables/bestellung.html" xlink:title="bestellung" target="_top">
<polygon fill="#ffffff" stroke="transparent" points="8,-38.2 8,-143.2 115,-143.2 115,-38.2 8,-38.2"/>
<polygon fill="#f5f5f5" stroke="transparent" points="8.5,-119.7 8.5,-142.7 115.5,-142.7 115.5,-119.7 8.5,-119.7"/>
<polygon fill="none" stroke="#000000" points="8.5,-119.7 8.5,-142.7 115.5,-142.7 115.5,-119.7 8.5,-119.7"/>
<text text-anchor="start" x="13.5" y="-128.3" font-family="Helvetica,sans-Serif" font-weight="bold" font-size="11.00" fill="#000000">bestellung</text>
<text text-anchor="start" x="81.0219" y="-127.8" font-family="Helvetica,sans-Serif" font-size="11.00" fill="#000000">[table]</text>
<polygon fill="none" stroke="#000000" points="8.5,-97.7 8.5,-119.7 115.5,-119.7 115.5,-97.7 8.5,-97.7"/>
<image xlink:href="../../images/primaryKeys.png" width="11px" height="12px" preserveAspectRatio="xMinYMin meet" x="13.5" y="-114.7"/>
<text text-anchor="start" x="28.5" y="-104.8" font-family="Helvetica,sans-Serif" font-size="11.00" fill="#000000">id</text>
<polygon fill="none" stroke="#000000" points="8.5,-75.7 8.5,-97.7 115.5,-97.7 115.5,-75.7 8.5,-75.7"/>
<image xlink:href="../../images/foreignKeys.png" width="11px" height="12px" preserveAspectRatio="xMinYMin meet" x="13.5" y="-92.7"/>
<text text-anchor="start" x="28.5" y="-82.8" font-family="Helvetica,sans-Serif" font-size="11.00" fill="#000000">kunde_id</text>
<polygon fill="none" stroke="#000000" points="8.5,-56.7 8.5,-75.7 115.5,-75.7 115.5,-56.7 8.5,-56.7"/>
<text text-anchor="start" x="11.5" y="-62.8" font-family="Helvetica,sans-Serif" font-size="11.00" fill="#000000">...</text>
<polygon fill="#ffffff" stroke="transparent" points="8.5,-37.7 8.5,-56.7 115.5,-56.7 115.5,-37.7 8.5,-37.7"/>
<polygon fill="none" stroke="#000000" points="8.5,-37.7 8.5,-56.7 115.5,-56.7 115.5,-37.7 8.5,-37.7"/>
<polygon fill="#ffffff" stroke="transparent" points="9.5,-38.7 9.5,-55.7 47.5,-55.7 47.5,-38.7 9.5,-38.7"/>
<text text-anchor="start" x="11.5" y="-43.8" font-family="Helvetica,sans-Serif" font-size="11.00" fill="#000000">&lt; 1</text>
<polygon fill="#ffffff" stroke="transparent" points="47.5,-38.7 47.5,-55.7 76.5,-55.7 76.5,-38.7 47.5,-38.7"/>
<text text-anchor="start" x="58.9431" y="-43.8" font-family="Helvetica,sans-Serif" font-size="11.00" fill="#000000"> &#160;</text>
<polygon fill="#ffffff" stroke="transparent" points="76.5,-38.7 76.5,-55.7 114.5,-55.7 114.5,-38.7 76.5,-38.7"/>
<text text-anchor="start" x="96.9053" y="-43.8" font-family="Helvetica,sans-Serif" font-size="11.00" fill="#000000">2 &gt;</text>
<polygon fill="#000000" stroke="#000000" points="47.5,-38.7 47.5,-55.7 47.5,-55.7 47.5,-38.7 47.5,-38.7"/>
<polygon fill="#000000" stroke="#000000" points="76.5,-38.7 76.5,-55.7 76.5,-55.7 76.5,-38.7 76.5,-38.7"/>
</a>
</g>
</g>
<!-- rechnung&#45;&gt;bestellung -->
<g id="edge1" class="edge">
<title>rechnung:w&#45;&gt;bestellung:e</title>
<path fill="none" stroke="#000000" d="M155.3362,-108.7C140.9956,-108.7 133.9115,-108.7 115.5,-108.7"/>
<polygon fill="#000000" stroke="#000000" points="165.2,-104.7 165.2,-112.7 163.6,-112.7 163.6,-104.7 165.2,-104.7"/>
<polyline fill="none" stroke="#000000" points="166,-108.7 162,-108.7 "/>
<ellipse fill="none" stroke="#000000" cx="158.8" cy="-108.7001" rx="3.2" ry="3.2"/>
</g>
</g>
</svg>
