<?xml version="1.0" encoding="UTF-8" standalone="no"?>
<!DOCTYPE svg PUBLIC "-//W3C//DTD SVG 1.1//EN"
 "http://www.w3.org/Graphics/SVG/1.1/DTD/svg11.dtd">
<!-- Generated by graphviz version 2.40.1 (20161225.0304)
 -->
<!-- Title: largeRelationshipsDiagram Pages: 1 -->
<svg width="477pt" height="354pt"
 viewBox="0.00 0.00 477.00 354.20" xmlns="http://www.w3.org/2000/svg" xmlns:xlink="http://www.w3.org/1999/xlink">
<g id="graph0" class="graph" transform="scale(1 1) rotate(0) translate(4 350.2)">
<title>largeRelationshipsDiagram</title>
<polygon fill="#ffffff" stroke="transparent" points="-4,4 -4,-350.2 473,-350.2 473,4 -4,4"/>
<text text-anchor="middle" x="72.4936" y="-7.3" font-family="Helvetica,sans-Serif" font-size="11.00" fill="#000000">Generated by SchemaSpy</text>
<!-- bestellung -->
<g id="node1" class="node">
<title>bestellung</title>
<g id="a_node1"><a xlink:href="../../tables/bestellung.html" xlink:title="bestellung" target="_top">
<polygon fill="#ffffff" stroke="transparent" points="138,-211.2 138,-341.2 245,-341.2 245,-211.2 138,-211.2"/>
<polygon fill="#f5f5f5" stroke="transparent" points="138.5,-318.2 138.5,-341.2 245.5,-341.2 245.5,-318.2 138.5,-318.2"/>
<polygon fill="none" stroke="#000000" points="138.5,-318.2 138.5,-341.2 245.5,-341.2 245.5,-318.2 138.5,-318.2"/>
<text text-anchor="start" x="143.5" y="-326.8" font-family="Helvetica,sans-Serif" font-weight="bold" font-size="11.00" fill="#000000">bestellung</text>
<text text-anchor="start" x="211.0219" y="-326.3" font-family="Helvetica,sans-Serif" font-size="11.00" fill="#000000">[table]</text>
<polygon fill="none" stroke="#000000" points="138.5,-296.2 138.5,-318.2 245.5,-318.2 245.5,-296.2 138.5,-296.2"/>
<image xlink:href="../../images/primaryKeys.png" width="11px" height="12px" preserveAspectRatio="xMinYMin meet" x="143.5" y="-313.2"/>
<text text-anchor="start" x="158.5" y="-303.3" font-family="Helvetica,sans-Serif" font-size="11.00" fill="#000000">id</text>
<polygon fill="none" stroke="#000000" points="138.5,-274.2 138.5,-296.2 245.5,-296.2 245.5,-274.2 138.5,-274.2"/>
<text text-anchor="start" x="158.5" y="-281.3" font-family="Helvetica,sans-Serif" font-size="11.00" fill="#000000">bestelldatum</text>
<polygon fill="none" stroke="#000000" points="138.5,-252.2 138.5,-274.2 245.5,-274.2 245.5,-252.2 138.5,-252.2"/>
<text text-anchor="start" x="158.5" y="-259.3" font-family="Helvetica,sans-Serif" font-size="11.00" fill="#000000">status</text>
<polygon fill="none" stroke="#000000" points="138.5,-230.2 138.5,-252.2 245.5,-252.2 245.5,-230.2 138.5,-230.2"/>
<image xlink:href="../../images/foreignKeys.png" width="11px" height="12px" preserveAspectRatio="xMinYMin meet" x="143.5" y="-247.2"/>
<text text-anchor="start" x="158.5" y="-237.3" font-family="Helvetica,sans-Serif" font-size="11.00" fill="#000000">kunde_id</text>
<polygon fill="#ffffff" stroke="transparent" points="138.5,-211.2 138.5,-230.2 245.5,-230.2 245.5,-211.2 138.5,-211.2"/>
<polygon fill="none" stroke="#000000" points="138.5,-211.2 138.5,-230.2 245.5,-230.2 245.5,-211.2 138.5,-211.2"/>
<polygon fill="#ffffff" stroke="transparent" points="139.5,-212.2 139.5,-229.2 177.5,-229.2 177.5,-212.2 139.5,-212.2"/>
<text text-anchor="start" x="141.5" y="-217.3" font-family="Helvetica,sans-Serif" font-size="11.00" fill="#000000">&lt; 1</text>
<polygon fill="#ffffff" stroke="transparent" points="177.5,-212.2 177.5,-229.2 206.5,-229.2 206.5,-212.2 177.5,-212.2"/>
<text text-anchor="start" x="188.9431" y="-217.3" font-family="Helvetica,sans-Serif" font-size="11.00" fill="#000000"> &#160;</text>
<polygon fill="#ffffff" stroke="transparent" points="206.5,-212.2 206.5,-229.2 244.5,-229.2 244.5,-212.2 206.5,-212.2"/>
<text text-anchor="start" x="226.9053" y="-217.3" font-family="Helvetica,sans-Serif" font-size="11.00" fill="#000000">1 &gt;</text>
<polygon fill="#000000" stroke="#000000" points="177.5,-212.2 177.5,-229.2 177.5,-229.2 177.5,-212.2 177.5,-212.2"/>
<polygon fill="#000000" stroke="#000000" points="206.5,-212.2 206.5,-229.2 206.5,-229.2 206.5,-212.2 206.5,-212.2"/>
</a>
</g>
</g>
<!-- kunde -->
<g id="node3" class="node">
<title>kunde</title>
<g id="a_node3"><a xlink:href="../../tables/kunde.html" xlink:title="kunde" target="_top">
<polygon fill="#ffffff" stroke="transparent" points="8,-145.2 8,-275.2 88,-275.2 88,-145.2 8,-145.2"/>
<polygon fill="#f5f5f5" stroke="transparent" points="8,-252.2 8,-275.2 88,-275.2 88,-252.2 8,-252.2"/>
<polygon fill="none" stroke="#000000" points="8,-252.2 8,-275.2 88,-275.2 88,-252.2 8,-252.2"/>
<text text-anchor="start" x="13" y="-260.8" font-family="Helvetica,sans-Serif" font-weight="bold" font-size="11.00" fill="#000000">kunde</text>
<text text-anchor="start" x="53.5219" y="-260.3" font-family="Helvetica,sans-Serif" font-size="11.00" fill="#000000">[table]</text>
<polygon fill="none" stroke="#000000" points="8,-230.2 8,-252.2 88,-252.2 88,-230.2 8,-230.2"/>
<image xlink:href="../../images/primaryKeys.png" width="11px" height="12px" preserveAspectRatio="xMinYMin meet" x="13" y="-247.2"/>
<text text-anchor="start" x="33" y="-237.3" font-family="Helvetica,sans-Serif" font-size="11.00" fill="#000000">id</text>
<polygon fill="none" stroke="#000000" points="8,-208.2 8,-230.2 88,-230.2 88,-208.2 8,-208.2"/>
<text text-anchor="start" x="33" y="-215.3" font-family="Helvetica,sans-Serif" font-size="11.00" fill="#000000">adresse</text>
<polygon fill="#ffffff" stroke="transparent" points="8,-186.2 8,-208.2 88,-208.2 88,-186.2 8,-186.2"/>
<polygon fill="none" stroke="#000000" points="8,-186.2 8,-208.2 88,-208.2 88,-186.2 8,-186.2"/>
<text text-anchor="start" x="33" y="-193.3" font-family="Helvetica,sans-Serif" font-size="11.00" fill="#000000">email</text>
<polygon fill="none" stroke="#000000" points="8,-164.2 8,-186.2 88,-186.2 88,-164.2 8,-164.2"/>
<text text-anchor="start" x="33" y="-171.3" font-family="Helvetica,sans-Serif" font-size="11.00" fill="#000000">name</text>
<polygon fill="#ffffff" stroke="transparent" points="8,-145.2 8,-164.2 88,-164.2 88,-145.2 8,-145.2"/>
<polygon fill="none" stroke="#000000" points="8,-145.2 8,-164.2 88,-164.2 88,-145.2 8,-145.2"/>
<polygon fill="#ffffff" stroke="transparent" points="9,-146.2 9,-163.2 32,-163.2 32,-146.2 9,-146.2"/>
<text text-anchor="start" x="11" y="-151.3" font-family="Helvetica,sans-Serif" font-size="11.00" fill="#000000"> &#160;</text>
<polygon fill="#ffffff" stroke="transparent" points="32,-146.2 32,-163.2 55,-163.2 55,-146.2 32,-146.2"/>
<text text-anchor="start" x="40.4431" y="-151.3" font-family="Helvetica,sans-Serif" font-size="11.00" fill="#000000"> &#160;</text>
<polygon fill="#ffffff" stroke="transparent" points="55,-146.2 55,-163.2 87,-163.2 87,-146.2 55,-146.2"/>
<text text-anchor="start" x="69.4053" y="-151.3" font-family="Helvetica,sans-Serif" font-size="11.00" fill="#000000">1 &gt;</text>
<polygon fill="#000000" stroke="#000000" points="32,-146.2 32,-163.2 32,-163.2 32,-146.2 32,-146.2"/>
<polygon fill="#000000" stroke="#000000" points="55,-146.2 55,-163.2 55,-163.2 55,-146.2 55,-146.2"/>
</a>
</g>
</g>
<!-- bestellung&#45;&gt;kunde -->
<g id="edge1" class="edge">
<title>bestellung:w&#45;&gt;kunde:e</title>
<path fill="none" stroke="#000000" d="M123.9203,-241.2C112.0435,-241.2 104.658,-241.2 88,-241.2"/>
<polygon fill="#000000" stroke="#000000" points="130.5,-241.2001 138.5,-244.8 134.5,-241.2 138.5,-241.2 138.5,-241.2 138.5,-241.2 134.5,-241.2 138.5,-237.6 130.5,-241.2001 130.5,-241.2001"/>
<ellipse fill="none" stroke="#000000" cx="127.3" cy="-241.2001" rx="3.2" ry="3.2"/>
</g>
<!-- bestellung_position -->
<g id="node2" class="node">
<title>bestellung_position</title>
<g id="a_node2"><a xlink:href="../../tables/bestellung_position.html" xlink:title="bestellung_position" target="_top">
<polygon fill="#ffffff" stroke="transparent" points="295,-190.2 295,-342.2 461,-342.2 461,-190.2 295,-190.2"/>
<polygon fill="#f5f5f5" stroke="transparent" points="295,-319.2 295,-342.2 461,-342.2 461,-319.2 295,-319.2"/>
<polygon fill="none" stroke="#000000" points="295,-319.2 295,-342.2 461,-342.2 461,-319.2 295,-319.2"/>
<text text-anchor="start" x="300" y="-327.8" font-family="Helvetica,sans-Serif" font-weight="bold" font-size="11.00" fill="#000000">bestellung_position</text>
<text text-anchor="start" x="426.5219" y="-327.3" font-family="Helvetica,sans-Serif" font-size="11.00" fill="#000000">[table]</text>
<polygon fill="none" stroke="#000000" points="295,-297.2 295,-319.2 461,-319.2 461,-297.2 295,-297.2"/>
<image xlink:href="../../images/primaryKeys.png" width="11px" height="12px" preserveAspectRatio="xMinYMin meet" x="300" y="-314.2"/>
<text text-anchor="start" x="324" y="-304.3" font-family="Helvetica,sans-Serif" font-size="11.00" fill="#000000">id</text>
<polygon fill="none" stroke="#000000" points="295,-275.2 295,-297.2 461,-297.2 461,-275.2 295,-275.2"/>
<text text-anchor="start" x="324" y="-282.3" font-family="Helvetica,sans-Serif" font-size="11.00" fill="#000000">einzelpreis</text>
<polygon fill="none" stroke="#000000" points="295,-253.2 295,-275.2 461,-275.2 461,-253.2 295,-253.2"/>
<text text-anchor="start" x="324" y="-260.3" font-family="Helvetica,sans-Serif" font-size="11.00" fill="#000000">menge</text>
<polygon fill="none" stroke="#000000" points="295,-231.2 295,-253.2 461,-253.2 461,-231.2 295,-231.2"/>
<image xlink:href="../../images/foreignKeys.png" width="11px" height="12px" preserveAspectRatio="xMinYMin meet" x="300" y="-248.2"/>
<text text-anchor="start" x="324" y="-238.3" font-family="Helvetica,sans-Serif" font-size="11.00" fill="#000000">bestellung_id</text>
<polygon fill="none" stroke="#000000" points="295,-209.2 295,-231.2 461,-231.2 461,-209.2 295,-209.2"/>
<image xlink:href="../../images/foreignKeys.png" width="11px" height="12px" preserveAspectRatio="xMinYMin meet" x="300" y="-226.2"/>
<text text-anchor="start" x="324" y="-216.3" font-family="Helvetica,sans-Serif" font-size="11.00" fill="#000000">produkt_id</text>
<polygon fill="#ffffff" stroke="transparent" points="295,-190.2 295,-209.2 461,-209.2 461,-190.2 295,-190.2"/>
<polygon fill="none" stroke="#000000" points="295,-190.2 295,-209.2 461,-209.2 461,-190.2 295,-190.2"/>
<polygon fill="#ffffff" stroke="transparent" points="296,-191.2 296,-208.2 357,-208.2 357,-191.2 296,-191.2"/>
<text text-anchor="start" x="298" y="-196.3" font-family="Helvetica,sans-Serif" font-size="11.00" fill="#000000">&lt; 2</text>
<polygon fill="#ffffff" stroke="transparent" points="357,-191.2 357,-208.2 409,-208.2 409,-191.2 357,-191.2"/>
<text text-anchor="start" x="379.9431" y="-196.3" font-family="Helvetica,sans-Serif" font-size="11.00" fill="#000000"> &#160;</text>
<polygon fill="#ffffff" stroke="transparent" points="409,-191.2 409,-208.2 460,-208.2 460,-191.2 409,-191.2"/>
<text text-anchor="start" x="451.8862" y="-196.3" font-family="Helvetica,sans-Serif" font-size="11.00" fill="#000000"> &#160;</text>
<polygon fill="#000000" stroke="#000000" points="357,-191.2 357,-208.2 357,-208.2 357,-191.2 357,-191.2"/>
<polygon fill="#000000" stroke="#000000" points="409,-191.2 409,-208.2 409,-208.2 409,-191.2 409,-191.2"/>
</a>
</g>
</g>
<!-- bestellung_position&#45;&gt;bestellung -->
<g id="edge2" class="edge">
<title>bestellung_position:w&#45;&gt;bestellung:e</title>
<path fill="none" stroke="#000000" d="M280.9404,-247.3004C264.881,-262.6236 275.5709,-307.2 245.5,-307.2"/>
<polygon fill="#000000" stroke="#000000" points="287.4796,-244.9283 296.2277,-245.5842 291.2398,-243.5641 295,-242.2 295,-242.2 295,-242.2 291.2398,-243.5641 293.7723,-238.8158 287.4796,-244.9283 287.4796,-244.9283"/>
<ellipse fill="none" stroke="#000000" cx="284.4714" cy="-246.0196" rx="3.2" ry="3.2"/>
</g>
<!-- produkt -->
<g id="node4" class="node">
<title>produkt</title>
<g id="a_node4"><a xlink:href="../../tables/produkt.html" xlink:title="produkt" target="_top">
<polygon fill="#ffffff" stroke="transparent" points="137,-38.2 137,-190.2 246,-190.2 246,-38.2 137,-38.2"/>
<polygon fill="#f5f5f5" stroke="transparent" points="137.5,-167.2 137.5,-190.2 246.5,-190.2 246.5,-167.2 137.5,-167.2"/>
<polygon fill="none" stroke="#000000" points="137.5,-167.2 137.5,-190.2 246.5,-190.2 246.5,-167.2 137.5,-167.2"/>
<text text-anchor="start" x="142.5" y="-175.8" font-family="Helvetica,sans-Serif" font-weight="bold" font-size="11.00" fill="#000000">produkt</text>
<text text-anchor="start" x="211.5437" y="-175.3" font-family="Helvetica,sans-Serif" font-size="11.00" fill="#000000">[table]</text>
<polygon fill="none" stroke="#000000" points="137.5,-145.2 137.5,-167.2 246.5,-167.2 246.5,-145.2 137.5,-145.2"/>
<image xlink:href="../../images/primaryKeys.png" width="11px" height="12px" preserveAspectRatio="xMinYMin meet" x="142.5" y="-162.2"/>
<text text-anchor="start" x="157.5" y="-152.3" font-family="Helvetica,sans-Serif" font-size="11.00" fill="#000000">id</text>
<polygon fill="none" stroke="#000000" points="137.5,-123.2 137.5,-145.2 246.5,-145.2 246.5,-123.2 137.5,-123.2"/>
<text text-anchor="start" x="157.5" y="-130.3" font-family="Helvetica,sans-Serif" font-size="11.00" fill="#000000">beschreibung</text>
<polygon fill="none" stroke="#000000" points="137.5,-101.2 137.5,-123.2 246.5,-123.2 246.5,-101.2 137.5,-101.2"/>
<text text-anchor="start" x="157.5" y="-108.3" font-family="Helvetica,sans-Serif" font-size="11.00" fill="#000000">lagerbestand</text>
<polygon fill="none" stroke="#000000" points="137.5,-79.2 137.5,-101.2 246.5,-101.2 246.5,-79.2 137.5,-79.2"/>
<text text-anchor="start" x="157.5" y="-86.3" font-family="Helvetica,sans-Serif" font-size="11.00" fill="#000000">name</text>
<polygon fill="none" stroke="#000000" points="137.5,-57.2 137.5,-79.2 246.5,-79.2 246.5,-57.2 137.5,-57.2"/>
<text text-anchor="start" x="157.5" y="-64.3" font-family="Helvetica,sans-Serif" font-size="11.00" fill="#000000">preis</text>
<polygon fill="#ffffff" stroke="transparent" points="137.5,-38.2 137.5,-57.2 246.5,-57.2 246.5,-38.2 137.5,-38.2"/>
<polygon fill="none" stroke="#000000" points="137.5,-38.2 137.5,-57.2 246.5,-57.2 246.5,-38.2 137.5,-38.2"/>
<polygon fill="#ffffff" stroke="transparent" points="138.5,-39.2 138.5,-56.2 171.5,-56.2 171.5,-39.2 138.5,-39.2"/>
<text text-anchor="start" x="140.5" y="-44.3" font-family="Helvetica,sans-Serif" font-size="11.00" fill="#000000"> &#160;</text>
<polygon fill="#ffffff" stroke="transparent" points="171.5,-39.2 171.5,-56.2 204.5,-56.2 204.5,-39.2 171.5,-39.2"/>
<text text-anchor="start" x="184.9431" y="-44.3" font-family="Helvetica,sans-Serif" font-size="11.00" fill="#000000"> &#160;</text>
<polygon fill="#ffffff" stroke="transparent" points="204.5,-39.2 204.5,-56.2 245.5,-56.2 245.5,-39.2 204.5,-39.2"/>
<text text-anchor="start" x="227.9053" y="-44.3" font-family="Helvetica,sans-Serif" font-size="11.00" fill="#000000">1 &gt;</text>
<polygon fill="#000000" stroke="#000000" points="171.5,-39.2 171.5,-56.2 171.5,-56.2 171.5,-39.2 171.5,-39.2"/>
<polygon fill="#000000" stroke="#000000" points="204.5,-39.2 204.5,-56.2 204.5,-56.2 204.5,-39.2 204.5,-39.2"/>
</a>
</g>
</g>
<!-- bestellung_position&#45;&gt;produkt -->
<g id="edge3" class="edge">
<title>bestellung_position:w&#45;&gt;produkt:e</title>
<path fill="none" stroke="#000000" d="M281.1934,-215.178C265.4451,-200.0906 276.0552,-156.2 246.5,-156.2"/>
<polygon fill="#000000" stroke="#000000" points="287.4819,-217.4653 293.7694,-223.5831 291.2409,-218.8327 295,-220.2 295,-220.2 295,-220.2 291.2409,-218.8327 296.2306,-216.8169 287.4819,-217.4653 287.4819,-217.4653"/>
<ellipse fill="none" stroke="#000000" cx="284.4747" cy="-216.3715" rx="3.2" ry="3.2"/>
</g>
</g>
</svg>
