<?xml version="1.0" encoding="UTF-8" standalone="no"?>
<!DOCTYPE svg PUBLIC "-//W3C//DTD SVG 1.1//EN"
 "http://www.w3.org/Graphics/SVG/1.1/DTD/svg11.dtd">
<!-- Generated by graphviz version 2.40.1 (20161225.0304)
 -->
<!-- Title: compactRelationshipsDiagram Pages: 1 -->
<svg width="477pt" height="259pt"
 viewBox="0.00 0.00 477.00 259.20" xmlns="http://www.w3.org/2000/svg" xmlns:xlink="http://www.w3.org/1999/xlink">
<g id="graph0" class="graph" transform="scale(1 1) rotate(0) translate(4 255.2)">
<title>compactRelationshipsDiagram</title>
<polygon fill="#ffffff" stroke="transparent" points="-4,4 -4,-255.2 473,-255.2 473,4 -4,4"/>
<text text-anchor="middle" x="72.4936" y="-7.3" font-family="Helvetica,sans-Serif" font-size="11.00" fill="#000000">Generated by SchemaSpy</text>
<!-- bestellung -->
<g id="node1" class="node">
<title>bestellung</title>
<g id="a_node1"><a xlink:href="../../tables/bestellung.html" xlink:title="bestellung" target="_top">
<polygon fill="#ffffff" stroke="transparent" points="138,-142.2 138,-247.2 245,-247.2 245,-142.2 138,-142.2"/>
<polygon fill="#f5f5f5" stroke="transparent" points="138.5,-223.7 138.5,-246.7 245.5,-246.7 245.5,-223.7 138.5,-223.7"/>
<polygon fill="none" stroke="#000000" points="138.5,-223.7 138.5,-246.7 245.5,-246.7 245.5,-223.7 138.5,-223.7"/>
<text text-anchor="start" x="143.5" y="-232.3" font-family="Helvetica,sans-Serif" font-weight="bold" font-size="11.00" fill="#000000">bestellung</text>
<text text-anchor="start" x="211.0219" y="-231.8" font-family="Helvetica,sans-Serif" font-size="11.00" fill="#000000">[table]</text>
<polygon fill="none" stroke="#000000" points="138.5,-201.7 138.5,-223.7 245.5,-223.7 245.5,-201.7 138.5,-201.7"/>
<image xlink:href="../../images/primaryKeys.png" width="11px" height="12px" preserveAspectRatio="xMinYMin meet" x="143.5" y="-218.7"/>
<text text-anchor="start" x="158.5" y="-208.8" font-family="Helvetica,sans-Serif" font-size="11.00" fill="#000000">id</text>
<polygon fill="none" stroke="#000000" points="138.5,-179.7 138.5,-201.7 245.5,-201.7 245.5,-179.7 138.5,-179.7"/>
<image xlink:href="../../images/foreignKeys.png" width="11px" height="12px" preserveAspectRatio="xMinYMin meet" x="143.5" y="-196.7"/>
<text text-anchor="start" x="158.5" y="-186.8" font-family="Helvetica,sans-Serif" font-size="11.00" fill="#000000">kunde_id</text>
<polygon fill="none" stroke="#000000" points="138.5,-160.7 138.5,-179.7 245.5,-179.7 245.5,-160.7 138.5,-160.7"/>
<text text-anchor="start" x="141.5" y="-166.8" font-family="Helvetica,sans-Serif" font-size="11.00" fill="#000000">...</text>
<polygon fill="#ffffff" stroke="transparent" points="138.5,-141.7 138.5,-160.7 245.5,-160.7 245.5,-141.7 138.5,-141.7"/>
<polygon fill="none" stroke="#000000" points="138.5,-141.7 138.5,-160.7 245.5,-160.7 245.5,-141.7 138.5,-141.7"/>
<polygon fill="#ffffff" stroke="transparent" points="139.5,-142.7 139.5,-159.7 177.5,-159.7 177.5,-142.7 139.5,-142.7"/>
<text text-anchor="start" x="141.5" y="-147.8" font-family="Helvetica,sans-Serif" font-size="11.00" fill="#000000">&lt; 1</text>
<polygon fill="#ffffff" stroke="transparent" points="177.5,-142.7 177.5,-159.7 206.5,-159.7 206.5,-142.7 177.5,-142.7"/>
<text text-anchor="start" x="188.9431" y="-147.8" font-family="Helvetica,sans-Serif" font-size="11.00" fill="#000000"> &#160;</text>
<polygon fill="#ffffff" stroke="transparent" points="206.5,-142.7 206.5,-159.7 244.5,-159.7 244.5,-142.7 206.5,-142.7"/>
<text text-anchor="start" x="226.9053" y="-147.8" font-family="Helvetica,sans-Serif" font-size="11.00" fill="#000000">1 &gt;</text>
<polygon fill="#000000" stroke="#000000" points="177.5,-142.7 177.5,-159.7 177.5,-159.7 177.5,-142.7 177.5,-142.7"/>
<polygon fill="#000000" stroke="#000000" points="206.5,-142.7 206.5,-159.7 206.5,-159.7 206.5,-142.7 206.5,-142.7"/>
</a>
</g>
</g>
<!-- kunde -->
<g id="node3" class="node">
<title>kunde</title>
<g id="a_node3"><a xlink:href="../../tables/kunde.html" xlink:title="kunde" target="_top">
<polygon fill="#ffffff" stroke="transparent" points="8,-120.2 8,-225.2 88,-225.2 88,-120.2 8,-120.2"/>
<polygon fill="#f5f5f5" stroke="transparent" points="8,-201.7 8,-224.7 88,-224.7 88,-201.7 8,-201.7"/>
<polygon fill="none" stroke="#000000" points="8,-201.7 8,-224.7 88,-224.7 88,-201.7 8,-201.7"/>
<text text-anchor="start" x="13" y="-210.3" font-family="Helvetica,sans-Serif" font-weight="bold" font-size="11.00" fill="#000000">kunde</text>
<text text-anchor="start" x="53.5219" y="-209.8" font-family="Helvetica,sans-Serif" font-size="11.00" fill="#000000">[table]</text>
<polygon fill="none" stroke="#000000" points="8,-179.7 8,-201.7 88,-201.7 88,-179.7 8,-179.7"/>
<image xlink:href="../../images/primaryKeys.png" width="11px" height="12px" preserveAspectRatio="xMinYMin meet" x="13" y="-196.7"/>
<text text-anchor="start" x="33" y="-186.8" font-family="Helvetica,sans-Serif" font-size="11.00" fill="#000000">id</text>
<polygon fill="#ffffff" stroke="transparent" points="8,-157.7 8,-179.7 88,-179.7 88,-157.7 8,-157.7"/>
<polygon fill="none" stroke="#000000" points="8,-157.7 8,-179.7 88,-179.7 88,-157.7 8,-157.7"/>
<text text-anchor="start" x="33" y="-164.8" font-family="Helvetica,sans-Serif" font-size="11.00" fill="#000000">email</text>
<polygon fill="none" stroke="#000000" points="8,-138.7 8,-157.7 88,-157.7 88,-138.7 8,-138.7"/>
<text text-anchor="start" x="11" y="-144.8" font-family="Helvetica,sans-Serif" font-size="11.00" fill="#000000">...</text>
<polygon fill="#ffffff" stroke="transparent" points="8,-119.7 8,-138.7 88,-138.7 88,-119.7 8,-119.7"/>
<polygon fill="none" stroke="#000000" points="8,-119.7 8,-138.7 88,-138.7 88,-119.7 8,-119.7"/>
<polygon fill="#ffffff" stroke="transparent" points="9,-120.7 9,-137.7 32,-137.7 32,-120.7 9,-120.7"/>
<text text-anchor="start" x="11" y="-125.8" font-family="Helvetica,sans-Serif" font-size="11.00" fill="#000000"> &#160;</text>
<polygon fill="#ffffff" stroke="transparent" points="32,-120.7 32,-137.7 55,-137.7 55,-120.7 32,-120.7"/>
<text text-anchor="start" x="40.4431" y="-125.8" font-family="Helvetica,sans-Serif" font-size="11.00" fill="#000000"> &#160;</text>
<polygon fill="#ffffff" stroke="transparent" points="55,-120.7 55,-137.7 87,-137.7 87,-120.7 55,-120.7"/>
<text text-anchor="start" x="69.4053" y="-125.8" font-family="Helvetica,sans-Serif" font-size="11.00" fill="#000000">1 &gt;</text>
<polygon fill="#000000" stroke="#000000" points="32,-120.7 32,-137.7 32,-137.7 32,-120.7 32,-120.7"/>
<polygon fill="#000000" stroke="#000000" points="55,-120.7 55,-137.7 55,-137.7 55,-120.7 55,-120.7"/>
</a>
</g>
</g>
<!-- bestellung&#45;&gt;kunde -->
<g id="edge1" class="edge">
<title>bestellung:w&#45;&gt;kunde:e</title>
<path fill="none" stroke="#000000" d="M123.9203,-190.7C112.0435,-190.7 104.658,-190.7 88,-190.7"/>
<polygon fill="#000000" stroke="#000000" points="130.5,-190.7001 138.5,-194.3 134.5,-190.7 138.5,-190.7 138.5,-190.7 138.5,-190.7 134.5,-190.7 138.5,-187.1 130.5,-190.7001 130.5,-190.7001"/>
<ellipse fill="none" stroke="#000000" cx="127.3" cy="-190.7001" rx="3.2" ry="3.2"/>
</g>
<!-- bestellung_position -->
<g id="node2" class="node">
<title>bestellung_position</title>
<g id="a_node2"><a xlink:href="../../tables/bestellung_position.html" xlink:title="bestellung_position" target="_top">
<polygon fill="#ffffff" stroke="transparent" points="295,-90.2 295,-217.2 461,-217.2 461,-90.2 295,-90.2"/>
<polygon fill="#f5f5f5" stroke="transparent" points="295,-193.7 295,-216.7 461,-216.7 461,-193.7 295,-193.7"/>
<polygon fill="none" stroke="#000000" points="295,-193.7 295,-216.7 461,-216.7 461,-193.7 295,-193.7"/>
<text text-anchor="start" x="300" y="-202.3" font-family="Helvetica,sans-Serif" font-weight="bold" font-size="11.00" fill="#000000">bestellung_position</text>
<text text-anchor="start" x="426.5219" y="-201.8" font-family="Helvetica,sans-Serif" font-size="11.00" fill="#000000">[table]</text>
<polygon fill="none" stroke="#000000" points="295,-171.7 295,-193.7 461,-193.7 461,-171.7 295,-171.7"/>
<image xlink:href="../../images/primaryKeys.png" width="11px" height="12px" preserveAspectRatio="xMinYMin meet" x="300" y="-188.7"/>
<text text-anchor="start" x="324" y="-178.8" font-family="Helvetica,sans-Serif" font-size="11.00" fill="#000000">id</text>
<polygon fill="none" stroke="#000000" points="295,-149.7 295,-171.7 461,-171.7 461,-149.7 295,-149.7"/>
<image xlink:href="../../images/foreignKeys.png" width="11px" height="12px" preserveAspectRatio="xMinYMin meet" x="300" y="-166.7"/>
<text text-anchor="start" x="324" y="-156.8" font-family="Helvetica,sans-Serif" font-size="11.00" fill="#000000">bestellung_id</text>
<polygon fill="none" stroke="#000000" points="295,-127.7 295,-149.7 461,-149.7 461,-127.7 295,-127.7"/>
<image xlink:href="../../images/foreignKeys.png" width="11px" height="12px" preserveAspectRatio="xMinYMin meet" x="300" y="-144.7"/>
<text text-anchor="start" x="324" y="-134.8" font-family="Helvetica,sans-Serif" font-size="11.00" fill="#000000">produkt_id</text>
<polygon fill="none" stroke="#000000" points="295,-108.7 295,-127.7 461,-127.7 461,-108.7 295,-108.7"/>
<text text-anchor="start" x="298" y="-114.8" font-family="Helvetica,sans-Serif" font-size="11.00" fill="#000000">...</text>
<polygon fill="#ffffff" stroke="transparent" points="295,-89.7 295,-108.7 461,-108.7 461,-89.7 295,-89.7"/>
<polygon fill="none" stroke="#000000" points="295,-89.7 295,-108.7 461,-108.7 461,-89.7 295,-89.7"/>
<polygon fill="#ffffff" stroke="transparent" points="296,-90.7 296,-107.7 357,-107.7 357,-90.7 296,-90.7"/>
<text text-anchor="start" x="298" y="-95.8" font-family="Helvetica,sans-Serif" font-size="11.00" fill="#000000">&lt; 2</text>
<polygon fill="#ffffff" stroke="transparent" points="357,-90.7 357,-107.7 409,-107.7 409,-90.7 357,-90.7"/>
<text text-anchor="start" x="379.9431" y="-95.8" font-family="Helvetica,sans-Serif" font-size="11.00" fill="#000000"> &#160;</text>
<polygon fill="#ffffff" stroke="transparent" points="409,-90.7 409,-107.7 460,-107.7 460,-90.7 409,-90.7"/>
<text text-anchor="start" x="451.8862" y="-95.8" font-family="Helvetica,sans-Serif" font-size="11.00" fill="#000000"> &#160;</text>
<polygon fill="#000000" stroke="#000000" points="357,-90.7 357,-107.7 357,-107.7 357,-90.7 357,-90.7"/>
<polygon fill="#000000" stroke="#000000" points="409,-90.7 409,-107.7 409,-107.7 409,-90.7 409,-90.7"/>
</a>
</g>
</g>
<!-- bestellung_position&#45;&gt;bestellung -->
<g id="edge2" class="edge">
<title>bestellung_position:w&#45;&gt;bestellung:e</title>
<path fill="none" stroke="#000000" d="M281.3175,-165.4988C266.8354,-178.3719 271.4253,-212.7 245.5,-212.7"/>
<polygon fill="#000000" stroke="#000000" points="287.4508,-163.3477 296.1915,-164.0971 291.2254,-162.0239 295,-160.7 295,-160.7 295,-160.7 291.2254,-162.0239 293.8085,-157.3029 287.4508,-163.3477 287.4508,-163.3477"/>
<ellipse fill="none" stroke="#000000" cx="284.4312" cy="-164.4068" rx="3.2" ry="3.2"/>
</g>
<!-- produkt -->
<g id="node4" class="node">
<title>produkt</title>
<g id="a_node4"><a xlink:href="../../tables/produkt.html" xlink:title="produkt" target="_top">
<polygon fill="#ffffff" stroke="transparent" points="137,-38.2 137,-121.2 246,-121.2 246,-38.2 137,-38.2"/>
<polygon fill="#f5f5f5" stroke="transparent" points="137.5,-97.7 137.5,-120.7 246.5,-120.7 246.5,-97.7 137.5,-97.7"/>
<polygon fill="none" stroke="#000000" points="137.5,-97.7 137.5,-120.7 246.5,-120.7 246.5,-97.7 137.5,-97.7"/>
<text text-anchor="start" x="142.5" y="-106.3" font-family="Helvetica,sans-Serif" font-weight="bold" font-size="11.00" fill="#000000">produkt</text>
<text text-anchor="start" x="211.5437" y="-105.8" font-family="Helvetica,sans-Serif" font-size="11.00" fill="#000000">[table]</text>
<polygon fill="none" stroke="#000000" points="137.5,-75.7 137.5,-97.7 246.5,-97.7 246.5,-75.7 137.5,-75.7"/>
<image xlink:href="../../images/primaryKeys.png" width="11px" height="12px" preserveAspectRatio="xMinYMin meet" x="142.5" y="-92.7"/>
<text text-anchor="start" x="157.5" y="-82.8" font-family="Helvetica,sans-Serif" font-size="11.00" fill="#000000">id</text>
<polygon fill="none" stroke="#000000" points="137.5,-56.7 137.5,-75.7 246.5,-75.7 246.5,-56.7 137.5,-56.7"/>
<text text-anchor="start" x="140.5" y="-62.8" font-family="Helvetica,sans-Serif" font-size="11.00" fill="#000000">...</text>
<polygon fill="#ffffff" stroke="transparent" points="137.5,-37.7 137.5,-56.7 246.5,-56.7 246.5,-37.7 137.5,-37.7"/>
<polygon fill="none" stroke="#000000" points="137.5,-37.7 137.5,-56.7 246.5,-56.7 246.5,-37.7 137.5,-37.7"/>
<polygon fill="#ffffff" stroke="transparent" points="138.5,-38.7 138.5,-55.7 171.5,-55.7 171.5,-38.7 138.5,-38.7"/>
<text text-anchor="start" x="140.5" y="-43.8" font-family="Helvetica,sans-Serif" font-size="11.00" fill="#000000"> &#160;</text>
<polygon fill="#ffffff" stroke="transparent" points="171.5,-38.7 171.5,-55.7 204.5,-55.7 204.5,-38.7 171.5,-38.7"/>
<text text-anchor="start" x="184.9431" y="-43.8" font-family="Helvetica,sans-Serif" font-size="11.00" fill="#000000"> &#160;</text>
<polygon fill="#ffffff" stroke="transparent" points="204.5,-38.7 204.5,-55.7 245.5,-55.7 245.5,-38.7 204.5,-38.7"/>
<text text-anchor="start" x="227.9053" y="-43.8" font-family="Helvetica,sans-Serif" font-size="11.00" fill="#000000">1 &gt;</text>
<polygon fill="#000000" stroke="#000000" points="171.5,-38.7 171.5,-55.7 171.5,-55.7 171.5,-38.7 171.5,-38.7"/>
<polygon fill="#000000" stroke="#000000" points="204.5,-38.7 204.5,-55.7 204.5,-55.7 204.5,-38.7 204.5,-38.7"/>
</a>
</g>
</g>
<!-- bestellung_position&#45;&gt;produkt -->
<g id="edge3" class="edge">
<title>bestellung_position:w&#45;&gt;produkt:e</title>
<path fill="none" stroke="#000000" d="M281.0921,-133.5239C267.3749,-120.3711 271.9307,-86.7 246.5,-86.7"/>
<polygon fill="#000000" stroke="#000000" points="287.5024,-135.9096 293.7443,-142.0739 291.2512,-137.3048 295,-138.7 295,-138.7 295,-138.7 291.2512,-137.3048 296.2557,-135.3261 287.5024,-135.9096 287.5024,-135.9096"/>
<ellipse fill="none" stroke="#000000" cx="284.5034" cy="-134.7934" rx="3.2" ry="3.2"/>
</g>
</g>
</svg>
