<?xml version="1.0" encoding="UTF-8" standalone="no"?>
<!DOCTYPE svg PUBLIC "-//W3C//DTD SVG 1.1//EN"
 "http://www.w3.org/Graphics/SVG/1.1/DTD/svg11.dtd">
<!-- Generated by graphviz version 2.40.1 (20161225.0304)
 -->
<!-- Title: largeRelationshipsDiagram Pages: 1 -->
<svg width="477pt" height="529pt"
 viewBox="0.00 0.00 477.00 529.20" xmlns="http://www.w3.org/2000/svg" xmlns:xlink="http://www.w3.org/1999/xlink">
<g id="graph0" class="graph" transform="scale(1 1) rotate(0) translate(4 525.2)">
<title>largeRelationshipsDiagram</title>
<polygon fill="#ffffff" stroke="transparent" points="-4,4 -4,-525.2 473,-525.2 473,4 -4,4"/>
<text text-anchor="middle" x="72.4936" y="-7.3" font-family="Helvetica,sans-Serif" font-size="11.00" fill="#000000">Generated by SchemaSpy</text>
<!-- bestellung -->
<g id="node1" class="node">
<title>bestellung</title>
<g id="a_node1"><a xlink:href="../../tables/bestellung.html" xlink:title="bestellung" target="_top">
<polygon fill="#ffffff" stroke="transparent" points="138,-222.2 138,-352.2 245,-352.2 245,-222.2 138,-222.2"/>
<polygon fill="#f5f5f5" stroke="transparent" points="138.5,-329.2 138.5,-352.2 245.5,-352.2 245.5,-329.2 138.5,-329.2"/>
<polygon fill="none" stroke="#000000" points="138.5,-329.2 138.5,-352.2 245.5,-352.2 245.5,-329.2 138.5,-329.2"/>
<text text-anchor="start" x="143.5" y="-337.8" font-family="Helvetica,sans-Serif" font-weight="bold" font-size="11.00" fill="#000000">bestellung</text>
<text text-anchor="start" x="211.0219" y="-337.3" font-family="Helvetica,sans-Serif" font-size="11.00" fill="#000000">[table]</text>
<polygon fill="none" stroke="#000000" points="138.5,-307.2 138.5,-329.2 245.5,-329.2 245.5,-307.2 138.5,-307.2"/>
<image xlink:href="../../images/primaryKeys.png" width="11px" height="12px" preserveAspectRatio="xMinYMin meet" x="143.5" y="-324.2"/>
<text text-anchor="start" x="158.5" y="-314.3" font-family="Helvetica,sans-Serif" font-size="11.00" fill="#000000">id</text>
<polygon fill="none" stroke="#000000" points="138.5,-285.2 138.5,-307.2 245.5,-307.2 245.5,-285.2 138.5,-285.2"/>
<text text-anchor="start" x="158.5" y="-292.3" font-family="Helvetica,sans-Serif" font-size="11.00" fill="#000000">bestelldatum</text>
<polygon fill="none" stroke="#000000" points="138.5,-263.2 138.5,-285.2 245.5,-285.2 245.5,-263.2 138.5,-263.2"/>
<text text-anchor="start" x="158.5" y="-270.3" font-family="Helvetica,sans-Serif" font-size="11.00" fill="#000000">status</text>
<polygon fill="none" stroke="#000000" points="138.5,-241.2 138.5,-263.2 245.5,-263.2 245.5,-241.2 138.5,-241.2"/>
<image xlink:href="../../images/foreignKeys.png" width="11px" height="12px" preserveAspectRatio="xMinYMin meet" x="143.5" y="-258.2"/>
<text text-anchor="start" x="158.5" y="-248.3" font-family="Helvetica,sans-Serif" font-size="11.00" fill="#000000">kunde_id</text>
<polygon fill="#ffffff" stroke="transparent" points="138.5,-222.2 138.5,-241.2 245.5,-241.2 245.5,-222.2 138.5,-222.2"/>
<polygon fill="none" stroke="#000000" points="138.5,-222.2 138.5,-241.2 245.5,-241.2 245.5,-222.2 138.5,-222.2"/>
<polygon fill="#ffffff" stroke="transparent" points="139.5,-223.2 139.5,-240.2 177.5,-240.2 177.5,-223.2 139.5,-223.2"/>
<text text-anchor="start" x="141.5" y="-228.3" font-family="Helvetica,sans-Serif" font-size="11.00" fill="#000000">&lt; 1</text>
<polygon fill="#ffffff" stroke="transparent" points="177.5,-223.2 177.5,-240.2 206.5,-240.2 206.5,-223.2 177.5,-223.2"/>
<text text-anchor="start" x="188.9431" y="-228.3" font-family="Helvetica,sans-Serif" font-size="11.00" fill="#000000"> &#160;</text>
<polygon fill="#ffffff" stroke="transparent" points="206.5,-223.2 206.5,-240.2 244.5,-240.2 244.5,-223.2 206.5,-223.2"/>
<text text-anchor="start" x="226.9053" y="-228.3" font-family="Helvetica,sans-Serif" font-size="11.00" fill="#000000">2 &gt;</text>
<polygon fill="#000000" stroke="#000000" points="177.5,-223.2 177.5,-240.2 177.5,-240.2 177.5,-223.2 177.5,-223.2"/>
<polygon fill="#000000" stroke="#000000" points="206.5,-223.2 206.5,-240.2 206.5,-240.2 206.5,-223.2 206.5,-223.2"/>
</a>
</g>
</g>
<!-- kunde -->
<g id="node4" class="node">
<title>kunde</title>
<g id="a_node4"><a xlink:href="../../tables/kunde.html" xlink:title="kunde" target="_top">
<polygon fill="#ffffff" stroke="transparent" points="8,-156.2 8,-286.2 88,-286.2 88,-156.2 8,-156.2"/>
<polygon fill="#f5f5f5" stroke="transparent" points="8,-263.2 8,-286.2 88,-286.2 88,-263.2 8,-263.2"/>
<polygon fill="none" stroke="#000000" points="8,-263.2 8,-286.2 88,-286.2 88,-263.2 8,-263.2"/>
<text text-anchor="start" x="13" y="-271.8" font-family="Helvetica,sans-Serif" font-weight="bold" font-size="11.00" fill="#000000">kunde</text>
<text text-anchor="start" x="53.5219" y="-271.3" font-family="Helvetica,sans-Serif" font-size="11.00" fill="#000000">[table]</text>
<polygon fill="none" stroke="#000000" points="8,-241.2 8,-263.2 88,-263.2 88,-241.2 8,-241.2"/>
<image xlink:href="../../images/primaryKeys.png" width="11px" height="12px" preserveAspectRatio="xMinYMin meet" x="13" y="-258.2"/>
<text text-anchor="start" x="33" y="-248.3" font-family="Helvetica,sans-Serif" font-size="11.00" fill="#000000">id</text>
<polygon fill="none" stroke="#000000" points="8,-219.2 8,-241.2 88,-241.2 88,-219.2 8,-219.2"/>
<text text-anchor="start" x="33" y="-226.3" font-family="Helvetica,sans-Serif" font-size="11.00" fill="#000000">adresse</text>
<polygon fill="#ffffff" stroke="transparent" points="8,-197.2 8,-219.2 88,-219.2 88,-197.2 8,-197.2"/>
<polygon fill="none" stroke="#000000" points="8,-197.2 8,-219.2 88,-219.2 88,-197.2 8,-197.2"/>
<text text-anchor="start" x="33" y="-204.3" font-family="Helvetica,sans-Serif" font-size="11.00" fill="#000000">email</text>
<polygon fill="none" stroke="#000000" points="8,-175.2 8,-197.2 88,-197.2 88,-175.2 8,-175.2"/>
<text text-anchor="start" x="33" y="-182.3" font-family="Helvetica,sans-Serif" font-size="11.00" fill="#000000">name</text>
<polygon fill="#ffffff" stroke="transparent" points="8,-156.2 8,-175.2 88,-175.2 88,-156.2 8,-156.2"/>
<polygon fill="none" stroke="#000000" points="8,-156.2 8,-175.2 88,-175.2 88,-156.2 8,-156.2"/>
<polygon fill="#ffffff" stroke="transparent" points="9,-157.2 9,-174.2 32,-174.2 32,-157.2 9,-157.2"/>
<text text-anchor="start" x="11" y="-162.3" font-family="Helvetica,sans-Serif" font-size="11.00" fill="#000000"> &#160;</text>
<polygon fill="#ffffff" stroke="transparent" points="32,-157.2 32,-174.2 55,-174.2 55,-157.2 32,-157.2"/>
<text text-anchor="start" x="40.4431" y="-162.3" font-family="Helvetica,sans-Serif" font-size="11.00" fill="#000000"> &#160;</text>
<polygon fill="#ffffff" stroke="transparent" points="55,-157.2 55,-174.2 87,-174.2 87,-157.2 55,-157.2"/>
<text text-anchor="start" x="69.4053" y="-162.3" font-family="Helvetica,sans-Serif" font-size="11.00" fill="#000000">1 &gt;</text>
<polygon fill="#000000" stroke="#000000" points="32,-157.2 32,-174.2 32,-174.2 32,-157.2 32,-157.2"/>
<polygon fill="#000000" stroke="#000000" points="55,-157.2 55,-174.2 55,-174.2 55,-157.2 55,-157.2"/>
</a>
</g>
</g>
<!-- bestellung&#45;&gt;kunde -->
<g id="edge1" class="edge">
<title>bestellung:w&#45;&gt;kunde:e</title>
<path fill="none" stroke="#000000" d="M123.9203,-252.2C112.0435,-252.2 104.658,-252.2 88,-252.2"/>
<polygon fill="#000000" stroke="#000000" points="130.5,-252.2001 138.5,-255.8 134.5,-252.2 138.5,-252.2 138.5,-252.2 138.5,-252.2 134.5,-252.2 138.5,-248.6 130.5,-252.2001 130.5,-252.2001"/>
<ellipse fill="none" stroke="#000000" cx="127.3" cy="-252.2001" rx="3.2" ry="3.2"/>
</g>
<!-- rechnung -->
<g id="node2" class="node">
<title>rechnung</title>
<g id="a_node2"><a xlink:href="../../tables/rechnung.html" xlink:title="rechnung" target="_top">
<polygon fill="#ffffff" stroke="transparent" points="305,-299.2 305,-517.2 451,-517.2 451,-299.2 305,-299.2"/>
<polygon fill="#f5f5f5" stroke="transparent" points="305,-494.2 305,-517.2 451,-517.2 451,-494.2 305,-494.2"/>
<polygon fill="none" stroke="#000000" points="305,-494.2 305,-517.2 451,-517.2 451,-494.2 305,-494.2"/>
<text text-anchor="start" x="310" y="-502.8" font-family="Helvetica,sans-Serif" font-weight="bold" font-size="11.00" fill="#000000">rechnung</text>
<text text-anchor="start" x="416.0437" y="-502.3" font-family="Helvetica,sans-Serif" font-size="11.00" fill="#000000">[table]</text>
<polygon fill="none" stroke="#000000" points="305,-472.2 305,-494.2 451,-494.2 451,-472.2 305,-472.2"/>
<image xlink:href="../../images/primaryKeys.png" width="11px" height="12px" preserveAspectRatio="xMinYMin meet" x="310" y="-489.2"/>
<text text-anchor="start" x="325" y="-479.3" font-family="Helvetica,sans-Serif" font-size="11.00" fill="#000000">id</text>
<polygon fill="none" stroke="#000000" points="305,-450.2 305,-472.2 451,-472.2 451,-450.2 305,-450.2"/>
<text text-anchor="start" x="325" y="-457.3" font-family="Helvetica,sans-Serif" font-size="11.00" fill="#000000">bezahltam</text>
<polygon fill="none" stroke="#000000" points="305,-428.2 305,-450.2 451,-450.2 451,-428.2 305,-428.2"/>
<text text-anchor="start" x="325" y="-435.3" font-family="Helvetica,sans-Serif" font-size="11.00" fill="#000000">bezahltvon</text>
<polygon fill="none" stroke="#000000" points="305,-406.2 305,-428.2 451,-428.2 451,-406.2 305,-406.2"/>
<text text-anchor="start" x="325" y="-413.3" font-family="Helvetica,sans-Serif" font-size="11.00" fill="#000000">erstellungsdatum</text>
<polygon fill="none" stroke="#000000" points="305,-384.2 305,-406.2 451,-406.2 451,-384.2 305,-384.2"/>
<text text-anchor="start" x="325" y="-391.3" font-family="Helvetica,sans-Serif" font-size="11.00" fill="#000000">gesamtbetrag</text>
<polygon fill="#ffffff" stroke="transparent" points="305,-362.2 305,-384.2 451,-384.2 451,-362.2 305,-362.2"/>
<polygon fill="none" stroke="#000000" points="305,-362.2 305,-384.2 451,-384.2 451,-362.2 305,-362.2"/>
<text text-anchor="start" x="325" y="-369.3" font-family="Helvetica,sans-Serif" font-size="11.00" fill="#000000">rechnungsnummer</text>
<polygon fill="none" stroke="#000000" points="305,-340.2 305,-362.2 451,-362.2 451,-340.2 305,-340.2"/>
<text text-anchor="start" x="325" y="-347.3" font-family="Helvetica,sans-Serif" font-size="11.00" fill="#000000">status</text>
<polygon fill="#ffffff" stroke="transparent" points="305,-318.2 305,-340.2 451,-340.2 451,-318.2 305,-318.2"/>
<polygon fill="none" stroke="#000000" points="305,-318.2 305,-340.2 451,-340.2 451,-318.2 305,-318.2"/>
<image xlink:href="../../images/foreignKeys.png" width="11px" height="12px" preserveAspectRatio="xMinYMin meet" x="310" y="-335.2"/>
<text text-anchor="start" x="325" y="-325.3" font-family="Helvetica,sans-Serif" font-size="11.00" fill="#000000">bestellung_id</text>
<polygon fill="#ffffff" stroke="transparent" points="305,-299.2 305,-318.2 451,-318.2 451,-299.2 305,-299.2"/>
<polygon fill="none" stroke="#000000" points="305,-299.2 305,-318.2 451,-318.2 451,-299.2 305,-299.2"/>
<polygon fill="#ffffff" stroke="transparent" points="306,-300.2 306,-317.2 360,-317.2 360,-300.2 306,-300.2"/>
<text text-anchor="start" x="308" y="-305.3" font-family="Helvetica,sans-Serif" font-size="11.00" fill="#000000">&lt; 1</text>
<polygon fill="#ffffff" stroke="transparent" points="360,-300.2 360,-317.2 405,-317.2 405,-300.2 360,-300.2"/>
<text text-anchor="start" x="379.4431" y="-305.3" font-family="Helvetica,sans-Serif" font-size="11.00" fill="#000000"> &#160;</text>
<polygon fill="#ffffff" stroke="transparent" points="405,-300.2 405,-317.2 450,-317.2 450,-300.2 405,-300.2"/>
<text text-anchor="start" x="441.8862" y="-305.3" font-family="Helvetica,sans-Serif" font-size="11.00" fill="#000000"> &#160;</text>
<polygon fill="#000000" stroke="#000000" points="360,-300.2 360,-317.2 360,-317.2 360,-300.2 360,-300.2"/>
<polygon fill="#000000" stroke="#000000" points="405,-300.2 405,-317.2 405,-317.2 405,-300.2 405,-300.2"/>
</a>
</g>
</g>
<!-- rechnung&#45;&gt;bestellung -->
<g id="edge4" class="edge">
<title>rechnung:w&#45;&gt;bestellung:e</title>
<path fill="none" stroke="#000000" d="M294.5388,-328.5771C276.0131,-326.2501 268.5057,-318.2 245.5,-318.2"/>
<polygon fill="#000000" stroke="#000000" points="304.4392,-325.1595 303.9636,-333.1454 302.3664,-333.0502 302.842,-325.0644 304.4392,-325.1595"/>
<polyline fill="none" stroke="#000000" points="305,-329.2 301.0071,-328.9622 "/>
<ellipse fill="none" stroke="#000000" cx="297.8127" cy="-328.772" rx="3.2" ry="3.2"/>
</g>
<!-- bestellung_position -->
<g id="node3" class="node">
<title>bestellung_position</title>
<g id="a_node3"><a xlink:href="../../tables/bestellung_position.html" xlink:title="bestellung_position" target="_top">
<polygon fill="#ffffff" stroke="transparent" points="295,-126.2 295,-278.2 461,-278.2 461,-126.2 295,-126.2"/>
<polygon fill="#f5f5f5" stroke="transparent" points="295,-255.2 295,-278.2 461,-278.2 461,-255.2 295,-255.2"/>
<polygon fill="none" stroke="#000000" points="295,-255.2 295,-278.2 461,-278.2 461,-255.2 295,-255.2"/>
<text text-anchor="start" x="300" y="-263.8" font-family="Helvetica,sans-Serif" font-weight="bold" font-size="11.00" fill="#000000">bestellung_position</text>
<text text-anchor="start" x="426.5219" y="-263.3" font-family="Helvetica,sans-Serif" font-size="11.00" fill="#000000">[table]</text>
<polygon fill="none" stroke="#000000" points="295,-233.2 295,-255.2 461,-255.2 461,-233.2 295,-233.2"/>
<image xlink:href="../../images/primaryKeys.png" width="11px" height="12px" preserveAspectRatio="xMinYMin meet" x="300" y="-250.2"/>
<text text-anchor="start" x="324" y="-240.3" font-family="Helvetica,sans-Serif" font-size="11.00" fill="#000000">id</text>
<polygon fill="none" stroke="#000000" points="295,-211.2 295,-233.2 461,-233.2 461,-211.2 295,-211.2"/>
<text text-anchor="start" x="324" y="-218.3" font-family="Helvetica,sans-Serif" font-size="11.00" fill="#000000">einzelpreis</text>
<polygon fill="none" stroke="#000000" points="295,-189.2 295,-211.2 461,-211.2 461,-189.2 295,-189.2"/>
<text text-anchor="start" x="324" y="-196.3" font-family="Helvetica,sans-Serif" font-size="11.00" fill="#000000">menge</text>
<polygon fill="none" stroke="#000000" points="295,-167.2 295,-189.2 461,-189.2 461,-167.2 295,-167.2"/>
<image xlink:href="../../images/foreignKeys.png" width="11px" height="12px" preserveAspectRatio="xMinYMin meet" x="300" y="-184.2"/>
<text text-anchor="start" x="324" y="-174.3" font-family="Helvetica,sans-Serif" font-size="11.00" fill="#000000">bestellung_id</text>
<polygon fill="none" stroke="#000000" points="295,-145.2 295,-167.2 461,-167.2 461,-145.2 295,-145.2"/>
<image xlink:href="../../images/foreignKeys.png" width="11px" height="12px" preserveAspectRatio="xMinYMin meet" x="300" y="-162.2"/>
<text text-anchor="start" x="324" y="-152.3" font-family="Helvetica,sans-Serif" font-size="11.00" fill="#000000">produkt_id</text>
<polygon fill="#ffffff" stroke="transparent" points="295,-126.2 295,-145.2 461,-145.2 461,-126.2 295,-126.2"/>
<polygon fill="none" stroke="#000000" points="295,-126.2 295,-145.2 461,-145.2 461,-126.2 295,-126.2"/>
<polygon fill="#ffffff" stroke="transparent" points="296,-127.2 296,-144.2 357,-144.2 357,-127.2 296,-127.2"/>
<text text-anchor="start" x="298" y="-132.3" font-family="Helvetica,sans-Serif" font-size="11.00" fill="#000000">&lt; 2</text>
<polygon fill="#ffffff" stroke="transparent" points="357,-127.2 357,-144.2 409,-144.2 409,-127.2 357,-127.2"/>
<text text-anchor="start" x="379.9431" y="-132.3" font-family="Helvetica,sans-Serif" font-size="11.00" fill="#000000"> &#160;</text>
<polygon fill="#ffffff" stroke="transparent" points="409,-127.2 409,-144.2 460,-144.2 460,-127.2 409,-127.2"/>
<text text-anchor="start" x="451.8862" y="-132.3" font-family="Helvetica,sans-Serif" font-size="11.00" fill="#000000"> &#160;</text>
<polygon fill="#000000" stroke="#000000" points="357,-127.2 357,-144.2 357,-144.2 357,-127.2 357,-127.2"/>
<polygon fill="#000000" stroke="#000000" points="409,-127.2 409,-144.2 409,-144.2 409,-127.2 409,-127.2"/>
</a>
</g>
</g>
<!-- bestellung_position&#45;&gt;bestellung -->
<g id="edge2" class="edge">
<title>bestellung_position:w&#45;&gt;bestellung:e</title>
<path fill="none" stroke="#000000" d="M280.5922,-181.3871C242.6275,-202.2262 305.5676,-318.2 245.5,-318.2"/>
<polygon fill="#000000" stroke="#000000" points="287.1888,-179.9279 295.7776,-181.715 291.0944,-179.064 295,-178.2 295,-178.2 295,-178.2 291.0944,-179.064 294.2224,-174.685 287.1888,-179.9279 287.1888,-179.9279"/>
<ellipse fill="none" stroke="#000000" cx="284.0644" cy="-180.6191" rx="3.2" ry="3.2"/>
</g>
<!-- produkt -->
<g id="node5" class="node">
<title>produkt</title>
<g id="a_node5"><a xlink:href="../../tables/produkt.html" xlink:title="produkt" target="_top">
<polygon fill="#ffffff" stroke="transparent" points="137,-38.2 137,-190.2 246,-190.2 246,-38.2 137,-38.2"/>
<polygon fill="#f5f5f5" stroke="transparent" points="137.5,-167.2 137.5,-190.2 246.5,-190.2 246.5,-167.2 137.5,-167.2"/>
<polygon fill="none" stroke="#000000" points="137.5,-167.2 137.5,-190.2 246.5,-190.2 246.5,-167.2 137.5,-167.2"/>
<text text-anchor="start" x="142.5" y="-175.8" font-family="Helvetica,sans-Serif" font-weight="bold" font-size="11.00" fill="#000000">produkt</text>
<text text-anchor="start" x="211.5437" y="-175.3" font-family="Helvetica,sans-Serif" font-size="11.00" fill="#000000">[table]</text>
<polygon fill="none" stroke="#000000" points="137.5,-145.2 137.5,-167.2 246.5,-167.2 246.5,-145.2 137.5,-145.2"/>
<image xlink:href="../../images/primaryKeys.png" width="11px" height="12px" preserveAspectRatio="xMinYMin meet" x="142.5" y="-162.2"/>
<text text-anchor="start" x="157.5" y="-152.3" font-family="Helvetica,sans-Serif" font-size="11.00" fill="#000000">id</text>
<polygon fill="none" stroke="#000000" points="137.5,-123.2 137.5,-145.2 246.5,-145.2 246.5,-123.2 137.5,-123.2"/>
<text text-anchor="start" x="157.5" y="-130.3" font-family="Helvetica,sans-Serif" font-size="11.00" fill="#000000">beschreibung</text>
<polygon fill="none" stroke="#000000" points="137.5,-101.2 137.5,-123.2 246.5,-123.2 246.5,-101.2 137.5,-101.2"/>
<text text-anchor="start" x="157.5" y="-108.3" font-family="Helvetica,sans-Serif" font-size="11.00" fill="#000000">lagerbestand</text>
<polygon fill="none" stroke="#000000" points="137.5,-79.2 137.5,-101.2 246.5,-101.2 246.5,-79.2 137.5,-79.2"/>
<text text-anchor="start" x="157.5" y="-86.3" font-family="Helvetica,sans-Serif" font-size="11.00" fill="#000000">name</text>
<polygon fill="none" stroke="#000000" points="137.5,-57.2 137.5,-79.2 246.5,-79.2 246.5,-57.2 137.5,-57.2"/>
<text text-anchor="start" x="157.5" y="-64.3" font-family="Helvetica,sans-Serif" font-size="11.00" fill="#000000">preis</text>
<polygon fill="#ffffff" stroke="transparent" points="137.5,-38.2 137.5,-57.2 246.5,-57.2 246.5,-38.2 137.5,-38.2"/>
<polygon fill="none" stroke="#000000" points="137.5,-38.2 137.5,-57.2 246.5,-57.2 246.5,-38.2 137.5,-38.2"/>
<polygon fill="#ffffff" stroke="transparent" points="138.5,-39.2 138.5,-56.2 171.5,-56.2 171.5,-39.2 138.5,-39.2"/>
<text text-anchor="start" x="140.5" y="-44.3" font-family="Helvetica,sans-Serif" font-size="11.00" fill="#000000"> &#160;</text>
<polygon fill="#ffffff" stroke="transparent" points="171.5,-39.2 171.5,-56.2 204.5,-56.2 204.5,-39.2 171.5,-39.2"/>
<text text-anchor="start" x="184.9431" y="-44.3" font-family="Helvetica,sans-Serif" font-size="11.00" fill="#000000"> &#160;</text>
<polygon fill="#ffffff" stroke="transparent" points="204.5,-39.2 204.5,-56.2 245.5,-56.2 245.5,-39.2 204.5,-39.2"/>
<text text-anchor="start" x="227.9053" y="-44.3" font-family="Helvetica,sans-Serif" font-size="11.00" fill="#000000">1 &gt;</text>
<polygon fill="#000000" stroke="#000000" points="171.5,-39.2 171.5,-56.2 171.5,-56.2 171.5,-39.2 171.5,-39.2"/>
<polygon fill="#000000" stroke="#000000" points="204.5,-39.2 204.5,-56.2 204.5,-56.2 204.5,-39.2 204.5,-39.2"/>
</a>
</g>
</g>
<!-- bestellung_position&#45;&gt;produkt -->
<g id="edge3" class="edge">
<title>bestellung_position:w&#45;&gt;produkt:e</title>
<path fill="none" stroke="#000000" d="M280.2829,-156.2C269.2886,-156.2 262.1615,-156.2 246.5,-156.2"/>
<polygon fill="#000000" stroke="#000000" points="287,-156.2001 295,-159.8 291,-156.2 295,-156.2 295,-156.2 295,-156.2 291,-156.2 295,-152.6 287,-156.2001 287,-156.2001"/>
<ellipse fill="none" stroke="#000000" cx="283.8" cy="-156.2001" rx="3.2" ry="3.2"/>
</g>
</g>
</svg>
