<?xml version="1.0" encoding="UTF-8" standalone="no"?>
<!DOCTYPE svg PUBLIC "-//W3C//DTD SVG 1.1//EN"
 "http://www.w3.org/Graphics/SVG/1.1/DTD/svg11.dtd">
<!-- Generated by graphviz version 2.40.1 (20161225.0304)
 -->
<!-- Title: largeRelationshipsDiagram Pages: 1 -->
<svg width="520pt" height="587pt"
 viewBox="0.00 0.00 520.00 587.20" xmlns="http://www.w3.org/2000/svg" xmlns:xlink="http://www.w3.org/1999/xlink">
<g id="graph0" class="graph" transform="scale(1 1) rotate(0) translate(4 583.2)">
<title>largeRelationshipsDiagram</title>
<polygon fill="#ffffff" stroke="transparent" points="-4,4 -4,-583.2 516,-583.2 516,4 -4,4"/>
<text text-anchor="middle" x="72.4936" y="-7.3" font-family="Helvetica,sans-Serif" font-size="11.00" fill="#000000">Generated by SchemaSpy</text>
<!-- bestellung -->
<g id="node1" class="node">
<title>bestellung</title>
<g id="a_node1"><a xlink:href="../../tables/bestellung.html" xlink:title="bestellung" target="_top">
<polygon fill="#ffffff" stroke="transparent" points="181,-280.2 181,-410.2 288,-410.2 288,-280.2 181,-280.2"/>
<polygon fill="#f5f5f5" stroke="transparent" points="181.5,-387.2 181.5,-410.2 288.5,-410.2 288.5,-387.2 181.5,-387.2"/>
<polygon fill="none" stroke="#000000" points="181.5,-387.2 181.5,-410.2 288.5,-410.2 288.5,-387.2 181.5,-387.2"/>
<text text-anchor="start" x="186.5" y="-395.8" font-family="Helvetica,sans-Serif" font-weight="bold" font-size="11.00" fill="#000000">bestellung</text>
<text text-anchor="start" x="254.0219" y="-395.3" font-family="Helvetica,sans-Serif" font-size="11.00" fill="#000000">[table]</text>
<polygon fill="none" stroke="#000000" points="181.5,-365.2 181.5,-387.2 288.5,-387.2 288.5,-365.2 181.5,-365.2"/>
<image xlink:href="../../images/primaryKeys.png" width="11px" height="12px" preserveAspectRatio="xMinYMin meet" x="186.5" y="-382.2"/>
<text text-anchor="start" x="201.5" y="-372.3" font-family="Helvetica,sans-Serif" font-size="11.00" fill="#000000">id</text>
<polygon fill="none" stroke="#000000" points="181.5,-343.2 181.5,-365.2 288.5,-365.2 288.5,-343.2 181.5,-343.2"/>
<text text-anchor="start" x="201.5" y="-350.3" font-family="Helvetica,sans-Serif" font-size="11.00" fill="#000000">bestelldatum</text>
<polygon fill="none" stroke="#000000" points="181.5,-321.2 181.5,-343.2 288.5,-343.2 288.5,-321.2 181.5,-321.2"/>
<text text-anchor="start" x="201.5" y="-328.3" font-family="Helvetica,sans-Serif" font-size="11.00" fill="#000000">status</text>
<polygon fill="none" stroke="#000000" points="181.5,-299.2 181.5,-321.2 288.5,-321.2 288.5,-299.2 181.5,-299.2"/>
<image xlink:href="../../images/foreignKeys.png" width="11px" height="12px" preserveAspectRatio="xMinYMin meet" x="186.5" y="-316.2"/>
<text text-anchor="start" x="201.5" y="-306.3" font-family="Helvetica,sans-Serif" font-size="11.00" fill="#000000">kunde_id</text>
<polygon fill="#ffffff" stroke="transparent" points="181.5,-280.2 181.5,-299.2 288.5,-299.2 288.5,-280.2 181.5,-280.2"/>
<polygon fill="none" stroke="#000000" points="181.5,-280.2 181.5,-299.2 288.5,-299.2 288.5,-280.2 181.5,-280.2"/>
<polygon fill="#ffffff" stroke="transparent" points="182.5,-281.2 182.5,-298.2 220.5,-298.2 220.5,-281.2 182.5,-281.2"/>
<text text-anchor="start" x="184.5" y="-286.3" font-family="Helvetica,sans-Serif" font-size="11.00" fill="#000000">&lt; 1</text>
<polygon fill="#ffffff" stroke="transparent" points="220.5,-281.2 220.5,-298.2 249.5,-298.2 249.5,-281.2 220.5,-281.2"/>
<text text-anchor="start" x="231.9431" y="-286.3" font-family="Helvetica,sans-Serif" font-size="11.00" fill="#000000"> &#160;</text>
<polygon fill="#ffffff" stroke="transparent" points="249.5,-281.2 249.5,-298.2 287.5,-298.2 287.5,-281.2 249.5,-281.2"/>
<text text-anchor="start" x="269.9053" y="-286.3" font-family="Helvetica,sans-Serif" font-size="11.00" fill="#000000">2 &gt;</text>
<polygon fill="#000000" stroke="#000000" points="220.5,-281.2 220.5,-298.2 220.5,-298.2 220.5,-281.2 220.5,-281.2"/>
<polygon fill="#000000" stroke="#000000" points="249.5,-281.2 249.5,-298.2 249.5,-298.2 249.5,-281.2 249.5,-281.2"/>
</a>
</g>
</g>
<!-- kunde -->
<g id="node4" class="node">
<title>kunde</title>
<g id="a_node4"><a xlink:href="../../tables/kunde.html" xlink:title="kunde" target="_top">
<polygon fill="#ffffff" stroke="transparent" points="8,-38.2 8,-344.2 131,-344.2 131,-38.2 8,-38.2"/>
<polygon fill="#f5f5f5" stroke="transparent" points="8.5,-321.2 8.5,-344.2 131.5,-344.2 131.5,-321.2 8.5,-321.2"/>
<polygon fill="none" stroke="#000000" points="8.5,-321.2 8.5,-344.2 131.5,-344.2 131.5,-321.2 8.5,-321.2"/>
<text text-anchor="start" x="13.5" y="-329.8" font-family="Helvetica,sans-Serif" font-weight="bold" font-size="11.00" fill="#000000">kunde</text>
<text text-anchor="start" x="96.5437" y="-329.3" font-family="Helvetica,sans-Serif" font-size="11.00" fill="#000000">[table]</text>
<polygon fill="none" stroke="#000000" points="8.5,-299.2 8.5,-321.2 131.5,-321.2 131.5,-299.2 8.5,-299.2"/>
<image xlink:href="../../images/primaryKeys.png" width="11px" height="12px" preserveAspectRatio="xMinYMin meet" x="13.5" y="-316.2"/>
<text text-anchor="start" x="28.5" y="-306.3" font-family="Helvetica,sans-Serif" font-size="11.00" fill="#000000">id</text>
<polygon fill="#ffffff" stroke="transparent" points="8.5,-277.2 8.5,-299.2 131.5,-299.2 131.5,-277.2 8.5,-277.2"/>
<polygon fill="none" stroke="#000000" points="8.5,-277.2 8.5,-299.2 131.5,-299.2 131.5,-277.2 8.5,-277.2"/>
<text text-anchor="start" x="28.5" y="-284.3" font-family="Helvetica,sans-Serif" font-size="11.00" fill="#000000">email</text>
<polygon fill="none" stroke="#000000" points="8.5,-255.2 8.5,-277.2 131.5,-277.2 131.5,-255.2 8.5,-255.2"/>
<text text-anchor="start" x="28.5" y="-262.3" font-family="Helvetica,sans-Serif" font-size="11.00" fill="#000000">geschlecht</text>
<polygon fill="none" stroke="#000000" points="8.5,-233.2 8.5,-255.2 131.5,-255.2 131.5,-233.2 8.5,-233.2"/>
<text text-anchor="start" x="28.5" y="-240.3" font-family="Helvetica,sans-Serif" font-size="11.00" fill="#000000">hausnummer</text>
<polygon fill="none" stroke="#000000" points="8.5,-211.2 8.5,-233.2 131.5,-233.2 131.5,-211.2 8.5,-211.2"/>
<text text-anchor="start" x="28.5" y="-218.3" font-family="Helvetica,sans-Serif" font-size="11.00" fill="#000000">land</text>
<polygon fill="none" stroke="#000000" points="8.5,-189.2 8.5,-211.2 131.5,-211.2 131.5,-189.2 8.5,-189.2"/>
<text text-anchor="start" x="28.5" y="-196.3" font-family="Helvetica,sans-Serif" font-size="11.00" fill="#000000">mobilnummer</text>
<polygon fill="none" stroke="#000000" points="8.5,-167.2 8.5,-189.2 131.5,-189.2 131.5,-167.2 8.5,-167.2"/>
<text text-anchor="start" x="28.5" y="-174.3" font-family="Helvetica,sans-Serif" font-size="11.00" fill="#000000">name</text>
<polygon fill="none" stroke="#000000" points="8.5,-145.2 8.5,-167.2 131.5,-167.2 131.5,-145.2 8.5,-145.2"/>
<text text-anchor="start" x="28.5" y="-152.3" font-family="Helvetica,sans-Serif" font-size="11.00" fill="#000000">ort</text>
<polygon fill="none" stroke="#000000" points="8.5,-123.2 8.5,-145.2 131.5,-145.2 131.5,-123.2 8.5,-123.2"/>
<text text-anchor="start" x="28.5" y="-130.3" font-family="Helvetica,sans-Serif" font-size="11.00" fill="#000000">postleitzahl</text>
<polygon fill="none" stroke="#000000" points="8.5,-101.2 8.5,-123.2 131.5,-123.2 131.5,-101.2 8.5,-101.2"/>
<text text-anchor="start" x="28.5" y="-108.3" font-family="Helvetica,sans-Serif" font-size="11.00" fill="#000000">strasse</text>
<polygon fill="none" stroke="#000000" points="8.5,-79.2 8.5,-101.2 131.5,-101.2 131.5,-79.2 8.5,-79.2"/>
<text text-anchor="start" x="28.5" y="-86.3" font-family="Helvetica,sans-Serif" font-size="11.00" fill="#000000">telefonnummer</text>
<polygon fill="none" stroke="#000000" points="8.5,-57.2 8.5,-79.2 131.5,-79.2 131.5,-57.2 8.5,-57.2"/>
<text text-anchor="start" x="28.5" y="-64.3" font-family="Helvetica,sans-Serif" font-size="11.00" fill="#000000">vorname</text>
<polygon fill="#ffffff" stroke="transparent" points="8.5,-38.2 8.5,-57.2 131.5,-57.2 131.5,-38.2 8.5,-38.2"/>
<polygon fill="none" stroke="#000000" points="8.5,-38.2 8.5,-57.2 131.5,-57.2 131.5,-38.2 8.5,-38.2"/>
<polygon fill="#ffffff" stroke="transparent" points="9.5,-39.2 9.5,-56.2 47.5,-56.2 47.5,-39.2 9.5,-39.2"/>
<text text-anchor="start" x="11.5" y="-44.3" font-family="Helvetica,sans-Serif" font-size="11.00" fill="#000000"> &#160;</text>
<polygon fill="#ffffff" stroke="transparent" points="47.5,-39.2 47.5,-56.2 84.5,-56.2 84.5,-39.2 47.5,-39.2"/>
<text text-anchor="start" x="62.9431" y="-44.3" font-family="Helvetica,sans-Serif" font-size="11.00" fill="#000000"> &#160;</text>
<polygon fill="#ffffff" stroke="transparent" points="84.5,-39.2 84.5,-56.2 130.5,-56.2 130.5,-39.2 84.5,-39.2"/>
<text text-anchor="start" x="112.9053" y="-44.3" font-family="Helvetica,sans-Serif" font-size="11.00" fill="#000000">1 &gt;</text>
<polygon fill="#000000" stroke="#000000" points="47.5,-39.2 47.5,-56.2 47.5,-56.2 47.5,-39.2 47.5,-39.2"/>
<polygon fill="#000000" stroke="#000000" points="84.5,-39.2 84.5,-56.2 84.5,-56.2 84.5,-39.2 84.5,-39.2"/>
</a>
</g>
</g>
<!-- bestellung&#45;&gt;kunde -->
<g id="edge1" class="edge">
<title>bestellung:w&#45;&gt;kunde:e</title>
<path fill="none" stroke="#000000" d="M167.0647,-310.2C155.3054,-310.2 147.9931,-310.2 131.5,-310.2"/>
<polygon fill="#000000" stroke="#000000" points="173.5,-310.2001 181.5,-313.8 177.5,-310.2 181.5,-310.2 181.5,-310.2 181.5,-310.2 177.5,-310.2 181.5,-306.6 173.5,-310.2001 173.5,-310.2001"/>
<ellipse fill="none" stroke="#000000" cx="170.3" cy="-310.2001" rx="3.2" ry="3.2"/>
</g>
<!-- rechnung -->
<g id="node2" class="node">
<title>rechnung</title>
<g id="a_node2"><a xlink:href="../../tables/rechnung.html" xlink:title="rechnung" target="_top">
<polygon fill="#ffffff" stroke="transparent" points="348,-357.2 348,-575.2 494,-575.2 494,-357.2 348,-357.2"/>
<polygon fill="#f5f5f5" stroke="transparent" points="348,-552.2 348,-575.2 494,-575.2 494,-552.2 348,-552.2"/>
<polygon fill="none" stroke="#000000" points="348,-552.2 348,-575.2 494,-575.2 494,-552.2 348,-552.2"/>
<text text-anchor="start" x="353" y="-560.8" font-family="Helvetica,sans-Serif" font-weight="bold" font-size="11.00" fill="#000000">rechnung</text>
<text text-anchor="start" x="459.0437" y="-560.3" font-family="Helvetica,sans-Serif" font-size="11.00" fill="#000000">[table]</text>
<polygon fill="none" stroke="#000000" points="348,-530.2 348,-552.2 494,-552.2 494,-530.2 348,-530.2"/>
<image xlink:href="../../images/primaryKeys.png" width="11px" height="12px" preserveAspectRatio="xMinYMin meet" x="353" y="-547.2"/>
<text text-anchor="start" x="368" y="-537.3" font-family="Helvetica,sans-Serif" font-size="11.00" fill="#000000">id</text>
<polygon fill="none" stroke="#000000" points="348,-508.2 348,-530.2 494,-530.2 494,-508.2 348,-508.2"/>
<text text-anchor="start" x="368" y="-515.3" font-family="Helvetica,sans-Serif" font-size="11.00" fill="#000000">bezahltam</text>
<polygon fill="none" stroke="#000000" points="348,-486.2 348,-508.2 494,-508.2 494,-486.2 348,-486.2"/>
<text text-anchor="start" x="368" y="-493.3" font-family="Helvetica,sans-Serif" font-size="11.00" fill="#000000">bezahltvon</text>
<polygon fill="none" stroke="#000000" points="348,-464.2 348,-486.2 494,-486.2 494,-464.2 348,-464.2"/>
<text text-anchor="start" x="368" y="-471.3" font-family="Helvetica,sans-Serif" font-size="11.00" fill="#000000">erstellungsdatum</text>
<polygon fill="none" stroke="#000000" points="348,-442.2 348,-464.2 494,-464.2 494,-442.2 348,-442.2"/>
<text text-anchor="start" x="368" y="-449.3" font-family="Helvetica,sans-Serif" font-size="11.00" fill="#000000">gesamtbetrag</text>
<polygon fill="#ffffff" stroke="transparent" points="348,-420.2 348,-442.2 494,-442.2 494,-420.2 348,-420.2"/>
<polygon fill="none" stroke="#000000" points="348,-420.2 348,-442.2 494,-442.2 494,-420.2 348,-420.2"/>
<text text-anchor="start" x="368" y="-427.3" font-family="Helvetica,sans-Serif" font-size="11.00" fill="#000000">rechnungsnummer</text>
<polygon fill="none" stroke="#000000" points="348,-398.2 348,-420.2 494,-420.2 494,-398.2 348,-398.2"/>
<text text-anchor="start" x="368" y="-405.3" font-family="Helvetica,sans-Serif" font-size="11.00" fill="#000000">status</text>
<polygon fill="#ffffff" stroke="transparent" points="348,-376.2 348,-398.2 494,-398.2 494,-376.2 348,-376.2"/>
<polygon fill="none" stroke="#000000" points="348,-376.2 348,-398.2 494,-398.2 494,-376.2 348,-376.2"/>
<image xlink:href="../../images/foreignKeys.png" width="11px" height="12px" preserveAspectRatio="xMinYMin meet" x="353" y="-393.2"/>
<text text-anchor="start" x="368" y="-383.3" font-family="Helvetica,sans-Serif" font-size="11.00" fill="#000000">bestellung_id</text>
<polygon fill="#ffffff" stroke="transparent" points="348,-357.2 348,-376.2 494,-376.2 494,-357.2 348,-357.2"/>
<polygon fill="none" stroke="#000000" points="348,-357.2 348,-376.2 494,-376.2 494,-357.2 348,-357.2"/>
<polygon fill="#ffffff" stroke="transparent" points="349,-358.2 349,-375.2 403,-375.2 403,-358.2 349,-358.2"/>
<text text-anchor="start" x="351" y="-363.3" font-family="Helvetica,sans-Serif" font-size="11.00" fill="#000000">&lt; 1</text>
<polygon fill="#ffffff" stroke="transparent" points="403,-358.2 403,-375.2 448,-375.2 448,-358.2 403,-358.2"/>
<text text-anchor="start" x="422.4431" y="-363.3" font-family="Helvetica,sans-Serif" font-size="11.00" fill="#000000"> &#160;</text>
<polygon fill="#ffffff" stroke="transparent" points="448,-358.2 448,-375.2 493,-375.2 493,-358.2 448,-358.2"/>
<text text-anchor="start" x="484.8862" y="-363.3" font-family="Helvetica,sans-Serif" font-size="11.00" fill="#000000"> &#160;</text>
<polygon fill="#000000" stroke="#000000" points="403,-358.2 403,-375.2 403,-375.2 403,-358.2 403,-358.2"/>
<polygon fill="#000000" stroke="#000000" points="448,-358.2 448,-375.2 448,-375.2 448,-358.2 448,-358.2"/>
</a>
</g>
</g>
<!-- rechnung&#45;&gt;bestellung -->
<g id="edge4" class="edge">
<title>rechnung:w&#45;&gt;bestellung:e</title>
<path fill="none" stroke="#000000" d="M337.5388,-386.5771C319.0131,-384.2501 311.5057,-376.2 288.5,-376.2"/>
<polygon fill="#000000" stroke="#000000" points="347.4392,-383.1595 346.9636,-391.1454 345.3664,-391.0502 345.842,-383.0644 347.4392,-383.1595"/>
<polyline fill="none" stroke="#000000" points="348,-387.2 344.0071,-386.9622 "/>
<ellipse fill="none" stroke="#000000" cx="340.8127" cy="-386.772" rx="3.2" ry="3.2"/>
</g>
<!-- bestellung_position -->
<g id="node3" class="node">
<title>bestellung_position</title>
<g id="a_node3"><a xlink:href="../../tables/bestellung_position.html" xlink:title="bestellung_position" target="_top">
<polygon fill="#ffffff" stroke="transparent" points="338,-184.2 338,-336.2 504,-336.2 504,-184.2 338,-184.2"/>
<polygon fill="#f5f5f5" stroke="transparent" points="338,-313.2 338,-336.2 504,-336.2 504,-313.2 338,-313.2"/>
<polygon fill="none" stroke="#000000" points="338,-313.2 338,-336.2 504,-336.2 504,-313.2 338,-313.2"/>
<text text-anchor="start" x="343" y="-321.8" font-family="Helvetica,sans-Serif" font-weight="bold" font-size="11.00" fill="#000000">bestellung_position</text>
<text text-anchor="start" x="469.5219" y="-321.3" font-family="Helvetica,sans-Serif" font-size="11.00" fill="#000000">[table]</text>
<polygon fill="none" stroke="#000000" points="338,-291.2 338,-313.2 504,-313.2 504,-291.2 338,-291.2"/>
<image xlink:href="../../images/primaryKeys.png" width="11px" height="12px" preserveAspectRatio="xMinYMin meet" x="343" y="-308.2"/>
<text text-anchor="start" x="367" y="-298.3" font-family="Helvetica,sans-Serif" font-size="11.00" fill="#000000">id</text>
<polygon fill="none" stroke="#000000" points="338,-269.2 338,-291.2 504,-291.2 504,-269.2 338,-269.2"/>
<text text-anchor="start" x="367" y="-276.3" font-family="Helvetica,sans-Serif" font-size="11.00" fill="#000000">einzelpreis</text>
<polygon fill="none" stroke="#000000" points="338,-247.2 338,-269.2 504,-269.2 504,-247.2 338,-247.2"/>
<text text-anchor="start" x="367" y="-254.3" font-family="Helvetica,sans-Serif" font-size="11.00" fill="#000000">menge</text>
<polygon fill="none" stroke="#000000" points="338,-225.2 338,-247.2 504,-247.2 504,-225.2 338,-225.2"/>
<image xlink:href="../../images/foreignKeys.png" width="11px" height="12px" preserveAspectRatio="xMinYMin meet" x="343" y="-242.2"/>
<text text-anchor="start" x="367" y="-232.3" font-family="Helvetica,sans-Serif" font-size="11.00" fill="#000000">bestellung_id</text>
<polygon fill="none" stroke="#000000" points="338,-203.2 338,-225.2 504,-225.2 504,-203.2 338,-203.2"/>
<image xlink:href="../../images/foreignKeys.png" width="11px" height="12px" preserveAspectRatio="xMinYMin meet" x="343" y="-220.2"/>
<text text-anchor="start" x="367" y="-210.3" font-family="Helvetica,sans-Serif" font-size="11.00" fill="#000000">produkt_id</text>
<polygon fill="#ffffff" stroke="transparent" points="338,-184.2 338,-203.2 504,-203.2 504,-184.2 338,-184.2"/>
<polygon fill="none" stroke="#000000" points="338,-184.2 338,-203.2 504,-203.2 504,-184.2 338,-184.2"/>
<polygon fill="#ffffff" stroke="transparent" points="339,-185.2 339,-202.2 400,-202.2 400,-185.2 339,-185.2"/>
<text text-anchor="start" x="341" y="-190.3" font-family="Helvetica,sans-Serif" font-size="11.00" fill="#000000">&lt; 2</text>
<polygon fill="#ffffff" stroke="transparent" points="400,-185.2 400,-202.2 452,-202.2 452,-185.2 400,-185.2"/>
<text text-anchor="start" x="422.9431" y="-190.3" font-family="Helvetica,sans-Serif" font-size="11.00" fill="#000000"> &#160;</text>
<polygon fill="#ffffff" stroke="transparent" points="452,-185.2 452,-202.2 503,-202.2 503,-185.2 452,-185.2"/>
<text text-anchor="start" x="494.8862" y="-190.3" font-family="Helvetica,sans-Serif" font-size="11.00" fill="#000000"> &#160;</text>
<polygon fill="#000000" stroke="#000000" points="400,-185.2 400,-202.2 400,-202.2 400,-185.2 400,-185.2"/>
<polygon fill="#000000" stroke="#000000" points="452,-185.2 452,-202.2 452,-202.2 452,-185.2 452,-185.2"/>
</a>
</g>
</g>
<!-- bestellung_position&#45;&gt;bestellung -->
<g id="edge2" class="edge">
<title>bestellung_position:w&#45;&gt;bestellung:e</title>
<path fill="none" stroke="#000000" d="M323.5922,-239.3871C285.6275,-260.2262 348.5676,-376.2 288.5,-376.2"/>
<polygon fill="#000000" stroke="#000000" points="330.1888,-237.9279 338.7776,-239.715 334.0944,-237.064 338,-236.2 338,-236.2 338,-236.2 334.0944,-237.064 337.2224,-232.685 330.1888,-237.9279 330.1888,-237.9279"/>
<ellipse fill="none" stroke="#000000" cx="327.0644" cy="-238.6191" rx="3.2" ry="3.2"/>
</g>
<!-- produkt -->
<g id="node5" class="node">
<title>produkt</title>
<g id="a_node5"><a xlink:href="../../tables/produkt.html" xlink:title="produkt" target="_top">
<polygon fill="#ffffff" stroke="transparent" points="180,-96.2 180,-248.2 289,-248.2 289,-96.2 180,-96.2"/>
<polygon fill="#f5f5f5" stroke="transparent" points="180.5,-225.2 180.5,-248.2 289.5,-248.2 289.5,-225.2 180.5,-225.2"/>
<polygon fill="none" stroke="#000000" points="180.5,-225.2 180.5,-248.2 289.5,-248.2 289.5,-225.2 180.5,-225.2"/>
<text text-anchor="start" x="185.5" y="-233.8" font-family="Helvetica,sans-Serif" font-weight="bold" font-size="11.00" fill="#000000">produkt</text>
<text text-anchor="start" x="254.5437" y="-233.3" font-family="Helvetica,sans-Serif" font-size="11.00" fill="#000000">[table]</text>
<polygon fill="none" stroke="#000000" points="180.5,-203.2 180.5,-225.2 289.5,-225.2 289.5,-203.2 180.5,-203.2"/>
<image xlink:href="../../images/primaryKeys.png" width="11px" height="12px" preserveAspectRatio="xMinYMin meet" x="185.5" y="-220.2"/>
<text text-anchor="start" x="200.5" y="-210.3" font-family="Helvetica,sans-Serif" font-size="11.00" fill="#000000">id</text>
<polygon fill="none" stroke="#000000" points="180.5,-181.2 180.5,-203.2 289.5,-203.2 289.5,-181.2 180.5,-181.2"/>
<text text-anchor="start" x="200.5" y="-188.3" font-family="Helvetica,sans-Serif" font-size="11.00" fill="#000000">beschreibung</text>
<polygon fill="none" stroke="#000000" points="180.5,-159.2 180.5,-181.2 289.5,-181.2 289.5,-159.2 180.5,-159.2"/>
<text text-anchor="start" x="200.5" y="-166.3" font-family="Helvetica,sans-Serif" font-size="11.00" fill="#000000">lagerbestand</text>
<polygon fill="none" stroke="#000000" points="180.5,-137.2 180.5,-159.2 289.5,-159.2 289.5,-137.2 180.5,-137.2"/>
<text text-anchor="start" x="200.5" y="-144.3" font-family="Helvetica,sans-Serif" font-size="11.00" fill="#000000">name</text>
<polygon fill="none" stroke="#000000" points="180.5,-115.2 180.5,-137.2 289.5,-137.2 289.5,-115.2 180.5,-115.2"/>
<text text-anchor="start" x="200.5" y="-122.3" font-family="Helvetica,sans-Serif" font-size="11.00" fill="#000000">preis</text>
<polygon fill="#ffffff" stroke="transparent" points="180.5,-96.2 180.5,-115.2 289.5,-115.2 289.5,-96.2 180.5,-96.2"/>
<polygon fill="none" stroke="#000000" points="180.5,-96.2 180.5,-115.2 289.5,-115.2 289.5,-96.2 180.5,-96.2"/>
<polygon fill="#ffffff" stroke="transparent" points="181.5,-97.2 181.5,-114.2 214.5,-114.2 214.5,-97.2 181.5,-97.2"/>
<text text-anchor="start" x="183.5" y="-102.3" font-family="Helvetica,sans-Serif" font-size="11.00" fill="#000000"> &#160;</text>
<polygon fill="#ffffff" stroke="transparent" points="214.5,-97.2 214.5,-114.2 247.5,-114.2 247.5,-97.2 214.5,-97.2"/>
<text text-anchor="start" x="227.9431" y="-102.3" font-family="Helvetica,sans-Serif" font-size="11.00" fill="#000000"> &#160;</text>
<polygon fill="#ffffff" stroke="transparent" points="247.5,-97.2 247.5,-114.2 288.5,-114.2 288.5,-97.2 247.5,-97.2"/>
<text text-anchor="start" x="270.9053" y="-102.3" font-family="Helvetica,sans-Serif" font-size="11.00" fill="#000000">1 &gt;</text>
<polygon fill="#000000" stroke="#000000" points="214.5,-97.2 214.5,-114.2 214.5,-114.2 214.5,-97.2 214.5,-97.2"/>
<polygon fill="#000000" stroke="#000000" points="247.5,-97.2 247.5,-114.2 247.5,-114.2 247.5,-97.2 247.5,-97.2"/>
</a>
</g>
</g>
<!-- bestellung_position&#45;&gt;produkt -->
<g id="edge3" class="edge">
<title>bestellung_position:w&#45;&gt;produkt:e</title>
<path fill="none" stroke="#000000" d="M323.2829,-214.2C312.2886,-214.2 305.1615,-214.2 289.5,-214.2"/>
<polygon fill="#000000" stroke="#000000" points="330,-214.2001 338,-217.8 334,-214.2 338,-214.2 338,-214.2 338,-214.2 334,-214.2 338,-210.6 330,-214.2001 330,-214.2001"/>
<ellipse fill="none" stroke="#000000" cx="326.8" cy="-214.2001" rx="3.2" ry="3.2"/>
</g>
</g>
</svg>
