<?xml version="1.0" encoding="UTF-8" standalone="no"?>
<!DOCTYPE svg PUBLIC "-//W3C//DTD SVG 1.1//EN"
 "http://www.w3.org/Graphics/SVG/1.1/DTD/svg11.dtd">
<!-- Generated by graphviz version 2.40.1 (20161225.0304)
 -->
<!-- Title: compactRelationshipsDiagram Pages: 1 -->
<svg width="520pt" height="325pt"
 viewBox="0.00 0.00 520.00 325.20" xmlns="http://www.w3.org/2000/svg" xmlns:xlink="http://www.w3.org/1999/xlink">
<g id="graph0" class="graph" transform="scale(1 1) rotate(0) translate(4 321.2)">
<title>compactRelationshipsDiagram</title>
<polygon fill="#ffffff" stroke="transparent" points="-4,4 -4,-321.2 516,-321.2 516,4 -4,4"/>
<text text-anchor="middle" x="72.4936" y="-7.3" font-family="Helvetica,sans-Serif" font-size="11.00" fill="#000000">Generated by SchemaSpy</text>
<!-- bestellung -->
<g id="node1" class="node">
<title>bestellung</title>
<g id="a_node1"><a xlink:href="../../tables/bestellung.html" xlink:title="bestellung" target="_top">
<polygon fill="#ffffff" stroke="transparent" points="181,-153.2 181,-258.2 288,-258.2 288,-153.2 181,-153.2"/>
<polygon fill="#f5f5f5" stroke="transparent" points="181.5,-234.7 181.5,-257.7 288.5,-257.7 288.5,-234.7 181.5,-234.7"/>
<polygon fill="none" stroke="#000000" points="181.5,-234.7 181.5,-257.7 288.5,-257.7 288.5,-234.7 181.5,-234.7"/>
<text text-anchor="start" x="186.5" y="-243.3" font-family="Helvetica,sans-Serif" font-weight="bold" font-size="11.00" fill="#000000">bestellung</text>
<text text-anchor="start" x="254.0219" y="-242.8" font-family="Helvetica,sans-Serif" font-size="11.00" fill="#000000">[table]</text>
<polygon fill="none" stroke="#000000" points="181.5,-212.7 181.5,-234.7 288.5,-234.7 288.5,-212.7 181.5,-212.7"/>
<image xlink:href="../../images/primaryKeys.png" width="11px" height="12px" preserveAspectRatio="xMinYMin meet" x="186.5" y="-229.7"/>
<text text-anchor="start" x="201.5" y="-219.8" font-family="Helvetica,sans-Serif" font-size="11.00" fill="#000000">id</text>
<polygon fill="none" stroke="#000000" points="181.5,-190.7 181.5,-212.7 288.5,-212.7 288.5,-190.7 181.5,-190.7"/>
<image xlink:href="../../images/foreignKeys.png" width="11px" height="12px" preserveAspectRatio="xMinYMin meet" x="186.5" y="-207.7"/>
<text text-anchor="start" x="201.5" y="-197.8" font-family="Helvetica,sans-Serif" font-size="11.00" fill="#000000">kunde_id</text>
<polygon fill="none" stroke="#000000" points="181.5,-171.7 181.5,-190.7 288.5,-190.7 288.5,-171.7 181.5,-171.7"/>
<text text-anchor="start" x="184.5" y="-177.8" font-family="Helvetica,sans-Serif" font-size="11.00" fill="#000000">...</text>
<polygon fill="#ffffff" stroke="transparent" points="181.5,-152.7 181.5,-171.7 288.5,-171.7 288.5,-152.7 181.5,-152.7"/>
<polygon fill="none" stroke="#000000" points="181.5,-152.7 181.5,-171.7 288.5,-171.7 288.5,-152.7 181.5,-152.7"/>
<polygon fill="#ffffff" stroke="transparent" points="182.5,-153.7 182.5,-170.7 220.5,-170.7 220.5,-153.7 182.5,-153.7"/>
<text text-anchor="start" x="184.5" y="-158.8" font-family="Helvetica,sans-Serif" font-size="11.00" fill="#000000">&lt; 1</text>
<polygon fill="#ffffff" stroke="transparent" points="220.5,-153.7 220.5,-170.7 249.5,-170.7 249.5,-153.7 220.5,-153.7"/>
<text text-anchor="start" x="231.9431" y="-158.8" font-family="Helvetica,sans-Serif" font-size="11.00" fill="#000000"> &#160;</text>
<polygon fill="#ffffff" stroke="transparent" points="249.5,-153.7 249.5,-170.7 287.5,-170.7 287.5,-153.7 249.5,-153.7"/>
<text text-anchor="start" x="269.9053" y="-158.8" font-family="Helvetica,sans-Serif" font-size="11.00" fill="#000000">2 &gt;</text>
<polygon fill="#000000" stroke="#000000" points="220.5,-153.7 220.5,-170.7 220.5,-170.7 220.5,-153.7 220.5,-153.7"/>
<polygon fill="#000000" stroke="#000000" points="249.5,-153.7 249.5,-170.7 249.5,-170.7 249.5,-153.7 249.5,-153.7"/>
</a>
</g>
</g>
<!-- kunde -->
<g id="node4" class="node">
<title>kunde</title>
<g id="a_node4"><a xlink:href="../../tables/kunde.html" xlink:title="kunde" target="_top">
<polygon fill="#ffffff" stroke="transparent" points="8,-131.2 8,-236.2 131,-236.2 131,-131.2 8,-131.2"/>
<polygon fill="#f5f5f5" stroke="transparent" points="8.5,-212.7 8.5,-235.7 131.5,-235.7 131.5,-212.7 8.5,-212.7"/>
<polygon fill="none" stroke="#000000" points="8.5,-212.7 8.5,-235.7 131.5,-235.7 131.5,-212.7 8.5,-212.7"/>
<text text-anchor="start" x="13.5" y="-221.3" font-family="Helvetica,sans-Serif" font-weight="bold" font-size="11.00" fill="#000000">kunde</text>
<text text-anchor="start" x="96.5437" y="-220.8" font-family="Helvetica,sans-Serif" font-size="11.00" fill="#000000">[table]</text>
<polygon fill="none" stroke="#000000" points="8.5,-190.7 8.5,-212.7 131.5,-212.7 131.5,-190.7 8.5,-190.7"/>
<image xlink:href="../../images/primaryKeys.png" width="11px" height="12px" preserveAspectRatio="xMinYMin meet" x="13.5" y="-207.7"/>
<text text-anchor="start" x="28.5" y="-197.8" font-family="Helvetica,sans-Serif" font-size="11.00" fill="#000000">id</text>
<polygon fill="#ffffff" stroke="transparent" points="8.5,-168.7 8.5,-190.7 131.5,-190.7 131.5,-168.7 8.5,-168.7"/>
<polygon fill="none" stroke="#000000" points="8.5,-168.7 8.5,-190.7 131.5,-190.7 131.5,-168.7 8.5,-168.7"/>
<text text-anchor="start" x="28.5" y="-175.8" font-family="Helvetica,sans-Serif" font-size="11.00" fill="#000000">email</text>
<polygon fill="none" stroke="#000000" points="8.5,-149.7 8.5,-168.7 131.5,-168.7 131.5,-149.7 8.5,-149.7"/>
<text text-anchor="start" x="11.5" y="-155.8" font-family="Helvetica,sans-Serif" font-size="11.00" fill="#000000">...</text>
<polygon fill="#ffffff" stroke="transparent" points="8.5,-130.7 8.5,-149.7 131.5,-149.7 131.5,-130.7 8.5,-130.7"/>
<polygon fill="none" stroke="#000000" points="8.5,-130.7 8.5,-149.7 131.5,-149.7 131.5,-130.7 8.5,-130.7"/>
<polygon fill="#ffffff" stroke="transparent" points="9.5,-131.7 9.5,-148.7 47.5,-148.7 47.5,-131.7 9.5,-131.7"/>
<text text-anchor="start" x="11.5" y="-136.8" font-family="Helvetica,sans-Serif" font-size="11.00" fill="#000000"> &#160;</text>
<polygon fill="#ffffff" stroke="transparent" points="47.5,-131.7 47.5,-148.7 84.5,-148.7 84.5,-131.7 47.5,-131.7"/>
<text text-anchor="start" x="62.9431" y="-136.8" font-family="Helvetica,sans-Serif" font-size="11.00" fill="#000000"> &#160;</text>
<polygon fill="#ffffff" stroke="transparent" points="84.5,-131.7 84.5,-148.7 130.5,-148.7 130.5,-131.7 84.5,-131.7"/>
<text text-anchor="start" x="112.9053" y="-136.8" font-family="Helvetica,sans-Serif" font-size="11.00" fill="#000000">1 &gt;</text>
<polygon fill="#000000" stroke="#000000" points="47.5,-131.7 47.5,-148.7 47.5,-148.7 47.5,-131.7 47.5,-131.7"/>
<polygon fill="#000000" stroke="#000000" points="84.5,-131.7 84.5,-148.7 84.5,-148.7 84.5,-131.7 84.5,-131.7"/>
</a>
</g>
</g>
<!-- bestellung&#45;&gt;kunde -->
<g id="edge1" class="edge">
<title>bestellung:w&#45;&gt;kunde:e</title>
<path fill="none" stroke="#000000" d="M167.0647,-201.7C155.3054,-201.7 147.9931,-201.7 131.5,-201.7"/>
<polygon fill="#000000" stroke="#000000" points="173.5,-201.7001 181.5,-205.3 177.5,-201.7 181.5,-201.7 181.5,-201.7 181.5,-201.7 177.5,-201.7 181.5,-198.1 173.5,-201.7001 173.5,-201.7001"/>
<ellipse fill="none" stroke="#000000" cx="170.3" cy="-201.7001" rx="3.2" ry="3.2"/>
</g>
<!-- rechnung -->
<g id="node2" class="node">
<title>rechnung</title>
<g id="a_node2"><a xlink:href="../../tables/rechnung.html" xlink:title="rechnung" target="_top">
<polygon fill="#ffffff" stroke="transparent" points="348,-186.2 348,-313.2 494,-313.2 494,-186.2 348,-186.2"/>
<polygon fill="#f5f5f5" stroke="transparent" points="348,-289.7 348,-312.7 494,-312.7 494,-289.7 348,-289.7"/>
<polygon fill="none" stroke="#000000" points="348,-289.7 348,-312.7 494,-312.7 494,-289.7 348,-289.7"/>
<text text-anchor="start" x="353" y="-298.3" font-family="Helvetica,sans-Serif" font-weight="bold" font-size="11.00" fill="#000000">rechnung</text>
<text text-anchor="start" x="459.0437" y="-297.8" font-family="Helvetica,sans-Serif" font-size="11.00" fill="#000000">[table]</text>
<polygon fill="none" stroke="#000000" points="348,-267.7 348,-289.7 494,-289.7 494,-267.7 348,-267.7"/>
<image xlink:href="../../images/primaryKeys.png" width="11px" height="12px" preserveAspectRatio="xMinYMin meet" x="353" y="-284.7"/>
<text text-anchor="start" x="368" y="-274.8" font-family="Helvetica,sans-Serif" font-size="11.00" fill="#000000">id</text>
<polygon fill="#ffffff" stroke="transparent" points="348,-245.7 348,-267.7 494,-267.7 494,-245.7 348,-245.7"/>
<polygon fill="none" stroke="#000000" points="348,-245.7 348,-267.7 494,-267.7 494,-245.7 348,-245.7"/>
<text text-anchor="start" x="368" y="-252.8" font-family="Helvetica,sans-Serif" font-size="11.00" fill="#000000">rechnungsnummer</text>
<polygon fill="#ffffff" stroke="transparent" points="348,-223.7 348,-245.7 494,-245.7 494,-223.7 348,-223.7"/>
<polygon fill="none" stroke="#000000" points="348,-223.7 348,-245.7 494,-245.7 494,-223.7 348,-223.7"/>
<image xlink:href="../../images/foreignKeys.png" width="11px" height="12px" preserveAspectRatio="xMinYMin meet" x="353" y="-240.7"/>
<text text-anchor="start" x="368" y="-230.8" font-family="Helvetica,sans-Serif" font-size="11.00" fill="#000000">bestellung_id</text>
<polygon fill="none" stroke="#000000" points="348,-204.7 348,-223.7 494,-223.7 494,-204.7 348,-204.7"/>
<text text-anchor="start" x="351" y="-210.8" font-family="Helvetica,sans-Serif" font-size="11.00" fill="#000000">...</text>
<polygon fill="#ffffff" stroke="transparent" points="348,-185.7 348,-204.7 494,-204.7 494,-185.7 348,-185.7"/>
<polygon fill="none" stroke="#000000" points="348,-185.7 348,-204.7 494,-204.7 494,-185.7 348,-185.7"/>
<polygon fill="#ffffff" stroke="transparent" points="349,-186.7 349,-203.7 403,-203.7 403,-186.7 349,-186.7"/>
<text text-anchor="start" x="351" y="-191.8" font-family="Helvetica,sans-Serif" font-size="11.00" fill="#000000">&lt; 1</text>
<polygon fill="#ffffff" stroke="transparent" points="403,-186.7 403,-203.7 448,-203.7 448,-186.7 403,-186.7"/>
<text text-anchor="start" x="422.4431" y="-191.8" font-family="Helvetica,sans-Serif" font-size="11.00" fill="#000000"> &#160;</text>
<polygon fill="#ffffff" stroke="transparent" points="448,-186.7 448,-203.7 493,-203.7 493,-186.7 448,-186.7"/>
<text text-anchor="start" x="484.8862" y="-191.8" font-family="Helvetica,sans-Serif" font-size="11.00" fill="#000000"> &#160;</text>
<polygon fill="#000000" stroke="#000000" points="403,-186.7 403,-203.7 403,-203.7 403,-186.7 403,-186.7"/>
<polygon fill="#000000" stroke="#000000" points="448,-186.7 448,-203.7 448,-203.7 448,-186.7 448,-186.7"/>
</a>
</g>
</g>
<!-- rechnung&#45;&gt;bestellung -->
<g id="edge4" class="edge">
<title>rechnung:w&#45;&gt;bestellung:e</title>
<path fill="none" stroke="#000000" d="M337.5388,-234.0771C319.0131,-231.7501 311.5057,-223.7 288.5,-223.7"/>
<polygon fill="#000000" stroke="#000000" points="347.4392,-230.6595 346.9636,-238.6454 345.3664,-238.5502 345.842,-230.5644 347.4392,-230.6595"/>
<polyline fill="none" stroke="#000000" points="348,-234.7 344.0071,-234.4622 "/>
<ellipse fill="none" stroke="#000000" cx="340.8127" cy="-234.272" rx="3.2" ry="3.2"/>
</g>
<!-- bestellung_position -->
<g id="node3" class="node">
<title>bestellung_position</title>
<g id="a_node3"><a xlink:href="../../tables/bestellung_position.html" xlink:title="bestellung_position" target="_top">
<polygon fill="#ffffff" stroke="transparent" points="338,-38.2 338,-165.2 504,-165.2 504,-38.2 338,-38.2"/>
<polygon fill="#f5f5f5" stroke="transparent" points="338,-141.7 338,-164.7 504,-164.7 504,-141.7 338,-141.7"/>
<polygon fill="none" stroke="#000000" points="338,-141.7 338,-164.7 504,-164.7 504,-141.7 338,-141.7"/>
<text text-anchor="start" x="343" y="-150.3" font-family="Helvetica,sans-Serif" font-weight="bold" font-size="11.00" fill="#000000">bestellung_position</text>
<text text-anchor="start" x="469.5219" y="-149.8" font-family="Helvetica,sans-Serif" font-size="11.00" fill="#000000">[table]</text>
<polygon fill="none" stroke="#000000" points="338,-119.7 338,-141.7 504,-141.7 504,-119.7 338,-119.7"/>
<image xlink:href="../../images/primaryKeys.png" width="11px" height="12px" preserveAspectRatio="xMinYMin meet" x="343" y="-136.7"/>
<text text-anchor="start" x="367" y="-126.8" font-family="Helvetica,sans-Serif" font-size="11.00" fill="#000000">id</text>
<polygon fill="none" stroke="#000000" points="338,-97.7 338,-119.7 504,-119.7 504,-97.7 338,-97.7"/>
<image xlink:href="../../images/foreignKeys.png" width="11px" height="12px" preserveAspectRatio="xMinYMin meet" x="343" y="-114.7"/>
<text text-anchor="start" x="367" y="-104.8" font-family="Helvetica,sans-Serif" font-size="11.00" fill="#000000">bestellung_id</text>
<polygon fill="none" stroke="#000000" points="338,-75.7 338,-97.7 504,-97.7 504,-75.7 338,-75.7"/>
<image xlink:href="../../images/foreignKeys.png" width="11px" height="12px" preserveAspectRatio="xMinYMin meet" x="343" y="-92.7"/>
<text text-anchor="start" x="367" y="-82.8" font-family="Helvetica,sans-Serif" font-size="11.00" fill="#000000">produkt_id</text>
<polygon fill="none" stroke="#000000" points="338,-56.7 338,-75.7 504,-75.7 504,-56.7 338,-56.7"/>
<text text-anchor="start" x="341" y="-62.8" font-family="Helvetica,sans-Serif" font-size="11.00" fill="#000000">...</text>
<polygon fill="#ffffff" stroke="transparent" points="338,-37.7 338,-56.7 504,-56.7 504,-37.7 338,-37.7"/>
<polygon fill="none" stroke="#000000" points="338,-37.7 338,-56.7 504,-56.7 504,-37.7 338,-37.7"/>
<polygon fill="#ffffff" stroke="transparent" points="339,-38.7 339,-55.7 400,-55.7 400,-38.7 339,-38.7"/>
<text text-anchor="start" x="341" y="-43.8" font-family="Helvetica,sans-Serif" font-size="11.00" fill="#000000">&lt; 2</text>
<polygon fill="#ffffff" stroke="transparent" points="400,-38.7 400,-55.7 452,-55.7 452,-38.7 400,-38.7"/>
<text text-anchor="start" x="422.9431" y="-43.8" font-family="Helvetica,sans-Serif" font-size="11.00" fill="#000000"> &#160;</text>
<polygon fill="#ffffff" stroke="transparent" points="452,-38.7 452,-55.7 503,-55.7 503,-38.7 452,-38.7"/>
<text text-anchor="start" x="494.8862" y="-43.8" font-family="Helvetica,sans-Serif" font-size="11.00" fill="#000000"> &#160;</text>
<polygon fill="#000000" stroke="#000000" points="400,-38.7 400,-55.7 400,-55.7 400,-38.7 400,-38.7"/>
<polygon fill="#000000" stroke="#000000" points="452,-38.7 452,-55.7 452,-55.7 452,-38.7 452,-38.7"/>
</a>
</g>
</g>
<!-- bestellung_position&#45;&gt;bestellung -->
<g id="edge2" class="edge">
<title>bestellung_position:w&#45;&gt;bestellung:e</title>
<path fill="none" stroke="#000000" d="M324.037,-112.2678C294.0826,-131.6786 338.276,-223.7 288.5,-223.7"/>
<polygon fill="#000000" stroke="#000000" points="330.249,-110.6806 338.8913,-112.1879 334.1245,-109.6903 338,-108.7 338,-108.7 338,-108.7 334.1245,-109.6903 337.1087,-105.2121 330.249,-110.6806 330.249,-110.6806"/>
<ellipse fill="none" stroke="#000000" cx="327.1486" cy="-111.4728" rx="3.2" ry="3.2"/>
</g>
<!-- produkt -->
<g id="node5" class="node">
<title>produkt</title>
<g id="a_node5"><a xlink:href="../../tables/produkt.html" xlink:title="produkt" target="_top">
<polygon fill="#ffffff" stroke="transparent" points="180,-38.2 180,-121.2 289,-121.2 289,-38.2 180,-38.2"/>
<polygon fill="#f5f5f5" stroke="transparent" points="180.5,-97.7 180.5,-120.7 289.5,-120.7 289.5,-97.7 180.5,-97.7"/>
<polygon fill="none" stroke="#000000" points="180.5,-97.7 180.5,-120.7 289.5,-120.7 289.5,-97.7 180.5,-97.7"/>
<text text-anchor="start" x="185.5" y="-106.3" font-family="Helvetica,sans-Serif" font-weight="bold" font-size="11.00" fill="#000000">produkt</text>
<text text-anchor="start" x="254.5437" y="-105.8" font-family="Helvetica,sans-Serif" font-size="11.00" fill="#000000">[table]</text>
<polygon fill="none" stroke="#000000" points="180.5,-75.7 180.5,-97.7 289.5,-97.7 289.5,-75.7 180.5,-75.7"/>
<image xlink:href="../../images/primaryKeys.png" width="11px" height="12px" preserveAspectRatio="xMinYMin meet" x="185.5" y="-92.7"/>
<text text-anchor="start" x="200.5" y="-82.8" font-family="Helvetica,sans-Serif" font-size="11.00" fill="#000000">id</text>
<polygon fill="none" stroke="#000000" points="180.5,-56.7 180.5,-75.7 289.5,-75.7 289.5,-56.7 180.5,-56.7"/>
<text text-anchor="start" x="183.5" y="-62.8" font-family="Helvetica,sans-Serif" font-size="11.00" fill="#000000">...</text>
<polygon fill="#ffffff" stroke="transparent" points="180.5,-37.7 180.5,-56.7 289.5,-56.7 289.5,-37.7 180.5,-37.7"/>
<polygon fill="none" stroke="#000000" points="180.5,-37.7 180.5,-56.7 289.5,-56.7 289.5,-37.7 180.5,-37.7"/>
<polygon fill="#ffffff" stroke="transparent" points="181.5,-38.7 181.5,-55.7 214.5,-55.7 214.5,-38.7 181.5,-38.7"/>
<text text-anchor="start" x="183.5" y="-43.8" font-family="Helvetica,sans-Serif" font-size="11.00" fill="#000000"> &#160;</text>
<polygon fill="#ffffff" stroke="transparent" points="214.5,-38.7 214.5,-55.7 247.5,-55.7 247.5,-38.7 214.5,-38.7"/>
<text text-anchor="start" x="227.9431" y="-43.8" font-family="Helvetica,sans-Serif" font-size="11.00" fill="#000000"> &#160;</text>
<polygon fill="#ffffff" stroke="transparent" points="247.5,-38.7 247.5,-55.7 288.5,-55.7 288.5,-38.7 247.5,-38.7"/>
<text text-anchor="start" x="270.9053" y="-43.8" font-family="Helvetica,sans-Serif" font-size="11.00" fill="#000000">1 &gt;</text>
<polygon fill="#000000" stroke="#000000" points="214.5,-38.7 214.5,-55.7 214.5,-55.7 214.5,-38.7 214.5,-38.7"/>
<polygon fill="#000000" stroke="#000000" points="247.5,-38.7 247.5,-55.7 247.5,-55.7 247.5,-38.7 247.5,-38.7"/>
</a>
</g>
</g>
<!-- bestellung_position&#45;&gt;produkt -->
<g id="edge3" class="edge">
<title>bestellung_position:w&#45;&gt;produkt:e</title>
<path fill="none" stroke="#000000" d="M323.2829,-86.7C312.2886,-86.7 305.1615,-86.7 289.5,-86.7"/>
<polygon fill="#000000" stroke="#000000" points="330,-86.7001 338,-90.3 334,-86.7 338,-86.7 338,-86.7 338,-86.7 334,-86.7 338,-83.1 330,-86.7001 330,-86.7001"/>
<ellipse fill="none" stroke="#000000" cx="326.8" cy="-86.7001" rx="3.2" ry="3.2"/>
</g>
</g>
</svg>
