<?xml version="1.0" encoding="UTF-8" standalone="no"?>
<!DOCTYPE svg PUBLIC "-//W3C//DTD SVG 1.1//EN"
 "http://www.w3.org/Graphics/SVG/1.1/DTD/svg11.dtd">
<!-- Generated by graphviz version 2.40.1 (20161225.0304)
 -->
<!-- Title: compactRelationshipsDiagram Pages: 1 -->
<svg width="477pt" height="325pt"
 viewBox="0.00 0.00 477.00 325.20" xmlns="http://www.w3.org/2000/svg" xmlns:xlink="http://www.w3.org/1999/xlink">
<g id="graph0" class="graph" transform="scale(1 1) rotate(0) translate(4 321.2)">
<title>compactRelationshipsDiagram</title>
<polygon fill="#ffffff" stroke="transparent" points="-4,4 -4,-321.2 473,-321.2 473,4 -4,4"/>
<text text-anchor="middle" x="72.4936" y="-7.3" font-family="Helvetica,sans-Serif" font-size="11.00" fill="#000000">Generated by SchemaSpy</text>
<!-- bestellung -->
<g id="node1" class="node">
<title>bestellung</title>
<g id="a_node1"><a xlink:href="../../tables/bestellung.html" xlink:title="bestellung" target="_top">
<polygon fill="#ffffff" stroke="transparent" points="138,-153.2 138,-258.2 245,-258.2 245,-153.2 138,-153.2"/>
<polygon fill="#f5f5f5" stroke="transparent" points="138.5,-234.7 138.5,-257.7 245.5,-257.7 245.5,-234.7 138.5,-234.7"/>
<polygon fill="none" stroke="#000000" points="138.5,-234.7 138.5,-257.7 245.5,-257.7 245.5,-234.7 138.5,-234.7"/>
<text text-anchor="start" x="143.5" y="-243.3" font-family="Helvetica,sans-Serif" font-weight="bold" font-size="11.00" fill="#000000">bestellung</text>
<text text-anchor="start" x="211.0219" y="-242.8" font-family="Helvetica,sans-Serif" font-size="11.00" fill="#000000">[table]</text>
<polygon fill="none" stroke="#000000" points="138.5,-212.7 138.5,-234.7 245.5,-234.7 245.5,-212.7 138.5,-212.7"/>
<image xlink:href="../../images/primaryKeys.png" width="11px" height="12px" preserveAspectRatio="xMinYMin meet" x="143.5" y="-229.7"/>
<text text-anchor="start" x="158.5" y="-219.8" font-family="Helvetica,sans-Serif" font-size="11.00" fill="#000000">id</text>
<polygon fill="none" stroke="#000000" points="138.5,-190.7 138.5,-212.7 245.5,-212.7 245.5,-190.7 138.5,-190.7"/>
<image xlink:href="../../images/foreignKeys.png" width="11px" height="12px" preserveAspectRatio="xMinYMin meet" x="143.5" y="-207.7"/>
<text text-anchor="start" x="158.5" y="-197.8" font-family="Helvetica,sans-Serif" font-size="11.00" fill="#000000">kunde_id</text>
<polygon fill="none" stroke="#000000" points="138.5,-171.7 138.5,-190.7 245.5,-190.7 245.5,-171.7 138.5,-171.7"/>
<text text-anchor="start" x="141.5" y="-177.8" font-family="Helvetica,sans-Serif" font-size="11.00" fill="#000000">...</text>
<polygon fill="#ffffff" stroke="transparent" points="138.5,-152.7 138.5,-171.7 245.5,-171.7 245.5,-152.7 138.5,-152.7"/>
<polygon fill="none" stroke="#000000" points="138.5,-152.7 138.5,-171.7 245.5,-171.7 245.5,-152.7 138.5,-152.7"/>
<polygon fill="#ffffff" stroke="transparent" points="139.5,-153.7 139.5,-170.7 177.5,-170.7 177.5,-153.7 139.5,-153.7"/>
<text text-anchor="start" x="141.5" y="-158.8" font-family="Helvetica,sans-Serif" font-size="11.00" fill="#000000">&lt; 1</text>
<polygon fill="#ffffff" stroke="transparent" points="177.5,-153.7 177.5,-170.7 206.5,-170.7 206.5,-153.7 177.5,-153.7"/>
<text text-anchor="start" x="188.9431" y="-158.8" font-family="Helvetica,sans-Serif" font-size="11.00" fill="#000000"> &#160;</text>
<polygon fill="#ffffff" stroke="transparent" points="206.5,-153.7 206.5,-170.7 244.5,-170.7 244.5,-153.7 206.5,-153.7"/>
<text text-anchor="start" x="226.9053" y="-158.8" font-family="Helvetica,sans-Serif" font-size="11.00" fill="#000000">2 &gt;</text>
<polygon fill="#000000" stroke="#000000" points="177.5,-153.7 177.5,-170.7 177.5,-170.7 177.5,-153.7 177.5,-153.7"/>
<polygon fill="#000000" stroke="#000000" points="206.5,-153.7 206.5,-170.7 206.5,-170.7 206.5,-153.7 206.5,-153.7"/>
</a>
</g>
</g>
<!-- kunde -->
<g id="node4" class="node">
<title>kunde</title>
<g id="a_node4"><a xlink:href="../../tables/kunde.html" xlink:title="kunde" target="_top">
<polygon fill="#ffffff" stroke="transparent" points="8,-131.2 8,-236.2 88,-236.2 88,-131.2 8,-131.2"/>
<polygon fill="#f5f5f5" stroke="transparent" points="8,-212.7 8,-235.7 88,-235.7 88,-212.7 8,-212.7"/>
<polygon fill="none" stroke="#000000" points="8,-212.7 8,-235.7 88,-235.7 88,-212.7 8,-212.7"/>
<text text-anchor="start" x="13" y="-221.3" font-family="Helvetica,sans-Serif" font-weight="bold" font-size="11.00" fill="#000000">kunde</text>
<text text-anchor="start" x="53.5219" y="-220.8" font-family="Helvetica,sans-Serif" font-size="11.00" fill="#000000">[table]</text>
<polygon fill="none" stroke="#000000" points="8,-190.7 8,-212.7 88,-212.7 88,-190.7 8,-190.7"/>
<image xlink:href="../../images/primaryKeys.png" width="11px" height="12px" preserveAspectRatio="xMinYMin meet" x="13" y="-207.7"/>
<text text-anchor="start" x="33" y="-197.8" font-family="Helvetica,sans-Serif" font-size="11.00" fill="#000000">id</text>
<polygon fill="#ffffff" stroke="transparent" points="8,-168.7 8,-190.7 88,-190.7 88,-168.7 8,-168.7"/>
<polygon fill="none" stroke="#000000" points="8,-168.7 8,-190.7 88,-190.7 88,-168.7 8,-168.7"/>
<text text-anchor="start" x="33" y="-175.8" font-family="Helvetica,sans-Serif" font-size="11.00" fill="#000000">email</text>
<polygon fill="none" stroke="#000000" points="8,-149.7 8,-168.7 88,-168.7 88,-149.7 8,-149.7"/>
<text text-anchor="start" x="11" y="-155.8" font-family="Helvetica,sans-Serif" font-size="11.00" fill="#000000">...</text>
<polygon fill="#ffffff" stroke="transparent" points="8,-130.7 8,-149.7 88,-149.7 88,-130.7 8,-130.7"/>
<polygon fill="none" stroke="#000000" points="8,-130.7 8,-149.7 88,-149.7 88,-130.7 8,-130.7"/>
<polygon fill="#ffffff" stroke="transparent" points="9,-131.7 9,-148.7 32,-148.7 32,-131.7 9,-131.7"/>
<text text-anchor="start" x="11" y="-136.8" font-family="Helvetica,sans-Serif" font-size="11.00" fill="#000000"> &#160;</text>
<polygon fill="#ffffff" stroke="transparent" points="32,-131.7 32,-148.7 55,-148.7 55,-131.7 32,-131.7"/>
<text text-anchor="start" x="40.4431" y="-136.8" font-family="Helvetica,sans-Serif" font-size="11.00" fill="#000000"> &#160;</text>
<polygon fill="#ffffff" stroke="transparent" points="55,-131.7 55,-148.7 87,-148.7 87,-131.7 55,-131.7"/>
<text text-anchor="start" x="69.4053" y="-136.8" font-family="Helvetica,sans-Serif" font-size="11.00" fill="#000000">1 &gt;</text>
<polygon fill="#000000" stroke="#000000" points="32,-131.7 32,-148.7 32,-148.7 32,-131.7 32,-131.7"/>
<polygon fill="#000000" stroke="#000000" points="55,-131.7 55,-148.7 55,-148.7 55,-131.7 55,-131.7"/>
</a>
</g>
</g>
<!-- bestellung&#45;&gt;kunde -->
<g id="edge1" class="edge">
<title>bestellung:w&#45;&gt;kunde:e</title>
<path fill="none" stroke="#000000" d="M123.9203,-201.7C112.0435,-201.7 104.658,-201.7 88,-201.7"/>
<polygon fill="#000000" stroke="#000000" points="130.5,-201.7001 138.5,-205.3 134.5,-201.7 138.5,-201.7 138.5,-201.7 138.5,-201.7 134.5,-201.7 138.5,-198.1 130.5,-201.7001 130.5,-201.7001"/>
<ellipse fill="none" stroke="#000000" cx="127.3" cy="-201.7001" rx="3.2" ry="3.2"/>
</g>
<!-- rechnung -->
<g id="node2" class="node">
<title>rechnung</title>
<g id="a_node2"><a xlink:href="../../tables/rechnung.html" xlink:title="rechnung" target="_top">
<polygon fill="#ffffff" stroke="transparent" points="305,-186.2 305,-313.2 451,-313.2 451,-186.2 305,-186.2"/>
<polygon fill="#f5f5f5" stroke="transparent" points="305,-289.7 305,-312.7 451,-312.7 451,-289.7 305,-289.7"/>
<polygon fill="none" stroke="#000000" points="305,-289.7 305,-312.7 451,-312.7 451,-289.7 305,-289.7"/>
<text text-anchor="start" x="310" y="-298.3" font-family="Helvetica,sans-Serif" font-weight="bold" font-size="11.00" fill="#000000">rechnung</text>
<text text-anchor="start" x="416.0437" y="-297.8" font-family="Helvetica,sans-Serif" font-size="11.00" fill="#000000">[table]</text>
<polygon fill="none" stroke="#000000" points="305,-267.7 305,-289.7 451,-289.7 451,-267.7 305,-267.7"/>
<image xlink:href="../../images/primaryKeys.png" width="11px" height="12px" preserveAspectRatio="xMinYMin meet" x="310" y="-284.7"/>
<text text-anchor="start" x="325" y="-274.8" font-family="Helvetica,sans-Serif" font-size="11.00" fill="#000000">id</text>
<polygon fill="#ffffff" stroke="transparent" points="305,-245.7 305,-267.7 451,-267.7 451,-245.7 305,-245.7"/>
<polygon fill="none" stroke="#000000" points="305,-245.7 305,-267.7 451,-267.7 451,-245.7 305,-245.7"/>
<text text-anchor="start" x="325" y="-252.8" font-family="Helvetica,sans-Serif" font-size="11.00" fill="#000000">rechnungsnummer</text>
<polygon fill="#ffffff" stroke="transparent" points="305,-223.7 305,-245.7 451,-245.7 451,-223.7 305,-223.7"/>
<polygon fill="none" stroke="#000000" points="305,-223.7 305,-245.7 451,-245.7 451,-223.7 305,-223.7"/>
<image xlink:href="../../images/foreignKeys.png" width="11px" height="12px" preserveAspectRatio="xMinYMin meet" x="310" y="-240.7"/>
<text text-anchor="start" x="325" y="-230.8" font-family="Helvetica,sans-Serif" font-size="11.00" fill="#000000">bestellung_id</text>
<polygon fill="none" stroke="#000000" points="305,-204.7 305,-223.7 451,-223.7 451,-204.7 305,-204.7"/>
<text text-anchor="start" x="308" y="-210.8" font-family="Helvetica,sans-Serif" font-size="11.00" fill="#000000">...</text>
<polygon fill="#ffffff" stroke="transparent" points="305,-185.7 305,-204.7 451,-204.7 451,-185.7 305,-185.7"/>
<polygon fill="none" stroke="#000000" points="305,-185.7 305,-204.7 451,-204.7 451,-185.7 305,-185.7"/>
<polygon fill="#ffffff" stroke="transparent" points="306,-186.7 306,-203.7 360,-203.7 360,-186.7 306,-186.7"/>
<text text-anchor="start" x="308" y="-191.8" font-family="Helvetica,sans-Serif" font-size="11.00" fill="#000000">&lt; 1</text>
<polygon fill="#ffffff" stroke="transparent" points="360,-186.7 360,-203.7 405,-203.7 405,-186.7 360,-186.7"/>
<text text-anchor="start" x="379.4431" y="-191.8" font-family="Helvetica,sans-Serif" font-size="11.00" fill="#000000"> &#160;</text>
<polygon fill="#ffffff" stroke="transparent" points="405,-186.7 405,-203.7 450,-203.7 450,-186.7 405,-186.7"/>
<text text-anchor="start" x="441.8862" y="-191.8" font-family="Helvetica,sans-Serif" font-size="11.00" fill="#000000"> &#160;</text>
<polygon fill="#000000" stroke="#000000" points="360,-186.7 360,-203.7 360,-203.7 360,-186.7 360,-186.7"/>
<polygon fill="#000000" stroke="#000000" points="405,-186.7 405,-203.7 405,-203.7 405,-186.7 405,-186.7"/>
</a>
</g>
</g>
<!-- rechnung&#45;&gt;bestellung -->
<g id="edge4" class="edge">
<title>rechnung:w&#45;&gt;bestellung:e</title>
<path fill="none" stroke="#000000" d="M294.5388,-234.0771C276.0131,-231.7501 268.5057,-223.7 245.5,-223.7"/>
<polygon fill="#000000" stroke="#000000" points="304.4392,-230.6595 303.9636,-238.6454 302.3664,-238.5502 302.842,-230.5644 304.4392,-230.6595"/>
<polyline fill="none" stroke="#000000" points="305,-234.7 301.0071,-234.4622 "/>
<ellipse fill="none" stroke="#000000" cx="297.8127" cy="-234.272" rx="3.2" ry="3.2"/>
</g>
<!-- bestellung_position -->
<g id="node3" class="node">
<title>bestellung_position</title>
<g id="a_node3"><a xlink:href="../../tables/bestellung_position.html" xlink:title="bestellung_position" target="_top">
<polygon fill="#ffffff" stroke="transparent" points="295,-38.2 295,-165.2 461,-165.2 461,-38.2 295,-38.2"/>
<polygon fill="#f5f5f5" stroke="transparent" points="295,-141.7 295,-164.7 461,-164.7 461,-141.7 295,-141.7"/>
<polygon fill="none" stroke="#000000" points="295,-141.7 295,-164.7 461,-164.7 461,-141.7 295,-141.7"/>
<text text-anchor="start" x="300" y="-150.3" font-family="Helvetica,sans-Serif" font-weight="bold" font-size="11.00" fill="#000000">bestellung_position</text>
<text text-anchor="start" x="426.5219" y="-149.8" font-family="Helvetica,sans-Serif" font-size="11.00" fill="#000000">[table]</text>
<polygon fill="none" stroke="#000000" points="295,-119.7 295,-141.7 461,-141.7 461,-119.7 295,-119.7"/>
<image xlink:href="../../images/primaryKeys.png" width="11px" height="12px" preserveAspectRatio="xMinYMin meet" x="300" y="-136.7"/>
<text text-anchor="start" x="324" y="-126.8" font-family="Helvetica,sans-Serif" font-size="11.00" fill="#000000">id</text>
<polygon fill="none" stroke="#000000" points="295,-97.7 295,-119.7 461,-119.7 461,-97.7 295,-97.7"/>
<image xlink:href="../../images/foreignKeys.png" width="11px" height="12px" preserveAspectRatio="xMinYMin meet" x="300" y="-114.7"/>
<text text-anchor="start" x="324" y="-104.8" font-family="Helvetica,sans-Serif" font-size="11.00" fill="#000000">bestellung_id</text>
<polygon fill="none" stroke="#000000" points="295,-75.7 295,-97.7 461,-97.7 461,-75.7 295,-75.7"/>
<image xlink:href="../../images/foreignKeys.png" width="11px" height="12px" preserveAspectRatio="xMinYMin meet" x="300" y="-92.7"/>
<text text-anchor="start" x="324" y="-82.8" font-family="Helvetica,sans-Serif" font-size="11.00" fill="#000000">produkt_id</text>
<polygon fill="none" stroke="#000000" points="295,-56.7 295,-75.7 461,-75.7 461,-56.7 295,-56.7"/>
<text text-anchor="start" x="298" y="-62.8" font-family="Helvetica,sans-Serif" font-size="11.00" fill="#000000">...</text>
<polygon fill="#ffffff" stroke="transparent" points="295,-37.7 295,-56.7 461,-56.7 461,-37.7 295,-37.7"/>
<polygon fill="none" stroke="#000000" points="295,-37.7 295,-56.7 461,-56.7 461,-37.7 295,-37.7"/>
<polygon fill="#ffffff" stroke="transparent" points="296,-38.7 296,-55.7 357,-55.7 357,-38.7 296,-38.7"/>
<text text-anchor="start" x="298" y="-43.8" font-family="Helvetica,sans-Serif" font-size="11.00" fill="#000000">&lt; 2</text>
<polygon fill="#ffffff" stroke="transparent" points="357,-38.7 357,-55.7 409,-55.7 409,-38.7 357,-38.7"/>
<text text-anchor="start" x="379.9431" y="-43.8" font-family="Helvetica,sans-Serif" font-size="11.00" fill="#000000"> &#160;</text>
<polygon fill="#ffffff" stroke="transparent" points="409,-38.7 409,-55.7 460,-55.7 460,-38.7 409,-38.7"/>
<text text-anchor="start" x="451.8862" y="-43.8" font-family="Helvetica,sans-Serif" font-size="11.00" fill="#000000"> &#160;</text>
<polygon fill="#000000" stroke="#000000" points="357,-38.7 357,-55.7 357,-55.7 357,-38.7 357,-38.7"/>
<polygon fill="#000000" stroke="#000000" points="409,-38.7 409,-55.7 409,-55.7 409,-38.7 409,-38.7"/>
</a>
</g>
</g>
<!-- bestellung_position&#45;&gt;bestellung -->
<g id="edge2" class="edge">
<title>bestellung_position:w&#45;&gt;bestellung:e</title>
<path fill="none" stroke="#000000" d="M281.037,-112.2678C251.0826,-131.6786 295.276,-223.7 245.5,-223.7"/>
<polygon fill="#000000" stroke="#000000" points="287.249,-110.6806 295.8913,-112.1879 291.1245,-109.6903 295,-108.7 295,-108.7 295,-108.7 291.1245,-109.6903 294.1087,-105.2121 287.249,-110.6806 287.249,-110.6806"/>
<ellipse fill="none" stroke="#000000" cx="284.1486" cy="-111.4728" rx="3.2" ry="3.2"/>
</g>
<!-- produkt -->
<g id="node5" class="node">
<title>produkt</title>
<g id="a_node5"><a xlink:href="../../tables/produkt.html" xlink:title="produkt" target="_top">
<polygon fill="#ffffff" stroke="transparent" points="137,-38.2 137,-121.2 246,-121.2 246,-38.2 137,-38.2"/>
<polygon fill="#f5f5f5" stroke="transparent" points="137.5,-97.7 137.5,-120.7 246.5,-120.7 246.5,-97.7 137.5,-97.7"/>
<polygon fill="none" stroke="#000000" points="137.5,-97.7 137.5,-120.7 246.5,-120.7 246.5,-97.7 137.5,-97.7"/>
<text text-anchor="start" x="142.5" y="-106.3" font-family="Helvetica,sans-Serif" font-weight="bold" font-size="11.00" fill="#000000">produkt</text>
<text text-anchor="start" x="211.5437" y="-105.8" font-family="Helvetica,sans-Serif" font-size="11.00" fill="#000000">[table]</text>
<polygon fill="none" stroke="#000000" points="137.5,-75.7 137.5,-97.7 246.5,-97.7 246.5,-75.7 137.5,-75.7"/>
<image xlink:href="../../images/primaryKeys.png" width="11px" height="12px" preserveAspectRatio="xMinYMin meet" x="142.5" y="-92.7"/>
<text text-anchor="start" x="157.5" y="-82.8" font-family="Helvetica,sans-Serif" font-size="11.00" fill="#000000">id</text>
<polygon fill="none" stroke="#000000" points="137.5,-56.7 137.5,-75.7 246.5,-75.7 246.5,-56.7 137.5,-56.7"/>
<text text-anchor="start" x="140.5" y="-62.8" font-family="Helvetica,sans-Serif" font-size="11.00" fill="#000000">...</text>
<polygon fill="#ffffff" stroke="transparent" points="137.5,-37.7 137.5,-56.7 246.5,-56.7 246.5,-37.7 137.5,-37.7"/>
<polygon fill="none" stroke="#000000" points="137.5,-37.7 137.5,-56.7 246.5,-56.7 246.5,-37.7 137.5,-37.7"/>
<polygon fill="#ffffff" stroke="transparent" points="138.5,-38.7 138.5,-55.7 171.5,-55.7 171.5,-38.7 138.5,-38.7"/>
<text text-anchor="start" x="140.5" y="-43.8" font-family="Helvetica,sans-Serif" font-size="11.00" fill="#000000"> &#160;</text>
<polygon fill="#ffffff" stroke="transparent" points="171.5,-38.7 171.5,-55.7 204.5,-55.7 204.5,-38.7 171.5,-38.7"/>
<text text-anchor="start" x="184.9431" y="-43.8" font-family="Helvetica,sans-Serif" font-size="11.00" fill="#000000"> &#160;</text>
<polygon fill="#ffffff" stroke="transparent" points="204.5,-38.7 204.5,-55.7 245.5,-55.7 245.5,-38.7 204.5,-38.7"/>
<text text-anchor="start" x="227.9053" y="-43.8" font-family="Helvetica,sans-Serif" font-size="11.00" fill="#000000">1 &gt;</text>
<polygon fill="#000000" stroke="#000000" points="171.5,-38.7 171.5,-55.7 171.5,-55.7 171.5,-38.7 171.5,-38.7"/>
<polygon fill="#000000" stroke="#000000" points="204.5,-38.7 204.5,-55.7 204.5,-55.7 204.5,-38.7 204.5,-38.7"/>
</a>
</g>
</g>
<!-- bestellung_position&#45;&gt;produkt -->
<g id="edge3" class="edge">
<title>bestellung_position:w&#45;&gt;produkt:e</title>
<path fill="none" stroke="#000000" d="M280.2829,-86.7C269.2886,-86.7 262.1615,-86.7 246.5,-86.7"/>
<polygon fill="#000000" stroke="#000000" points="287,-86.7001 295,-90.3 291,-86.7 295,-86.7 295,-86.7 295,-86.7 291,-86.7 295,-83.1 287,-86.7001 287,-86.7001"/>
<ellipse fill="none" stroke="#000000" cx="283.8" cy="-86.7001" rx="3.2" ry="3.2"/>
</g>
</g>
</svg>
